<svg width="17" height="17" viewBox="0 0 17 17" fill="none" xmlns="http://www.w3.org/2000/svg">
<path d="M8.00354 11.9714C7.66359 11.9714 7.3877 11.6954 7.3877 11.3554V6.49051C7.3877 6.15048 7.66359 5.87451 8.00354 5.87451C8.34349 5.87451 8.61939 6.15048 8.61939 6.49051V11.3554C8.61939 11.6957 8.3438 11.9714 8.00354 11.9714Z" fill="black"/>
<path d="M8.00354 5.25877C7.84034 5.25877 7.6833 5.19409 7.56937 5.07705C7.45236 4.96309 7.3877 4.80601 7.3877 4.64277C7.3877 4.47953 7.45236 4.32245 7.56937 4.20849C7.79723 3.97749 8.20985 3.97749 8.43771 4.20541C8.55472 4.32245 8.61939 4.47953 8.61939 4.64277C8.61939 4.80293 8.55472 4.96309 8.43771 5.07705C8.32378 5.19409 8.16674 5.25877 8.00354 5.25877Z" fill="black"/>
<path fill-rule="evenodd" clip-rule="evenodd" d="M5.91865 15.7326C6.58777 15.9128 7.28213 16.004 7.98266 16.004C9.76954 16.004 11.5207 15.4077 12.9131 14.3248C14.8518 12.8174 16.0093 10.4526 16.0093 7.99907C16.0093 4.99207 14.2711 2.17941 11.5807 0.83314C10.4913 0.288288 9.26054 0 8.02115 0C6.23088 0 4.48095 0.59444 3.09345 1.67336C0.693191 3.53954 -0.455363 6.66882 0.16695 9.64564C0.777561 12.5676 3.03525 14.9568 5.91865 15.7326ZM3.84971 2.64603C5.02198 1.73404 6.5037 1.232 8.02146 1.232C9.07055 1.232 10.1107 1.47532 11.0302 1.93516C13.307 3.07446 14.7779 5.45468 14.7779 7.99907C14.7779 10.0753 13.7984 12.0764 12.1575 13.3521C10.9797 14.2678 9.49733 14.772 7.98297 14.772H7.98266C7.39052 14.772 6.80362 14.6947 6.23889 14.5428C3.79952 13.8865 1.88947 11.8651 1.37278 9.39339C0.84592 6.87395 1.81834 4.22545 3.84971 2.64603Z" fill="black"/>
</svg>
