<svg width="16" height="17" viewBox="0 0 16 17" fill="none" xmlns="http://www.w3.org/2000/svg">
<path fill-rule="evenodd" clip-rule="evenodd" d="M8 0C3.59055 0 0 3.59145 0 8.002C0 12.4125 3.59055 16.004 8 16.004C12.4094 16.004 16 12.4125 16 8.002C16 3.59145 12.4094 0 8 0ZM1.25984 8.002C1.25984 4.85161 3.43307 2.17377 6.3937 1.44918C5.38583 2.89836 4.22047 5.26116 4.31496 8.34854C4.40945 11.0894 5.44882 13.2001 6.3937 14.5548C3.43307 13.8302 1.25984 11.1524 1.25984 8.002ZM5.54331 8.31704C5.66929 11.4989 7.27559 13.7672 8.12598 14.7438C11.7795 14.6808 14.7402 11.688 14.7402 8.002C14.7402 4.31604 11.7795 1.32316 8.12598 1.26016C7.30709 2.20528 5.44882 4.75709 5.54331 8.31704Z" fill="#B8B8B8"/>
</svg>
