<svg width="16" height="17" viewBox="0 0 16 17" fill="none" xmlns="http://www.w3.org/2000/svg">
<path fill-rule="evenodd" clip-rule="evenodd" d="M0 8.002C0 12.4144 3.58875 16.004 8 16.004C12.4113 16.004 16 12.4144 16 8.002C16 3.58964 12.4113 0 8 0C3.58875 0 0 3.58964 0 8.002ZM1.14282 8.002C1.14282 4.22005 4.21899 1.14311 8 1.14311C11.781 1.14311 14.8572 4.22005 14.8572 8.002C14.8572 11.7839 11.781 14.8609 8 14.8609C4.21899 14.8609 1.14282 11.7839 1.14282 8.002Z" fill="#F13005"/>
<path d="M10.857 11.4314C10.7108 11.4314 10.5645 11.3756 10.453 11.2639L4.73874 5.54826C4.51547 5.32494 4.51547 4.96328 4.73874 4.74008C4.96188 4.51688 5.32358 4.51676 5.54672 4.74008L11.261 10.4557C11.4842 10.6791 11.4842 11.0407 11.261 11.2639C11.1494 11.3756 11.0033 11.4314 10.857 11.4314Z" fill="#F13005"/>
<path d="M5.14267 11.4314C4.99643 11.4314 4.85031 11.3756 4.73874 11.2639C4.51547 11.0407 4.51547 10.6789 4.73874 10.4557L10.453 4.74006C10.6762 4.51674 11.0378 4.51674 11.261 4.74006C11.4841 4.96326 11.4842 5.32505 11.261 5.54825L5.54672 11.2639C5.43515 11.3756 5.28891 11.4314 5.14267 11.4314Z" fill="#F13005"/>
</svg>
