<svg width="16" height="17" viewBox="0 0 16 17" fill="none" xmlns="http://www.w3.org/2000/svg">
<path d="M15.468 8.44065C15.4713 8.43735 15.4713 8.43735 15.4746 8.43405C15.4845 8.42085 15.4944 8.41095 15.501 8.39775C15.5043 8.39445 15.5043 8.39115 15.5076 8.38785C15.5142 8.37466 15.5241 8.36146 15.5307 8.34826C15.5307 8.34496 15.534 8.34166 15.534 8.34166C15.5406 8.32846 15.5472 8.31526 15.5538 8.29876C15.5538 8.29546 15.5538 8.29546 15.5571 8.29216C15.5637 8.27896 15.567 8.26247 15.5736 8.24597C15.5736 8.24267 15.5736 8.23937 15.5769 8.23937C15.5802 8.22287 15.5868 8.20967 15.5868 8.19317C15.5868 8.18657 15.5868 8.18327 15.5901 8.17667C15.5934 8.16347 15.5934 8.15028 15.5967 8.13708C15.6 8.11728 15.6 8.10078 15.6 8.08098C15.6 8.06118 15.6 8.04469 15.5967 8.02489C15.5967 8.01169 15.5934 7.99849 15.5901 7.98529C15.5901 7.97869 15.5901 7.97539 15.5868 7.96879C15.5835 7.95229 15.5802 7.93909 15.5769 7.9226C15.5769 7.9193 15.5769 7.916 15.5736 7.916C15.5703 7.8995 15.5637 7.8863 15.5571 7.8698C15.5571 7.8665 15.5571 7.8665 15.5538 7.8632C15.5472 7.85 15.5406 7.8335 15.534 7.82031C15.534 7.81701 15.5307 7.81371 15.5307 7.81371C15.5241 7.80051 15.5175 7.78731 15.5076 7.77411C15.5043 7.77081 15.5043 7.76751 15.501 7.76421C15.4911 7.75101 15.4845 7.73781 15.4746 7.72791C15.4713 7.72461 15.4713 7.72461 15.468 7.72131C15.4548 7.70812 15.4449 7.69162 15.4284 7.67842L12.1659 4.41831C11.9448 4.19723 11.5853 4.19723 11.3642 4.41831C11.1432 4.63939 11.1432 4.99906 11.3642 5.22014L13.6602 7.51673H4.53225C4.21886 7.51673 3.96484 7.77081 3.96484 8.08098C3.96484 8.39445 4.21886 8.64853 4.53225 8.64853H13.6635L11.384 10.9286C11.163 11.1497 11.163 11.5094 11.384 11.7305C11.4929 11.8393 11.638 11.8954 11.7832 11.8954C11.9283 11.8954 12.0735 11.8393 12.1824 11.7305L15.4251 8.48685C15.4416 8.46705 15.4548 8.45385 15.468 8.44065Z" fill="#B8B8B8"/>
<path d="M3.67087 1.1318H7.89343C8.20682 1.1318 8.46084 0.877721 8.46084 0.567549C8.46084 0.254077 8.20682 0 7.89343 0H3.67087C1.97854 0 0.599609 1.37928 0.599609 3.07202V13.0932C0.599609 14.786 1.97854 16.1652 3.67087 16.1652H7.82415C8.13755 16.1652 8.39156 15.9112 8.39156 15.601C8.39156 15.2875 8.13755 15.0334 7.82415 15.0334H3.67087C2.60203 15.0334 1.73112 14.1623 1.73112 13.0932V3.07202C1.73442 1.99962 2.60203 1.1318 3.67087 1.1318Z" fill="#B8B8B8"/>
</svg>
