<svg width="16" height="17" viewBox="0 0 16 17" fill="none" xmlns="http://www.w3.org/2000/svg">
<path fill-rule="evenodd" clip-rule="evenodd" d="M9.12935 0.688632L14.4517 2.9173C15.1769 3.22102 15.6237 4.06155 15.4697 4.83042L14.0844 11.7262C13.9457 12.4182 13.3396 13.2038 12.7053 13.5148L9.12761 15.2707C8.81047 15.4258 8.40377 15.5037 7.99706 15.5037C7.59036 15.5037 7.18366 15.4258 6.86652 15.2707L3.28844 13.5148C2.65521 13.2041 2.04637 12.4206 1.90209 11.7314L0.533174 5.18041C0.373909 4.4185 0.802567 3.56336 1.50863 3.23389L6.86513 0.734208C7.49452 0.440577 8.48915 0.420399 9.12935 0.688632ZM13.2295 11.5559L14.6148 4.66007C14.6869 4.30069 14.4531 3.86129 14.1147 3.72004L8.79235 1.49137C8.59579 1.40892 8.33163 1.36856 8.06398 1.36856C7.76043 1.36856 7.45235 1.4204 7.23384 1.52233L1.87735 4.02202C1.53895 4.17997 1.30929 4.6385 1.38561 5.00311L2.75453 11.5541C2.84514 11.988 3.27415 12.539 3.67214 12.7346L7.25022 14.4904C7.64786 14.6856 8.34557 14.6853 8.74251 14.4904L12.3206 12.7346H12.3209C12.7179 12.5397 13.1424 11.989 13.2295 11.5559ZM7.99671 10.0359C8.23718 10.0359 8.43234 9.84105 8.43234 9.601V8.64322C8.94116 8.46266 9.30918 7.9822 9.30918 7.41303C9.30918 6.69078 8.72056 6.10283 7.99671 6.10283C7.27287 6.10283 6.68425 6.69044 6.68425 7.41303C6.68425 7.9822 7.05192 8.463 7.56109 8.64322V9.601C7.56109 9.8414 7.75625 10.0359 7.99671 10.0359ZM7.99671 6.97259C7.75346 6.97259 7.55551 7.17015 7.55551 7.41292C7.55551 7.6557 7.75346 7.85326 7.99671 7.85326C8.23997 7.85326 8.43792 7.6557 8.43792 7.41292C8.43792 7.17015 8.23997 6.97259 7.99671 6.97259Z" fill="#B8B8B8"/>
<path d="M8.56992 12.6765C8.2327 12.8306 7.75908 12.8354 7.56092 12.736L6.99185 12.4515C6.82373 12.3675 6.61833 12.432 6.53247 12.595C6.4466 12.7583 6.51274 12.9585 6.68059 13.0425L7.24966 13.3269C7.42888 13.4164 7.66211 13.4627 7.91055 13.4671C8.22996 13.4727 8.57436 13.4085 8.86092 13.278L11.3151 12.1563C11.4855 12.0782 11.5588 11.8804 11.4785 11.7142C11.3981 11.5483 11.1948 11.4768 11.0241 11.5548L8.56992 12.6765Z" fill="#B8B8B8"/>
<path d="M8.80039 3.054L10.0386 3.5494C10.2076 3.61656 10.3954 3.52787 10.4589 3.35096C10.5228 3.17375 10.4375 2.97566 10.2688 2.90822L9.03054 2.41254C8.54795 2.21926 7.80299 2.24556 7.33505 2.47176L4.69512 3.74813C4.53152 3.82719 4.46029 4.03102 4.53629 4.20306C4.5933 4.33264 4.71709 4.40743 4.84439 4.40298C4.88638 4.40151 4.92885 4.39124 4.96944 4.37169L7.60936 3.09532C7.92192 2.94432 8.47805 2.92489 8.80039 3.054Z" fill="#B8B8B8"/>
</svg>
