<svg width="16" height="17" viewBox="0 0 16 17" fill="none" xmlns="http://www.w3.org/2000/svg">
<path fill-rule="evenodd" clip-rule="evenodd" d="M13.667 3.72313C12.9 3.83382 12.1308 3.92145 11.3592 3.98603C11.2205 3.4696 11.0417 2.96482 10.8243 2.4763C10.6258 2.02674 10.3761 1.60163 10.08 1.20941C11.5107 1.64827 12.7661 2.52805 13.667 3.72313ZM15.085 7.55245H11.8582C11.8372 6.65183 11.7396 5.75463 11.5665 4.87056C12.4486 4.79292 13.3284 4.68629 14.206 4.55066C14.7199 5.47286 15.0203 6.49866 15.085 7.55245ZM5.03994 8.45155C5.06155 9.32925 5.16083 10.2033 5.33662 11.0635C6.22371 11.0041 7.11135 10.9745 7.99953 10.9745C8.88834 10.9756 9.77619 11.0053 10.6631 11.0635C10.8387 10.2033 10.9378 9.32925 10.9592 8.45155H5.03994ZM10.6624 4.94046C10.8382 5.80065 10.9375 6.67473 10.9591 7.55244H5.03984C5.06125 6.67473 5.16035 5.80064 5.33598 4.94042C6.22285 4.99862 7.1107 5.02832 7.99953 5.02951C8.8877 5.02951 9.77534 4.99983 10.6624 4.94047V4.94046ZM15.085 8.45155H11.8579C11.8368 9.35216 11.739 10.2493 11.5656 11.1333C12.4486 11.2107 13.3287 11.3173 14.206 11.4533C14.7198 10.5311 15.0202 9.50532 15.085 8.45155ZM5.91864 1.20952C4.80854 1.55008 3.79891 2.15782 2.97825 2.97947C2.74603 3.21222 2.53012 3.4607 2.33203 3.72313C3.10007 3.83312 3.86989 3.9208 4.6415 3.98617C4.88166 3.01506 5.29728 2.09605 5.86787 1.27446C5.87777 1.26118 5.88793 1.2484 5.89809 1.23562L5.89809 1.23561C5.90497 1.22697 5.91184 1.21832 5.91864 1.20952ZM2.33203 12.2808C3.099 12.1701 3.86828 12.0825 4.63986 12.0179C4.77853 12.5344 4.95738 13.0392 5.17477 13.5277C5.37325 13.9772 5.62298 14.4024 5.91901 14.7946C4.48838 14.3557 3.23297 13.4759 2.33203 12.2808ZM10.0804 14.7945C11.1905 14.4539 12.2001 13.8462 13.0208 13.0245C13.253 12.7918 13.4689 12.5433 13.667 12.2808C12.899 12.1709 12.1292 12.0832 11.3575 12.0178C11.1174 12.9889 10.7018 13.9079 10.1312 14.7295C10.1213 14.7428 10.1111 14.7555 10.101 14.7683C10.0941 14.777 10.0872 14.7856 10.0804 14.7945Z" fill="#B8B8B8"/>
</svg>
