<svg width="16" height="17" viewBox="0 0 16 17" fill="none" xmlns="http://www.w3.org/2000/svg">
<path fill-rule="evenodd" clip-rule="evenodd" d="M14.6085 4.32984L14.609 4.34229C14.6446 6.22215 14.6889 8.56172 13.905 10.6876C13.4752 11.8534 12.8248 12.8669 11.972 13.7C11.0012 14.6483 9.72984 15.4017 8.19334 15.9392C8.14305 15.9567 8.09068 15.971 8.0377 15.9817C7.96312 15.9965 7.8878 16.004 7.8126 16.004C7.73741 16.004 7.66221 15.9965 7.58751 15.9817C7.53453 15.971 7.48253 15.9569 7.43248 15.9394C5.89415 15.4029 4.62145 14.6499 3.64977 13.7014C2.79662 12.8686 2.14623 11.8554 1.71679 10.6898C0.935785 8.57027 0.980219 6.2351 1.01599 4.35878L1.01672 4.32984C1.02368 4.17502 1.02844 4.01238 1.03112 3.83265C1.04418 2.9501 1.7456 2.22019 2.6278 2.17098C4.46739 2.06817 5.89049 1.46817 7.10643 0.282693L7.1168 0.272803C7.51353 -0.0909344 8.1118 -0.0909344 8.5084 0.272803L8.51878 0.282693C9.73472 1.46817 11.1578 2.06817 12.9974 2.17086C13.8797 2.22019 14.581 2.9501 14.5941 3.83252C14.5969 4.01348 14.6015 4.17611 14.6085 4.32984ZM7.88353 15.0525C10.5189 14.1306 12.2004 12.5964 13.0241 10.3625C13.7461 8.40459 13.7063 6.25928 13.6704 4.36599C13.6631 4.20457 13.6582 4.03436 13.6554 3.84633C13.6496 3.45439 13.3376 3.13021 12.9452 3.10835C11.904 3.05023 10.9895 2.84901 10.1491 2.49321C9.31004 2.1379 8.56468 1.63704 7.87071 0.96207C7.83555 0.932156 7.78978 0.932278 7.7545 0.96207C7.06065 1.63704 6.31529 2.1379 5.47606 2.49321C4.63573 2.84901 3.72118 3.05023 2.68017 3.10835C2.28771 3.13021 1.9757 3.45439 1.96984 3.84621C1.96716 4.03327 1.96227 4.20347 1.95495 4.36599L1.9547 4.37649C1.91869 6.26758 1.87792 8.41118 2.59777 10.3649C3.42089 12.599 5.1035 14.1323 7.74168 15.0525C7.75096 15.0557 7.76097 15.0583 7.77122 15.0604C7.79881 15.0659 7.82652 15.0659 7.85374 15.0605C7.86412 15.0585 7.87413 15.0557 7.88353 15.0525Z" fill="#B8B8B8"/>
<path fill-rule="evenodd" clip-rule="evenodd" d="M3.8252 8.00227C3.8252 5.80312 5.61389 4.01385 7.81261 4.01385C10.0112 4.01385 11.8 5.80312 11.8 8.00227C11.8 10.2015 10.0112 11.9908 7.81261 11.9908C5.61389 11.9908 3.8252 10.2015 3.8252 8.00227ZM4.76404 8.00204C4.76404 9.68348 6.13159 11.0514 7.81261 11.0514C9.49352 11.0514 10.8611 9.68348 10.8611 8.00204C10.8611 6.32059 9.49352 4.9527 7.81261 4.9527C6.13159 4.9527 4.76404 6.32059 4.76404 8.00204Z" fill="#B8B8B8"/>
<path d="M8.95883 6.76404L7.10678 8.61655L6.60409 8.11374C6.42074 7.93035 6.1235 7.93035 5.94015 8.11374C5.75693 8.29714 5.75693 8.59445 5.94015 8.77772L6.77487 9.61265C6.86654 9.70434 6.98666 9.75013 7.10678 9.75013C7.2269 9.75013 7.34701 9.70434 7.43869 9.61265L9.62277 7.42802C9.80599 7.24463 9.80599 6.94731 9.62277 6.76404C9.43942 6.58052 9.14218 6.58052 8.95883 6.76404Z" fill="#B8B8B8"/>
</svg>
