<svg width="16" height="17" viewBox="0 0 16 17" fill="none" xmlns="http://www.w3.org/2000/svg">
<path d="M8.00038 8.89862C6.5964 8.89862 5.18922 9.22303 4.07062 9.86757C2.95149 10.5126 2.29004 11.4405 2.29004 12.4393C2.29004 13.1602 2.63837 13.841 3.24968 14.4076H4.10316L4.25092 13.8543C3.61294 13.3928 3.35689 12.8907 3.35689 12.4393C3.35689 11.9116 3.70309 11.3135 4.60618 10.7928C6.4113 9.75232 9.5852 9.75232 11.3908 10.7928C12.0576 11.1775 12.558 10.232 11.9264 9.86757C10.8067 9.22303 9.40436 8.89862 8.00038 8.89862Z" fill="#B8B8B8"/>
<path fill-rule="evenodd" clip-rule="evenodd" d="M5.19922 5.22773C5.19922 3.68894 6.46078 2.43134 7.99918 2.43134C9.53759 2.43134 10.7949 3.68894 10.7949 5.22773C10.7949 6.76652 9.53759 8.02412 7.99918 8.02412C6.46078 8.02412 5.19922 6.76652 5.19922 5.22773ZM9.72749 5.22773C9.72749 4.26572 8.96095 3.49846 7.99918 3.49846C7.03741 3.49846 6.26661 4.26625 6.26661 5.22773C6.26661 6.18921 7.03794 6.95647 7.99918 6.95647C8.96042 6.95647 9.72749 6.18974 9.72749 5.22773Z" fill="#B8B8B8"/>
<path d="M14.9162 10.0746C14.7807 10.08 14.6532 10.136 14.5577 10.232L12.2026 12.5834L11.2734 11.654C11.0659 11.4448 10.7282 11.4443 10.5191 11.6524C10.5186 11.6529 10.5181 11.6534 10.5175 11.654C10.3106 11.8621 10.3106 12.1982 10.5175 12.4063L11.8287 13.7178C12.0373 13.9248 12.3733 13.9248 12.5808 13.7178L15.3093 10.9844C15.5168 10.7757 15.5168 10.4401 15.3093 10.232C15.2058 10.1275 15.0634 10.0709 14.9162 10.0746Z" fill="#B8B8B8"/>
<path d="M5.79599 0.310976C4.13329 0.787446 2.62529 1.80228 1.54723 3.27277C-0.608881 6.21429 -0.501662 10.2491 1.80701 13.0722C4.11569 15.8952 8.04652 16.8001 11.3559 15.2699C11.6232 15.1466 11.74 14.8292 11.6162 14.5619C11.6157 14.5613 11.6157 14.5613 11.6157 14.5613C11.4925 14.2935 11.1751 14.1766 10.9078 14.3009C10.9073 14.3009 10.9073 14.3009 10.9073 14.3015C8.03425 15.6295 4.63365 14.8457 2.63009 12.3951C0.626538 9.94442 0.534255 6.45653 2.40552 3.90344C4.27678 1.35035 7.63311 0.389409 10.5723 1.56378C13.5115 2.73761 15.2782 5.74529 14.876 8.88583C14.8381 9.17823 15.0435 9.44607 15.3358 9.48396C15.3374 9.48396 15.339 9.48449 15.3406 9.48449C15.6329 9.52024 15.8991 9.31268 15.9348 9.01976C16.3984 5.40222 14.3516 1.92393 10.966 0.571353C9.27287 -0.105735 7.45815 -0.166028 5.79599 0.310976Z" fill="#B8B8B8"/>
</svg>
