<svg width="25" height="24" viewBox="0 0 25 24" fill="none" xmlns="http://www.w3.org/2000/svg">
<path fill-rule="evenodd" clip-rule="evenodd" d="M21.3622 8.30374C21.3622 5.13153 19.3324 3 16.3113 3H8.50504C5.48397 3 3.4541 5.13153 3.4541 8.30374V15.6963C3.4541 18.8685 5.48397 21 8.50504 21H16.3113C19.3324 21 21.3622 18.8685 21.3622 15.6963V8.30374ZM8.5526 9.86722C8.89743 9.86722 9.1773 10.1485 9.1773 10.4951V16.2384C9.1773 16.585 8.89743 16.8663 8.5526 16.8663C8.20776 16.8663 7.9279 16.585 7.9279 16.2384V10.4951C7.9279 10.1485 8.20776 9.86722 8.5526 9.86722ZM12.4399 7.11783C12.7847 7.11783 13.0646 7.39913 13.0646 7.74574V16.2375C13.0646 16.5841 12.7847 16.8654 12.4399 16.8654C12.0951 16.8654 11.8152 16.5841 11.8152 16.2375V7.74574C11.8152 7.39913 12.0951 7.11783 12.4399 7.11783ZM16.2633 12.9021C16.6082 12.9021 16.888 13.1834 16.888 13.53V16.2375C16.888 16.5841 16.6082 16.8654 16.2633 16.8654C15.9185 16.8654 15.6386 16.5841 15.6386 16.2375V13.53C15.6386 13.1834 15.9185 12.9021 16.2633 12.9021Z" fill="white"/>
</svg>
