<svg width="25" height="24" viewBox="0 0 25 24" fill="none" xmlns="http://www.w3.org/2000/svg">
<path fill-rule="evenodd" clip-rule="evenodd" d="M13.6714 14.9619C14.6794 14.9619 15.4998 15.7763 15.4998 16.7773V19.3519C15.4998 19.567 15.6723 19.7395 15.8933 19.7445H17.4889C18.7464 19.7445 19.7685 18.7351 19.7685 17.4946V10.1926C19.7627 9.76573 19.5592 9.36397 19.2101 9.09696L13.6907 4.69598C12.9498 4.10924 11.9134 4.10924 11.17 4.69765L5.68817 9.09529C5.32568 9.37066 5.12225 9.77242 5.11806 10.2068V17.4946C5.11806 18.7351 6.14025 19.7445 7.39767 19.7445H9.00838C9.23526 19.7445 9.41943 19.5645 9.41943 19.3436C9.41943 19.295 9.42529 19.2465 9.43534 19.2004V16.7773C9.43534 15.7821 10.2507 14.9685 11.2512 14.9619H13.6714ZM17.4889 21H15.8782C14.9556 20.9782 14.244 20.2542 14.244 19.3519V16.7773C14.244 16.4685 13.987 16.2174 13.6714 16.2174H11.2553C10.9464 16.219 10.6911 16.471 10.6911 16.7773V19.3436C10.6911 19.4063 10.6827 19.4666 10.6651 19.5235C10.5747 20.3522 9.86648 21 9.00838 21H7.39767C5.44791 21 3.8623 19.4273 3.8623 17.4946V10.201C3.87068 9.36899 4.2541 8.60731 4.9163 8.10595L10.3872 3.71585C11.5919 2.76166 13.2704 2.76166 14.4726 3.71417L19.9829 8.10846C20.63 8.60146 21.0134 9.36145 21.0243 10.1834V17.4946C21.0243 19.4273 19.4387 21 17.4889 21Z" fill="#848484"/>
</svg>
