<svg width="25" height="24" viewBox="0 0 25 24" fill="none" xmlns="http://www.w3.org/2000/svg">
<path fill-rule="evenodd" clip-rule="evenodd" d="M16.0652 3C17.5083 3 18.7531 3.48441 19.664 4.40182C20.6162 5.35983 21.1386 6.75353 21.1368 8.32675L21.1381 14.638C21.1396 14.6623 21.1399 14.6866 21.1389 14.711L21.1368 15.6742C21.1368 18.8594 19.0968 21 16.0607 21H8.30113C5.26765 21 3.22949 18.8594 3.22949 15.6742V8.32585C3.22949 5.14062 5.26765 3 8.30113 3H16.0652ZM16.3134 12.7715C15.7857 12.7715 15.1664 13.6493 14.6181 14.4241C13.866 15.4886 13.0879 16.59 11.9158 16.59C11.1233 16.59 10.3973 16.2833 9.75736 16.0118C8.73963 15.5806 8.27833 15.4426 7.8269 15.816C6.92319 16.5645 6.0303 17.9275 5.62002 18.5982C6.26759 19.2692 7.1875 19.6469 8.30113 19.6469H16.0607C18.3268 19.6469 19.7906 18.0881 19.7906 15.6742V14.9534L19.7698 14.9315C18.9842 14.1178 17.6275 12.7715 16.3134 12.7715ZM16.0652 4.35311H8.30113C6.0386 4.35311 4.5757 5.9128 4.5757 8.32585V15.6741C4.5757 16.2773 4.66702 16.827 4.83931 17.3124C5.35866 16.5242 6.14302 15.4571 6.97161 14.7714C8.09525 13.8423 9.30504 14.3529 10.2797 14.7651C10.8532 15.0078 11.3953 15.2369 11.9158 15.2369C12.3932 15.2369 12.9919 14.389 13.5214 13.6411C14.2564 12.5983 15.091 11.4184 16.3134 11.4184C17.6548 11.4184 18.8698 12.247 19.7915 13.0694L19.7906 8.32585C19.7924 7.09632 19.419 6.06976 18.7118 5.35802C18.0584 4.70041 17.1439 4.35311 16.0652 4.35311ZM9.38348 6.77924C10.6678 6.78014 11.7124 7.83016 11.7133 9.12013V9.12103C11.7133 10.4119 10.6687 11.4619 9.38348 11.4619C8.0983 11.4619 7.05364 10.4119 7.05364 9.12103C7.05364 7.82926 8.0983 6.77924 9.38348 6.77924ZM9.38258 8.13235C8.84051 8.13235 8.39985 8.57527 8.39985 9.12103C8.39985 9.66588 8.84051 10.1088 9.38348 10.1088C9.92555 10.1088 10.3671 9.66588 10.3671 9.12193C10.3662 8.57618 9.92465 8.13326 9.38258 8.13235Z" fill="#848484"/>
</svg>
