<svg width="24" height="24" viewBox="0 0 24 24" fill="none" xmlns="http://www.w3.org/2000/svg">
<path fill-rule="evenodd" clip-rule="evenodd" d="M7.84288 3L7.82837 3.00042L7.82701 3.00042C7.82246 3.00043 7.81789 3.00043 7.81316 3.00002C7.78959 3.00051 7.76606 3.00214 7.74312 3.00535C7.73556 3.00623 7.72803 3.00723 7.72045 3.00823C7.71596 3.00883 7.71146 3.00943 7.70692 3.01C7.68666 3.01342 7.66645 3.01768 7.64649 3.02327C7.63752 3.02557 7.62861 3.02804 7.61982 3.03047C7.61647 3.0314 7.61314 3.03232 7.60983 3.03322C7.59017 3.03938 7.57065 3.04639 7.55168 3.05467C7.53672 3.06079 7.52201 3.06739 7.5075 3.07394C7.49279 3.08111 7.47828 3.0888 7.46401 3.09756C7.44866 3.1064 7.4336 3.11577 7.41914 3.12495C7.37768 3.1529 7.33835 3.18553 7.30194 3.22284L3.2623 7.35807L3.19055 7.44311C2.97541 7.74003 3.00035 8.16055 3.26473 8.4287L3.34822 8.50178C3.63959 8.72103 4.05229 8.69559 4.31546 8.42623L7.08474 5.59014L7.08539 17.5034L7.09217 17.6062C7.14141 17.9757 7.45222 18.2605 7.82837 18.2605C8.23874 18.2605 8.57135 17.9215 8.57135 17.5034L8.57071 5.58913L11.3415 8.42623L11.4247 8.49971C11.7151 8.72032 12.1279 8.69685 12.3923 8.4287C12.6831 8.13375 12.6842 7.65438 12.3947 7.35807L8.35509 3.22284L8.27163 3.14913C8.25865 3.13927 8.24543 3.12991 8.2322 3.1219C8.22207 3.11519 8.21174 3.10873 8.20133 3.10222C8.19857 3.10049 8.1958 3.09876 8.19302 3.09701C8.17757 3.08813 8.16182 3.07986 8.14587 3.07283C8.13489 3.06754 8.12378 3.06251 8.11273 3.05751C8.11027 3.05639 8.10781 3.05528 8.10535 3.05416C8.08673 3.04655 8.06781 3.03974 8.04829 3.03414C8.03966 3.03142 8.03096 3.02885 8.02232 3.0263C8.01846 3.02516 8.01462 3.02403 8.0108 3.02288C7.98974 3.01747 7.9685 3.01302 7.9473 3.01007C7.93379 3.00785 7.92016 3.00601 7.90643 3.00455L7.91535 3.00502C7.89127 3.00215 7.86705 3.00047 7.84288 3ZM18.4001 6.39383C18.3509 6.02434 18.0401 5.73953 17.6639 5.73953C17.2536 5.73953 16.9209 6.07844 16.9209 6.49659L16.9208 18.4097L14.1508 15.5738L14.0676 15.5003C13.7772 15.2797 13.3644 15.3031 13.1 15.5713C12.8092 15.8662 12.8081 16.3456 13.0976 16.6419L17.1372 20.7771L17.1386 20.7778C17.1618 20.8015 17.1866 20.8237 17.2127 20.844L17.2207 20.8509C17.2317 20.8593 17.243 20.8673 17.2545 20.8743C17.2691 20.8842 17.2841 20.8936 17.2993 20.9029C17.3161 20.9126 17.3333 20.9216 17.3504 20.9291C17.3562 20.9319 17.3621 20.9345 17.3681 20.9373C17.3732 20.9396 17.3784 20.942 17.3837 20.9445C17.4046 20.9531 17.4258 20.9607 17.4471 20.9668C17.4582 20.9703 17.4695 20.9735 17.4808 20.9769C17.5021 20.9824 17.5236 20.9869 17.545 20.9899C17.5585 20.9921 17.5721 20.994 17.5858 20.9954L17.577 20.995C17.6011 20.9978 17.6252 20.9995 17.6494 21L17.6639 20.9995H17.6651C17.6694 20.9995 17.6738 20.9995 17.6782 21C17.7024 20.9995 17.7266 20.9978 17.751 20.9944C17.7569 20.9937 17.7628 20.9929 17.7686 20.9922C17.7733 20.9916 17.7779 20.991 17.7824 20.9905C17.804 20.9869 17.8255 20.9824 17.8469 20.9764C17.859 20.9733 17.8709 20.9699 17.8824 20.9667C17.9022 20.9606 17.9216 20.9536 17.9406 20.9453C17.9556 20.9392 17.9703 20.9326 17.9848 20.9261C17.9995 20.9189 18.0141 20.9112 18.0283 20.9024C18.0437 20.8936 18.0587 20.8842 18.0732 20.875C18.1147 20.8471 18.1539 20.8145 18.1904 20.7771L22.23 16.6419L22.3018 16.5568C22.5169 16.26 22.492 15.8394 22.2276 15.5713C21.9368 15.2763 21.4663 15.2774 21.1769 15.5738L18.4068 18.4076L18.4069 6.49659L18.4001 6.39383Z" fill="#848484"/>
</svg>
