<svg width="25" height="24" viewBox="0 0 25 24" fill="none" xmlns="http://www.w3.org/2000/svg">
<path fill-rule="evenodd" clip-rule="evenodd" d="M16.5032 3C19.6335 3 22.1797 5.52543 22.1797 8.63104V15.369C22.1797 18.4736 19.6335 21 16.5032 21H8.32106C5.19076 21 2.64355 18.4736 2.64355 15.369V8.63104C2.64355 5.52543 5.19076 3 8.32106 3H16.5032ZM16.5032 4.40823H8.32106C5.97358 4.40823 4.0634 6.30277 4.0634 8.63104V15.369C4.0634 17.6972 5.97358 19.5918 8.32106 19.5918H16.5032C18.8507 19.5918 20.7599 17.6972 20.7599 15.369V15.1061L17.6382 15.1067C15.8426 15.1067 14.3811 13.6581 14.3801 11.878C14.3801 10.0962 15.8416 8.64663 17.6382 8.64569L20.7599 8.64513V8.63104C20.7599 6.30277 18.8507 4.40823 16.5032 4.40823ZM20.7599 10.0534L17.6382 10.0539C16.6244 10.0549 15.8 10.8726 15.8 11.8771C15.8 12.8807 16.6254 13.6984 17.6382 13.6984L20.7599 13.6979V10.0534ZM18.0713 11.1148C18.4632 11.1148 18.7813 11.4302 18.7813 11.8189C18.7813 12.2076 18.4632 12.523 18.0713 12.523H17.776C17.3841 12.523 17.0661 12.2076 17.0661 11.8189C17.0661 11.4302 17.3841 11.1148 17.776 11.1148H18.0713ZM12.7576 7.26046C13.1495 7.26046 13.4675 7.5759 13.4675 7.96457C13.4675 8.35325 13.1495 8.66869 12.7576 8.66869H7.64711C7.25523 8.66869 6.93718 8.35325 6.93718 7.96457C6.93718 7.5759 7.25523 7.26046 7.64711 7.26046H12.7576Z" fill="#848484"/>
</svg>
