<svg width="24" height="24" viewBox="0 0 24 24" fill="none" xmlns="http://www.w3.org/2000/svg">
<path d="M19.6323 16.3451H17.3038V14.0167C17.3038 13.6492 17.006 13.3514 16.6385 13.3514C16.2711 13.3514 15.9733 13.6492 15.9733 14.0167V16.3451H13.6448C13.2773 16.3451 12.9795 16.643 12.9795 17.0104C12.9795 17.3778 13.2773 17.6757 13.6448 17.6757H15.9733V20.0042C15.9733 20.3716 16.2711 20.6695 16.6385 20.6695C17.006 20.6695 17.3038 20.3716 17.3038 20.0042V17.6757H19.6323C19.9997 17.6757 20.2976 17.3778 20.2976 17.0104C20.2976 16.643 19.9997 16.3451 19.6323 16.3451Z" fill="#00C4C3"/>
<path fill-rule="evenodd" clip-rule="evenodd" d="M4.99698 20.6689H11.6536C12.0212 20.6689 12.3192 20.9669 12.3192 21.3345C12.3192 21.702 12.0212 22 11.6536 22H4.99698C3.89408 22 3 21.1061 3 20.0034C3.00639 16.3296 5.33059 13.0597 8.79857 11.8453C6.55555 10.4157 5.70631 7.55401 6.80651 5.13267C7.90672 2.71132 10.6211 1.4682 13.1736 2.21672C15.7261 2.96524 17.3388 5.47729 16.9566 8.10919C16.5743 10.7411 14.3136 12.6908 11.6536 12.6826C7.61159 12.6873 4.33609 15.9622 4.33132 20.0034C4.33132 20.371 4.62935 20.6689 4.99698 20.6689ZM11.6486 3.37214C9.4441 3.37214 7.65696 5.15928 7.65696 7.36383C7.65916 9.56746 9.44501 11.3533 11.6486 11.3555C13.8532 11.3555 15.6403 9.56837 15.6403 7.36383C15.6403 5.15928 13.8532 3.37214 11.6486 3.37214Z" fill="black"/>
</svg>
