<svg width="16" height="16" viewBox="0 0 16 16" fill="none" xmlns="http://www.w3.org/2000/svg">
<g clip-path="url(#clip0_423_11547)">
<path d="M10.6924 0.319824H0.959961V13.7598H8.38844C8.97212 14.8977 10.1552 15.6798 11.52 15.6798C13.4608 15.6798 15.04 14.1006 15.04 12.1598C15.04 10.7953 14.2579 9.6123 13.12 9.0283V2.74734L10.6924 0.319824ZM10.88 1.4123L12.0275 2.55982H10.88V1.4123ZM8.13372 13.1198H1.59996V0.959824H10.24V3.19982H12.48V8.77326C12.4598 8.7675 12.4387 8.76558 12.4185 8.76014C12.3056 8.7303 12.1912 8.70617 12.0758 8.68782C12.0364 8.68142 11.9971 8.6747 11.9574 8.66958C11.8123 8.65074 11.6662 8.6408 11.52 8.63982C9.57916 8.63982 7.99996 10.219 7.99996 12.1598C7.99996 12.3083 8.01212 12.4536 8.03004 12.5969C8.03516 12.6369 8.04188 12.6763 8.04828 12.7157C8.06684 12.8328 8.09116 12.948 8.12124 13.0609C8.12636 13.0805 8.12828 13.1006 8.13372 13.1198ZM14.4 12.1598C14.4 13.7477 13.1081 15.0398 11.52 15.0398C10.3385 15.0398 9.3222 14.3243 8.87836 13.3041C8.84283 13.2217 8.81111 13.1377 8.78332 13.0523C8.78108 13.0449 8.77788 13.0382 8.77564 13.0309C8.74823 12.9444 8.72506 12.8566 8.7062 12.7678L8.70076 12.7464C8.68333 12.6609 8.66987 12.5746 8.66044 12.4878C8.65916 12.4769 8.6566 12.4664 8.65532 12.4555C8.64506 12.3573 8.63994 12.2586 8.63996 12.1598C8.63996 10.572 9.9318 9.27982 11.52 9.27982C11.6192 9.27982 11.718 9.28494 11.8156 9.29486C11.8243 9.29582 11.8326 9.29774 11.8416 9.2987C11.9308 9.30862 12.0192 9.32174 12.1068 9.33998L12.1228 9.34414C12.2131 9.36366 12.3027 9.3867 12.3913 9.41518C12.3984 9.41742 12.4051 9.42062 12.4121 9.42286C12.4972 9.4507 12.5811 9.48206 12.664 9.5179C13.6841 9.96174 14.4 10.9784 14.4 12.1598Z" fill="white"/>
<path d="M11.8399 10.5601H11.1999V11.8401H9.91992V12.4801H11.1999V13.7601H11.8399V12.4801H13.1199V11.8401H11.8399V10.5601Z" fill="#00C4C3"/>
</g>
<defs>
<clipPath id="clip0_423_11547">
<rect width="16" height="16" fill="white"/>
</clipPath>
</defs>
</svg>
