<svg width="16" height="16" viewBox="0 0 16 16" fill="none" xmlns="http://www.w3.org/2000/svg">
<path d="M14.3908 4.79195H10.4861C10.2193 4.79195 9.99805 4.57069 9.99805 4.30387C9.99805 4.03706 10.2193 3.8158 10.4861 3.8158H14.3908C14.6576 3.8158 14.8788 4.03706 14.8788 4.30387C14.8788 4.57069 14.6576 4.79195 14.3908 4.79195Z" fill="#939393"/>
<path d="M3.97837 4.79195H1.37529C1.10847 4.79195 0.887207 4.57069 0.887207 4.30387C0.887207 4.03706 1.10847 3.8158 1.37529 3.8158H3.97837C4.24519 3.8158 4.46645 4.03706 4.46645 4.30387C4.46645 4.57069 4.24519 4.79195 3.97837 4.79195Z" fill="#939393"/>
<path d="M6.5817 7.06964C5.05889 7.06964 3.81592 5.82667 3.81592 4.30386C3.81592 2.78106 5.05889 1.53809 6.5817 1.53809C8.1045 1.53809 9.34747 2.78106 9.34747 4.30386C9.34747 5.82667 8.1045 7.06964 6.5817 7.06964ZM6.5817 2.51424C5.59252 2.51424 4.79207 3.31469 4.79207 4.30386C4.79207 5.29304 5.59252 6.09349 6.5817 6.09349C7.57087 6.09349 8.37132 5.29304 8.37132 4.30386C8.37132 3.31469 7.57087 2.51424 6.5817 2.51424Z" fill="#939393"/>
<path d="M14.391 11.9505H11.7879C11.5211 11.9505 11.2998 11.7293 11.2998 11.4624C11.2998 11.1956 11.5211 10.9744 11.7879 10.9744H14.391C14.6578 10.9744 14.879 11.1956 14.879 11.4624C14.879 11.7293 14.6578 11.9505 14.391 11.9505Z" fill="#939393"/>
<path d="M5.27991 11.9505H1.37529C1.10847 11.9505 0.887207 11.7293 0.887207 11.4624C0.887207 11.1956 1.10847 10.9744 1.37529 10.9744H5.27991C5.54673 10.9744 5.76799 11.1956 5.76799 11.4624C5.76799 11.7293 5.54673 11.9505 5.27991 11.9505Z" fill="#939393"/>
<path d="M9.18472 14.2281C7.66192 14.2281 6.41895 12.9851 6.41895 11.4623C6.41895 9.93951 7.66192 8.69653 9.18472 8.69653C10.7075 8.69653 11.9505 9.93951 11.9505 11.4623C11.9505 12.9851 10.7075 14.2281 9.18472 14.2281ZM9.18472 9.67269C8.19555 9.67269 7.3951 10.4731 7.3951 11.4623C7.3951 12.4515 8.19555 13.2519 9.18472 13.2519C10.1739 13.2519 10.9743 12.4515 10.9743 11.4623C10.9743 10.4731 10.1739 9.67269 9.18472 9.67269Z" fill="#939393"/>
</svg>
