<svg width="38" height="38" viewBox="0 0 38 38" fill="none" xmlns="http://www.w3.org/2000/svg">
<path d="M19 24.396C21.9801 24.396 24.396 21.9801 24.396 19C24.396 16.0199 21.9801 13.604 19 13.604C16.0199 13.604 13.604 16.0199 13.604 19C13.604 21.9801 16.0199 24.396 19 24.396Z" stroke="black" stroke-width="1.1" stroke-linecap="round" stroke-linejoin="round"/>
<path d="M19 13.6038V6.19385" stroke="black" stroke-width="1.1" stroke-linecap="round" stroke-linejoin="round"/>
<path d="M18.9998 6.19386C20.0718 6.19386 20.9409 5.32477 20.9409 4.25269C20.9409 3.18061 20.0718 2.31152 18.9998 2.31152C17.9277 2.31152 17.0586 3.18061 17.0586 4.25269C17.0586 5.32477 17.9277 6.19386 18.9998 6.19386Z" stroke="black" stroke-width="1.1" stroke-linecap="round" stroke-linejoin="round"/>
<path d="M19 24.396V31.806" stroke="black" stroke-width="1.1" stroke-linecap="round" stroke-linejoin="round"/>
<path d="M18.9998 35.6885C20.0718 35.6885 20.9409 34.8194 20.9409 33.7473C20.9409 32.6752 20.0718 31.8062 18.9998 31.8062C17.9277 31.8062 17.0586 32.6752 17.0586 33.7473C17.0586 34.8194 17.9277 35.6885 18.9998 35.6885Z" stroke="black" stroke-width="1.1" stroke-linecap="round" stroke-linejoin="round"/>
<path d="M15.8332 19H6.19385" stroke="black" stroke-width="1.1" stroke-linecap="round" stroke-linejoin="round"/>
<path d="M4.25269 20.9409C5.32477 20.9409 6.19386 20.0718 6.19386 18.9998C6.19386 17.9277 5.32477 17.0586 4.25269 17.0586C3.18061 17.0586 2.31152 17.9277 2.31152 18.9998C2.31152 20.0718 3.18061 20.9409 4.25269 20.9409Z" stroke="black" stroke-width="1.1" stroke-linecap="round" stroke-linejoin="round"/>
<path d="M22.1665 19H31.8058" stroke="black" stroke-width="1.1" stroke-linecap="round" stroke-linejoin="round"/>
<path d="M33.7473 20.9409C34.8194 20.9409 35.6885 20.0718 35.6885 18.9998C35.6885 17.9277 34.8194 17.0586 33.7473 17.0586C32.6752 17.0586 31.8062 17.9277 31.8062 18.9998C31.8062 20.0718 32.6752 20.9409 33.7473 20.9409Z" stroke="black" stroke-width="1.1" stroke-linecap="round" stroke-linejoin="round"/>
<path d="M28.6882 30.6294C29.7603 30.6294 30.6294 29.7603 30.6294 28.6882C30.6294 27.6162 29.7603 26.7471 28.6882 26.7471C27.6162 26.7471 26.7471 27.6162 26.7471 28.6882C26.7471 29.7603 27.6162 30.6294 28.6882 30.6294Z" stroke="black" stroke-width="1.1" stroke-linecap="round" stroke-linejoin="round"/>
<path d="M24.9897 24.9897L27.1858 27.1858" stroke="black" stroke-width="1.1" stroke-linecap="round" stroke-linejoin="round"/>
<path d="M9.31177 11.2529C10.3838 11.2529 11.2529 10.3838 11.2529 9.31177C11.2529 8.2397 10.3838 7.37061 9.31177 7.37061C8.2397 7.37061 7.37061 8.2397 7.37061 9.31177C7.37061 10.3838 8.2397 11.2529 9.31177 11.2529Z" stroke="black" stroke-width="1.1" stroke-linecap="round" stroke-linejoin="round"/>
<path d="M13.01 13.01L10.814 10.814" stroke="black" stroke-width="1.1" stroke-linecap="round" stroke-linejoin="round"/>
<path d="M28.6882 11.2529C29.7603 11.2529 30.6294 10.3838 30.6294 9.31177C30.6294 8.2397 29.7603 7.37061 28.6882 7.37061C27.6162 7.37061 26.7471 8.2397 26.7471 9.31177C26.7471 10.3838 27.6162 11.2529 28.6882 11.2529Z" stroke="black" stroke-width="1.1" stroke-linecap="round" stroke-linejoin="round"/>
<path d="M24.9897 13.01L27.1858 10.814" stroke="black" stroke-width="1.1" stroke-linecap="round" stroke-linejoin="round"/>
<path d="M9.31177 30.6294C10.3838 30.6294 11.2529 29.7603 11.2529 28.6882C11.2529 27.6162 10.3838 26.7471 9.31177 26.7471C8.2397 26.7471 7.37061 27.6162 7.37061 28.6882C7.37061 29.7603 8.2397 30.6294 9.31177 30.6294Z" stroke="black" stroke-width="1.1" stroke-linecap="round" stroke-linejoin="round"/>
<path d="M13.01 24.9897L10.814 27.1858" stroke="black" stroke-width="1.1" stroke-linecap="round" stroke-linejoin="round"/>
<path d="M18.9998 19.2848C19.1572 19.2848 19.2848 19.1572 19.2848 18.9998C19.2848 18.8424 19.1572 18.7148 18.9998 18.7148C18.8424 18.7148 18.7148 18.8424 18.7148 18.9998C18.7148 19.1572 18.8424 19.2848 18.9998 19.2848Z" fill="#0000FF" stroke="#0000FF" stroke-width="1.1" stroke-linecap="round" stroke-linejoin="round"/>
</svg>
