<svg width="38" height="38" viewBox="0 0 38 38" fill="none" xmlns="http://www.w3.org/2000/svg">
<g clip-path="url(#clip0_431_10726)">
<path d="M0.290047 10.5196L5.774 13.5108C5.79373 13.5216 5.81411 13.5311 5.835 13.5394C5.83916 13.541 5.84346 13.5424 5.8477 13.544C5.86363 13.5499 5.87986 13.5551 5.89638 13.5596C5.90202 13.5612 5.90759 13.5626 5.91323 13.564C5.92904 13.5678 5.94514 13.5707 5.9614 13.573C5.96682 13.5738 5.97216 13.5749 5.97758 13.5755C6.02016 13.5808 6.06324 13.5808 6.10583 13.5755C6.11125 13.5749 6.11659 13.5738 6.12201 13.573C6.14393 13.5699 6.16564 13.5654 6.18702 13.5597C6.20355 13.5552 6.21975 13.55 6.23564 13.5441C6.23987 13.5424 6.24417 13.5411 6.2484 13.5394C6.2693 13.5311 6.28967 13.5216 6.30941 13.5108L11.7934 10.5196C11.8812 10.4717 11.9544 10.4011 12.0055 10.3151C12.0565 10.2291 12.0835 10.1309 12.0835 10.0309V3.54852C12.0835 3.5463 12.083 3.54407 12.083 3.54184C12.0825 3.49616 12.0763 3.45071 12.0646 3.40654C12.0632 3.40127 12.0617 3.39608 12.0601 3.39081C12.0551 3.37389 12.0492 3.35714 12.0425 3.34056C12.0404 3.33537 12.0384 3.33017 12.0362 3.32498C12.0274 3.3045 12.0173 3.28458 12.0061 3.26531L12.0056 3.26471L12.0041 3.26249C11.9929 3.24393 11.9807 3.22604 11.9674 3.2089C11.9638 3.20437 11.9601 3.19999 11.9564 3.19554C11.945 3.18164 11.9331 3.1684 11.9206 3.15583C11.9169 3.15212 11.9134 3.14841 11.9097 3.14492C11.8764 3.11343 11.8394 3.08618 11.7995 3.0638C11.7974 3.06254 11.7955 3.06098 11.7934 3.05987L6.30822 0.0679624C6.22645 0.0233675 6.1348 0 6.04167 0C5.94853 0 5.85688 0.0233675 5.77511 0.0679624L0.290121 3.05987C0.287895 3.06106 0.286039 3.06261 0.283887 3.0638C0.244015 3.08617 0.20707 3.11339 0.173895 3.14485C0.170109 3.14841 0.166473 3.15227 0.162762 3.15598C0.150342 3.16845 0.138467 3.18159 0.127137 3.19539C0.123426 3.19992 0.119566 3.20437 0.116004 3.20905C0.102732 3.22613 0.0904657 3.24398 0.0792656 3.26249L0.0777812 3.26471L0.0774102 3.26531C0.0661609 3.28458 0.0560739 3.3045 0.0472031 3.32498C0.0449766 3.33017 0.0430469 3.33537 0.0409687 3.34056C0.0342396 3.35719 0.0283763 3.37394 0.0233789 3.39081C0.0218203 3.396 0.0201875 3.4012 0.0188516 3.40654C0.00714727 3.45071 0.000964689 3.49616 0.000445313 3.54184C0.000445313 3.54407 0 3.5463 0 3.54852V10.0309C5.73406e-06 10.1309 0.0269506 10.2291 0.0780026 10.3151C0.129054 10.4011 0.202328 10.4717 0.290121 10.5196H0.290047ZM10.9701 9.70052L6.59834 12.0852V7.10731L10.9702 4.52398L10.9701 9.70052ZM6.04178 1.19067L10.3999 3.5679L6.04178 6.14314L1.68365 3.56782L6.04178 1.19067ZM1.11321 4.52398L5.48506 7.10731V12.0852L1.11321 9.70052V4.52398ZM22.2151 35.5586L22.1919 35.5624C22.0463 35.5888 21.9171 35.6715 21.8322 35.7926C21.7473 35.9137 21.7137 36.0634 21.7385 36.2092C21.7634 36.355 21.8448 36.4851 21.965 36.5713C22.0852 36.6574 22.2345 36.6926 22.3806 36.6693C22.5266 36.646 22.6576 36.566 22.745 36.4467C22.8323 36.3274 22.8691 36.1784 22.8473 36.0321C22.8256 35.8858 22.7469 35.7541 22.6285 35.6654C22.5102 35.5768 22.3616 35.5384 22.2151 35.5587V35.5586ZM22.3093 36.1904L22.2972 36.1092L22.3104 36.1968L22.3093 36.1904ZM37.9995 3.54184C37.999 3.49616 37.9928 3.45071 37.9811 3.40654C37.9797 3.40127 37.9781 3.39608 37.9766 3.39081C37.9716 3.37389 37.9657 3.35714 37.959 3.34056C37.9569 3.33537 37.9549 3.33017 37.9527 3.32498C37.9439 3.3045 37.9338 3.28458 37.9225 3.26531L37.9221 3.26471L37.9207 3.26249C37.9095 3.24398 37.8972 3.22613 37.8839 3.20905C37.8804 3.20437 37.8765 3.19999 37.8728 3.19547C37.8615 3.18161 37.8496 3.16843 37.8372 3.15591L37.826 3.14477C37.7929 3.11337 37.756 3.0862 37.7161 3.06388C37.7139 3.06261 37.712 3.06106 37.7098 3.05979L32.2247 0.0679624C32.143 0.0233675 32.0513 0 31.9582 0C31.865 0 31.7734 0.0233675 31.6916 0.0679624L26.2065 3.05987C26.2043 3.06106 26.2023 3.06261 26.2002 3.06388C26.1604 3.0862 26.1235 3.11338 26.0903 3.14477C26.0865 3.14849 26.0828 3.15234 26.0791 3.15613C26.0667 3.1685 26.0549 3.18156 26.0436 3.19532C26.0399 3.19992 26.036 3.20437 26.0324 3.20905C26.0191 3.22614 26.0069 3.24398 25.9957 3.26249L25.9942 3.26471L25.9938 3.26531C25.9826 3.28458 25.9725 3.3045 25.9636 3.32498C25.9614 3.33017 25.9595 3.33537 25.9573 3.34056C25.9507 3.35719 25.9448 3.37394 25.9398 3.39081C25.9383 3.396 25.9366 3.4012 25.9352 3.40654C25.9235 3.45071 25.9174 3.49616 25.9169 3.54184C25.9169 3.54407 25.9164 3.5463 25.9164 3.54852V10.0309C25.9164 10.1309 25.9433 10.2291 25.9944 10.3151C26.0455 10.4011 26.1188 10.4717 26.2066 10.5196L31.6904 13.5108C31.7102 13.5216 31.7306 13.5311 31.7514 13.5394C31.7557 13.541 31.76 13.5424 31.7642 13.544C31.7801 13.5499 31.7963 13.5551 31.8128 13.5596L31.8297 13.564C31.8456 13.5678 31.8616 13.5707 31.8778 13.573C31.8833 13.5738 31.8886 13.5749 31.894 13.5755C31.9366 13.5808 31.9797 13.5808 32.0223 13.5755C32.0277 13.5749 32.033 13.5738 32.0385 13.573C32.0604 13.5699 32.0821 13.5654 32.1035 13.5597C32.12 13.5552 32.1363 13.55 32.1522 13.5441C32.1564 13.5424 32.1607 13.5411 32.1648 13.5394C32.1857 13.5311 32.2061 13.5216 32.2259 13.5108L37.7099 10.5196C37.7977 10.4717 37.8709 10.4011 37.922 10.3151C37.973 10.2291 37.9999 10.1309 37.9999 10.0309V3.54852C37.9999 3.5463 37.9995 3.54407 37.9995 3.54184ZM31.4015 12.0852L27.0297 9.70052V4.52398L31.4015 7.10731V12.0852ZM31.9581 6.14314L27.6 3.56782L31.9581 1.19067L36.3163 3.5679L31.9581 6.14314ZM36.8866 9.70052L32.5148 12.0852V7.10731L36.8866 4.52398V9.70052ZM1.70547 21.8208C1.71646 21.8208 1.72752 21.8205 1.73865 21.8198C1.81163 21.8156 1.88305 21.7969 1.94883 21.765C2.01461 21.7331 2.07346 21.6886 2.12203 21.634C2.1706 21.5793 2.20793 21.5157 2.23189 21.4466C2.25585 21.3775 2.26597 21.3044 2.26167 21.2314L2.26063 21.2159C2.24857 21.0699 2.17939 20.9345 2.06811 20.8391C1.95683 20.7437 1.81243 20.6961 1.66624 20.7065C1.52006 20.7169 1.38388 20.7846 1.28728 20.8948C1.19068 21.005 1.14143 21.1489 1.15024 21.2952L1.70599 21.2642L1.15032 21.2968C1.15864 21.4385 1.22074 21.5716 1.32392 21.669C1.42711 21.7664 1.56359 21.8207 1.70547 21.8208ZM1.87506 17.3877C1.94679 17.4019 2.02062 17.4018 2.09232 17.3875C2.16401 17.3731 2.23217 17.3447 2.29289 17.304C2.35361 17.2632 2.4057 17.2109 2.44618 17.15C2.48665 17.0891 2.51472 17.0208 2.52878 16.9491L2.53079 16.9388C2.55748 16.7943 2.52589 16.645 2.44291 16.5236C2.35994 16.4023 2.23231 16.3186 2.0879 16.291C1.94349 16.2634 1.79402 16.2941 1.67213 16.3763C1.55024 16.4585 1.46583 16.5856 1.43732 16.7298L1.98261 16.8416L1.4365 16.734C1.42238 16.8057 1.42252 16.8795 1.43692 16.9512C1.45132 17.0229 1.47969 17.091 1.52042 17.1517C1.56115 17.2124 1.61344 17.2645 1.67431 17.305C1.73517 17.3455 1.80341 17.3736 1.87514 17.3877H1.87506ZM1.14905 18.9958L1.14809 19.0114C1.13941 19.1588 1.18962 19.3036 1.28768 19.414C1.38575 19.5244 1.52364 19.5914 1.67104 19.6001C1.68217 19.6007 1.6933 19.601 1.70429 19.601C1.81334 19.6016 1.92022 19.5705 2.0118 19.5113C2.10339 19.452 2.17572 19.3674 2.2199 19.2677C2.26409 19.168 2.27822 19.0576 2.26057 18.9499C2.24291 18.8423 2.19424 18.7422 2.12051 18.6618C2.04678 18.5815 1.95121 18.5244 1.8455 18.4975C1.7398 18.4707 1.62856 18.4753 1.52543 18.5107C1.42229 18.5462 1.33175 18.611 1.2649 18.6972C1.19804 18.7833 1.15778 18.8871 1.14905 18.9958ZM15.7434 2.66272C15.8218 2.66357 15.8994 2.64789 15.9712 2.61672C16.0431 2.58554 16.1076 2.53957 16.1605 2.4818C16.2134 2.42403 16.2535 2.35575 16.2782 2.28143C16.303 2.20711 16.3118 2.1284 16.304 2.05046C16.2963 1.97251 16.2722 1.89706 16.2334 1.82904C16.1945 1.76103 16.1418 1.70196 16.0786 1.6557C16.0154 1.60944 15.9431 1.57703 15.8665 1.56057C15.7899 1.54412 15.7107 1.54399 15.6341 1.5602C15.6289 1.56124 15.6165 1.56414 15.6113 1.5654C15.4791 1.59775 15.3634 1.67739 15.286 1.78927C15.2085 1.90115 15.1747 2.03752 15.191 2.17262C15.2073 2.30771 15.2724 2.43217 15.3742 2.52248C15.476 2.61278 15.6074 2.66267 15.7434 2.66272ZM24.3006 35.0833C24.1596 35.1244 24.0405 35.2195 23.9693 35.348C23.8981 35.4764 23.8805 35.6279 23.9205 35.7692C23.9604 35.9106 24.0547 36.0304 24.1826 36.1026C24.3105 36.1748 24.4618 36.1935 24.6034 36.1546C24.6085 36.1532 24.6207 36.1496 24.6257 36.1481C24.7661 36.1043 24.8835 36.0067 24.9522 35.8767C25.0209 35.7467 25.0353 35.5948 24.9924 35.4541C24.9495 35.3135 24.8526 35.1955 24.723 35.1261C24.5934 35.0566 24.4415 35.0412 24.3006 35.0833ZM24.365 2.90564C24.3708 2.9075 24.3835 2.91128 24.3894 2.91277C24.5321 2.95092 24.6841 2.93126 24.8124 2.85806C24.9407 2.78486 25.0349 2.66402 25.0747 2.52177C25.1145 2.37951 25.0965 2.22731 25.0248 2.09819C24.953 1.96907 24.8333 1.87345 24.6915 1.83208C24.5497 1.7907 24.3973 1.80691 24.2674 1.87718C24.1374 1.94746 24.0405 2.06613 23.9975 2.20745C23.9545 2.34877 23.969 2.50133 24.0378 2.63204C24.1066 2.76275 24.2242 2.86106 24.365 2.90564ZM20.1438 2.23441L20.1605 2.23463C20.3068 2.23471 20.4472 2.17719 20.5514 2.07452C20.6556 1.97185 20.7153 1.83228 20.7174 1.68601C20.7195 1.53973 20.6639 1.3985 20.5627 1.29287C20.4615 1.18725 20.3227 1.12571 20.1765 1.12157L20.1691 1.12135C20.0962 1.11936 20.0237 1.13177 19.9556 1.15787C19.8876 1.18396 19.8253 1.22322 19.7725 1.2734C19.7196 1.32359 19.6772 1.38371 19.6476 1.45032C19.618 1.51693 19.6019 1.58872 19.6001 1.66159C19.5966 1.80955 19.6518 1.95287 19.7537 2.06022C19.8556 2.16756 19.9958 2.23019 20.1438 2.23441ZM22.2789 2.43532C22.4236 2.45864 22.5716 2.42397 22.6909 2.33883C22.8102 2.25369 22.8911 2.12496 22.916 1.98055C22.941 1.83615 22.908 1.68774 22.8242 1.56751C22.7404 1.44728 22.6126 1.36495 22.4685 1.33836C22.4631 1.33733 22.4507 1.3354 22.4452 1.33451C22.2993 1.31245 22.1505 1.34929 22.0317 1.43691C21.9129 1.52454 21.8337 1.65577 21.8117 1.80175C21.7896 1.94773 21.8264 2.09649 21.9141 2.2153C22.0017 2.33412 22.1329 2.41326 22.2789 2.43532ZM17.9333 2.30796C17.9497 2.30796 17.9663 2.30722 17.9829 2.30573C17.9885 2.30529 18.0016 2.30395 18.0073 2.30328C18.151 2.28457 18.2817 2.21076 18.3719 2.09744C18.4622 1.98412 18.5048 1.84017 18.4909 1.69599C18.4769 1.55181 18.4075 1.41869 18.2973 1.32475C18.187 1.2308 18.0446 1.18339 17.9 1.19253C17.7554 1.20166 17.6201 1.26663 17.5225 1.3737C17.425 1.48078 17.3728 1.62158 17.3772 1.76637C17.3815 1.91115 17.4419 2.04859 17.5457 2.14965C17.6495 2.25071 17.7885 2.30747 17.9333 2.30796ZM13.6108 3.29863C13.6924 3.3 13.7732 3.2835 13.8477 3.25029C13.9222 3.21707 13.9885 3.16795 14.042 3.10637C14.0955 3.04478 14.1348 2.97224 14.1573 2.89383C14.1797 2.81542 14.1847 2.73304 14.1719 2.65249C14.1591 2.57194 14.1288 2.49517 14.0832 2.42758C14.0375 2.35999 13.9777 2.3032 13.9077 2.26123C13.8378 2.21925 13.7595 2.1931 13.6784 2.18461C13.5973 2.17611 13.5153 2.18549 13.4382 2.21207L13.4193 2.21897C13.297 2.26437 13.1944 2.35127 13.1296 2.46453C13.0648 2.57779 13.0417 2.71021 13.0645 2.83871C13.0873 2.96721 13.1545 3.08364 13.2543 3.16769C13.3542 3.25174 13.4803 3.29808 13.6108 3.29863ZM1.44333 23.5736C1.4681 23.6994 1.53587 23.8126 1.635 23.8939C1.73414 23.9753 1.85847 24.0196 1.98669 24.0192C2.0644 24.0193 2.14127 24.0031 2.21237 23.9717C2.28347 23.9403 2.34724 23.8944 2.39959 23.837C2.45194 23.7796 2.49173 23.7118 2.51641 23.6381C2.54108 23.5644 2.5501 23.4864 2.54289 23.409C2.53568 23.3316 2.5124 23.2566 2.47453 23.1887C2.43667 23.1209 2.38505 23.0617 2.32299 23.0149C2.26092 22.9681 2.18978 22.9348 2.11411 22.9171C2.03843 22.8994 1.9599 22.8977 1.88352 22.912C1.81172 22.9258 1.74332 22.9535 1.68223 22.9936C1.62114 23.0338 1.56856 23.0856 1.52748 23.146C1.48641 23.2065 1.45764 23.2745 1.44283 23.3461C1.42803 23.4176 1.42746 23.4914 1.44118 23.5632C1.44148 23.5643 1.44311 23.5725 1.44333 23.5736ZM20.0709 35.7645L20.0633 35.7647C19.9171 35.7689 19.7783 35.8304 19.6771 35.9361C19.5759 36.0417 19.5203 36.183 19.5225 36.3293C19.5246 36.4756 19.5843 36.6152 19.6886 36.7178C19.7928 36.8205 19.9333 36.8779 20.0797 36.8778L20.0965 36.8776L20.0873 36.3209L20.1036 36.8773C20.2512 36.873 20.391 36.8102 20.4923 36.7028C20.5936 36.5954 20.6481 36.4522 20.6437 36.3046C20.6394 36.157 20.5766 36.0172 20.4692 35.9159C20.3618 35.8146 20.2185 35.7602 20.071 35.7645H20.0709ZM35.6194 14.0298C35.5486 14.0481 35.4821 14.0801 35.4237 14.124C35.3653 14.168 35.3161 14.223 35.2789 14.2859C35.2418 14.3489 35.2174 14.4185 35.2071 14.4909C35.1969 14.5633 35.201 14.637 35.2192 14.7078L35.2243 14.7267C35.2573 14.844 35.3277 14.9474 35.4248 15.0212C35.5218 15.0949 35.6403 15.1351 35.7622 15.1355C35.8478 15.1354 35.9322 15.1155 36.0089 15.0774C36.0856 15.0393 36.1524 14.984 36.2043 14.9159C36.2561 14.8477 36.2914 14.7685 36.3076 14.6844C36.3238 14.6004 36.3204 14.5137 36.2976 14.4311L35.7583 14.5689L36.2973 14.43C36.2791 14.3592 36.2471 14.2927 36.2032 14.2343C36.1593 14.1758 36.1043 14.1266 36.0413 14.0895C35.9784 14.0523 35.9087 14.0279 35.8363 14.0177C35.7639 14.0075 35.6902 14.0116 35.6194 14.0298ZM36.8866 18.9629C36.8866 18.89 36.8721 18.8178 36.8441 18.7505C36.816 18.6832 36.775 18.6221 36.7232 18.5707C36.6715 18.5193 36.6101 18.4787 36.5427 18.4511C36.4752 18.4235 36.4029 18.4095 36.33 18.4099C36.182 18.4108 36.0403 18.4702 35.936 18.5752C35.8317 18.6802 35.7732 18.8223 35.7734 18.9703C35.7734 18.9767 35.7734 18.983 35.7737 18.9893C35.7735 18.9953 35.7734 19.0014 35.7734 19.0074C35.7734 19.155 35.832 19.2966 35.9364 19.401C36.0408 19.5054 36.1824 19.564 36.33 19.564C36.4776 19.564 36.6192 19.5054 36.7236 19.401C36.828 19.2966 36.8866 19.155 36.8866 19.0074V19C36.8866 18.9948 36.8866 18.9896 36.8864 18.9845C36.8866 18.9797 36.8866 18.975 36.8866 18.9703V18.9629ZM15.8073 35.3606C15.7992 35.3587 15.791 35.3568 15.7828 35.355C15.638 35.3255 15.4874 35.3543 15.3636 35.4351C15.2398 35.516 15.153 35.6424 15.1218 35.7869C15.0907 35.9314 15.1178 36.0823 15.1972 36.207C15.2767 36.3316 15.4021 36.4199 15.5463 36.4527C15.6904 36.4855 15.8416 36.46 15.9672 36.382C16.0927 36.3039 16.1824 36.1795 16.2168 36.0357C16.2511 35.892 16.2274 35.7404 16.1508 35.614C16.0741 35.4876 15.9507 35.3966 15.8073 35.3606ZM15.6593 35.9714L15.6602 35.967L15.6762 35.9017L15.6593 35.9714ZM17.92 35.6978C17.7733 35.6812 17.6261 35.7236 17.5106 35.8156C17.3952 35.9077 17.321 36.0418 17.3044 36.1885C17.2879 36.3352 17.3303 36.4825 17.4223 36.5979C17.5143 36.7134 17.6484 36.7875 17.7951 36.8041C17.8008 36.8048 17.8138 36.806 17.8195 36.8065C17.8362 36.808 17.8527 36.8088 17.8691 36.8088C18.0123 36.8089 18.1502 36.7538 18.2538 36.6548C18.3575 36.5559 18.419 36.4208 18.4256 36.2777C18.4322 36.1345 18.3833 35.9944 18.2892 35.8864C18.195 35.7783 18.0628 35.7108 17.9201 35.6978H17.92ZM20.5726 14.9793V14.3613C20.5726 14.2137 20.514 14.0721 20.4096 13.9677C20.3052 13.8633 20.1636 13.8047 20.016 13.8047C19.8683 13.8047 19.7268 13.8633 19.6224 13.9677C19.518 14.0721 19.4593 14.2137 19.4593 14.3613V14.8589H18.8308V14.3613C18.8308 14.2137 18.7721 14.0721 18.6677 13.9677C18.5634 13.8633 18.4218 13.8047 18.2741 13.8047C18.1265 13.8047 17.9849 13.8633 17.8805 13.9677C17.7761 14.0721 17.7175 14.2137 17.7175 14.3613V14.8589H16.6333C16.4857 14.8589 16.3441 14.9175 16.2397 15.0219C16.1353 15.1263 16.0767 15.2679 16.0767 15.4155C16.0767 15.5631 16.1353 15.7047 16.2397 15.8091C16.3441 15.9135 16.4857 15.9721 16.6333 15.9721H16.8485V22.0278H16.6333C16.4857 22.0278 16.3441 22.0865 16.2397 22.1908C16.1353 22.2952 16.0767 22.4368 16.0767 22.5844C16.0767 22.7321 16.1353 22.8737 16.2397 22.978C16.3441 23.0824 16.4857 23.1411 16.6333 23.1411H17.7175V23.6386C17.7175 23.7863 17.7761 23.9279 17.8805 24.0323C17.9849 24.1366 18.1265 24.1953 18.2741 24.1953C18.4218 24.1953 18.5634 24.1366 18.6677 24.0323C18.7721 23.9279 18.8308 23.7863 18.8308 23.6386V23.1411H19.4594V23.6386C19.4594 23.7863 19.5181 23.9279 19.6224 24.0323C19.7268 24.1366 19.8684 24.1953 20.0161 24.1953C20.1637 24.1953 20.3053 24.1366 20.4097 24.0323C20.514 23.9279 20.5727 23.7863 20.5727 23.6386V23.0206C20.9678 22.878 21.3095 22.6172 21.5511 22.2735C21.7928 21.9299 21.9227 21.5202 21.9232 21.1001V20.4844C21.9232 20.2062 21.8663 19.9309 21.7558 19.6756C21.6453 19.4203 21.4837 19.1904 21.2808 19C21.4837 18.8096 21.6453 18.5797 21.7558 18.3243C21.8663 18.069 21.9232 17.7938 21.9232 17.5156V16.8999C21.9227 16.4798 21.7927 16.07 21.5511 15.7264C21.3094 15.3828 20.9678 15.1219 20.5726 14.9793ZM20.8099 21.1001C20.8096 21.346 20.7118 21.5818 20.5379 21.7558C20.3639 21.9297 20.1281 22.0275 19.8822 22.0278H17.9619V19.5566H19.8822C20.1281 19.5569 20.3639 19.6547 20.5379 19.8286C20.7118 20.0026 20.8096 20.2384 20.8099 20.4844V21.1001ZM20.8099 17.5156C20.8096 17.7616 20.7118 17.9974 20.5379 18.1713C20.3639 18.3452 20.1281 18.4431 19.8822 18.4433H17.9619V15.9721H19.8822C20.1281 15.9724 20.3639 16.0703 20.5379 16.2442C20.7118 16.4181 20.8096 16.6539 20.8099 16.8999V17.5156ZM37.9811 27.827L37.9765 27.8113C37.9715 27.7944 37.9657 27.7776 37.959 27.7611C37.9569 27.7559 37.9549 27.7507 37.9527 27.7455C37.9439 27.725 37.9338 27.7051 37.9225 27.6858L37.9221 27.6852L37.9207 27.683C37.9094 27.6644 37.8971 27.6466 37.8838 27.6295C37.8804 27.6249 37.8766 27.6206 37.8729 27.616C37.8615 27.6022 37.8496 27.589 37.8371 27.5764C37.8334 27.5727 37.8299 27.569 37.8261 27.5654C37.7929 27.5339 37.7559 27.5066 37.716 27.4842C37.7138 27.483 37.712 27.4815 37.7098 27.4804L32.2247 24.4885C32.143 24.4439 32.0513 24.4205 31.9582 24.4205C31.865 24.4205 31.7734 24.4439 31.6916 24.4885L26.2065 27.4804C26.2043 27.4815 26.2023 27.4831 26.2002 27.4844C26.1604 27.5067 26.1235 27.5339 26.0904 27.5653C26.0865 27.569 26.0828 27.5728 26.0791 27.5766C26.0667 27.589 26.0549 27.6021 26.0436 27.6159C26.0399 27.6204 26.036 27.6249 26.0324 27.6295C26.0192 27.6466 26.0069 27.6645 25.9956 27.683L25.9942 27.6852L25.9938 27.6858C25.9826 27.7051 25.9725 27.725 25.9636 27.7455C25.9614 27.7507 25.9595 27.7559 25.9573 27.7611C25.9507 27.7777 25.9448 27.7944 25.9398 27.8113C25.9383 27.8165 25.9366 27.8217 25.9352 27.827C25.9235 27.8712 25.9174 27.9167 25.9169 27.9623C25.9169 27.9646 25.9164 27.9668 25.9164 27.969V34.4515C25.9164 34.5515 25.9433 34.6497 25.9944 34.7357C26.0455 34.8216 26.1188 34.8923 26.2066 34.9402L31.6904 37.9313C31.7102 37.9421 31.7306 37.9516 31.7514 37.9599C31.7557 37.9615 31.76 37.9629 31.7642 37.9645C31.7801 37.9704 31.7963 37.9756 31.8128 37.9801L31.8297 37.9845C31.8456 37.9882 31.8616 37.9912 31.8778 37.9935C31.8833 37.9943 31.8886 37.9954 31.894 37.996C31.9366 38.0013 31.9797 38.0013 32.0223 37.996C32.0277 37.9954 32.033 37.9943 32.0385 37.9935C32.0604 37.9904 32.0821 37.9859 32.1035 37.9802C32.12 37.9757 32.1363 37.9705 32.1522 37.9646C32.1564 37.9629 32.1607 37.9616 32.1648 37.9599C32.1857 37.9516 32.2061 37.9421 32.2259 37.9313L37.7099 34.9401C37.7977 34.8922 37.8709 34.8215 37.922 34.7356C37.973 34.6496 37.9999 34.5514 37.9999 34.4514V27.969C37.9999 27.9668 37.9995 27.9646 37.9995 27.9623C37.999 27.9166 37.9928 27.8712 37.9811 27.827H37.9811ZM31.4015 36.5057L27.0297 34.121V28.9445L31.4015 31.528V36.5057ZM31.9581 30.5637L27.6 27.9883L31.9581 25.6112L36.3163 27.9884L31.9581 30.5637ZM36.8866 34.121L32.5148 36.5057V31.5279L36.8866 28.9445V34.121ZM36.7368 16.6746C36.7174 16.5291 36.6411 16.3973 36.5246 16.3082C36.408 16.219 36.2609 16.1797 36.1154 16.199C36.0059 16.2125 35.9029 16.2582 35.8193 16.3302C35.7357 16.4022 35.6753 16.4974 35.6458 16.6037C35.6162 16.71 35.6188 16.8226 35.6532 16.9275C35.6876 17.0323 35.7523 17.1246 35.8391 17.1927C35.9258 17.2608 36.0309 17.3017 36.1409 17.3102C36.2509 17.3187 36.3609 17.2944 36.4571 17.2404C36.5534 17.1864 36.6314 17.1051 36.6815 17.0068C36.7316 16.9085 36.7514 16.7976 36.7385 16.688L36.7368 16.6746ZM12.0646 27.827C12.0632 27.8218 12.0617 27.8166 12.0601 27.8113C12.0551 27.7944 12.0492 27.7776 12.0425 27.7611C12.0404 27.7559 12.0384 27.7507 12.0362 27.7455C12.0274 27.725 12.0173 27.7051 12.0061 27.6858L12.0056 27.6852L12.0041 27.683C11.9929 27.6644 11.9807 27.6466 11.9674 27.6295C11.9638 27.6249 11.9601 27.6206 11.9565 27.6161C11.945 27.6021 11.933 27.5888 11.9205 27.5762C11.9169 27.5726 11.9134 27.569 11.9097 27.5655C11.8764 27.5339 11.8394 27.5066 11.7994 27.4841C11.7973 27.483 11.7954 27.4815 11.7934 27.4804L6.30822 24.4885C6.22645 24.4439 6.1348 24.4205 6.04167 24.4205C5.94853 24.4205 5.85688 24.4439 5.77511 24.4885L0.290121 27.4804C0.287895 27.4815 0.285965 27.4832 0.283738 27.4844C0.244009 27.5067 0.20719 27.5338 0.174117 27.5652C0.170109 27.5689 0.166398 27.5728 0.162539 27.5768C0.150219 27.5891 0.138467 27.6021 0.127285 27.6157C0.1235 27.6203 0.119566 27.6249 0.11593 27.6296C0.102686 27.6467 0.0904445 27.6645 0.0792656 27.6831L0.0777812 27.6852L0.0774102 27.6858C0.0661609 27.7051 0.0560739 27.725 0.0472031 27.7455C0.0449766 27.7507 0.0430469 27.7559 0.0409687 27.7611C0.0342396 27.7777 0.0283763 27.7944 0.0233789 27.8113C0.0218203 27.8165 0.0201875 27.8217 0.0188516 27.827C0.00714727 27.8712 0.000964689 27.9166 0.000445313 27.9623C0.000445313 27.9646 0 27.9668 0 27.969V34.4514C5.73406e-06 34.5514 0.0269506 34.6496 0.0780026 34.7356C0.129054 34.8216 0.202328 34.8922 0.290121 34.9401L5.77407 37.9313C5.79381 37.9421 5.81418 37.9516 5.83508 37.9599C5.83923 37.9615 5.84354 37.9629 5.84777 37.9645C5.8637 37.9704 5.87993 37.9756 5.89646 37.9801C5.9021 37.9816 5.90766 37.9831 5.9133 37.9845C5.92911 37.9882 5.94522 37.9912 5.96147 37.9935C5.96689 37.9943 5.97223 37.9954 5.97765 37.996C6.02024 38.0013 6.06332 38.0013 6.1059 37.996C6.11132 37.9954 6.11666 37.9943 6.12208 37.9935C6.144 37.9904 6.16571 37.9859 6.1871 37.9802C6.20362 37.9757 6.21983 37.9705 6.23571 37.9646C6.23994 37.9629 6.24425 37.9616 6.24848 37.9599C6.26937 37.9516 6.28975 37.9421 6.30948 37.9313L11.7934 34.9401C11.8812 34.8922 11.9545 34.8216 12.0056 34.7356C12.0566 34.6496 12.0835 34.5514 12.0836 34.4514V27.969C12.0836 27.9668 12.0831 27.9646 12.083 27.9623C12.0825 27.9167 12.0764 27.8712 12.0647 27.827H12.0646ZM5.48506 36.5057L1.11321 34.121V28.9445L5.48506 31.528V36.5057ZM6.0417 30.5637L1.6835 27.9883L6.04163 25.6112L10.3999 27.9884L6.0417 30.5637ZM10.9702 34.121L6.59834 36.5057V31.5279L10.9702 28.9445V34.121ZM3.07236 14.8621C3.1186 14.7222 3.10746 14.5696 3.04139 14.4379C2.97531 14.3062 2.85969 14.206 2.71988 14.1594C2.58007 14.1128 2.42748 14.1235 2.29557 14.1893C2.16366 14.255 2.06321 14.3704 2.01623 14.51L2.01311 14.5196C1.9863 14.6029 1.97954 14.6914 1.99336 14.7778C2.00719 14.8642 2.04121 14.9461 2.09267 15.0169C2.14413 15.0877 2.21156 15.1454 2.2895 15.1852C2.36743 15.225 2.45366 15.2459 2.54118 15.2461C2.65875 15.2457 2.77323 15.2084 2.86852 15.1395C2.96381 15.0707 3.0351 14.9736 3.07236 14.8621ZM27.4439 19C27.4439 17.3299 26.9487 15.6973 26.0209 14.3087C25.093 12.9201 23.7743 11.8378 22.2313 11.1987C20.6884 10.5596 18.9906 10.3924 17.3526 10.7182C15.7146 11.044 14.21 11.8482 13.0291 13.0292C11.8482 14.2101 11.044 15.7147 10.7182 17.3526C10.3923 18.9906 10.5596 20.6884 11.1987 22.2314C11.8378 23.7743 12.9201 25.0931 14.3087 26.0209C15.6973 26.9488 17.3299 27.444 18.9999 27.444C21.2386 27.4415 23.3849 26.551 24.9679 24.968C26.551 23.385 27.4414 21.2387 27.4439 19ZM18.9999 26.3307C17.55 26.3307 16.1327 25.9008 14.9272 25.0953C13.7217 24.2897 12.7821 23.1448 12.2272 21.8053C11.6724 20.4658 11.5272 18.9918 11.81 17.5698C12.0929 16.1478 12.7911 14.8416 13.8163 13.8164C14.8415 12.7911 16.1477 12.093 17.5698 11.8101C18.9918 11.5272 20.4658 11.6724 21.8053 12.2273C23.1448 12.7821 24.2897 13.7217 25.0952 14.9272C25.9007 16.1328 26.3307 17.5501 26.3307 19C26.3284 20.9435 25.5554 22.8068 24.1811 24.1811C22.8068 25.5554 20.9435 26.3285 18.9999 26.3307ZM35.9067 22.8558C35.7997 22.8273 35.6867 22.8312 35.5819 22.8668C35.4771 22.9024 35.3852 22.9683 35.3177 23.056C35.2502 23.1438 35.2102 23.2495 35.2027 23.3599C35.1952 23.4704 35.2205 23.5805 35.2754 23.6766C35.3304 23.7727 35.4125 23.8504 35.5116 23.8999C35.6105 23.9494 35.722 23.9685 35.8318 23.9548C35.9417 23.9412 36.045 23.8953 36.1288 23.823C36.2127 23.7508 36.2733 23.6553 36.303 23.5487L36.3068 23.5339C36.3436 23.3909 36.3222 23.2391 36.2471 23.112C36.1721 22.9848 36.0497 22.8927 35.9067 22.8558H35.9067ZM36.2628 20.6636C36.1164 20.6443 35.9684 20.6838 35.8512 20.7736C35.734 20.8634 35.6573 20.996 35.6378 21.1424C35.6376 21.1445 35.6364 21.1538 35.6362 21.1557C35.6191 21.3019 35.6605 21.4489 35.7514 21.5646C35.8424 21.6803 35.9754 21.7553 36.1215 21.7731C36.2676 21.791 36.4148 21.7503 36.5309 21.6599C36.6471 21.5695 36.7227 21.4368 36.7412 21.2908L36.1897 21.2155L36.7415 21.2885C36.7511 21.216 36.7464 21.1424 36.7275 21.0718C36.7086 21.0011 36.676 20.9349 36.6316 20.8769C36.5871 20.8189 36.5317 20.7701 36.4684 20.7335C36.4051 20.697 36.3352 20.6732 36.2628 20.6636ZM13.7411 34.7505C13.734 34.7479 13.7269 34.7453 13.7197 34.7427C13.5797 34.6951 13.4265 34.7046 13.2935 34.7692C13.1605 34.8338 13.0583 34.9483 13.0092 35.0878C12.9601 35.2274 12.9681 35.3806 13.0313 35.5143C13.0946 35.648 13.2081 35.7513 13.3471 35.8018C13.4861 35.8523 13.6394 35.8459 13.7737 35.784C13.908 35.7221 14.0125 35.6097 14.0644 35.4712C14.1164 35.3327 14.1115 35.1794 14.051 35.0444C13.9905 34.9095 13.8791 34.8038 13.7412 34.7505H13.7411ZM13.5097 35.3677L13.5126 35.3596L13.5457 35.2717L13.5097 35.3677Z" fill="black"/>
</g>
<defs>
<clipPath id="clip0_431_10726">
<rect width="38" height="38" fill="white"/>
</clipPath>
</defs>
</svg>
