<svg width="38" height="38" viewBox="0 0 38 38" fill="none" xmlns="http://www.w3.org/2000/svg">
<path d="M19.3632 25.3636L23.7273 25.0002C24.6678 24.9219 25.3921 24.1357 25.3921 23.1917C25.3921 22.1894 24.5799 21.376 23.5765 21.376H16.2365C14.9885 21.376 13.7582 21.6669 12.642 22.225L8.83008 24.1298" stroke="black" stroke-miterlimit="10" stroke-linecap="round" stroke-linejoin="round"/>
<path d="M25.3806 23.3855L32.3168 21.4819C33.1492 21.2539 34.0161 21.704 34.3082 22.5163C34.5956 23.3143 34.231 24.2013 33.4651 24.5659L23.6112 29.9013C22.5258 30.4891 21.254 30.6316 20.0665 30.2979L14.8178 28.8254L10.728 30.8181" stroke="black" stroke-miterlimit="10" stroke-linecap="round" stroke-linejoin="round"/>
<path d="M3.5625 24.5147L8.40987 22.5601L11.039 32.3581L7.125 34.4232" stroke="black" stroke-miterlimit="10" stroke-linecap="round" stroke-linejoin="round"/>
<path d="M33.25 8.48253V15.2679L27.3125 18.6606L21.375 15.2679V8.48253L27.3125 5.08984L33.25 8.48253Z" stroke="black" stroke-width="1.2" stroke-miterlimit="10" stroke-linecap="round" stroke-linejoin="round"/>
<path d="M33.25 8.48242L27.3125 11.8751L21.375 8.48242" stroke="black" stroke-width="1.2" stroke-miterlimit="10" stroke-linecap="round" stroke-linejoin="round"/>
<path d="M27.3125 11.875V18.6604" stroke="black" stroke-width="1.2" stroke-miterlimit="10" stroke-linecap="round" stroke-linejoin="round"/>
<path d="M17.8125 14.25H13.0625" stroke="black" stroke-width="1.2" stroke-miterlimit="10" stroke-linecap="round" stroke-linejoin="round"/>
<path d="M10.6875 16.625C11.9992 16.625 13.0625 15.5617 13.0625 14.25C13.0625 12.9383 11.9992 11.875 10.6875 11.875C9.37582 11.875 8.3125 12.9383 8.3125 14.25C8.3125 15.5617 9.37582 16.625 10.6875 16.625Z" stroke="black" stroke-width="1.2" stroke-miterlimit="10" stroke-linecap="round" stroke-linejoin="round"/>
<path d="M11.875 8.3125C13.1867 8.3125 14.25 7.24918 14.25 5.9375C14.25 4.62582 13.1867 3.5625 11.875 3.5625C10.5633 3.5625 9.5 4.62582 9.5 5.9375C9.5 7.24918 10.5633 8.3125 11.875 8.3125Z" stroke="black" stroke-width="1.2" stroke-miterlimit="10" stroke-linecap="round" stroke-linejoin="round"/>
<path d="M17.8126 9.50007H15.4376L13.5542 7.6167" stroke="black" stroke-width="1.2" stroke-miterlimit="10" stroke-linecap="round" stroke-linejoin="round"/>
</svg>
