<svg width="38" height="38" viewBox="0 0 38 38" fill="none" xmlns="http://www.w3.org/2000/svg">
<mask id="path-1-outside-1_523_10630" maskUnits="userSpaceOnUse" x="2" y="2" width="33" height="33" fill="black">
<rect fill="white" x="2" y="2" width="33" height="33"/>
<path d="M4.51571 13.5379V18.0017C4.51571 19.0475 5.48576 19.6728 6.41034 19.6728H7.92604C8.02654 19.6728 8.12292 19.6328 8.19399 19.5618C8.26505 19.4907 8.30497 19.3943 8.30497 19.2938C8.30497 19.1933 8.26505 19.097 8.19399 19.0259C8.12292 18.9548 8.02654 18.9149 7.92604 18.9149H6.41034C5.84574 18.9149 5.27356 18.5739 5.27356 18.0017V13.6099H8.6839V16.2624C8.6839 16.3629 8.72382 16.4593 8.79488 16.5304C8.86594 16.6014 8.96233 16.6414 9.06282 16.6414C9.16332 16.6414 9.2597 16.6014 9.33077 16.5304C9.40183 16.4593 9.44175 16.3629 9.44175 16.2624V13.6099H11.5941C12.1086 13.6118 12.6043 13.4164 12.9793 13.064C13.3542 12.7116 13.5799 12.229 13.6099 11.7153H17.8501C18.087 11.7178 18.322 11.6736 18.5418 11.5853C18.7616 11.4969 18.9619 11.3662 19.1311 11.2004C19.3004 11.0347 19.4353 10.8373 19.5282 10.6194C19.6212 10.4015 19.6703 10.1674 19.6728 9.93057V8.6839C19.6728 8.5834 19.6328 8.48702 19.5618 8.41596C19.4907 8.34489 19.3943 8.30497 19.2938 8.30497C19.1933 8.30497 19.097 8.34489 19.0259 8.41596C18.9548 8.48702 18.9149 8.5834 18.9149 8.6839V9.93057C18.9124 10.0679 18.8829 10.2034 18.8281 10.3294C18.7732 10.4553 18.6941 10.5692 18.5952 10.6646C18.4964 10.7599 18.3797 10.8349 18.2518 10.8851C18.124 10.9354 17.9875 10.96 17.8501 10.9575H13.6099V7.54712H16.2624C16.3629 7.54712 16.4593 7.5072 16.5304 7.43613C16.6014 7.36507 16.6414 7.26869 16.6414 7.16819C16.6414 7.06769 16.6014 6.97131 16.5304 6.90025C16.4593 6.82919 16.3629 6.78927 16.2624 6.78927H13.6099V5.01589C13.6089 4.48155 13.3962 3.96938 13.0184 3.59155C12.6406 3.21371 12.1284 3.001 11.5941 3H5.01589C4.48155 3.001 3.96938 3.21371 3.59155 3.59155C3.21371 3.96938 3.001 4.48155 3 5.01589V11.5941C3.00198 12.0401 3.15185 12.4729 3.42613 12.8247C3.7004 13.1764 4.0836 13.4273 4.51571 13.5379ZM3.75785 5.01589C3.75785 4.68224 3.8904 4.36225 4.12632 4.12632C4.36225 3.8904 4.68224 3.75785 5.01589 3.75785H11.5941C11.9277 3.75785 12.2477 3.8904 12.4836 4.12632C12.7195 4.36225 12.8521 4.68224 12.8521 5.01589V11.5941C12.8521 11.9277 12.7195 12.2477 12.4836 12.4836C12.2477 12.7195 11.9277 12.8521 11.5941 12.8521H5.01589C4.68224 12.8521 4.36225 12.7195 4.12632 12.4836C3.8904 12.2477 3.75785 11.9277 3.75785 11.5941V5.01589Z"/>
<path d="M32.0561 3.00001H25.478C24.9634 2.99817 24.4677 3.19352 24.0928 3.54592C23.7178 3.89831 23.4921 4.38097 23.4621 4.89465H18.9983C18.0283 4.89465 17.0203 5.50851 17.0203 6.5354V7.92606C17.0203 8.02656 17.0603 8.12294 17.1313 8.194C17.2024 8.26506 17.2988 8.30498 17.3993 8.30498C17.4998 8.30498 17.5961 8.26506 17.6672 8.194C17.7383 8.12294 17.7782 8.02656 17.7782 7.92606V6.5354C17.7782 5.98974 18.411 5.6525 18.9983 5.6525H23.4621V9.06284H20.4307C20.3302 9.06284 20.2338 9.10276 20.1627 9.17382C20.0917 9.24488 20.0518 9.34127 20.0518 9.44176C20.0518 9.54226 20.0917 9.63864 20.1627 9.70971C20.2338 9.78077 20.3302 9.82069 20.4307 9.82069H23.4621V11.5941C23.4602 12.1086 23.6556 12.6043 24.008 12.9793C24.3604 13.3542 24.843 13.5799 25.3567 13.61V18.0434C25.3471 18.2638 25.3842 18.4838 25.4655 18.689C25.5469 18.8941 25.6708 19.0796 25.8289 19.2335C25.9871 19.3874 26.176 19.5061 26.3833 19.5818C26.5905 19.6575 26.8115 19.6885 27.0316 19.6728H28.3881C28.4886 19.6728 28.585 19.6329 28.6561 19.5618C28.7271 19.4907 28.7671 19.3944 28.7671 19.2939C28.7671 19.1934 28.7271 19.097 28.6561 19.0259C28.585 18.9549 28.4886 18.9149 28.3881 18.9149H27.0316C26.9114 18.9305 26.7892 18.9191 26.674 18.8815C26.5588 18.8439 26.4534 18.781 26.3655 18.6975C26.2777 18.614 26.2096 18.512 26.1661 18.3988C26.1227 18.2857 26.1051 18.1642 26.1146 18.0434V13.61H29.5249V16.2624C29.5249 16.3629 29.5648 16.4593 29.6359 16.5304C29.707 16.6014 29.8033 16.6414 29.9038 16.6414C30.0043 16.6414 30.1007 16.6014 30.1718 16.5304C30.2428 16.4593 30.2828 16.3629 30.2828 16.2624V13.61H32.0561C32.5905 13.609 33.1027 13.3962 33.4805 13.0184C33.8583 12.6406 34.071 12.1284 34.072 11.5941V5.0159C34.071 4.48156 33.8583 3.9694 33.4805 3.59156C33.1027 3.21372 32.5905 3.00101 32.0561 3.00001ZM33.3142 11.5941C33.3142 11.9277 33.1816 12.2477 32.9457 12.4836C32.7098 12.7196 32.3898 12.8521 32.0561 12.8521H25.478C25.1443 12.8521 24.8243 12.7196 24.5884 12.4836C24.3525 12.2477 24.2199 11.9277 24.2199 11.5941V5.0159C24.2199 4.68225 24.3525 4.36226 24.5884 4.12634C24.8243 3.89041 25.1443 3.75787 25.478 3.75787H32.0561C32.3898 3.75787 32.7098 3.89041 32.9457 4.12634C33.1816 4.36226 33.3142 4.68225 33.3142 5.0159V11.5941Z"/>
<path d="M32.1774 23.8407V19.1912C32.1824 18.958 32.1409 18.7261 32.0552 18.5091C31.9696 18.2921 31.8415 18.0943 31.6785 17.9274C31.5154 17.7605 31.3208 17.6278 31.1059 17.5371C30.8909 17.4463 30.6601 17.3994 30.4268 17.3989H29.146C29.0455 17.3989 28.9491 17.4388 28.878 17.5099C28.807 17.581 28.7671 17.6773 28.7671 17.7778C28.7671 17.8783 28.807 17.9747 28.878 18.0458C28.9491 18.1168 29.0455 18.1568 29.146 18.1568H30.4268C30.5607 18.1566 30.6933 18.1836 30.8166 18.2361C30.9398 18.2886 31.0512 18.3655 31.1439 18.4621C31.2367 18.5588 31.3089 18.6732 31.3563 18.7985C31.4037 18.9238 31.4252 19.0574 31.4195 19.1912V23.8407H28.0092V20.8092C28.0092 20.7087 27.9693 20.6124 27.8982 20.5413C27.8272 20.4702 27.7308 20.4303 27.6303 20.4303C27.5298 20.4303 27.4334 20.4702 27.3623 20.5413C27.2913 20.6124 27.2514 20.7087 27.2514 20.8092V23.8407H25.478C25.0306 23.841 24.5961 23.9901 24.2428 24.2645C23.8895 24.5389 23.6375 24.923 23.5265 25.3564C23.5051 25.3545 23.4835 25.3545 23.4621 25.3564H18.9983C18.4945 25.3609 18.0108 25.5554 17.6441 25.9011C17.2775 26.2467 17.0547 26.7179 17.0203 27.2207V28.3878C17.0203 28.4883 17.0603 28.5847 17.1313 28.6557C17.2024 28.7268 17.2988 28.7667 17.3993 28.7667C17.4998 28.7667 17.5961 28.7268 17.6672 28.6557C17.7383 28.5847 17.7782 28.4883 17.7782 28.3878V27.2207C17.8161 26.921 17.9599 26.6447 18.1836 26.4418C18.4074 26.2389 18.6964 26.1227 18.9983 26.1142H23.4621V29.5246H20.4307C20.3302 29.5246 20.2338 29.5645 20.1627 29.6355C20.0917 29.7066 20.0518 29.803 20.0518 29.9035C20.0518 30.004 20.0917 30.1004 20.1627 30.1714C20.2338 30.2425 20.3302 30.2824 20.4307 30.2824H23.4621V32.4347C23.4631 32.9691 23.6758 33.4812 24.0536 33.8591C24.4315 34.2369 24.9436 34.4496 25.478 34.4506H32.0561C32.5905 34.4496 33.1027 34.2369 33.4805 33.8591C33.8583 33.4812 34.071 32.9691 34.072 32.4347V25.8565C34.0739 25.342 33.8785 24.8463 33.5261 24.4713C33.1737 24.0964 32.6911 23.8707 32.1774 23.8407ZM33.3142 32.4233C33.3157 32.5895 33.2843 32.7543 33.2217 32.9083C33.1592 33.0622 33.0667 33.2022 32.9498 33.3203C32.8328 33.4383 32.6936 33.532 32.5402 33.5959C32.3868 33.6598 32.2223 33.6928 32.0561 33.6927H25.478C25.1443 33.6927 24.8243 33.5602 24.5884 33.3243C24.3525 33.0884 24.2199 32.7684 24.2199 32.4347V25.8565C24.2199 25.5229 24.3525 25.2029 24.5884 24.967C24.8243 24.7311 25.1443 24.5985 25.478 24.5985H32.0561C32.3898 24.5985 32.7098 24.7311 32.9457 24.967C33.1816 25.2029 33.3142 25.5229 33.3142 25.8565V32.4233Z"/>
<path d="M19.2938 28.7673C19.1933 28.7673 19.097 28.8072 19.0259 28.8783C18.9548 28.9493 18.9149 29.0457 18.9149 29.1462V30.6164C18.9147 30.9102 18.8058 31.1935 18.6092 31.4117C18.4126 31.63 18.1422 31.7678 17.8501 31.7987H13.6099V28.3884H16.2624C16.3629 28.3884 16.4593 28.3484 16.5304 28.2774C16.6014 28.2063 16.6414 28.1099 16.6414 28.0094C16.6414 27.9089 16.6014 27.8126 16.5304 27.7415C16.4593 27.6704 16.3629 27.6305 16.2624 27.6305H13.6099V25.8571C13.6118 25.3426 13.4164 24.8469 13.064 24.4719C12.7116 24.097 12.229 23.8713 11.7153 23.8412V19.1501C11.6946 18.6673 11.4838 18.2123 11.1288 17.8843C10.7739 17.5563 10.3036 17.382 9.82068 17.3995H8.6839C8.5834 17.3995 8.48702 17.4394 8.41596 17.5105C8.34489 17.5815 8.30497 17.6779 8.30497 17.7784C8.30497 17.8789 8.34489 17.9753 8.41596 18.0464C8.48702 18.1174 8.5834 18.1573 8.6839 18.1573H9.82068C10.1016 18.1445 10.3766 18.2406 10.5884 18.4255C10.8001 18.6105 10.9324 18.8701 10.9575 19.1501V23.8412H7.54712V20.8098C7.54712 20.7093 7.5072 20.613 7.43613 20.5419C7.36507 20.4708 7.26869 20.4309 7.16819 20.4309C7.06769 20.4309 6.97131 20.4708 6.90025 20.5419C6.82919 20.613 6.78927 20.7093 6.78927 20.8098V23.8412H5.01589C4.48155 23.8422 3.96938 24.055 3.59155 24.4328C3.21371 24.8106 3.001 25.3228 3 25.8571V32.4353C3.001 32.9696 3.21371 33.4818 3.59155 33.8596C3.96938 34.2375 4.48155 34.4502 5.01589 34.4512H11.5941C12.1086 34.453 12.6043 34.2577 12.9793 33.9053C13.3542 33.5529 13.5799 33.0702 13.6099 32.5566H17.8501C18.3447 32.5284 18.8096 32.3114 19.1487 31.9503C19.4879 31.5893 19.6755 31.1118 19.6728 30.6164V29.1462C19.6728 29.0457 19.6328 28.9493 19.5618 28.8783C19.4907 28.8072 19.3943 28.7673 19.2938 28.7673ZM12.8521 32.4353C12.8521 32.7689 12.7195 33.0889 12.4836 33.3249C12.2477 33.5608 11.9277 33.6933 11.5941 33.6933H5.01589C4.68224 33.6933 4.36225 33.5608 4.12632 33.3249C3.8904 33.0889 3.75785 32.7689 3.75785 32.4353V25.8571C3.75785 25.5235 3.8904 25.2035 4.12632 24.9676C4.36225 24.7316 4.68224 24.5991 5.01589 24.5991H11.5941C11.9277 24.5991 12.2477 24.7316 12.4836 24.9676C12.7195 25.2035 12.8521 25.5235 12.8521 25.8571V32.4353Z"/>
</mask>
<path d="M4.51571 13.5379V18.0017C4.51571 19.0475 5.48576 19.6728 6.41034 19.6728H7.92604C8.02654 19.6728 8.12292 19.6328 8.19399 19.5618C8.26505 19.4907 8.30497 19.3943 8.30497 19.2938C8.30497 19.1933 8.26505 19.097 8.19399 19.0259C8.12292 18.9548 8.02654 18.9149 7.92604 18.9149H6.41034C5.84574 18.9149 5.27356 18.5739 5.27356 18.0017V13.6099H8.6839V16.2624C8.6839 16.3629 8.72382 16.4593 8.79488 16.5304C8.86594 16.6014 8.96233 16.6414 9.06282 16.6414C9.16332 16.6414 9.2597 16.6014 9.33077 16.5304C9.40183 16.4593 9.44175 16.3629 9.44175 16.2624V13.6099H11.5941C12.1086 13.6118 12.6043 13.4164 12.9793 13.064C13.3542 12.7116 13.5799 12.229 13.6099 11.7153H17.8501C18.087 11.7178 18.322 11.6736 18.5418 11.5853C18.7616 11.4969 18.9619 11.3662 19.1311 11.2004C19.3004 11.0347 19.4353 10.8373 19.5282 10.6194C19.6212 10.4015 19.6703 10.1674 19.6728 9.93057V8.6839C19.6728 8.5834 19.6328 8.48702 19.5618 8.41596C19.4907 8.34489 19.3943 8.30497 19.2938 8.30497C19.1933 8.30497 19.097 8.34489 19.0259 8.41596C18.9548 8.48702 18.9149 8.5834 18.9149 8.6839V9.93057C18.9124 10.0679 18.8829 10.2034 18.8281 10.3294C18.7732 10.4553 18.6941 10.5692 18.5952 10.6646C18.4964 10.7599 18.3797 10.8349 18.2518 10.8851C18.124 10.9354 17.9875 10.96 17.8501 10.9575H13.6099V7.54712H16.2624C16.3629 7.54712 16.4593 7.5072 16.5304 7.43613C16.6014 7.36507 16.6414 7.26869 16.6414 7.16819C16.6414 7.06769 16.6014 6.97131 16.5304 6.90025C16.4593 6.82919 16.3629 6.78927 16.2624 6.78927H13.6099V5.01589C13.6089 4.48155 13.3962 3.96938 13.0184 3.59155C12.6406 3.21371 12.1284 3.001 11.5941 3H5.01589C4.48155 3.001 3.96938 3.21371 3.59155 3.59155C3.21371 3.96938 3.001 4.48155 3 5.01589V11.5941C3.00198 12.0401 3.15185 12.4729 3.42613 12.8247C3.7004 13.1764 4.0836 13.4273 4.51571 13.5379ZM3.75785 5.01589C3.75785 4.68224 3.8904 4.36225 4.12632 4.12632C4.36225 3.8904 4.68224 3.75785 5.01589 3.75785H11.5941C11.9277 3.75785 12.2477 3.8904 12.4836 4.12632C12.7195 4.36225 12.8521 4.68224 12.8521 5.01589V11.5941C12.8521 11.9277 12.7195 12.2477 12.4836 12.4836C12.2477 12.7195 11.9277 12.8521 11.5941 12.8521H5.01589C4.68224 12.8521 4.36225 12.7195 4.12632 12.4836C3.8904 12.2477 3.75785 11.9277 3.75785 11.5941V5.01589Z" fill="black"/>
<path d="M32.0561 3.00001H25.478C24.9634 2.99817 24.4677 3.19352 24.0928 3.54592C23.7178 3.89831 23.4921 4.38097 23.4621 4.89465H18.9983C18.0283 4.89465 17.0203 5.50851 17.0203 6.5354V7.92606C17.0203 8.02656 17.0603 8.12294 17.1313 8.194C17.2024 8.26506 17.2988 8.30498 17.3993 8.30498C17.4998 8.30498 17.5961 8.26506 17.6672 8.194C17.7383 8.12294 17.7782 8.02656 17.7782 7.92606V6.5354C17.7782 5.98974 18.411 5.6525 18.9983 5.6525H23.4621V9.06284H20.4307C20.3302 9.06284 20.2338 9.10276 20.1627 9.17382C20.0917 9.24488 20.0518 9.34127 20.0518 9.44176C20.0518 9.54226 20.0917 9.63864 20.1627 9.70971C20.2338 9.78077 20.3302 9.82069 20.4307 9.82069H23.4621V11.5941C23.4602 12.1086 23.6556 12.6043 24.008 12.9793C24.3604 13.3542 24.843 13.5799 25.3567 13.61V18.0434C25.3471 18.2638 25.3842 18.4838 25.4655 18.689C25.5469 18.8941 25.6708 19.0796 25.8289 19.2335C25.9871 19.3874 26.176 19.5061 26.3833 19.5818C26.5905 19.6575 26.8115 19.6885 27.0316 19.6728H28.3881C28.4886 19.6728 28.585 19.6329 28.6561 19.5618C28.7271 19.4907 28.7671 19.3944 28.7671 19.2939C28.7671 19.1934 28.7271 19.097 28.6561 19.0259C28.585 18.9549 28.4886 18.9149 28.3881 18.9149H27.0316C26.9114 18.9305 26.7892 18.9191 26.674 18.8815C26.5588 18.8439 26.4534 18.781 26.3655 18.6975C26.2777 18.614 26.2096 18.512 26.1661 18.3988C26.1227 18.2857 26.1051 18.1642 26.1146 18.0434V13.61H29.5249V16.2624C29.5249 16.3629 29.5648 16.4593 29.6359 16.5304C29.707 16.6014 29.8033 16.6414 29.9038 16.6414C30.0043 16.6414 30.1007 16.6014 30.1718 16.5304C30.2428 16.4593 30.2828 16.3629 30.2828 16.2624V13.61H32.0561C32.5905 13.609 33.1027 13.3962 33.4805 13.0184C33.8583 12.6406 34.071 12.1284 34.072 11.5941V5.0159C34.071 4.48156 33.8583 3.9694 33.4805 3.59156C33.1027 3.21372 32.5905 3.00101 32.0561 3.00001ZM33.3142 11.5941C33.3142 11.9277 33.1816 12.2477 32.9457 12.4836C32.7098 12.7196 32.3898 12.8521 32.0561 12.8521H25.478C25.1443 12.8521 24.8243 12.7196 24.5884 12.4836C24.3525 12.2477 24.2199 11.9277 24.2199 11.5941V5.0159C24.2199 4.68225 24.3525 4.36226 24.5884 4.12634C24.8243 3.89041 25.1443 3.75787 25.478 3.75787H32.0561C32.3898 3.75787 32.7098 3.89041 32.9457 4.12634C33.1816 4.36226 33.3142 4.68225 33.3142 5.0159V11.5941Z" fill="black"/>
<path d="M32.1774 23.8407V19.1912C32.1824 18.958 32.1409 18.7261 32.0552 18.5091C31.9696 18.2921 31.8415 18.0943 31.6785 17.9274C31.5154 17.7605 31.3208 17.6278 31.1059 17.5371C30.8909 17.4463 30.6601 17.3994 30.4268 17.3989H29.146C29.0455 17.3989 28.9491 17.4388 28.878 17.5099C28.807 17.581 28.7671 17.6773 28.7671 17.7778C28.7671 17.8783 28.807 17.9747 28.878 18.0458C28.9491 18.1168 29.0455 18.1568 29.146 18.1568H30.4268C30.5607 18.1566 30.6933 18.1836 30.8166 18.2361C30.9398 18.2886 31.0512 18.3655 31.1439 18.4621C31.2367 18.5588 31.3089 18.6732 31.3563 18.7985C31.4037 18.9238 31.4252 19.0574 31.4195 19.1912V23.8407H28.0092V20.8092C28.0092 20.7087 27.9693 20.6124 27.8982 20.5413C27.8272 20.4702 27.7308 20.4303 27.6303 20.4303C27.5298 20.4303 27.4334 20.4702 27.3623 20.5413C27.2913 20.6124 27.2514 20.7087 27.2514 20.8092V23.8407H25.478C25.0306 23.841 24.5961 23.9901 24.2428 24.2645C23.8895 24.5389 23.6375 24.923 23.5265 25.3564C23.5051 25.3545 23.4835 25.3545 23.4621 25.3564H18.9983C18.4945 25.3609 18.0108 25.5554 17.6441 25.9011C17.2775 26.2467 17.0547 26.7179 17.0203 27.2207V28.3878C17.0203 28.4883 17.0603 28.5847 17.1313 28.6557C17.2024 28.7268 17.2988 28.7667 17.3993 28.7667C17.4998 28.7667 17.5961 28.7268 17.6672 28.6557C17.7383 28.5847 17.7782 28.4883 17.7782 28.3878V27.2207C17.8161 26.921 17.9599 26.6447 18.1836 26.4418C18.4074 26.2389 18.6964 26.1227 18.9983 26.1142H23.4621V29.5246H20.4307C20.3302 29.5246 20.2338 29.5645 20.1627 29.6355C20.0917 29.7066 20.0518 29.803 20.0518 29.9035C20.0518 30.004 20.0917 30.1004 20.1627 30.1714C20.2338 30.2425 20.3302 30.2824 20.4307 30.2824H23.4621V32.4347C23.4631 32.9691 23.6758 33.4812 24.0536 33.8591C24.4315 34.2369 24.9436 34.4496 25.478 34.4506H32.0561C32.5905 34.4496 33.1027 34.2369 33.4805 33.8591C33.8583 33.4812 34.071 32.9691 34.072 32.4347V25.8565C34.0739 25.342 33.8785 24.8463 33.5261 24.4713C33.1737 24.0964 32.6911 23.8707 32.1774 23.8407ZM33.3142 32.4233C33.3157 32.5895 33.2843 32.7543 33.2217 32.9083C33.1592 33.0622 33.0667 33.2022 32.9498 33.3203C32.8328 33.4383 32.6936 33.532 32.5402 33.5959C32.3868 33.6598 32.2223 33.6928 32.0561 33.6927H25.478C25.1443 33.6927 24.8243 33.5602 24.5884 33.3243C24.3525 33.0884 24.2199 32.7684 24.2199 32.4347V25.8565C24.2199 25.5229 24.3525 25.2029 24.5884 24.967C24.8243 24.7311 25.1443 24.5985 25.478 24.5985H32.0561C32.3898 24.5985 32.7098 24.7311 32.9457 24.967C33.1816 25.2029 33.3142 25.5229 33.3142 25.8565V32.4233Z" fill="black"/>
<path d="M19.2938 28.7673C19.1933 28.7673 19.097 28.8072 19.0259 28.8783C18.9548 28.9493 18.9149 29.0457 18.9149 29.1462V30.6164C18.9147 30.9102 18.8058 31.1935 18.6092 31.4117C18.4126 31.63 18.1422 31.7678 17.8501 31.7987H13.6099V28.3884H16.2624C16.3629 28.3884 16.4593 28.3484 16.5304 28.2774C16.6014 28.2063 16.6414 28.1099 16.6414 28.0094C16.6414 27.9089 16.6014 27.8126 16.5304 27.7415C16.4593 27.6704 16.3629 27.6305 16.2624 27.6305H13.6099V25.8571C13.6118 25.3426 13.4164 24.8469 13.064 24.4719C12.7116 24.097 12.229 23.8713 11.7153 23.8412V19.1501C11.6946 18.6673 11.4838 18.2123 11.1288 17.8843C10.7739 17.5563 10.3036 17.382 9.82068 17.3995H8.6839C8.5834 17.3995 8.48702 17.4394 8.41596 17.5105C8.34489 17.5815 8.30497 17.6779 8.30497 17.7784C8.30497 17.8789 8.34489 17.9753 8.41596 18.0464C8.48702 18.1174 8.5834 18.1573 8.6839 18.1573H9.82068C10.1016 18.1445 10.3766 18.2406 10.5884 18.4255C10.8001 18.6105 10.9324 18.8701 10.9575 19.1501V23.8412H7.54712V20.8098C7.54712 20.7093 7.5072 20.613 7.43613 20.5419C7.36507 20.4708 7.26869 20.4309 7.16819 20.4309C7.06769 20.4309 6.97131 20.4708 6.90025 20.5419C6.82919 20.613 6.78927 20.7093 6.78927 20.8098V23.8412H5.01589C4.48155 23.8422 3.96938 24.055 3.59155 24.4328C3.21371 24.8106 3.001 25.3228 3 25.8571V32.4353C3.001 32.9696 3.21371 33.4818 3.59155 33.8596C3.96938 34.2375 4.48155 34.4502 5.01589 34.4512H11.5941C12.1086 34.453 12.6043 34.2577 12.9793 33.9053C13.3542 33.5529 13.5799 33.0702 13.6099 32.5566H17.8501C18.3447 32.5284 18.8096 32.3114 19.1487 31.9503C19.4879 31.5893 19.6755 31.1118 19.6728 30.6164V29.1462C19.6728 29.0457 19.6328 28.9493 19.5618 28.8783C19.4907 28.8072 19.3943 28.7673 19.2938 28.7673ZM12.8521 32.4353C12.8521 32.7689 12.7195 33.0889 12.4836 33.3249C12.2477 33.5608 11.9277 33.6933 11.5941 33.6933H5.01589C4.68224 33.6933 4.36225 33.5608 4.12632 33.3249C3.8904 33.0889 3.75785 32.7689 3.75785 32.4353V25.8571C3.75785 25.5235 3.8904 25.2035 4.12632 24.9676C4.36225 24.7316 4.68224 24.5991 5.01589 24.5991H11.5941C11.9277 24.5991 12.2477 24.7316 12.4836 24.9676C12.7195 25.2035 12.8521 25.5235 12.8521 25.8571V32.4353Z" fill="black"/>
<path d="M4.51571 13.5379V18.0017C4.51571 19.0475 5.48576 19.6728 6.41034 19.6728H7.92604C8.02654 19.6728 8.12292 19.6328 8.19399 19.5618C8.26505 19.4907 8.30497 19.3943 8.30497 19.2938C8.30497 19.1933 8.26505 19.097 8.19399 19.0259C8.12292 18.9548 8.02654 18.9149 7.92604 18.9149H6.41034C5.84574 18.9149 5.27356 18.5739 5.27356 18.0017V13.6099H8.6839V16.2624C8.6839 16.3629 8.72382 16.4593 8.79488 16.5304C8.86594 16.6014 8.96233 16.6414 9.06282 16.6414C9.16332 16.6414 9.2597 16.6014 9.33077 16.5304C9.40183 16.4593 9.44175 16.3629 9.44175 16.2624V13.6099H11.5941C12.1086 13.6118 12.6043 13.4164 12.9793 13.064C13.3542 12.7116 13.5799 12.229 13.6099 11.7153H17.8501C18.087 11.7178 18.322 11.6736 18.5418 11.5853C18.7616 11.4969 18.9619 11.3662 19.1311 11.2004C19.3004 11.0347 19.4353 10.8373 19.5282 10.6194C19.6212 10.4015 19.6703 10.1674 19.6728 9.93057V8.6839C19.6728 8.5834 19.6328 8.48702 19.5618 8.41596C19.4907 8.34489 19.3943 8.30497 19.2938 8.30497C19.1933 8.30497 19.097 8.34489 19.0259 8.41596C18.9548 8.48702 18.9149 8.5834 18.9149 8.6839V9.93057C18.9124 10.0679 18.8829 10.2034 18.8281 10.3294C18.7732 10.4553 18.6941 10.5692 18.5952 10.6646C18.4964 10.7599 18.3797 10.8349 18.2518 10.8851C18.124 10.9354 17.9875 10.96 17.8501 10.9575H13.6099V7.54712H16.2624C16.3629 7.54712 16.4593 7.5072 16.5304 7.43613C16.6014 7.36507 16.6414 7.26869 16.6414 7.16819C16.6414 7.06769 16.6014 6.97131 16.5304 6.90025C16.4593 6.82919 16.3629 6.78927 16.2624 6.78927H13.6099V5.01589C13.6089 4.48155 13.3962 3.96938 13.0184 3.59155C12.6406 3.21371 12.1284 3.001 11.5941 3H5.01589C4.48155 3.001 3.96938 3.21371 3.59155 3.59155C3.21371 3.96938 3.001 4.48155 3 5.01589V11.5941C3.00198 12.0401 3.15185 12.4729 3.42613 12.8247C3.7004 13.1764 4.0836 13.4273 4.51571 13.5379ZM3.75785 5.01589C3.75785 4.68224 3.8904 4.36225 4.12632 4.12632C4.36225 3.8904 4.68224 3.75785 5.01589 3.75785H11.5941C11.9277 3.75785 12.2477 3.8904 12.4836 4.12632C12.7195 4.36225 12.8521 4.68224 12.8521 5.01589V11.5941C12.8521 11.9277 12.7195 12.2477 12.4836 12.4836C12.2477 12.7195 11.9277 12.8521 11.5941 12.8521H5.01589C4.68224 12.8521 4.36225 12.7195 4.12632 12.4836C3.8904 12.2477 3.75785 11.9277 3.75785 11.5941V5.01589Z" stroke="black" stroke-width="0.2" mask="url(#path-1-outside-1_523_10630)"/>
<path d="M32.0561 3.00001H25.478C24.9634 2.99817 24.4677 3.19352 24.0928 3.54592C23.7178 3.89831 23.4921 4.38097 23.4621 4.89465H18.9983C18.0283 4.89465 17.0203 5.50851 17.0203 6.5354V7.92606C17.0203 8.02656 17.0603 8.12294 17.1313 8.194C17.2024 8.26506 17.2988 8.30498 17.3993 8.30498C17.4998 8.30498 17.5961 8.26506 17.6672 8.194C17.7383 8.12294 17.7782 8.02656 17.7782 7.92606V6.5354C17.7782 5.98974 18.411 5.6525 18.9983 5.6525H23.4621V9.06284H20.4307C20.3302 9.06284 20.2338 9.10276 20.1627 9.17382C20.0917 9.24488 20.0518 9.34127 20.0518 9.44176C20.0518 9.54226 20.0917 9.63864 20.1627 9.70971C20.2338 9.78077 20.3302 9.82069 20.4307 9.82069H23.4621V11.5941C23.4602 12.1086 23.6556 12.6043 24.008 12.9793C24.3604 13.3542 24.843 13.5799 25.3567 13.61V18.0434C25.3471 18.2638 25.3842 18.4838 25.4655 18.689C25.5469 18.8941 25.6708 19.0796 25.8289 19.2335C25.9871 19.3874 26.176 19.5061 26.3833 19.5818C26.5905 19.6575 26.8115 19.6885 27.0316 19.6728H28.3881C28.4886 19.6728 28.585 19.6329 28.6561 19.5618C28.7271 19.4907 28.7671 19.3944 28.7671 19.2939C28.7671 19.1934 28.7271 19.097 28.6561 19.0259C28.585 18.9549 28.4886 18.9149 28.3881 18.9149H27.0316C26.9114 18.9305 26.7892 18.9191 26.674 18.8815C26.5588 18.8439 26.4534 18.781 26.3655 18.6975C26.2777 18.614 26.2096 18.512 26.1661 18.3988C26.1227 18.2857 26.1051 18.1642 26.1146 18.0434V13.61H29.5249V16.2624C29.5249 16.3629 29.5648 16.4593 29.6359 16.5304C29.707 16.6014 29.8033 16.6414 29.9038 16.6414C30.0043 16.6414 30.1007 16.6014 30.1718 16.5304C30.2428 16.4593 30.2828 16.3629 30.2828 16.2624V13.61H32.0561C32.5905 13.609 33.1027 13.3962 33.4805 13.0184C33.8583 12.6406 34.071 12.1284 34.072 11.5941V5.0159C34.071 4.48156 33.8583 3.9694 33.4805 3.59156C33.1027 3.21372 32.5905 3.00101 32.0561 3.00001ZM33.3142 11.5941C33.3142 11.9277 33.1816 12.2477 32.9457 12.4836C32.7098 12.7196 32.3898 12.8521 32.0561 12.8521H25.478C25.1443 12.8521 24.8243 12.7196 24.5884 12.4836C24.3525 12.2477 24.2199 11.9277 24.2199 11.5941V5.0159C24.2199 4.68225 24.3525 4.36226 24.5884 4.12634C24.8243 3.89041 25.1443 3.75787 25.478 3.75787H32.0561C32.3898 3.75787 32.7098 3.89041 32.9457 4.12634C33.1816 4.36226 33.3142 4.68225 33.3142 5.0159V11.5941Z" stroke="black" stroke-width="0.2" mask="url(#path-1-outside-1_523_10630)"/>
<path d="M32.1774 23.8407V19.1912C32.1824 18.958 32.1409 18.7261 32.0552 18.5091C31.9696 18.2921 31.8415 18.0943 31.6785 17.9274C31.5154 17.7605 31.3208 17.6278 31.1059 17.5371C30.8909 17.4463 30.6601 17.3994 30.4268 17.3989H29.146C29.0455 17.3989 28.9491 17.4388 28.878 17.5099C28.807 17.581 28.7671 17.6773 28.7671 17.7778C28.7671 17.8783 28.807 17.9747 28.878 18.0458C28.9491 18.1168 29.0455 18.1568 29.146 18.1568H30.4268C30.5607 18.1566 30.6933 18.1836 30.8166 18.2361C30.9398 18.2886 31.0512 18.3655 31.1439 18.4621C31.2367 18.5588 31.3089 18.6732 31.3563 18.7985C31.4037 18.9238 31.4252 19.0574 31.4195 19.1912V23.8407H28.0092V20.8092C28.0092 20.7087 27.9693 20.6124 27.8982 20.5413C27.8272 20.4702 27.7308 20.4303 27.6303 20.4303C27.5298 20.4303 27.4334 20.4702 27.3623 20.5413C27.2913 20.6124 27.2514 20.7087 27.2514 20.8092V23.8407H25.478C25.0306 23.841 24.5961 23.9901 24.2428 24.2645C23.8895 24.5389 23.6375 24.923 23.5265 25.3564C23.5051 25.3545 23.4835 25.3545 23.4621 25.3564H18.9983C18.4945 25.3609 18.0108 25.5554 17.6441 25.9011C17.2775 26.2467 17.0547 26.7179 17.0203 27.2207V28.3878C17.0203 28.4883 17.0603 28.5847 17.1313 28.6557C17.2024 28.7268 17.2988 28.7667 17.3993 28.7667C17.4998 28.7667 17.5961 28.7268 17.6672 28.6557C17.7383 28.5847 17.7782 28.4883 17.7782 28.3878V27.2207C17.8161 26.921 17.9599 26.6447 18.1836 26.4418C18.4074 26.2389 18.6964 26.1227 18.9983 26.1142H23.4621V29.5246H20.4307C20.3302 29.5246 20.2338 29.5645 20.1627 29.6355C20.0917 29.7066 20.0518 29.803 20.0518 29.9035C20.0518 30.004 20.0917 30.1004 20.1627 30.1714C20.2338 30.2425 20.3302 30.2824 20.4307 30.2824H23.4621V32.4347C23.4631 32.9691 23.6758 33.4812 24.0536 33.8591C24.4315 34.2369 24.9436 34.4496 25.478 34.4506H32.0561C32.5905 34.4496 33.1027 34.2369 33.4805 33.8591C33.8583 33.4812 34.071 32.9691 34.072 32.4347V25.8565C34.0739 25.342 33.8785 24.8463 33.5261 24.4713C33.1737 24.0964 32.6911 23.8707 32.1774 23.8407ZM33.3142 32.4233C33.3157 32.5895 33.2843 32.7543 33.2217 32.9083C33.1592 33.0622 33.0667 33.2022 32.9498 33.3203C32.8328 33.4383 32.6936 33.532 32.5402 33.5959C32.3868 33.6598 32.2223 33.6928 32.0561 33.6927H25.478C25.1443 33.6927 24.8243 33.5602 24.5884 33.3243C24.3525 33.0884 24.2199 32.7684 24.2199 32.4347V25.8565C24.2199 25.5229 24.3525 25.2029 24.5884 24.967C24.8243 24.7311 25.1443 24.5985 25.478 24.5985H32.0561C32.3898 24.5985 32.7098 24.7311 32.9457 24.967C33.1816 25.2029 33.3142 25.5229 33.3142 25.8565V32.4233Z" stroke="black" stroke-width="0.2" mask="url(#path-1-outside-1_523_10630)"/>
<path d="M19.2938 28.7673C19.1933 28.7673 19.097 28.8072 19.0259 28.8783C18.9548 28.9493 18.9149 29.0457 18.9149 29.1462V30.6164C18.9147 30.9102 18.8058 31.1935 18.6092 31.4117C18.4126 31.63 18.1422 31.7678 17.8501 31.7987H13.6099V28.3884H16.2624C16.3629 28.3884 16.4593 28.3484 16.5304 28.2774C16.6014 28.2063 16.6414 28.1099 16.6414 28.0094C16.6414 27.9089 16.6014 27.8126 16.5304 27.7415C16.4593 27.6704 16.3629 27.6305 16.2624 27.6305H13.6099V25.8571C13.6118 25.3426 13.4164 24.8469 13.064 24.4719C12.7116 24.097 12.229 23.8713 11.7153 23.8412V19.1501C11.6946 18.6673 11.4838 18.2123 11.1288 17.8843C10.7739 17.5563 10.3036 17.382 9.82068 17.3995H8.6839C8.5834 17.3995 8.48702 17.4394 8.41596 17.5105C8.34489 17.5815 8.30497 17.6779 8.30497 17.7784C8.30497 17.8789 8.34489 17.9753 8.41596 18.0464C8.48702 18.1174 8.5834 18.1573 8.6839 18.1573H9.82068C10.1016 18.1445 10.3766 18.2406 10.5884 18.4255C10.8001 18.6105 10.9324 18.8701 10.9575 19.1501V23.8412H7.54712V20.8098C7.54712 20.7093 7.5072 20.613 7.43613 20.5419C7.36507 20.4708 7.26869 20.4309 7.16819 20.4309C7.06769 20.4309 6.97131 20.4708 6.90025 20.5419C6.82919 20.613 6.78927 20.7093 6.78927 20.8098V23.8412H5.01589C4.48155 23.8422 3.96938 24.055 3.59155 24.4328C3.21371 24.8106 3.001 25.3228 3 25.8571V32.4353C3.001 32.9696 3.21371 33.4818 3.59155 33.8596C3.96938 34.2375 4.48155 34.4502 5.01589 34.4512H11.5941C12.1086 34.453 12.6043 34.2577 12.9793 33.9053C13.3542 33.5529 13.5799 33.0702 13.6099 32.5566H17.8501C18.3447 32.5284 18.8096 32.3114 19.1487 31.9503C19.4879 31.5893 19.6755 31.1118 19.6728 30.6164V29.1462C19.6728 29.0457 19.6328 28.9493 19.5618 28.8783C19.4907 28.8072 19.3943 28.7673 19.2938 28.7673ZM12.8521 32.4353C12.8521 32.7689 12.7195 33.0889 12.4836 33.3249C12.2477 33.5608 11.9277 33.6933 11.5941 33.6933H5.01589C4.68224 33.6933 4.36225 33.5608 4.12632 33.3249C3.8904 33.0889 3.75785 32.7689 3.75785 32.4353V25.8571C3.75785 25.5235 3.8904 25.2035 4.12632 24.9676C4.36225 24.7316 4.68224 24.5991 5.01589 24.5991H11.5941C11.9277 24.5991 12.2477 24.7316 12.4836 24.9676C12.7195 25.2035 12.8521 25.5235 12.8521 25.8571V32.4353Z" stroke="black" stroke-width="0.2" mask="url(#path-1-outside-1_523_10630)"/>
</svg>
