<svg width="38" height="38" viewBox="0 0 38 38" fill="none" xmlns="http://www.w3.org/2000/svg">
<path d="M13.6599 10.9075H17.8501H17.851V10.9075C17.9818 10.9099 18.1118 10.8865 18.2335 10.8386C18.3553 10.7908 18.4664 10.7194 18.5605 10.6286C18.6547 10.5378 18.73 10.4293 18.7823 10.3094C18.8344 10.1896 18.8625 10.0608 18.8649 9.93014V8.6839C18.8649 8.57014 18.9101 8.46104 18.9905 8.3806C19.071 8.30016 19.1801 8.25497 19.2938 8.25497C19.4076 8.25497 19.5167 8.30016 19.5971 8.3806C19.6776 8.46104 19.7228 8.57014 19.7228 8.6839V9.93057V9.93109C19.7202 10.1745 19.6697 10.4151 19.5742 10.639C19.4787 10.8629 19.34 11.0658 19.1661 11.2362C18.9921 11.4065 18.7864 11.5409 18.5605 11.6317C18.3347 11.7224 18.0932 11.7678 17.8499 11.7653M13.6599 10.9075L18.9149 9.93057V8.6839C18.9149 8.5834 18.9548 8.48702 19.0259 8.41596C19.097 8.34489 19.1933 8.30497 19.2938 8.30497C19.3943 8.30497 19.4907 8.34489 19.5618 8.41596C19.6328 8.48702 19.6728 8.5834 19.6728 8.6839V9.93057C19.6703 10.1674 19.6212 10.4015 19.5282 10.6194C19.4353 10.8373 19.3004 11.0347 19.1311 11.2004C18.9619 11.3662 18.7616 11.4969 18.5418 11.5853C18.322 11.6736 18.087 11.7178 17.8501 11.7153H13.6099M13.6599 10.9075V7.59712H16.2624C16.3762 7.59712 16.4853 7.55193 16.5657 7.47149C16.6462 7.39105 16.6914 7.28195 16.6914 7.16819C16.6914 7.05443 16.6462 6.94533 16.5657 6.86489C16.4853 6.78446 16.3762 6.73927 16.2624 6.73927H13.6599V5.01589V5.0158C13.6589 4.46823 13.4409 3.94338 13.0538 3.55619C12.6666 3.169 12.1417 2.95103 11.5941 2.95H11.5941L5.01589 2.95L5.01579 2.95C4.46823 2.95103 3.94338 3.169 3.55619 3.55619C3.169 3.94338 2.95103 4.46823 2.95 5.0158V5.01589L2.95 11.5941L2.95 11.5943C2.95203 12.0514 3.10562 12.4949 3.3867 12.8554C3.65979 13.2057 4.03827 13.4583 4.46571 13.5764M13.6599 10.9075L4.51571 13.5379M17.8499 11.7653C17.8498 11.7653 17.8497 11.7653 17.8496 11.7653L17.8501 11.7154V11.7653H17.8499ZM17.8499 11.7653H13.6566M13.6566 11.7653C13.6578 11.7496 13.6589 11.734 13.6599 11.7182L13.6099 11.7153M13.6566 11.7653H13.6099V11.7153M13.6566 11.7653C13.6151 12.2741 13.3863 12.7501 13.0135 13.1005C12.6293 13.4616 12.1213 13.6618 11.5941 13.6599M13.6099 11.7153C13.5799 12.229 13.3542 12.7116 12.9793 13.064C12.6043 13.4164 12.1086 13.6118 11.5941 13.6099M11.5941 13.6099V13.6599M11.5941 13.6099H9.49175V13.6599M11.5941 13.6099L11.5939 13.6599M11.5941 13.6599L11.5939 13.6599M11.5941 13.6599C11.594 13.6599 11.5939 13.6599 11.5939 13.6599M11.5939 13.6599L9.49175 13.6599M9.49175 13.6599H9.44175V16.2624C9.44175 16.3629 9.40183 16.4593 9.33077 16.5304C9.2597 16.6014 9.16332 16.6414 9.06282 16.6414C8.96233 16.6414 8.86594 16.6014 8.79488 16.5304C8.72382 16.4593 8.6839 16.3629 8.6839 16.2624V13.6599H8.6339M9.49175 13.6599V16.2624C9.49175 16.3762 9.44656 16.4853 9.36612 16.5657C9.28568 16.6462 9.17658 16.6914 9.06282 16.6914C8.94907 16.6914 8.83997 16.6462 8.75953 16.5657C8.67909 16.4853 8.6339 16.3762 8.6339 16.2624V13.6599M8.6339 13.6599V13.6099H5.32356V13.6599M8.6339 13.6599H5.32356M5.32356 13.6599H5.27356V18.0017C5.27356 18.5739 5.84574 18.9149 6.41034 18.9149H7.92604C8.02654 18.9149 8.12292 18.9548 8.19399 19.0259C8.26505 19.097 8.30497 19.1933 8.30497 19.2938C8.30497 19.3943 8.26505 19.4907 8.19399 19.5618C8.12292 19.6328 8.02654 19.6728 7.92604 19.6728H6.41034C5.48576 19.6728 4.51571 19.0475 4.51571 18.0017V13.5379M5.32356 13.6599V18.0017C5.32356 18.2691 5.45663 18.4834 5.65981 18.6326C5.86385 18.7823 6.13737 18.8649 6.41034 18.8649H7.92604C8.0398 18.8649 8.1489 18.9101 8.22934 18.9905C8.30978 19.071 8.35497 19.1801 8.35497 19.2938C8.35497 19.4076 8.30978 19.5167 8.22934 19.5971C8.1489 19.6776 8.0398 19.7228 7.92604 19.7228H6.41034C5.46903 19.7228 4.46571 19.0849 4.46571 18.0017V13.5764M4.46571 13.5764C4.4782 13.5798 4.49073 13.5832 4.5033 13.5864L4.51571 13.5379M4.46571 13.5764V13.5379H4.51571M3.80785 5.01589C3.80785 4.6955 3.93513 4.38823 4.16168 4.16168C4.38823 3.93513 4.6955 3.80785 5.01589 3.80785H11.5941C11.9144 3.80785 12.2217 3.93513 12.4483 4.16168C12.6748 4.38823 12.8021 4.6955 12.8021 5.01589V11.5941C12.8021 11.9144 12.6748 12.2217 12.4483 12.4483C12.2217 12.6748 11.9144 12.8021 11.5941 12.8021H5.01589C4.6955 12.8021 4.38823 12.6748 4.16168 12.4483C3.93513 12.2217 3.80785 11.9144 3.80785 11.5941V5.01589Z" fill="black" stroke="black" stroke-width="0.1"/>
<path d="M32.0563 2.95001H32.0564C32.604 2.95104 33.1288 3.16901 33.516 3.5562C33.9032 3.94339 34.1212 4.46824 34.1222 5.01581L34.1222 5.0159V11.5941V11.5942C34.1212 12.1417 33.9032 12.6666 33.516 13.0538C33.1288 13.441 32.604 13.6589 32.0564 13.66H32.0563H30.3329V16.2624C30.3329 16.3762 30.2877 16.4853 30.2073 16.5657C30.1269 16.6462 30.0178 16.6914 29.904 16.6914C29.7903 16.6914 29.6812 16.6462 29.6007 16.5657C29.5203 16.4853 29.4751 16.3762 29.4751 16.2624V13.66H26.1647V18.0434V18.0473L26.1646 18.0473C26.1557 18.1607 26.1722 18.2747 26.213 18.3809C26.2537 18.4871 26.3177 18.5829 26.4001 18.6613C26.4826 18.7397 26.5815 18.7987 26.6897 18.834C26.7978 18.8693 26.9125 18.88 27.0253 18.8653L27.0317 18.8645V18.8649H28.3883C28.5021 18.8649 28.6112 18.9101 28.6916 18.9906C28.772 19.071 28.8172 19.1801 28.8172 19.2939C28.8172 19.4076 28.772 19.5167 28.6916 19.5972C28.6112 19.6776 28.5021 19.7228 28.3883 19.7228H27.0335C26.807 19.7387 26.5796 19.7066 26.3663 19.6287C26.1524 19.5506 25.9574 19.4281 25.7942 19.2693C25.631 19.1106 25.5032 18.9191 25.4192 18.7074C25.3354 18.4961 25.2971 18.2694 25.3069 18.0423V13.6566C24.7981 13.6151 24.3221 13.3863 23.9717 13.0135C23.6106 12.6293 23.4104 12.1213 23.4123 11.594V11.5941H23.4623L23.4123 11.5939L32.0563 2.95001ZM32.0563 2.95001H25.4782H32.0563ZM23.4123 9.87069H23.4623V9.82069H23.4123V9.87069ZM23.4623 9.06284H23.4123V9.01284H23.4623V9.06284ZM23.4123 5.7025H23.4623V5.6525H23.4123V5.7025ZM26.1147 13.66V13.61H26.1647L26.1147 13.66ZM33.2643 11.5941C33.2643 11.9145 33.1371 12.2217 32.9105 12.4483C32.684 12.6748 32.3767 12.8021 32.0563 12.8021H25.4781C25.1578 12.8021 24.8505 12.6748 24.6239 12.4483C24.3974 12.2217 24.2701 11.9145 24.2701 11.5941V5.0159C24.2701 4.69551 24.3974 4.38824 24.6239 4.16169C24.8505 3.93514 25.1578 3.80787 25.4781 3.80787H32.0563C32.3767 3.80787 32.684 3.93514 32.9105 4.16169C33.1371 4.38824 33.2643 4.69551 33.2643 5.0159V11.5941Z" fill="black" stroke="black" stroke-width="0.1"/>
<path d="M23.4123 26.1642H18.9992C18.7094 26.1725 18.4322 26.2841 18.2174 26.4789C18.0032 26.6731 17.8653 26.9372 17.8284 27.2239V28.3878C17.8284 28.5016 17.7832 28.6107 17.7027 28.6911C17.6223 28.7715 17.5132 28.8167 17.3994 28.8167C17.2857 28.8167 17.1766 28.7715 17.0961 28.6911C17.0157 28.6107 16.9705 28.5016 16.9705 28.3878V27.2207V27.2173L16.9706 27.2173C17.0058 26.702 17.2342 26.219 17.61 25.8647C17.9859 25.5104 18.4816 25.3111 18.9981 25.3064L18.9985 25.3064L23.4602 25.3064C23.4697 25.3056 23.4791 25.3052 23.4886 25.3051C23.6072 24.8769 23.8608 24.498 24.2123 24.225C24.5744 23.9438 25.0197 23.791 25.4781 23.7907H25.4781H27.2015V20.8093C27.2015 20.6955 27.2467 20.5864 27.3272 20.506C27.4076 20.4255 27.5167 20.3803 27.6305 20.3803C27.7442 20.3803 27.8533 20.4255 27.9337 20.506C28.0142 20.5864 28.0594 20.6955 28.0594 20.8093V23.7907H31.3697V19.1912V19.1891L31.3698 19.1891C31.3751 19.062 31.3547 18.9352 31.3097 18.8162C31.2647 18.6972 31.1961 18.5885 31.108 18.4968C31.0199 18.405 30.9142 18.332 30.7971 18.2821C30.6801 18.2323 30.5542 18.2067 30.427 18.2068L30.4269 18.2068H29.1462C29.0324 18.2068 28.9233 18.1616 28.8429 18.0811C28.7624 18.0007 28.7172 17.8916 28.7172 17.7779C28.7172 17.6641 28.7624 17.555 28.8429 17.4746C28.9233 17.3941 29.0324 17.3489 29.1462 17.3489H30.4269H30.427C30.667 17.3494 30.9044 17.3977 31.1255 17.491C31.3465 17.5844 31.5467 17.7209 31.7144 17.8925C31.8821 18.0642 32.0138 18.2675 32.1019 18.4907C32.19 18.7138 32.2327 18.9521 32.2276 19.1918V23.7941C32.7364 23.8355 33.2124 24.0643 33.5627 24.4371C33.9238 24.8213 34.124 25.3293 34.1222 25.8566C34.1222 25.8566 34.1222 25.8567 34.1222 25.8567M23.4123 26.1642L34.0722 25.8566L34.1222 25.8567M23.4123 26.1642V29.4746H20.4308C20.3171 29.4746 20.208 29.5198 20.1275 29.6002C20.0471 29.6806 20.0019 29.7897 20.0019 29.9035C20.0019 30.0173 20.0471 30.1264 20.1275 30.2068C20.208 30.2872 20.3171 30.3324 20.4308 30.3324H23.4123M23.4123 26.1642V30.3324M34.1222 25.8567L34.1222 32.4347V32.4348C34.1212 32.9824 33.9032 33.5072 33.516 33.8944C33.1288 34.2816 32.604 34.4996 32.0564 34.5006H32.0563H25.4781H25.4781C24.9305 34.4996 24.4056 34.2816 24.0184 33.8944C23.6313 33.5072 23.4133 32.9824 23.4123 32.4348V32.4347V30.3324M34.1222 25.8567L23.4123 30.3324M33.2643 32.4234L33.2644 32.4238C33.2658 32.5834 33.2356 32.7416 33.1755 32.8895C33.1155 33.0373 33.0267 33.1718 32.9144 33.2851C32.8021 33.3984 32.6684 33.4884 32.5211 33.5498C32.3739 33.6112 32.2159 33.6428 32.0563 33.6428H25.4781C25.1578 33.6428 24.8505 33.5155 24.6239 33.2889C24.3974 33.0624 24.2701 32.7551 24.2701 32.4347V25.8566C24.2701 25.5362 24.3974 25.2289 24.6239 25.0024C24.8505 24.7758 25.1578 24.6485 25.4781 24.6485H32.0563C32.3767 24.6485 32.684 24.7758 32.9105 25.0024C33.1371 25.2289 33.2643 25.5362 33.2643 25.8566L33.2643 32.4234Z" fill="black" stroke="black" stroke-width="0.1"/>
<path d="M13.6599 25.8573C13.6618 25.33 13.4616 24.822 13.1005 24.4378C12.7501 24.065 12.2741 23.8362 11.7653 23.7948V19.1503H11.7654L11.7653 19.1481C11.744 18.6521 11.5274 18.1846 11.1628 17.8477C10.7984 17.511 10.3156 17.332 9.81978 17.3496H8.6839C8.57014 17.3496 8.46104 17.3948 8.3806 17.4753C8.30016 17.5557 8.25497 17.6648 8.25497 17.7786C8.25497 17.8923 8.30016 18.0014 8.3806 18.0819C8.46104 18.1623 8.57014 18.2075 8.6839 18.2075H9.82068V18.2075L9.82296 18.2074C10.091 18.1952 10.3534 18.2869 10.5555 18.4633C10.757 18.6393 10.883 18.8861 10.9075 19.1525V23.7914L13.6599 25.8573ZM13.6599 25.8573C13.6599 25.8573 13.6599 25.8574 13.6599 25.8575M13.6599 25.8573L13.6599 25.8575M13.6599 25.8575L13.6599 27.5806" fill="black" stroke="black" stroke-width="0.1"/>
</svg>
