<svg width="20" height="20" viewBox="0 0 20 20" fill="none" xmlns="http://www.w3.org/2000/svg">
<path fill-rule="evenodd" clip-rule="evenodd" d="M6.4225 18.5772C6.30596 18.6937 6.15749 18.773 5.99586 18.8052C5.83423 18.8373 5.6667 18.8208 5.51445 18.7577C5.3622 18.6947 5.23207 18.5879 5.1405 18.4509C5.04893 18.3139 5.00004 18.1528 5 17.988V16.6663H4.16667C3.72464 16.6663 3.30072 16.4907 2.98816 16.1782C2.67559 15.8656 2.5 15.4417 2.5 14.9997V7.49967C2.5 7.05765 2.67559 6.63372 2.98816 6.32116C3.30072 6.0086 3.72464 5.83301 4.16667 5.83301H16.6667C17.1087 5.83301 17.5326 6.0086 17.8452 6.32116C18.1577 6.63372 18.3333 7.05765 18.3333 7.49967V14.9997C18.3333 15.4417 18.1577 15.8656 17.8452 16.1782C17.5326 16.4907 17.1087 16.6663 16.6667 16.6663H8.33333L6.4225 18.5772Z" stroke="white" stroke-linecap="round"/>
<path d="M10.4165 5.41634V4.58301" stroke="white" stroke-linecap="square"/>
<path d="M7.0835 12.5C7.77385 12.5 8.3335 11.9404 8.3335 11.25C8.3335 10.5596 7.77385 10 7.0835 10C6.39314 10 5.8335 10.5596 5.8335 11.25C5.8335 11.9404 6.39314 12.5 7.0835 12.5Z" fill="#00C4C3"/>
<path d="M13.75 12.5C14.4404 12.5 15 11.9404 15 11.25C15 10.5596 14.4404 10 13.75 10C13.0596 10 12.5 10.5596 12.5 11.25C12.5 11.9404 13.0596 12.5 13.75 12.5Z" fill="#00C4C3"/>
<path d="M10.4165 4.1665C11.1069 4.1665 11.6665 3.60686 11.6665 2.9165C11.6665 2.22615 11.1069 1.6665 10.4165 1.6665C9.72615 1.6665 9.1665 2.22615 9.1665 2.9165C9.1665 3.60686 9.72615 4.1665 10.4165 4.1665Z" stroke="white"/>
<path d="M11.6667 14.583H9.16667C8.93655 14.583 8.75 14.7696 8.75 14.9997C8.75 15.2298 8.93655 15.4163 9.16667 15.4163H11.6667C11.8968 15.4163 12.0833 15.2298 12.0833 14.9997C12.0833 14.7696 11.8968 14.583 11.6667 14.583Z" stroke="#00C4C3"/>
<path d="M6.6665 14.1663C5.28567 14.1663 4.1665 12.8605 4.1665 11.2497C4.1665 9.63884 5.28567 8.33301 6.6665 8.33301H14.1665C15.5473 8.33301 16.6665 9.63884 16.6665 11.2497C16.6665 12.8605 15.5473 14.1663 14.1665 14.1663" stroke="#00C4C3" stroke-linecap="round"/>
</svg>
