<svg width="358" height="350" viewBox="0 0 358 350" fill="none" xmlns="http://www.w3.org/2000/svg">
<g filter="url(#filter0_d_504_11668)">
<rect x="4" width="350" height="342" rx="15" fill="white"/>
<path d="M10.066 28V20.374H7.12V19.36H14.08V20.374H11.134V28H10.066ZM16.8344 28.18C16.1904 28.18 15.6344 28.034 15.1664 27.742C14.7024 27.45 14.3444 27.046 14.0924 26.53C13.8404 26.014 13.7144 25.422 13.7144 24.754C13.7144 24.074 13.8424 23.478 14.0984 22.966C14.3544 22.454 14.7164 22.056 15.1844 21.772C15.6524 21.484 16.2024 21.34 16.8344 21.34C17.4824 21.34 18.0404 21.486 18.5084 21.778C18.9764 22.066 19.3344 22.468 19.5824 22.984C19.8344 23.496 19.9604 24.086 19.9604 24.754C19.9604 25.43 19.8344 26.026 19.5824 26.542C19.3304 27.054 18.9704 27.456 18.5024 27.748C18.0344 28.036 17.4784 28.18 16.8344 28.18ZM16.8344 27.166C17.5064 27.166 18.0064 26.942 18.3344 26.494C18.6624 26.046 18.8264 25.466 18.8264 24.754C18.8264 24.022 18.6604 23.44 18.3284 23.008C17.9964 22.572 17.4984 22.354 16.8344 22.354C16.3824 22.354 16.0104 22.456 15.7184 22.66C15.4264 22.864 15.2084 23.146 15.0644 23.506C14.9204 23.866 14.8484 24.282 14.8484 24.754C14.8484 25.482 15.0164 26.066 15.3524 26.506C15.6884 26.946 16.1824 27.166 16.8344 27.166ZM24.8994 28C24.5154 28.076 24.1354 28.106 23.7594 28.09C23.3874 28.078 23.0554 28.004 22.7634 27.868C22.4714 27.728 22.2494 27.512 22.0974 27.22C21.9694 26.964 21.8994 26.706 21.8874 26.446C21.8794 26.182 21.8754 25.884 21.8754 25.552V19.72H22.9434V25.504C22.9434 25.768 22.9454 25.994 22.9494 26.182C22.9574 26.37 22.9994 26.532 23.0754 26.668C23.2194 26.924 23.4474 27.074 23.7594 27.118C24.0754 27.162 24.4554 27.15 24.8994 27.082V28ZM20.5614 22.402V21.52H24.8994V22.402H20.5614ZM28.057 28.18C27.573 28.18 27.167 28.092 26.839 27.916C26.515 27.736 26.269 27.5 26.101 27.208C25.937 26.916 25.855 26.596 25.855 26.248C25.855 25.908 25.919 25.614 26.047 25.366C26.179 25.114 26.363 24.906 26.599 24.742C26.835 24.574 27.117 24.442 27.445 24.346C27.753 24.262 28.097 24.19 28.477 24.13C28.861 24.066 29.249 24.008 29.641 23.956C30.033 23.904 30.399 23.854 30.739 23.806L30.355 24.028C30.367 23.452 30.251 23.026 30.007 22.75C29.767 22.474 29.351 22.336 28.759 22.336C28.367 22.336 28.023 22.426 27.727 22.606C27.435 22.782 27.229 23.07 27.109 23.47L26.095 23.164C26.251 22.596 26.553 22.15 27.001 21.826C27.449 21.502 28.039 21.34 28.771 21.34C29.359 21.34 29.863 21.446 30.283 21.658C30.707 21.866 31.011 22.182 31.195 22.606C31.287 22.806 31.345 23.024 31.369 23.26C31.393 23.492 31.405 23.736 31.405 23.992V28H30.457V26.446L30.679 26.59C30.435 27.114 30.093 27.51 29.653 27.778C29.217 28.046 28.685 28.18 28.057 28.18ZM28.219 27.286C28.603 27.286 28.935 27.218 29.215 27.082C29.499 26.942 29.727 26.76 29.899 26.536C30.071 26.308 30.183 26.06 30.235 25.792C30.295 25.592 30.327 25.37 30.331 25.126C30.339 24.878 30.343 24.688 30.343 24.556L30.715 24.718C30.367 24.766 30.025 24.812 29.689 24.856C29.353 24.9 29.035 24.948 28.735 25C28.435 25.048 28.165 25.106 27.925 25.174C27.749 25.23 27.583 25.302 27.427 25.39C27.275 25.478 27.151 25.592 27.055 25.732C26.963 25.868 26.917 26.038 26.917 26.242C26.917 26.418 26.961 26.586 27.049 26.746C27.141 26.906 27.281 27.036 27.469 27.136C27.661 27.236 27.911 27.286 28.219 27.286ZM33.085 28V19.18H34.153V28H33.085ZM38.3556 28V19.36H41.7696C41.8536 19.36 41.9536 19.364 42.0696 19.372C42.1856 19.376 42.2976 19.388 42.4056 19.408C42.8736 19.48 43.2656 19.64 43.5816 19.888C43.9016 20.136 44.1416 20.45 44.3016 20.83C44.4616 21.206 44.5416 21.624 44.5416 22.084C44.5416 22.54 44.4596 22.958 44.2956 23.338C44.1356 23.714 43.8956 24.028 43.5756 24.28C43.2596 24.528 42.8696 24.688 42.4056 24.76C42.2976 24.776 42.1856 24.788 42.0696 24.796C41.9536 24.804 41.8536 24.808 41.7696 24.808H39.4236V28H38.3556ZM39.4236 23.794H41.7336C41.8096 23.794 41.8956 23.79 41.9916 23.782C42.0916 23.774 42.1856 23.76 42.2736 23.74C42.5496 23.676 42.7736 23.56 42.9456 23.392C43.1216 23.22 43.2496 23.02 43.3296 22.792C43.4096 22.56 43.4496 22.324 43.4496 22.084C43.4496 21.844 43.4096 21.61 43.3296 21.382C43.2496 21.15 43.1216 20.948 42.9456 20.776C42.7736 20.604 42.5496 20.488 42.2736 20.428C42.1856 20.404 42.0916 20.39 41.9916 20.386C41.8956 20.378 41.8096 20.374 41.7336 20.374H39.4236V23.794ZM50.3524 28V24.754C50.3524 24.446 50.3244 24.15 50.2684 23.866C50.2164 23.582 50.1224 23.328 49.9864 23.104C49.8544 22.876 49.6744 22.696 49.4464 22.564C49.2224 22.432 48.9384 22.366 48.5944 22.366C48.3264 22.366 48.0824 22.412 47.8624 22.504C47.6464 22.592 47.4604 22.728 47.3044 22.912C47.1484 23.096 47.0264 23.328 46.9384 23.608C46.8544 23.884 46.8124 24.21 46.8124 24.586L46.1104 24.37C46.1104 23.742 46.2224 23.204 46.4464 22.756C46.6744 22.304 46.9924 21.958 47.4004 21.718C47.8124 21.474 48.2964 21.352 48.8524 21.352C49.2724 21.352 49.6304 21.418 49.9264 21.55C50.2224 21.682 50.4684 21.858 50.6644 22.078C50.8604 22.294 51.0144 22.538 51.1264 22.81C51.2384 23.078 51.3164 23.352 51.3604 23.632C51.4084 23.908 51.4324 24.17 51.4324 24.418V28H50.3524ZM45.7324 28V21.52H46.6924V23.254H46.8124V28H45.7324ZM53.1123 28V19.18H54.1803V28H53.1123Z" fill="#26A69A"/>
<path d="M301.216 29V23.24H302.052V28.212H304.66V29H301.216ZM306.559 29.12C306.239 29.12 305.971 29.0613 305.755 28.944C305.539 28.824 305.375 28.6667 305.263 28.472C305.154 28.2747 305.099 28.0587 305.099 27.824C305.099 27.6053 305.138 27.4133 305.215 27.248C305.293 27.0827 305.407 26.9427 305.559 26.828C305.711 26.7107 305.898 26.616 306.119 26.544C306.311 26.488 306.529 26.4387 306.771 26.396C307.014 26.3533 307.269 26.3133 307.535 26.276C307.805 26.2387 308.071 26.2013 308.335 26.164L308.031 26.332C308.037 25.9933 307.965 25.7427 307.815 25.58C307.669 25.4147 307.415 25.332 307.055 25.332C306.829 25.332 306.621 25.3853 306.431 25.492C306.242 25.596 306.11 25.7693 306.035 26.012L305.255 25.772C305.362 25.4013 305.565 25.1067 305.863 24.888C306.165 24.6693 306.565 24.56 307.063 24.56C307.45 24.56 307.786 24.6267 308.071 24.76C308.359 24.8907 308.57 25.0987 308.703 25.384C308.773 25.5253 308.815 25.6747 308.831 25.832C308.847 25.9893 308.855 26.1587 308.855 26.34V29H308.115V28.012L308.259 28.14C308.081 28.4707 307.853 28.7173 307.575 28.88C307.301 29.04 306.962 29.12 306.559 29.12ZM306.707 28.436C306.945 28.436 307.149 28.3947 307.319 28.312C307.49 28.2267 307.627 28.1187 307.731 27.988C307.835 27.8573 307.903 27.7213 307.935 27.58C307.981 27.452 308.006 27.308 308.011 27.148C308.019 26.988 308.023 26.86 308.023 26.764L308.295 26.864C308.031 26.904 307.791 26.94 307.575 26.972C307.359 27.004 307.163 27.036 306.987 27.068C306.814 27.0973 306.659 27.1333 306.523 27.176C306.409 27.216 306.306 27.264 306.215 27.32C306.127 27.376 306.057 27.444 306.003 27.524C305.953 27.604 305.927 27.7013 305.927 27.816C305.927 27.928 305.955 28.032 306.011 28.128C306.067 28.2213 306.153 28.296 306.267 28.352C306.382 28.408 306.529 28.436 306.707 28.436ZM311.546 29.116C311.021 29.116 310.593 29 310.262 28.768C309.931 28.536 309.729 28.2093 309.654 27.788L310.51 27.656C310.563 27.88 310.686 28.0573 310.878 28.188C311.073 28.316 311.314 28.38 311.602 28.38C311.863 28.38 312.067 28.3267 312.214 28.22C312.363 28.1133 312.438 27.9667 312.438 27.78C312.438 27.6707 312.411 27.5827 312.358 27.516C312.307 27.4467 312.199 27.3813 312.034 27.32C311.869 27.2587 311.617 27.1827 311.278 27.092C310.907 26.996 310.613 26.8933 310.394 26.784C310.178 26.672 310.023 26.5427 309.93 26.396C309.839 26.2467 309.794 26.0667 309.794 25.856C309.794 25.5947 309.863 25.3667 310.002 25.172C310.141 24.9773 310.335 24.8267 310.586 24.72C310.839 24.6133 311.135 24.56 311.474 24.56C311.805 24.56 312.099 24.612 312.358 24.716C312.617 24.82 312.826 24.968 312.986 25.16C313.146 25.3493 313.242 25.572 313.274 25.828L312.418 25.984C312.389 25.776 312.291 25.612 312.126 25.492C311.961 25.372 311.746 25.3067 311.482 25.296C311.229 25.2853 311.023 25.328 310.866 25.424C310.709 25.5173 310.63 25.6467 310.63 25.812C310.63 25.908 310.659 25.9893 310.718 26.056C310.779 26.1227 310.897 26.1867 311.07 26.248C311.243 26.3093 311.499 26.3827 311.838 26.468C312.201 26.5613 312.489 26.6653 312.702 26.78C312.915 26.892 313.067 27.0267 313.158 27.184C313.251 27.3387 313.298 27.5267 313.298 27.748C313.298 28.1747 313.142 28.5093 312.83 28.752C312.521 28.9947 312.093 29.116 311.546 29.116ZM316.655 29C316.383 29.0533 316.116 29.076 315.855 29.068C315.594 29.06 315.36 29.0093 315.155 28.916C314.95 28.8227 314.795 28.676 314.691 28.476C314.598 28.2973 314.547 28.116 314.539 27.932C314.534 27.7453 314.531 27.5347 314.531 27.3V23.48H315.371V27.26C315.371 27.4333 315.372 27.584 315.375 27.712C315.38 27.84 315.408 27.948 315.459 28.036C315.555 28.2013 315.707 28.296 315.915 28.32C316.126 28.3413 316.372 28.332 316.655 28.292V29ZM313.703 25.352V24.68H316.655V25.352H313.703ZM319.467 29L321.491 24.036H318.927V23.24H322.391V24.036L320.371 29H319.467ZM326.672 29.12C326.27 29.12 325.922 29.02 325.628 28.82C325.338 28.62 325.112 28.348 324.952 28.004C324.795 27.6573 324.716 27.268 324.716 26.836C324.716 26.4013 324.796 26.0133 324.956 25.672C325.116 25.328 325.343 25.0573 325.636 24.86C325.932 24.66 326.283 24.56 326.688 24.56C327.096 24.56 327.439 24.66 327.716 24.86C327.996 25.0573 328.207 25.328 328.348 25.672C328.492 26.016 328.564 26.404 328.564 26.836C328.564 27.268 328.492 27.656 328.348 28C328.204 28.344 327.992 28.6173 327.712 28.82C327.432 29.02 327.086 29.12 326.672 29.12ZM326.788 28.364C327.063 28.364 327.287 28.2987 327.46 28.168C327.634 28.0373 327.76 27.8573 327.84 27.628C327.92 27.3987 327.96 27.1347 327.96 26.836C327.96 26.5373 327.919 26.2733 327.836 26.044C327.756 25.8147 327.631 25.636 327.46 25.508C327.292 25.38 327.078 25.316 326.816 25.316C326.539 25.316 326.311 25.384 326.132 25.52C325.954 25.656 325.82 25.8387 325.732 26.068C325.647 26.2973 325.604 26.5533 325.604 26.836C325.604 27.1213 325.647 27.38 325.732 27.612C325.82 27.8413 325.951 28.024 326.124 28.16C326.3 28.296 326.522 28.364 326.788 28.364ZM327.96 29V25.892H327.864V23.24H328.704V29H327.96ZM331.044 29.12C330.724 29.12 330.456 29.0613 330.24 28.944C330.024 28.824 329.86 28.6667 329.748 28.472C329.638 28.2747 329.584 28.0587 329.584 27.824C329.584 27.6053 329.622 27.4133 329.7 27.248C329.777 27.0827 329.892 26.9427 330.044 26.828C330.196 26.7107 330.382 26.616 330.604 26.544C330.796 26.488 331.013 26.4387 331.256 26.396C331.498 26.3533 331.753 26.3133 332.02 26.276C332.289 26.2387 332.556 26.2013 332.82 26.164L332.516 26.332C332.521 25.9933 332.449 25.7427 332.3 25.58C332.153 25.4147 331.9 25.332 331.54 25.332C331.313 25.332 331.105 25.3853 330.916 25.492C330.726 25.596 330.594 25.7693 330.52 26.012L329.74 25.772C329.846 25.4013 330.049 25.1067 330.348 24.888C330.649 24.6693 331.049 24.56 331.548 24.56C331.934 24.56 332.27 24.6267 332.556 24.76C332.844 24.8907 333.054 25.0987 333.188 25.384C333.257 25.5253 333.3 25.6747 333.316 25.832C333.332 25.9893 333.34 26.1587 333.34 26.34V29H332.6V28.012L332.744 28.14C332.565 28.4707 332.337 28.7173 332.06 28.88C331.785 29.04 331.446 29.12 331.044 29.12ZM331.192 28.436C331.429 28.436 331.633 28.3947 331.804 28.312C331.974 28.2267 332.112 28.1187 332.216 27.988C332.32 27.8573 332.388 27.7213 332.42 27.58C332.465 27.452 332.49 27.308 332.496 27.148C332.504 26.988 332.508 26.86 332.508 26.764L332.78 26.864C332.516 26.904 332.276 26.94 332.06 26.972C331.844 27.004 331.648 27.036 331.472 27.068C331.298 27.0973 331.144 27.1333 331.008 27.176C330.893 27.216 330.79 27.264 330.7 27.32C330.612 27.376 330.541 27.444 330.488 27.524C330.437 27.604 330.412 27.7013 330.412 27.816C330.412 27.928 330.44 28.032 330.496 28.128C330.552 28.2213 330.637 28.296 330.752 28.352C330.866 28.408 331.013 28.436 331.192 28.436ZM334.72 30.92L335.556 28.644L335.568 29.316L333.684 24.68H334.556L335.964 28.26H335.708L337.052 24.68H337.9L335.516 30.92H334.72ZM340.179 29.116C339.653 29.116 339.225 29 338.895 28.768C338.564 28.536 338.361 28.2093 338.287 27.788L339.143 27.656C339.196 27.88 339.319 28.0573 339.511 28.188C339.705 28.316 339.947 28.38 340.235 28.38C340.496 28.38 340.7 28.3267 340.847 28.22C340.996 28.1133 341.071 27.9667 341.071 27.78C341.071 27.6707 341.044 27.5827 340.991 27.516C340.94 27.4467 340.832 27.3813 340.667 27.32C340.501 27.2587 340.249 27.1827 339.911 27.092C339.54 26.996 339.245 26.8933 339.027 26.784C338.811 26.672 338.656 26.5427 338.563 26.396C338.472 26.2467 338.427 26.0667 338.427 25.856C338.427 25.5947 338.496 25.3667 338.635 25.172C338.773 24.9773 338.968 24.8267 339.219 24.72C339.472 24.6133 339.768 24.56 340.107 24.56C340.437 24.56 340.732 24.612 340.991 24.716C341.249 24.82 341.459 24.968 341.619 25.16C341.779 25.3493 341.875 25.572 341.907 25.828L341.051 25.984C341.021 25.776 340.924 25.612 340.759 25.492C340.593 25.372 340.379 25.3067 340.115 25.296C339.861 25.2853 339.656 25.328 339.499 25.424C339.341 25.5173 339.263 25.6467 339.263 25.812C339.263 25.908 339.292 25.9893 339.351 26.056C339.412 26.1227 339.529 26.1867 339.703 26.248C339.876 26.3093 340.132 26.3827 340.471 26.468C340.833 26.5613 341.121 26.6653 341.335 26.78C341.548 26.892 341.7 27.0267 341.791 27.184C341.884 27.3387 341.931 27.5267 341.931 27.748C341.931 28.1747 341.775 28.5093 341.463 28.752C341.153 28.9947 340.725 29.116 340.179 29.116Z" fill="black"/>
<path d="M350.75 25.4313C350.754 25.259 350.651 25.1031 350.495 25.0431C350.339 24.9831 350.163 25.032 350.057 25.165L348.006 27.6405L345.956 25.165C345.87 25.0427 345.724 24.981 345.579 25.0052C345.434 25.0295 345.314 25.1356 345.269 25.2801C345.224 25.4245 345.261 25.583 345.364 25.6904L347.709 28.5247C347.783 28.6148 347.892 28.6667 348.007 28.6667C348.121 28.6667 348.23 28.6148 348.304 28.5247L350.651 25.6904C350.713 25.6188 350.748 25.527 350.75 25.4313L350.75 25.4313Z" fill="black"/>
<path d="M167.746 34.3417C157.794 34.3264 147.91 35.9755 138.501 39.2205L150.18 73.0801C155.814 71.137 161.732 70.1496 167.691 70.1588L167.746 34.3417Z" fill="#26A69A"/>
<path d="M135.917 40.1569C116.841 47.4013 100.823 60.9622 90.5301 78.581L121.457 96.6479C127.62 86.0983 137.211 77.9784 148.633 73.6407L135.917 40.1569Z" fill="#1ABC7B"/>
<path d="M85.5523 77.0836C79.1788 87.481 75.0685 99.0481 73.4724 111.078C71.8764 123.108 72.8281 135.348 76.2695 147.051L115.451 136.503C113.533 129.98 113.003 123.158 113.892 116.453C114.782 109.748 117.073 103.301 120.625 97.5061L85.5523 77.0836Z" fill="#30C0C2"/>
<path d="M81.5985 147.503C85.9485 163.162 94.4908 177.336 106.304 188.497C118.117 199.658 132.753 207.383 148.634 210.837L156.247 175.839C146.739 173.77 137.975 169.145 130.902 162.462C123.828 155.779 118.713 147.292 116.109 137.916L81.5985 147.503Z" fill="#7D7D7D"/>
<path d="M149.623 211.046C164.149 214.035 179.191 213.357 193.39 209.074C207.588 204.791 220.496 197.038 230.947 186.515L205.534 161.275C199.276 167.576 191.547 172.218 183.046 174.783C174.544 177.347 165.537 177.753 156.84 175.964L149.623 211.046Z" fill="#26A69A"/>
<path d="M256.224 95.6756C251.061 76.2445 239.901 59.1622 224.444 47.0309C208.986 34.8995 190.077 28.3839 170.598 28.4766L170.369 69.704C181.184 69.6525 191.682 73.2699 200.264 80.005C208.846 86.7402 215.041 96.224 217.907 107.012L256.224 95.6756Z" fill="#00C4C3"/>
<path d="M234.063 187.036C246.046 175.67 254.552 161.329 258.66 145.567C262.768 129.804 262.322 113.219 257.37 97.6066L219.77 108.426C222.617 117.403 222.873 126.939 220.511 136.002C218.149 145.065 213.258 153.311 206.368 159.847L234.063 187.036Z" fill="#455A64"/>
<path d="M153.737 135V126.53L151.84 127.685V126.054L153.737 124.92H155.228V135H153.737ZM157.606 134.993L157.613 133.691L162.002 129.757C162.357 129.444 162.597 129.146 162.723 128.861C162.854 128.576 162.919 128.292 162.919 128.007C162.919 127.648 162.84 127.326 162.681 127.041C162.523 126.752 162.303 126.523 162.023 126.355C161.743 126.187 161.421 126.103 161.057 126.103C160.684 126.103 160.35 126.192 160.056 126.369C159.767 126.542 159.541 126.773 159.377 127.062C159.214 127.351 159.135 127.664 159.139 128H157.641C157.641 127.347 157.788 126.775 158.082 126.285C158.381 125.79 158.789 125.405 159.307 125.13C159.825 124.85 160.418 124.71 161.085 124.71C161.72 124.71 162.289 124.855 162.793 125.144C163.297 125.429 163.694 125.821 163.983 126.32C164.277 126.819 164.424 127.389 164.424 128.028C164.424 128.49 164.364 128.882 164.242 129.204C164.121 129.526 163.939 129.825 163.696 130.1C163.454 130.375 163.15 130.674 162.786 130.996L159.398 134.02L159.237 133.6H164.424V134.993H157.606ZM166.355 135V133.453H167.902V135H166.355ZM170.184 135V126.53L168.287 127.685V126.054L170.184 124.92H171.675V135H170.184ZM175.594 135L174.614 134.02L183.721 124.92L184.701 125.907L175.594 135ZM182.601 135.21C182.139 135.21 181.716 135.098 181.334 134.874C180.956 134.645 180.652 134.342 180.424 133.964C180.195 133.581 180.081 133.157 180.081 132.69C180.081 132.233 180.197 131.813 180.431 131.43C180.664 131.047 180.972 130.742 181.355 130.513C181.737 130.284 182.153 130.17 182.601 130.17C183.063 130.17 183.485 130.284 183.868 130.513C184.25 130.737 184.554 131.04 184.778 131.423C185.006 131.801 185.121 132.223 185.121 132.69C185.121 133.157 185.006 133.581 184.778 133.964C184.554 134.342 184.25 134.645 183.868 134.874C183.485 135.098 183.063 135.21 182.601 135.21ZM182.601 133.943C182.829 133.943 183.037 133.887 183.224 133.775C183.415 133.658 183.567 133.504 183.679 133.313C183.795 133.122 183.854 132.914 183.854 132.69C183.854 132.466 183.795 132.258 183.679 132.067C183.567 131.876 183.415 131.724 183.224 131.612C183.037 131.495 182.829 131.437 182.601 131.437C182.377 131.437 182.169 131.495 181.978 131.612C181.791 131.724 181.639 131.876 181.523 132.067C181.411 132.258 181.355 132.466 181.355 132.69C181.355 132.914 181.411 133.122 181.523 133.313C181.639 133.504 181.791 133.658 181.978 133.775C182.169 133.887 182.377 133.943 182.601 133.943ZM176.714 129.75C176.252 129.75 175.829 129.638 175.447 129.414C175.064 129.185 174.758 128.882 174.53 128.504C174.306 128.121 174.194 127.697 174.194 127.23C174.194 126.773 174.31 126.353 174.544 125.97C174.777 125.587 175.085 125.282 175.468 125.053C175.85 124.824 176.266 124.71 176.714 124.71C177.176 124.71 177.596 124.824 177.974 125.053C178.356 125.277 178.662 125.58 178.891 125.963C179.119 126.341 179.234 126.763 179.234 127.23C179.234 127.697 179.119 128.121 178.891 128.504C178.662 128.882 178.356 129.185 177.974 129.414C177.596 129.638 177.176 129.75 176.714 129.75ZM176.714 128.483C176.938 128.483 177.145 128.427 177.337 128.315C177.528 128.198 177.68 128.044 177.792 127.853C177.908 127.662 177.967 127.454 177.967 127.23C177.967 127.006 177.908 126.798 177.792 126.607C177.68 126.416 177.528 126.264 177.337 126.152C177.145 126.035 176.938 125.977 176.714 125.977C176.49 125.977 176.282 126.035 176.091 126.152C175.904 126.264 175.752 126.416 175.636 126.607C175.519 126.798 175.461 127.006 175.461 127.23C175.461 127.454 175.519 127.662 175.636 127.853C175.752 128.044 175.904 128.198 176.091 128.315C176.277 128.427 176.485 128.483 176.714 128.483Z" fill="black"/>
<path d="M151.996 117V112.028H150.08V111.24H154.748V112.028H152.832V117H151.996ZM155.388 117V111.24H157.716C157.772 111.24 157.841 111.243 157.924 111.248C158.007 111.251 158.085 111.259 158.16 111.272C158.48 111.323 158.747 111.432 158.96 111.6C159.176 111.768 159.337 111.98 159.444 112.236C159.551 112.492 159.604 112.775 159.604 113.084C159.604 113.543 159.487 113.939 159.252 114.272C159.017 114.603 158.665 114.809 158.196 114.892L157.856 114.932H156.224V117H155.388ZM158.756 117L157.62 114.656L158.464 114.44L159.712 117H158.756ZM156.224 114.14H157.684C157.737 114.14 157.796 114.137 157.86 114.132C157.927 114.127 157.989 114.117 158.048 114.104C158.219 114.064 158.356 113.991 158.46 113.884C158.564 113.775 158.639 113.649 158.684 113.508C158.729 113.367 158.752 113.225 158.752 113.084C158.752 112.943 158.729 112.803 158.684 112.664C158.639 112.523 158.564 112.399 158.46 112.292C158.356 112.183 158.219 112.108 158.048 112.068C157.989 112.052 157.927 112.041 157.86 112.036C157.796 112.031 157.737 112.028 157.684 112.028H156.224V114.14ZM160.111 117L162.075 114.084L160.163 111.24H161.187L162.591 113.376L163.987 111.24H165.015L163.103 114.084L165.063 117H164.039L162.591 114.796L161.139 117H160.111ZM167.997 117.12C167.546 117.12 167.147 117.028 166.801 116.844C166.457 116.657 166.187 116.397 165.993 116.064C165.798 115.728 165.701 115.333 165.701 114.88V111.244L166.549 111.24V114.836C166.549 115.081 166.59 115.297 166.673 115.484C166.755 115.671 166.866 115.827 167.005 115.952C167.143 116.077 167.298 116.172 167.469 116.236C167.642 116.3 167.818 116.332 167.997 116.332C168.178 116.332 168.354 116.3 168.525 116.236C168.698 116.169 168.854 116.073 168.993 115.948C169.131 115.823 169.241 115.667 169.321 115.48C169.403 115.293 169.445 115.079 169.445 114.836V111.24H170.293V114.88C170.293 115.331 170.195 115.724 170.001 116.06C169.806 116.396 169.535 116.657 169.189 116.844C168.845 117.028 168.447 117.12 167.997 117.12ZM173.257 117.12C172.844 117.12 172.471 117.049 172.137 116.908C171.807 116.764 171.533 116.56 171.317 116.296C171.104 116.029 170.965 115.713 170.901 115.348L171.773 115.216C171.861 115.568 172.045 115.843 172.325 116.04C172.605 116.235 172.932 116.332 173.305 116.332C173.537 116.332 173.751 116.296 173.945 116.224C174.14 116.149 174.296 116.044 174.413 115.908C174.533 115.769 174.593 115.604 174.593 115.412C174.593 115.308 174.575 115.216 174.537 115.136C174.503 115.056 174.453 114.987 174.389 114.928C174.328 114.867 174.252 114.815 174.161 114.772C174.073 114.727 173.976 114.688 173.869 114.656L172.393 114.22C172.249 114.177 172.103 114.123 171.953 114.056C171.804 113.987 171.667 113.897 171.541 113.788C171.419 113.676 171.319 113.539 171.241 113.376C171.164 113.211 171.125 113.011 171.125 112.776C171.125 112.421 171.216 112.121 171.397 111.876C171.581 111.628 171.829 111.441 172.141 111.316C172.453 111.188 172.803 111.124 173.189 111.124C173.579 111.129 173.927 111.199 174.233 111.332C174.543 111.465 174.799 111.657 175.001 111.908C175.207 112.156 175.348 112.457 175.425 112.812L174.529 112.964C174.489 112.748 174.404 112.563 174.273 112.408C174.143 112.251 173.983 112.131 173.793 112.048C173.604 111.963 173.399 111.919 173.177 111.916C172.964 111.911 172.768 111.943 172.589 112.012C172.413 112.081 172.272 112.179 172.165 112.304C172.061 112.429 172.009 112.573 172.009 112.736C172.009 112.896 172.056 113.025 172.149 113.124C172.243 113.223 172.357 113.301 172.493 113.36C172.632 113.416 172.769 113.463 172.905 113.5L173.969 113.8C174.103 113.837 174.253 113.888 174.421 113.952C174.592 114.013 174.756 114.1 174.913 114.212C175.073 114.324 175.205 114.473 175.309 114.66C175.413 114.844 175.465 115.076 175.465 115.356C175.465 115.647 175.407 115.903 175.289 116.124C175.172 116.343 175.011 116.527 174.805 116.676C174.603 116.823 174.368 116.933 174.101 117.008C173.835 117.083 173.553 117.12 173.257 117.12ZM176.318 117V111.24H178.122C178.175 111.24 178.274 111.241 178.418 111.244C178.564 111.247 178.704 111.257 178.838 111.276C179.288 111.332 179.667 111.493 179.974 111.76C180.283 112.027 180.516 112.365 180.674 112.776C180.831 113.184 180.91 113.632 180.91 114.12C180.91 114.611 180.831 115.061 180.674 115.472C180.516 115.88 180.283 116.217 179.974 116.484C179.667 116.748 179.288 116.908 178.838 116.964C178.704 116.983 178.564 116.993 178.418 116.996C178.274 116.999 178.175 117 178.122 117H176.318ZM177.174 116.204H178.122C178.212 116.204 178.32 116.201 178.446 116.196C178.571 116.191 178.682 116.18 178.778 116.164C179.071 116.108 179.308 115.981 179.49 115.784C179.674 115.584 179.808 115.339 179.894 115.048C179.979 114.757 180.022 114.448 180.022 114.12C180.022 113.781 179.978 113.468 179.89 113.18C179.802 112.889 179.666 112.647 179.482 112.452C179.3 112.255 179.066 112.129 178.778 112.076C178.682 112.057 178.57 112.047 178.442 112.044C178.316 112.039 178.21 112.036 178.122 112.036H177.174V116.204ZM183.121 117V112.028H181.205V111.24H185.873V112.028H183.957V117H183.121Z" fill="#848484"/>
<path d="M24.737 256V247.53L22.84 248.685V247.054L24.737 245.92H26.228V256H24.737ZM28.6063 255.993L28.6133 254.691L33.0023 250.757C33.3569 250.444 33.5973 250.146 33.7233 249.861C33.8539 249.576 33.9193 249.292 33.9193 249.007C33.9193 248.648 33.8399 248.326 33.6813 248.041C33.5226 247.752 33.3033 247.523 33.0233 247.355C32.7433 247.187 32.4213 247.103 32.0573 247.103C31.6839 247.103 31.3503 247.192 31.0563 247.369C30.7669 247.542 30.5406 247.773 30.3773 248.062C30.2139 248.351 30.1346 248.664 30.1393 249H28.6413C28.6413 248.347 28.7883 247.775 29.0823 247.285C29.3809 246.79 29.7893 246.405 30.3073 246.13C30.8253 245.85 31.4179 245.71 32.0853 245.71C32.7199 245.71 33.2893 245.855 33.7933 246.144C34.2973 246.429 34.6939 246.821 34.9833 247.32C35.2773 247.819 35.4243 248.389 35.4243 249.028C35.4243 249.49 35.3636 249.882 35.2423 250.204C35.1209 250.526 34.9389 250.825 34.6963 251.1C34.4536 251.375 34.1503 251.674 33.7863 251.996L30.3983 255.02L30.2373 254.6H35.4243V255.993H28.6063ZM37.355 256V254.453H38.902V256H37.355ZM41.1843 256V247.53L39.2873 248.685V247.054L41.1843 245.92H42.6753V256H41.1843ZM46.5935 256L45.6135 255.02L54.7205 245.92L55.7005 246.907L46.5935 256ZM53.6005 256.21C53.1385 256.21 52.7162 256.098 52.3335 255.874C51.9555 255.645 51.6522 255.342 51.4235 254.964C51.1948 254.581 51.0805 254.157 51.0805 253.69C51.0805 253.233 51.1972 252.813 51.4305 252.43C51.6638 252.047 51.9718 251.742 52.3545 251.513C52.7372 251.284 53.1525 251.17 53.6005 251.17C54.0625 251.17 54.4848 251.284 54.8675 251.513C55.2502 251.737 55.5535 252.04 55.7775 252.423C56.0062 252.801 56.1205 253.223 56.1205 253.69C56.1205 254.157 56.0062 254.581 55.7775 254.964C55.5535 255.342 55.2502 255.645 54.8675 255.874C54.4848 256.098 54.0625 256.21 53.6005 256.21ZM53.6005 254.943C53.8292 254.943 54.0368 254.887 54.2235 254.775C54.4148 254.658 54.5665 254.504 54.6785 254.313C54.7952 254.122 54.8535 253.914 54.8535 253.69C54.8535 253.466 54.7952 253.258 54.6785 253.067C54.5665 252.876 54.4148 252.724 54.2235 252.612C54.0368 252.495 53.8292 252.437 53.6005 252.437C53.3765 252.437 53.1688 252.495 52.9775 252.612C52.7908 252.724 52.6392 252.876 52.5225 253.067C52.4105 253.258 52.3545 253.466 52.3545 253.69C52.3545 253.914 52.4105 254.122 52.5225 254.313C52.6392 254.504 52.7908 254.658 52.9775 254.775C53.1688 254.887 53.3765 254.943 53.6005 254.943ZM47.7135 250.75C47.2515 250.75 46.8292 250.638 46.4465 250.414C46.0638 250.185 45.7582 249.882 45.5295 249.504C45.3055 249.121 45.1935 248.697 45.1935 248.23C45.1935 247.773 45.3102 247.353 45.5435 246.97C45.7768 246.587 46.0848 246.282 46.4675 246.053C46.8502 245.824 47.2655 245.71 47.7135 245.71C48.1755 245.71 48.5955 245.824 48.9735 246.053C49.3562 246.277 49.6618 246.58 49.8905 246.963C50.1192 247.341 50.2335 247.763 50.2335 248.23C50.2335 248.697 50.1192 249.121 49.8905 249.504C49.6618 249.882 49.3562 250.185 48.9735 250.414C48.5955 250.638 48.1755 250.75 47.7135 250.75ZM47.7135 249.483C47.9375 249.483 48.1452 249.427 48.3365 249.315C48.5278 249.198 48.6795 249.044 48.7915 248.853C48.9082 248.662 48.9665 248.454 48.9665 248.23C48.9665 248.006 48.9082 247.798 48.7915 247.607C48.6795 247.416 48.5278 247.264 48.3365 247.152C48.1452 247.035 47.9375 246.977 47.7135 246.977C47.4895 246.977 47.2818 247.035 47.0905 247.152C46.9038 247.264 46.7522 247.416 46.6355 247.607C46.5188 247.798 46.4605 248.006 46.4605 248.23C46.4605 248.454 46.5188 248.662 46.6355 248.853C46.7522 249.044 46.9038 249.198 47.0905 249.315C47.2772 249.427 47.4848 249.483 47.7135 249.483Z" fill="black"/>
<path d="M22.996 238V233.028H21.08V232.24H25.748V233.028H23.832V238H22.996ZM26.3881 238V232.24H28.7161C28.7721 232.24 28.8415 232.243 28.9241 232.248C29.0068 232.251 29.0855 232.259 29.1601 232.272C29.4801 232.323 29.7468 232.432 29.9601 232.6C30.1761 232.768 30.3375 232.98 30.4441 233.236C30.5508 233.492 30.6041 233.775 30.6041 234.084C30.6041 234.543 30.4868 234.939 30.2521 235.272C30.0175 235.603 29.6655 235.809 29.1961 235.892L28.8561 235.932H27.2241V238H26.3881ZM29.7561 238L28.6201 235.656L29.4641 235.44L30.7121 238H29.7561ZM27.2241 235.14H28.6841C28.7375 235.14 28.7961 235.137 28.8601 235.132C28.9268 235.127 28.9895 235.117 29.0481 235.104C29.2188 235.064 29.3561 234.991 29.4601 234.884C29.5641 234.775 29.6388 234.649 29.6841 234.508C29.7295 234.367 29.7521 234.225 29.7521 234.084C29.7521 233.943 29.7295 233.803 29.6841 233.664C29.6388 233.523 29.5641 233.399 29.4601 233.292C29.3561 233.183 29.2188 233.108 29.0481 233.068C28.9895 233.052 28.9268 233.041 28.8601 233.036C28.7961 233.031 28.7375 233.028 28.6841 233.028H27.2241V235.14ZM31.1113 238L33.0753 235.084L31.1632 232.24H32.1873L33.5913 234.376L34.9873 232.24H36.0153L34.1033 235.084L36.0633 238H35.0393L33.5913 235.796L32.1393 238H31.1113ZM38.9966 238.12C38.546 238.12 38.1473 238.028 37.8006 237.844C37.4566 237.657 37.1873 237.397 36.9926 237.064C36.798 236.728 36.7006 236.333 36.7006 235.88V232.244L37.5486 232.24V235.836C37.5486 236.081 37.59 236.297 37.6726 236.484C37.7553 236.671 37.866 236.827 38.0046 236.952C38.1433 237.077 38.298 237.172 38.4686 237.236C38.642 237.3 38.818 237.332 38.9966 237.332C39.178 237.332 39.354 237.3 39.5246 237.236C39.698 237.169 39.854 237.073 39.9926 236.948C40.1313 236.823 40.2406 236.667 40.3206 236.48C40.4033 236.293 40.4446 236.079 40.4446 235.836V232.24H41.2926V235.88C41.2926 236.331 41.1953 236.724 41.0006 237.06C40.806 237.396 40.5353 237.657 40.1886 237.844C39.8446 238.028 39.4473 238.12 38.9966 238.12ZM44.2574 238.12C43.844 238.12 43.4707 238.049 43.1374 237.908C42.8067 237.764 42.5334 237.56 42.3174 237.296C42.104 237.029 41.9654 236.713 41.9014 236.348L42.7734 236.216C42.8614 236.568 43.0454 236.843 43.3254 237.04C43.6054 237.235 43.932 237.332 44.3054 237.332C44.5374 237.332 44.7507 237.296 44.9454 237.224C45.14 237.149 45.296 237.044 45.4134 236.908C45.5334 236.769 45.5934 236.604 45.5934 236.412C45.5934 236.308 45.5747 236.216 45.5374 236.136C45.5027 236.056 45.4534 235.987 45.3894 235.928C45.328 235.867 45.252 235.815 45.1614 235.772C45.0734 235.727 44.976 235.688 44.8694 235.656L43.3934 235.22C43.2494 235.177 43.1027 235.123 42.9534 235.056C42.804 234.987 42.6667 234.897 42.5414 234.788C42.4187 234.676 42.3187 234.539 42.2414 234.376C42.164 234.211 42.1254 234.011 42.1254 233.776C42.1254 233.421 42.216 233.121 42.3974 232.876C42.5814 232.628 42.8294 232.441 43.1414 232.316C43.4534 232.188 43.8027 232.124 44.1894 232.124C44.5787 232.129 44.9267 232.199 45.2334 232.332C45.5427 232.465 45.7987 232.657 46.0014 232.908C46.2067 233.156 46.348 233.457 46.4254 233.812L45.5294 233.964C45.4894 233.748 45.404 233.563 45.2734 233.408C45.1427 233.251 44.9827 233.131 44.7934 233.048C44.604 232.963 44.3987 232.919 44.1774 232.916C43.964 232.911 43.768 232.943 43.5894 233.012C43.4134 233.081 43.272 233.179 43.1654 233.304C43.0614 233.429 43.0094 233.573 43.0094 233.736C43.0094 233.896 43.056 234.025 43.1494 234.124C43.2427 234.223 43.3574 234.301 43.4934 234.36C43.632 234.416 43.7694 234.463 43.9054 234.5L44.9694 234.8C45.1027 234.837 45.2534 234.888 45.4214 234.952C45.592 235.013 45.756 235.1 45.9134 235.212C46.0734 235.324 46.2054 235.473 46.3094 235.66C46.4134 235.844 46.4654 236.076 46.4654 236.356C46.4654 236.647 46.4067 236.903 46.2894 237.124C46.172 237.343 46.0107 237.527 45.8054 237.676C45.6027 237.823 45.368 237.933 45.1014 238.008C44.8347 238.083 44.5534 238.12 44.2574 238.12ZM47.3178 238V232.24H49.1218C49.1751 232.24 49.2738 232.241 49.4178 232.244C49.5645 232.247 49.7045 232.257 49.8378 232.276C50.2885 232.332 50.6671 232.493 50.9738 232.76C51.2831 233.027 51.5165 233.365 51.6738 233.776C51.8311 234.184 51.9098 234.632 51.9098 235.12C51.9098 235.611 51.8311 236.061 51.6738 236.472C51.5165 236.88 51.2831 237.217 50.9738 237.484C50.6671 237.748 50.2885 237.908 49.8378 237.964C49.7045 237.983 49.5645 237.993 49.4178 237.996C49.2738 237.999 49.1751 238 49.1218 238H47.3178ZM48.1738 237.204H49.1218C49.2125 237.204 49.3205 237.201 49.4458 237.196C49.5711 237.191 49.6818 237.18 49.7778 237.164C50.0711 237.108 50.3085 236.981 50.4898 236.784C50.6738 236.584 50.8085 236.339 50.8938 236.048C50.9791 235.757 51.0218 235.448 51.0218 235.12C51.0218 234.781 50.9778 234.468 50.8898 234.18C50.8018 233.889 50.6658 233.647 50.4818 233.452C50.3005 233.255 50.0658 233.129 49.7778 233.076C49.6818 233.057 49.5698 233.047 49.4418 233.044C49.3165 233.039 49.2098 233.036 49.1218 233.036H48.1738V237.204ZM54.121 238V233.028H52.205V232.24H56.873V233.028H54.957V238H54.121Z" fill="#848484"/>
<path d="M24.737 301V292.53L22.84 293.685V292.054L24.737 290.92H26.228V301H24.737ZM28.6063 300.993L28.6133 299.691L33.0023 295.757C33.3569 295.444 33.5973 295.146 33.7233 294.861C33.8539 294.576 33.9193 294.292 33.9193 294.007C33.9193 293.648 33.8399 293.326 33.6813 293.041C33.5226 292.752 33.3033 292.523 33.0233 292.355C32.7433 292.187 32.4213 292.103 32.0573 292.103C31.6839 292.103 31.3503 292.192 31.0563 292.369C30.7669 292.542 30.5406 292.773 30.3773 293.062C30.2139 293.351 30.1346 293.664 30.1393 294H28.6413C28.6413 293.347 28.7883 292.775 29.0823 292.285C29.3809 291.79 29.7893 291.405 30.3073 291.13C30.8253 290.85 31.4179 290.71 32.0853 290.71C32.7199 290.71 33.2893 290.855 33.7933 291.144C34.2973 291.429 34.6939 291.821 34.9833 292.32C35.2773 292.819 35.4243 293.389 35.4243 294.028C35.4243 294.49 35.3636 294.882 35.2423 295.204C35.1209 295.526 34.9389 295.825 34.6963 296.1C34.4536 296.375 34.1503 296.674 33.7863 296.996L30.3983 300.02L30.2373 299.6H35.4243V300.993H28.6063ZM37.355 301V299.453H38.902V301H37.355ZM41.1843 301V292.53L39.2873 293.685V292.054L41.1843 290.92H42.6753V301H41.1843ZM46.5935 301L45.6135 300.02L54.7205 290.92L55.7005 291.907L46.5935 301ZM53.6005 301.21C53.1385 301.21 52.7162 301.098 52.3335 300.874C51.9555 300.645 51.6522 300.342 51.4235 299.964C51.1948 299.581 51.0805 299.157 51.0805 298.69C51.0805 298.233 51.1972 297.813 51.4305 297.43C51.6638 297.047 51.9718 296.742 52.3545 296.513C52.7372 296.284 53.1525 296.17 53.6005 296.17C54.0625 296.17 54.4848 296.284 54.8675 296.513C55.2502 296.737 55.5535 297.04 55.7775 297.423C56.0062 297.801 56.1205 298.223 56.1205 298.69C56.1205 299.157 56.0062 299.581 55.7775 299.964C55.5535 300.342 55.2502 300.645 54.8675 300.874C54.4848 301.098 54.0625 301.21 53.6005 301.21ZM53.6005 299.943C53.8292 299.943 54.0368 299.887 54.2235 299.775C54.4148 299.658 54.5665 299.504 54.6785 299.313C54.7952 299.122 54.8535 298.914 54.8535 298.69C54.8535 298.466 54.7952 298.258 54.6785 298.067C54.5665 297.876 54.4148 297.724 54.2235 297.612C54.0368 297.495 53.8292 297.437 53.6005 297.437C53.3765 297.437 53.1688 297.495 52.9775 297.612C52.7908 297.724 52.6392 297.876 52.5225 298.067C52.4105 298.258 52.3545 298.466 52.3545 298.69C52.3545 298.914 52.4105 299.122 52.5225 299.313C52.6392 299.504 52.7908 299.658 52.9775 299.775C53.1688 299.887 53.3765 299.943 53.6005 299.943ZM47.7135 295.75C47.2515 295.75 46.8292 295.638 46.4465 295.414C46.0638 295.185 45.7582 294.882 45.5295 294.504C45.3055 294.121 45.1935 293.697 45.1935 293.23C45.1935 292.773 45.3102 292.353 45.5435 291.97C45.7768 291.587 46.0848 291.282 46.4675 291.053C46.8502 290.824 47.2655 290.71 47.7135 290.71C48.1755 290.71 48.5955 290.824 48.9735 291.053C49.3562 291.277 49.6618 291.58 49.8905 291.963C50.1192 292.341 50.2335 292.763 50.2335 293.23C50.2335 293.697 50.1192 294.121 49.8905 294.504C49.6618 294.882 49.3562 295.185 48.9735 295.414C48.5955 295.638 48.1755 295.75 47.7135 295.75ZM47.7135 294.483C47.9375 294.483 48.1452 294.427 48.3365 294.315C48.5278 294.198 48.6795 294.044 48.7915 293.853C48.9082 293.662 48.9665 293.454 48.9665 293.23C48.9665 293.006 48.9082 292.798 48.7915 292.607C48.6795 292.416 48.5278 292.264 48.3365 292.152C48.1452 292.035 47.9375 291.977 47.7135 291.977C47.4895 291.977 47.2818 292.035 47.0905 292.152C46.9038 292.264 46.7522 292.416 46.6355 292.607C46.5188 292.798 46.4605 293.006 46.4605 293.23C46.4605 293.454 46.5188 293.662 46.6355 293.853C46.7522 294.044 46.9038 294.198 47.0905 294.315C47.2772 294.427 47.4848 294.483 47.7135 294.483Z" fill="black"/>
<path d="M22.996 283V278.028H21.08V277.24H25.748V278.028H23.832V283H22.996ZM26.3881 283V277.24H28.7161C28.7721 277.24 28.8415 277.243 28.9241 277.248C29.0068 277.251 29.0855 277.259 29.1601 277.272C29.4801 277.323 29.7468 277.432 29.9601 277.6C30.1761 277.768 30.3375 277.98 30.4441 278.236C30.5508 278.492 30.6041 278.775 30.6041 279.084C30.6041 279.543 30.4868 279.939 30.2521 280.272C30.0175 280.603 29.6655 280.809 29.1961 280.892L28.8561 280.932H27.2241V283H26.3881ZM29.7561 283L28.6201 280.656L29.4641 280.44L30.7121 283H29.7561ZM27.2241 280.14H28.6841C28.7375 280.14 28.7961 280.137 28.8601 280.132C28.9268 280.127 28.9895 280.117 29.0481 280.104C29.2188 280.064 29.3561 279.991 29.4601 279.884C29.5641 279.775 29.6388 279.649 29.6841 279.508C29.7295 279.367 29.7521 279.225 29.7521 279.084C29.7521 278.943 29.7295 278.803 29.6841 278.664C29.6388 278.523 29.5641 278.399 29.4601 278.292C29.3561 278.183 29.2188 278.108 29.0481 278.068C28.9895 278.052 28.9268 278.041 28.8601 278.036C28.7961 278.031 28.7375 278.028 28.6841 278.028H27.2241V280.14ZM31.1113 283L33.0753 280.084L31.1632 277.24H32.1873L33.5913 279.376L34.9873 277.24H36.0153L34.1033 280.084L36.0633 283H35.0393L33.5913 280.796L32.1393 283H31.1113ZM38.9966 283.12C38.546 283.12 38.1473 283.028 37.8006 282.844C37.4566 282.657 37.1873 282.397 36.9926 282.064C36.798 281.728 36.7006 281.333 36.7006 280.88V277.244L37.5486 277.24V280.836C37.5486 281.081 37.59 281.297 37.6726 281.484C37.7553 281.671 37.866 281.827 38.0046 281.952C38.1433 282.077 38.298 282.172 38.4686 282.236C38.642 282.3 38.818 282.332 38.9966 282.332C39.178 282.332 39.354 282.3 39.5246 282.236C39.698 282.169 39.854 282.073 39.9926 281.948C40.1313 281.823 40.2406 281.667 40.3206 281.48C40.4033 281.293 40.4446 281.079 40.4446 280.836V277.24H41.2926V280.88C41.2926 281.331 41.1953 281.724 41.0006 282.06C40.806 282.396 40.5353 282.657 40.1886 282.844C39.8446 283.028 39.4473 283.12 38.9966 283.12ZM44.2574 283.12C43.844 283.12 43.4707 283.049 43.1374 282.908C42.8067 282.764 42.5334 282.56 42.3174 282.296C42.104 282.029 41.9654 281.713 41.9014 281.348L42.7734 281.216C42.8614 281.568 43.0454 281.843 43.3254 282.04C43.6054 282.235 43.932 282.332 44.3054 282.332C44.5374 282.332 44.7507 282.296 44.9454 282.224C45.14 282.149 45.296 282.044 45.4134 281.908C45.5334 281.769 45.5934 281.604 45.5934 281.412C45.5934 281.308 45.5747 281.216 45.5374 281.136C45.5027 281.056 45.4534 280.987 45.3894 280.928C45.328 280.867 45.252 280.815 45.1614 280.772C45.0734 280.727 44.976 280.688 44.8694 280.656L43.3934 280.22C43.2494 280.177 43.1027 280.123 42.9534 280.056C42.804 279.987 42.6667 279.897 42.5414 279.788C42.4187 279.676 42.3187 279.539 42.2414 279.376C42.164 279.211 42.1254 279.011 42.1254 278.776C42.1254 278.421 42.216 278.121 42.3974 277.876C42.5814 277.628 42.8294 277.441 43.1414 277.316C43.4534 277.188 43.8027 277.124 44.1894 277.124C44.5787 277.129 44.9267 277.199 45.2334 277.332C45.5427 277.465 45.7987 277.657 46.0014 277.908C46.2067 278.156 46.348 278.457 46.4254 278.812L45.5294 278.964C45.4894 278.748 45.404 278.563 45.2734 278.408C45.1427 278.251 44.9827 278.131 44.7934 278.048C44.604 277.963 44.3987 277.919 44.1774 277.916C43.964 277.911 43.768 277.943 43.5894 278.012C43.4134 278.081 43.272 278.179 43.1654 278.304C43.0614 278.429 43.0094 278.573 43.0094 278.736C43.0094 278.896 43.056 279.025 43.1494 279.124C43.2427 279.223 43.3574 279.301 43.4934 279.36C43.632 279.416 43.7694 279.463 43.9054 279.5L44.9694 279.8C45.1027 279.837 45.2534 279.888 45.4214 279.952C45.592 280.013 45.756 280.1 45.9134 280.212C46.0734 280.324 46.2054 280.473 46.3094 280.66C46.4134 280.844 46.4654 281.076 46.4654 281.356C46.4654 281.647 46.4067 281.903 46.2894 282.124C46.172 282.343 46.0107 282.527 45.8054 282.676C45.6027 282.823 45.368 282.933 45.1014 283.008C44.8347 283.083 44.5534 283.12 44.2574 283.12ZM47.3178 283V277.24H49.1218C49.1751 277.24 49.2738 277.241 49.4178 277.244C49.5645 277.247 49.7045 277.257 49.8378 277.276C50.2885 277.332 50.6671 277.493 50.9738 277.76C51.2831 278.027 51.5165 278.365 51.6738 278.776C51.8311 279.184 51.9098 279.632 51.9098 280.12C51.9098 280.611 51.8311 281.061 51.6738 281.472C51.5165 281.88 51.2831 282.217 50.9738 282.484C50.6671 282.748 50.2885 282.908 49.8378 282.964C49.7045 282.983 49.5645 282.993 49.4178 282.996C49.2738 282.999 49.1751 283 49.1218 283H47.3178ZM48.1738 282.204H49.1218C49.2125 282.204 49.3205 282.201 49.4458 282.196C49.5711 282.191 49.6818 282.18 49.7778 282.164C50.0711 282.108 50.3085 281.981 50.4898 281.784C50.6738 281.584 50.8085 281.339 50.8938 281.048C50.9791 280.757 51.0218 280.448 51.0218 280.12C51.0218 279.781 50.9778 279.468 50.8898 279.18C50.8018 278.889 50.6658 278.647 50.4818 278.452C50.3005 278.255 50.0658 278.129 49.7778 278.076C49.6818 278.057 49.5698 278.047 49.4418 278.044C49.3165 278.039 49.2098 278.036 49.1218 278.036H48.1738V282.204ZM54.121 283V278.028H52.205V277.24H56.873V278.028H54.957V283H54.121Z" fill="#848484"/>
<path d="M164.737 256V247.53L162.84 248.685V247.054L164.737 245.92H166.228V256H164.737ZM168.606 255.993L168.613 254.691L173.002 250.757C173.357 250.444 173.597 250.146 173.723 249.861C173.854 249.576 173.919 249.292 173.919 249.007C173.919 248.648 173.84 248.326 173.681 248.041C173.523 247.752 173.303 247.523 173.023 247.355C172.743 247.187 172.421 247.103 172.057 247.103C171.684 247.103 171.35 247.192 171.056 247.369C170.767 247.542 170.541 247.773 170.377 248.062C170.214 248.351 170.135 248.664 170.139 249H168.641C168.641 248.347 168.788 247.775 169.082 247.285C169.381 246.79 169.789 246.405 170.307 246.13C170.825 245.85 171.418 245.71 172.085 245.71C172.72 245.71 173.289 245.855 173.793 246.144C174.297 246.429 174.694 246.821 174.983 247.32C175.277 247.819 175.424 248.389 175.424 249.028C175.424 249.49 175.364 249.882 175.242 250.204C175.121 250.526 174.939 250.825 174.696 251.1C174.454 251.375 174.15 251.674 173.786 251.996L170.398 255.02L170.237 254.6H175.424V255.993H168.606ZM177.355 256V254.453H178.902V256H177.355ZM181.184 256V247.53L179.287 248.685V247.054L181.184 245.92H182.675V256H181.184ZM186.594 256L185.614 255.02L194.721 245.92L195.701 246.907L186.594 256ZM193.601 256.21C193.139 256.21 192.716 256.098 192.334 255.874C191.956 255.645 191.652 255.342 191.424 254.964C191.195 254.581 191.081 254.157 191.081 253.69C191.081 253.233 191.197 252.813 191.431 252.43C191.664 252.047 191.972 251.742 192.355 251.513C192.737 251.284 193.153 251.17 193.601 251.17C194.063 251.17 194.485 251.284 194.868 251.513C195.25 251.737 195.554 252.04 195.778 252.423C196.006 252.801 196.121 253.223 196.121 253.69C196.121 254.157 196.006 254.581 195.778 254.964C195.554 255.342 195.25 255.645 194.868 255.874C194.485 256.098 194.063 256.21 193.601 256.21ZM193.601 254.943C193.829 254.943 194.037 254.887 194.224 254.775C194.415 254.658 194.567 254.504 194.679 254.313C194.795 254.122 194.854 253.914 194.854 253.69C194.854 253.466 194.795 253.258 194.679 253.067C194.567 252.876 194.415 252.724 194.224 252.612C194.037 252.495 193.829 252.437 193.601 252.437C193.377 252.437 193.169 252.495 192.978 252.612C192.791 252.724 192.639 252.876 192.523 253.067C192.411 253.258 192.355 253.466 192.355 253.69C192.355 253.914 192.411 254.122 192.523 254.313C192.639 254.504 192.791 254.658 192.978 254.775C193.169 254.887 193.377 254.943 193.601 254.943ZM187.714 250.75C187.252 250.75 186.829 250.638 186.447 250.414C186.064 250.185 185.758 249.882 185.53 249.504C185.306 249.121 185.194 248.697 185.194 248.23C185.194 247.773 185.31 247.353 185.544 246.97C185.777 246.587 186.085 246.282 186.468 246.053C186.85 245.824 187.266 245.71 187.714 245.71C188.176 245.71 188.596 245.824 188.974 246.053C189.356 246.277 189.662 246.58 189.891 246.963C190.119 247.341 190.234 247.763 190.234 248.23C190.234 248.697 190.119 249.121 189.891 249.504C189.662 249.882 189.356 250.185 188.974 250.414C188.596 250.638 188.176 250.75 187.714 250.75ZM187.714 249.483C187.938 249.483 188.145 249.427 188.337 249.315C188.528 249.198 188.68 249.044 188.792 248.853C188.908 248.662 188.967 248.454 188.967 248.23C188.967 248.006 188.908 247.798 188.792 247.607C188.68 247.416 188.528 247.264 188.337 247.152C188.145 247.035 187.938 246.977 187.714 246.977C187.49 246.977 187.282 247.035 187.091 247.152C186.904 247.264 186.752 247.416 186.636 247.607C186.519 247.798 186.461 248.006 186.461 248.23C186.461 248.454 186.519 248.662 186.636 248.853C186.752 249.044 186.904 249.198 187.091 249.315C187.277 249.427 187.485 249.483 187.714 249.483Z" fill="black"/>
<path d="M163.64 238V232.24H164.476V238H163.64ZM165.677 238V232.24H166.525L169.361 236.52V232.24H170.209V238H169.361L166.525 233.716V238H165.677ZM172.422 238.116C172 238.116 171.646 238.004 171.358 237.78C171.072 237.556 170.875 237.255 170.766 236.876L171.594 236.68C171.631 236.859 171.726 237.012 171.878 237.14C172.032 237.265 172.204 237.328 172.394 237.328C172.519 237.328 172.65 237.296 172.786 237.232C172.922 237.168 173.023 237.064 173.09 236.92C173.135 236.824 173.162 236.715 173.17 236.592C173.178 236.467 173.182 236.321 173.182 236.156V232.24H174.03V236.156C174.03 236.327 174.028 236.479 174.026 236.612C174.026 236.745 174.012 236.871 173.986 236.988C173.962 237.105 173.914 237.227 173.842 237.352C173.69 237.616 173.49 237.809 173.242 237.932C172.994 238.055 172.72 238.116 172.422 238.116ZM177.528 238.12C177.077 238.12 176.679 238.028 176.332 237.844C175.988 237.657 175.719 237.397 175.524 237.064C175.329 236.728 175.232 236.333 175.232 235.88V232.244L176.08 232.24V235.836C176.08 236.081 176.121 236.297 176.204 236.484C176.287 236.671 176.397 236.827 176.536 236.952C176.675 237.077 176.829 237.172 177 237.236C177.173 237.3 177.349 237.332 177.528 237.332C177.709 237.332 177.885 237.3 178.056 237.236C178.229 237.169 178.385 237.073 178.524 236.948C178.663 236.823 178.772 236.667 178.852 236.48C178.935 236.293 178.976 236.079 178.976 235.836V232.24H179.824V235.88C179.824 236.331 179.727 236.724 179.532 237.06C179.337 237.396 179.067 237.657 178.72 237.844C178.376 238.028 177.979 238.12 177.528 238.12ZM182.789 238.12C182.375 238.12 182.002 238.049 181.669 237.908C181.338 237.764 181.065 237.56 180.849 237.296C180.635 237.029 180.497 236.713 180.433 236.348L181.305 236.216C181.393 236.568 181.577 236.843 181.857 237.04C182.137 237.235 182.463 237.332 182.837 237.332C183.069 237.332 183.282 237.296 183.477 237.224C183.671 237.149 183.827 237.044 183.945 236.908C184.065 236.769 184.125 236.604 184.125 236.412C184.125 236.308 184.106 236.216 184.069 236.136C184.034 236.056 183.985 235.987 183.921 235.928C183.859 235.867 183.783 235.815 183.693 235.772C183.605 235.727 183.507 235.688 183.401 235.656L181.925 235.22C181.781 235.177 181.634 235.123 181.485 235.056C181.335 234.987 181.198 234.897 181.073 234.788C180.95 234.676 180.85 234.539 180.773 234.376C180.695 234.211 180.657 234.011 180.657 233.776C180.657 233.421 180.747 233.121 180.929 232.876C181.113 232.628 181.361 232.441 181.673 232.316C181.985 232.188 182.334 232.124 182.721 232.124C183.11 232.129 183.458 232.199 183.765 232.332C184.074 232.465 184.33 232.657 184.533 232.908C184.738 233.156 184.879 233.457 184.957 233.812L184.061 233.964C184.021 233.748 183.935 233.563 183.805 233.408C183.674 233.251 183.514 233.131 183.325 233.048C183.135 232.963 182.93 232.919 182.709 232.916C182.495 232.911 182.299 232.943 182.121 233.012C181.945 233.081 181.803 233.179 181.697 233.304C181.593 233.429 181.541 233.573 181.541 233.736C181.541 233.896 181.587 234.025 181.681 234.124C181.774 234.223 181.889 234.301 182.025 234.36C182.163 234.416 182.301 234.463 182.437 234.5L183.501 234.8C183.634 234.837 183.785 234.888 183.953 234.952C184.123 235.013 184.287 235.1 184.445 235.212C184.605 235.324 184.737 235.473 184.841 235.66C184.945 235.844 184.997 236.076 184.997 236.356C184.997 236.647 184.938 236.903 184.821 237.124C184.703 237.343 184.542 237.527 184.337 237.676C184.134 237.823 183.899 237.933 183.633 238.008C183.366 238.083 183.085 238.12 182.789 238.12ZM185.849 238V232.24H187.653C187.706 232.24 187.805 232.241 187.949 232.244C188.096 232.247 188.236 232.257 188.369 232.276C188.82 232.332 189.198 232.493 189.505 232.76C189.814 233.027 190.048 233.365 190.205 233.776C190.362 234.184 190.441 234.632 190.441 235.12C190.441 235.611 190.362 236.061 190.205 236.472C190.048 236.88 189.814 237.217 189.505 237.484C189.198 237.748 188.82 237.908 188.369 237.964C188.236 237.983 188.096 237.993 187.949 237.996C187.805 237.999 187.706 238 187.653 238H185.849ZM186.705 237.204H187.653C187.744 237.204 187.852 237.201 187.977 237.196C188.102 237.191 188.213 237.18 188.309 237.164C188.602 237.108 188.84 236.981 189.021 236.784C189.205 236.584 189.34 236.339 189.425 236.048C189.51 235.757 189.553 235.448 189.553 235.12C189.553 234.781 189.509 234.468 189.421 234.18C189.333 233.889 189.197 233.647 189.013 233.452C188.832 233.255 188.597 233.129 188.309 233.076C188.213 233.057 188.101 233.047 187.973 233.044C187.848 233.039 187.741 233.036 187.653 233.036H186.705V237.204ZM192.652 238V233.028H190.736V232.24H195.404V233.028H193.488V238H192.652Z" fill="#848484"/>
<path d="M164.737 301V292.53L162.84 293.685V292.054L164.737 290.92H166.228V301H164.737ZM168.606 300.993L168.613 299.691L173.002 295.757C173.357 295.444 173.597 295.146 173.723 294.861C173.854 294.576 173.919 294.292 173.919 294.007C173.919 293.648 173.84 293.326 173.681 293.041C173.523 292.752 173.303 292.523 173.023 292.355C172.743 292.187 172.421 292.103 172.057 292.103C171.684 292.103 171.35 292.192 171.056 292.369C170.767 292.542 170.541 292.773 170.377 293.062C170.214 293.351 170.135 293.664 170.139 294H168.641C168.641 293.347 168.788 292.775 169.082 292.285C169.381 291.79 169.789 291.405 170.307 291.13C170.825 290.85 171.418 290.71 172.085 290.71C172.72 290.71 173.289 290.855 173.793 291.144C174.297 291.429 174.694 291.821 174.983 292.32C175.277 292.819 175.424 293.389 175.424 294.028C175.424 294.49 175.364 294.882 175.242 295.204C175.121 295.526 174.939 295.825 174.696 296.1C174.454 296.375 174.15 296.674 173.786 296.996L170.398 300.02L170.237 299.6H175.424V300.993H168.606ZM177.355 301V299.453H178.902V301H177.355ZM181.184 301V292.53L179.287 293.685V292.054L181.184 290.92H182.675V301H181.184ZM186.594 301L185.614 300.02L194.721 290.92L195.701 291.907L186.594 301ZM193.601 301.21C193.139 301.21 192.716 301.098 192.334 300.874C191.956 300.645 191.652 300.342 191.424 299.964C191.195 299.581 191.081 299.157 191.081 298.69C191.081 298.233 191.197 297.813 191.431 297.43C191.664 297.047 191.972 296.742 192.355 296.513C192.737 296.284 193.153 296.17 193.601 296.17C194.063 296.17 194.485 296.284 194.868 296.513C195.25 296.737 195.554 297.04 195.778 297.423C196.006 297.801 196.121 298.223 196.121 298.69C196.121 299.157 196.006 299.581 195.778 299.964C195.554 300.342 195.25 300.645 194.868 300.874C194.485 301.098 194.063 301.21 193.601 301.21ZM193.601 299.943C193.829 299.943 194.037 299.887 194.224 299.775C194.415 299.658 194.567 299.504 194.679 299.313C194.795 299.122 194.854 298.914 194.854 298.69C194.854 298.466 194.795 298.258 194.679 298.067C194.567 297.876 194.415 297.724 194.224 297.612C194.037 297.495 193.829 297.437 193.601 297.437C193.377 297.437 193.169 297.495 192.978 297.612C192.791 297.724 192.639 297.876 192.523 298.067C192.411 298.258 192.355 298.466 192.355 298.69C192.355 298.914 192.411 299.122 192.523 299.313C192.639 299.504 192.791 299.658 192.978 299.775C193.169 299.887 193.377 299.943 193.601 299.943ZM187.714 295.75C187.252 295.75 186.829 295.638 186.447 295.414C186.064 295.185 185.758 294.882 185.53 294.504C185.306 294.121 185.194 293.697 185.194 293.23C185.194 292.773 185.31 292.353 185.544 291.97C185.777 291.587 186.085 291.282 186.468 291.053C186.85 290.824 187.266 290.71 187.714 290.71C188.176 290.71 188.596 290.824 188.974 291.053C189.356 291.277 189.662 291.58 189.891 291.963C190.119 292.341 190.234 292.763 190.234 293.23C190.234 293.697 190.119 294.121 189.891 294.504C189.662 294.882 189.356 295.185 188.974 295.414C188.596 295.638 188.176 295.75 187.714 295.75ZM187.714 294.483C187.938 294.483 188.145 294.427 188.337 294.315C188.528 294.198 188.68 294.044 188.792 293.853C188.908 293.662 188.967 293.454 188.967 293.23C188.967 293.006 188.908 292.798 188.792 292.607C188.68 292.416 188.528 292.264 188.337 292.152C188.145 292.035 187.938 291.977 187.714 291.977C187.49 291.977 187.282 292.035 187.091 292.152C186.904 292.264 186.752 292.416 186.636 292.607C186.519 292.798 186.461 293.006 186.461 293.23C186.461 293.454 186.519 293.662 186.636 293.853C186.752 294.044 186.904 294.198 187.091 294.315C187.277 294.427 187.485 294.483 187.714 294.483Z" fill="black"/>
<path d="M163.64 283V277.24H164.476V283H163.64ZM165.677 283V277.24H166.525L169.361 281.52V277.24H170.209V283H169.361L166.525 278.716V283H165.677ZM172.422 283.116C172 283.116 171.646 283.004 171.358 282.78C171.072 282.556 170.875 282.255 170.766 281.876L171.594 281.68C171.631 281.859 171.726 282.012 171.878 282.14C172.032 282.265 172.204 282.328 172.394 282.328C172.519 282.328 172.65 282.296 172.786 282.232C172.922 282.168 173.023 282.064 173.09 281.92C173.135 281.824 173.162 281.715 173.17 281.592C173.178 281.467 173.182 281.321 173.182 281.156V277.24H174.03V281.156C174.03 281.327 174.028 281.479 174.026 281.612C174.026 281.745 174.012 281.871 173.986 281.988C173.962 282.105 173.914 282.227 173.842 282.352C173.69 282.616 173.49 282.809 173.242 282.932C172.994 283.055 172.72 283.116 172.422 283.116ZM177.528 283.12C177.077 283.12 176.679 283.028 176.332 282.844C175.988 282.657 175.719 282.397 175.524 282.064C175.329 281.728 175.232 281.333 175.232 280.88V277.244L176.08 277.24V280.836C176.08 281.081 176.121 281.297 176.204 281.484C176.287 281.671 176.397 281.827 176.536 281.952C176.675 282.077 176.829 282.172 177 282.236C177.173 282.3 177.349 282.332 177.528 282.332C177.709 282.332 177.885 282.3 178.056 282.236C178.229 282.169 178.385 282.073 178.524 281.948C178.663 281.823 178.772 281.667 178.852 281.48C178.935 281.293 178.976 281.079 178.976 280.836V277.24H179.824V280.88C179.824 281.331 179.727 281.724 179.532 282.06C179.337 282.396 179.067 282.657 178.72 282.844C178.376 283.028 177.979 283.12 177.528 283.12ZM182.789 283.12C182.375 283.12 182.002 283.049 181.669 282.908C181.338 282.764 181.065 282.56 180.849 282.296C180.635 282.029 180.497 281.713 180.433 281.348L181.305 281.216C181.393 281.568 181.577 281.843 181.857 282.04C182.137 282.235 182.463 282.332 182.837 282.332C183.069 282.332 183.282 282.296 183.477 282.224C183.671 282.149 183.827 282.044 183.945 281.908C184.065 281.769 184.125 281.604 184.125 281.412C184.125 281.308 184.106 281.216 184.069 281.136C184.034 281.056 183.985 280.987 183.921 280.928C183.859 280.867 183.783 280.815 183.693 280.772C183.605 280.727 183.507 280.688 183.401 280.656L181.925 280.22C181.781 280.177 181.634 280.123 181.485 280.056C181.335 279.987 181.198 279.897 181.073 279.788C180.95 279.676 180.85 279.539 180.773 279.376C180.695 279.211 180.657 279.011 180.657 278.776C180.657 278.421 180.747 278.121 180.929 277.876C181.113 277.628 181.361 277.441 181.673 277.316C181.985 277.188 182.334 277.124 182.721 277.124C183.11 277.129 183.458 277.199 183.765 277.332C184.074 277.465 184.33 277.657 184.533 277.908C184.738 278.156 184.879 278.457 184.957 278.812L184.061 278.964C184.021 278.748 183.935 278.563 183.805 278.408C183.674 278.251 183.514 278.131 183.325 278.048C183.135 277.963 182.93 277.919 182.709 277.916C182.495 277.911 182.299 277.943 182.121 278.012C181.945 278.081 181.803 278.179 181.697 278.304C181.593 278.429 181.541 278.573 181.541 278.736C181.541 278.896 181.587 279.025 181.681 279.124C181.774 279.223 181.889 279.301 182.025 279.36C182.163 279.416 182.301 279.463 182.437 279.5L183.501 279.8C183.634 279.837 183.785 279.888 183.953 279.952C184.123 280.013 184.287 280.1 184.445 280.212C184.605 280.324 184.737 280.473 184.841 280.66C184.945 280.844 184.997 281.076 184.997 281.356C184.997 281.647 184.938 281.903 184.821 282.124C184.703 282.343 184.542 282.527 184.337 282.676C184.134 282.823 183.899 282.933 183.633 283.008C183.366 283.083 183.085 283.12 182.789 283.12ZM185.849 283V277.24H187.653C187.706 277.24 187.805 277.241 187.949 277.244C188.096 277.247 188.236 277.257 188.369 277.276C188.82 277.332 189.198 277.493 189.505 277.76C189.814 278.027 190.048 278.365 190.205 278.776C190.362 279.184 190.441 279.632 190.441 280.12C190.441 280.611 190.362 281.061 190.205 281.472C190.048 281.88 189.814 282.217 189.505 282.484C189.198 282.748 188.82 282.908 188.369 282.964C188.236 282.983 188.096 282.993 187.949 282.996C187.805 282.999 187.706 283 187.653 283H185.849ZM186.705 282.204H187.653C187.744 282.204 187.852 282.201 187.977 282.196C188.102 282.191 188.213 282.18 188.309 282.164C188.602 282.108 188.84 281.981 189.021 281.784C189.205 281.584 189.34 281.339 189.425 281.048C189.51 280.757 189.553 280.448 189.553 280.12C189.553 279.781 189.509 279.468 189.421 279.18C189.333 278.889 189.197 278.647 189.013 278.452C188.832 278.255 188.597 278.129 188.309 278.076C188.213 278.057 188.101 278.047 187.973 278.044C187.848 278.039 187.741 278.036 187.653 278.036H186.705V282.204ZM192.652 283V278.028H190.736V277.24H195.404V278.028H193.488V283H192.652Z" fill="#848484"/>
<path d="M312.737 256V247.53L310.84 248.685V247.054L312.737 245.92H314.228V256H312.737ZM316.606 255.993L316.613 254.691L321.002 250.757C321.357 250.444 321.597 250.146 321.723 249.861C321.854 249.576 321.919 249.292 321.919 249.007C321.919 248.648 321.84 248.326 321.681 248.041C321.523 247.752 321.303 247.523 321.023 247.355C320.743 247.187 320.421 247.103 320.057 247.103C319.684 247.103 319.35 247.192 319.056 247.369C318.767 247.542 318.541 247.773 318.377 248.062C318.214 248.351 318.135 248.664 318.139 249H316.641C316.641 248.347 316.788 247.775 317.082 247.285C317.381 246.79 317.789 246.405 318.307 246.13C318.825 245.85 319.418 245.71 320.085 245.71C320.72 245.71 321.289 245.855 321.793 246.144C322.297 246.429 322.694 246.821 322.983 247.32C323.277 247.819 323.424 248.389 323.424 249.028C323.424 249.49 323.364 249.882 323.242 250.204C323.121 250.526 322.939 250.825 322.696 251.1C322.454 251.375 322.15 251.674 321.786 251.996L318.398 255.02L318.237 254.6H323.424V255.993H316.606ZM325.355 256V254.453H326.902V256H325.355ZM329.184 256V247.53L327.287 248.685V247.054L329.184 245.92H330.675V256H329.184ZM334.594 256L333.614 255.02L342.721 245.92L343.701 246.907L334.594 256ZM341.601 256.21C341.139 256.21 340.716 256.098 340.334 255.874C339.956 255.645 339.652 255.342 339.424 254.964C339.195 254.581 339.081 254.157 339.081 253.69C339.081 253.233 339.197 252.813 339.431 252.43C339.664 252.047 339.972 251.742 340.355 251.513C340.737 251.284 341.153 251.17 341.601 251.17C342.063 251.17 342.485 251.284 342.868 251.513C343.25 251.737 343.554 252.04 343.778 252.423C344.006 252.801 344.121 253.223 344.121 253.69C344.121 254.157 344.006 254.581 343.778 254.964C343.554 255.342 343.25 255.645 342.868 255.874C342.485 256.098 342.063 256.21 341.601 256.21ZM341.601 254.943C341.829 254.943 342.037 254.887 342.224 254.775C342.415 254.658 342.567 254.504 342.679 254.313C342.795 254.122 342.854 253.914 342.854 253.69C342.854 253.466 342.795 253.258 342.679 253.067C342.567 252.876 342.415 252.724 342.224 252.612C342.037 252.495 341.829 252.437 341.601 252.437C341.377 252.437 341.169 252.495 340.978 252.612C340.791 252.724 340.639 252.876 340.523 253.067C340.411 253.258 340.355 253.466 340.355 253.69C340.355 253.914 340.411 254.122 340.523 254.313C340.639 254.504 340.791 254.658 340.978 254.775C341.169 254.887 341.377 254.943 341.601 254.943ZM335.714 250.75C335.252 250.75 334.829 250.638 334.447 250.414C334.064 250.185 333.758 249.882 333.53 249.504C333.306 249.121 333.194 248.697 333.194 248.23C333.194 247.773 333.31 247.353 333.544 246.97C333.777 246.587 334.085 246.282 334.468 246.053C334.85 245.824 335.266 245.71 335.714 245.71C336.176 245.71 336.596 245.824 336.974 246.053C337.356 246.277 337.662 246.58 337.891 246.963C338.119 247.341 338.234 247.763 338.234 248.23C338.234 248.697 338.119 249.121 337.891 249.504C337.662 249.882 337.356 250.185 336.974 250.414C336.596 250.638 336.176 250.75 335.714 250.75ZM335.714 249.483C335.938 249.483 336.145 249.427 336.337 249.315C336.528 249.198 336.68 249.044 336.792 248.853C336.908 248.662 336.967 248.454 336.967 248.23C336.967 248.006 336.908 247.798 336.792 247.607C336.68 247.416 336.528 247.264 336.337 247.152C336.145 247.035 335.938 246.977 335.714 246.977C335.49 246.977 335.282 247.035 335.091 247.152C334.904 247.264 334.752 247.416 334.636 247.607C334.519 247.798 334.461 248.006 334.461 248.23C334.461 248.454 334.519 248.662 334.636 248.853C334.752 249.044 334.904 249.198 335.091 249.315C335.277 249.427 335.485 249.483 335.714 249.483Z" fill="black"/>
<path d="M312.56 238V232.24H314.824C315.189 232.24 315.496 232.315 315.744 232.464C315.992 232.613 316.179 232.807 316.304 233.044C316.429 233.279 316.492 233.527 316.492 233.788C316.492 234.105 316.413 234.377 316.256 234.604C316.101 234.831 315.892 234.985 315.628 235.068L315.62 234.872C315.988 234.963 316.271 235.14 316.468 235.404C316.665 235.665 316.764 235.971 316.764 236.32C316.764 236.659 316.696 236.953 316.56 237.204C316.427 237.455 316.231 237.651 315.972 237.792C315.716 237.931 315.405 238 315.04 238H312.56ZM313.408 237.204H314.912C315.101 237.204 315.271 237.168 315.42 237.096C315.572 237.024 315.691 236.921 315.776 236.788C315.864 236.652 315.908 236.491 315.908 236.304C315.908 236.131 315.869 235.975 315.792 235.836C315.717 235.695 315.608 235.584 315.464 235.504C315.323 235.421 315.156 235.38 314.964 235.38H313.408V237.204ZM313.408 234.592H314.812C314.967 234.592 315.105 234.561 315.228 234.5C315.353 234.436 315.452 234.345 315.524 234.228C315.599 234.108 315.636 233.964 315.636 233.796C315.636 233.572 315.561 233.388 315.412 233.244C315.263 233.1 315.063 233.028 314.812 233.028H313.408V234.592ZM318.84 238V233.028H316.924V232.24H321.592V233.028H319.676V238H318.84ZM324.528 238.12C324.077 238.12 323.679 238.028 323.332 237.844C322.988 237.657 322.719 237.397 322.524 237.064C322.329 236.728 322.232 236.333 322.232 235.88V232.244L323.08 232.24V235.836C323.08 236.081 323.121 236.297 323.204 236.484C323.287 236.671 323.397 236.827 323.536 236.952C323.675 237.077 323.829 237.172 324 237.236C324.173 237.3 324.349 237.332 324.528 237.332C324.709 237.332 324.885 237.3 325.056 237.236C325.229 237.169 325.385 237.073 325.524 236.948C325.663 236.823 325.772 236.667 325.852 236.48C325.935 236.293 325.976 236.079 325.976 235.836V232.24H326.824V235.88C326.824 236.331 326.727 236.724 326.532 237.06C326.337 237.396 326.067 237.657 325.72 237.844C325.376 238.028 324.979 238.12 324.528 238.12ZM329.789 238.12C329.375 238.12 329.002 238.049 328.669 237.908C328.338 237.764 328.065 237.56 327.849 237.296C327.635 237.029 327.497 236.713 327.433 236.348L328.305 236.216C328.393 236.568 328.577 236.843 328.857 237.04C329.137 237.235 329.463 237.332 329.837 237.332C330.069 237.332 330.282 237.296 330.477 237.224C330.671 237.149 330.827 237.044 330.945 236.908C331.065 236.769 331.125 236.604 331.125 236.412C331.125 236.308 331.106 236.216 331.069 236.136C331.034 236.056 330.985 235.987 330.921 235.928C330.859 235.867 330.783 235.815 330.693 235.772C330.605 235.727 330.507 235.688 330.401 235.656L328.925 235.22C328.781 235.177 328.634 235.123 328.485 235.056C328.335 234.987 328.198 234.897 328.073 234.788C327.95 234.676 327.85 234.539 327.773 234.376C327.695 234.211 327.657 234.011 327.657 233.776C327.657 233.421 327.747 233.121 327.929 232.876C328.113 232.628 328.361 232.441 328.673 232.316C328.985 232.188 329.334 232.124 329.721 232.124C330.11 232.129 330.458 232.199 330.765 232.332C331.074 232.465 331.33 232.657 331.533 232.908C331.738 233.156 331.879 233.457 331.957 233.812L331.061 233.964C331.021 233.748 330.935 233.563 330.805 233.408C330.674 233.251 330.514 233.131 330.325 233.048C330.135 232.963 329.93 232.919 329.709 232.916C329.495 232.911 329.299 232.943 329.121 233.012C328.945 233.081 328.803 233.179 328.697 233.304C328.593 233.429 328.541 233.573 328.541 233.736C328.541 233.896 328.587 234.025 328.681 234.124C328.774 234.223 328.889 234.301 329.025 234.36C329.163 234.416 329.301 234.463 329.437 234.5L330.501 234.8C330.634 234.837 330.785 234.888 330.953 234.952C331.123 235.013 331.287 235.1 331.445 235.212C331.605 235.324 331.737 235.473 331.841 235.66C331.945 235.844 331.997 236.076 331.997 236.356C331.997 236.647 331.938 236.903 331.821 237.124C331.703 237.343 331.542 237.527 331.337 237.676C331.134 237.823 330.899 237.933 330.633 238.008C330.366 238.083 330.085 238.12 329.789 238.12ZM332.849 238V232.24H334.653C334.706 232.24 334.805 232.241 334.949 232.244C335.096 232.247 335.236 232.257 335.369 232.276C335.82 232.332 336.198 232.493 336.505 232.76C336.814 233.027 337.048 233.365 337.205 233.776C337.362 234.184 337.441 234.632 337.441 235.12C337.441 235.611 337.362 236.061 337.205 236.472C337.048 236.88 336.814 237.217 336.505 237.484C336.198 237.748 335.82 237.908 335.369 237.964C335.236 237.983 335.096 237.993 334.949 237.996C334.805 237.999 334.706 238 334.653 238H332.849ZM333.705 237.204H334.653C334.744 237.204 334.852 237.201 334.977 237.196C335.102 237.191 335.213 237.18 335.309 237.164C335.602 237.108 335.84 236.981 336.021 236.784C336.205 236.584 336.34 236.339 336.425 236.048C336.51 235.757 336.553 235.448 336.553 235.12C336.553 234.781 336.509 234.468 336.421 234.18C336.333 233.889 336.197 233.647 336.013 233.452C335.832 233.255 335.597 233.129 335.309 233.076C335.213 233.057 335.101 233.047 334.973 233.044C334.848 233.039 334.741 233.036 334.653 233.036H333.705V237.204ZM339.652 238V233.028H337.736V232.24H342.404V233.028H340.488V238H339.652Z" fill="#848484"/>
<path d="M312.737 301V292.53L310.84 293.685V292.054L312.737 290.92H314.228V301H312.737ZM316.606 300.993L316.613 299.691L321.002 295.757C321.357 295.444 321.597 295.146 321.723 294.861C321.854 294.576 321.919 294.292 321.919 294.007C321.919 293.648 321.84 293.326 321.681 293.041C321.523 292.752 321.303 292.523 321.023 292.355C320.743 292.187 320.421 292.103 320.057 292.103C319.684 292.103 319.35 292.192 319.056 292.369C318.767 292.542 318.541 292.773 318.377 293.062C318.214 293.351 318.135 293.664 318.139 294H316.641C316.641 293.347 316.788 292.775 317.082 292.285C317.381 291.79 317.789 291.405 318.307 291.13C318.825 290.85 319.418 290.71 320.085 290.71C320.72 290.71 321.289 290.855 321.793 291.144C322.297 291.429 322.694 291.821 322.983 292.32C323.277 292.819 323.424 293.389 323.424 294.028C323.424 294.49 323.364 294.882 323.242 295.204C323.121 295.526 322.939 295.825 322.696 296.1C322.454 296.375 322.15 296.674 321.786 296.996L318.398 300.02L318.237 299.6H323.424V300.993H316.606ZM325.355 301V299.453H326.902V301H325.355ZM329.184 301V292.53L327.287 293.685V292.054L329.184 290.92H330.675V301H329.184ZM334.594 301L333.614 300.02L342.721 290.92L343.701 291.907L334.594 301ZM341.601 301.21C341.139 301.21 340.716 301.098 340.334 300.874C339.956 300.645 339.652 300.342 339.424 299.964C339.195 299.581 339.081 299.157 339.081 298.69C339.081 298.233 339.197 297.813 339.431 297.43C339.664 297.047 339.972 296.742 340.355 296.513C340.737 296.284 341.153 296.17 341.601 296.17C342.063 296.17 342.485 296.284 342.868 296.513C343.25 296.737 343.554 297.04 343.778 297.423C344.006 297.801 344.121 298.223 344.121 298.69C344.121 299.157 344.006 299.581 343.778 299.964C343.554 300.342 343.25 300.645 342.868 300.874C342.485 301.098 342.063 301.21 341.601 301.21ZM341.601 299.943C341.829 299.943 342.037 299.887 342.224 299.775C342.415 299.658 342.567 299.504 342.679 299.313C342.795 299.122 342.854 298.914 342.854 298.69C342.854 298.466 342.795 298.258 342.679 298.067C342.567 297.876 342.415 297.724 342.224 297.612C342.037 297.495 341.829 297.437 341.601 297.437C341.377 297.437 341.169 297.495 340.978 297.612C340.791 297.724 340.639 297.876 340.523 298.067C340.411 298.258 340.355 298.466 340.355 298.69C340.355 298.914 340.411 299.122 340.523 299.313C340.639 299.504 340.791 299.658 340.978 299.775C341.169 299.887 341.377 299.943 341.601 299.943ZM335.714 295.75C335.252 295.75 334.829 295.638 334.447 295.414C334.064 295.185 333.758 294.882 333.53 294.504C333.306 294.121 333.194 293.697 333.194 293.23C333.194 292.773 333.31 292.353 333.544 291.97C333.777 291.587 334.085 291.282 334.468 291.053C334.85 290.824 335.266 290.71 335.714 290.71C336.176 290.71 336.596 290.824 336.974 291.053C337.356 291.277 337.662 291.58 337.891 291.963C338.119 292.341 338.234 292.763 338.234 293.23C338.234 293.697 338.119 294.121 337.891 294.504C337.662 294.882 337.356 295.185 336.974 295.414C336.596 295.638 336.176 295.75 335.714 295.75ZM335.714 294.483C335.938 294.483 336.145 294.427 336.337 294.315C336.528 294.198 336.68 294.044 336.792 293.853C336.908 293.662 336.967 293.454 336.967 293.23C336.967 293.006 336.908 292.798 336.792 292.607C336.68 292.416 336.528 292.264 336.337 292.152C336.145 292.035 335.938 291.977 335.714 291.977C335.49 291.977 335.282 292.035 335.091 292.152C334.904 292.264 334.752 292.416 334.636 292.607C334.519 292.798 334.461 293.006 334.461 293.23C334.461 293.454 334.519 293.662 334.636 293.853C334.752 294.044 334.904 294.198 335.091 294.315C335.277 294.427 335.485 294.483 335.714 294.483Z" fill="black"/>
<path d="M312.56 283V277.24H314.824C315.189 277.24 315.496 277.315 315.744 277.464C315.992 277.613 316.179 277.807 316.304 278.044C316.429 278.279 316.492 278.527 316.492 278.788C316.492 279.105 316.413 279.377 316.256 279.604C316.101 279.831 315.892 279.985 315.628 280.068L315.62 279.872C315.988 279.963 316.271 280.14 316.468 280.404C316.665 280.665 316.764 280.971 316.764 281.32C316.764 281.659 316.696 281.953 316.56 282.204C316.427 282.455 316.231 282.651 315.972 282.792C315.716 282.931 315.405 283 315.04 283H312.56ZM313.408 282.204H314.912C315.101 282.204 315.271 282.168 315.42 282.096C315.572 282.024 315.691 281.921 315.776 281.788C315.864 281.652 315.908 281.491 315.908 281.304C315.908 281.131 315.869 280.975 315.792 280.836C315.717 280.695 315.608 280.584 315.464 280.504C315.323 280.421 315.156 280.38 314.964 280.38H313.408V282.204ZM313.408 279.592H314.812C314.967 279.592 315.105 279.561 315.228 279.5C315.353 279.436 315.452 279.345 315.524 279.228C315.599 279.108 315.636 278.964 315.636 278.796C315.636 278.572 315.561 278.388 315.412 278.244C315.263 278.1 315.063 278.028 314.812 278.028H313.408V279.592ZM318.84 283V278.028H316.924V277.24H321.592V278.028H319.676V283H318.84ZM324.528 283.12C324.077 283.12 323.679 283.028 323.332 282.844C322.988 282.657 322.719 282.397 322.524 282.064C322.329 281.728 322.232 281.333 322.232 280.88V277.244L323.08 277.24V280.836C323.08 281.081 323.121 281.297 323.204 281.484C323.287 281.671 323.397 281.827 323.536 281.952C323.675 282.077 323.829 282.172 324 282.236C324.173 282.3 324.349 282.332 324.528 282.332C324.709 282.332 324.885 282.3 325.056 282.236C325.229 282.169 325.385 282.073 325.524 281.948C325.663 281.823 325.772 281.667 325.852 281.48C325.935 281.293 325.976 281.079 325.976 280.836V277.24H326.824V280.88C326.824 281.331 326.727 281.724 326.532 282.06C326.337 282.396 326.067 282.657 325.72 282.844C325.376 283.028 324.979 283.12 324.528 283.12ZM329.789 283.12C329.375 283.12 329.002 283.049 328.669 282.908C328.338 282.764 328.065 282.56 327.849 282.296C327.635 282.029 327.497 281.713 327.433 281.348L328.305 281.216C328.393 281.568 328.577 281.843 328.857 282.04C329.137 282.235 329.463 282.332 329.837 282.332C330.069 282.332 330.282 282.296 330.477 282.224C330.671 282.149 330.827 282.044 330.945 281.908C331.065 281.769 331.125 281.604 331.125 281.412C331.125 281.308 331.106 281.216 331.069 281.136C331.034 281.056 330.985 280.987 330.921 280.928C330.859 280.867 330.783 280.815 330.693 280.772C330.605 280.727 330.507 280.688 330.401 280.656L328.925 280.22C328.781 280.177 328.634 280.123 328.485 280.056C328.335 279.987 328.198 279.897 328.073 279.788C327.95 279.676 327.85 279.539 327.773 279.376C327.695 279.211 327.657 279.011 327.657 278.776C327.657 278.421 327.747 278.121 327.929 277.876C328.113 277.628 328.361 277.441 328.673 277.316C328.985 277.188 329.334 277.124 329.721 277.124C330.11 277.129 330.458 277.199 330.765 277.332C331.074 277.465 331.33 277.657 331.533 277.908C331.738 278.156 331.879 278.457 331.957 278.812L331.061 278.964C331.021 278.748 330.935 278.563 330.805 278.408C330.674 278.251 330.514 278.131 330.325 278.048C330.135 277.963 329.93 277.919 329.709 277.916C329.495 277.911 329.299 277.943 329.121 278.012C328.945 278.081 328.803 278.179 328.697 278.304C328.593 278.429 328.541 278.573 328.541 278.736C328.541 278.896 328.587 279.025 328.681 279.124C328.774 279.223 328.889 279.301 329.025 279.36C329.163 279.416 329.301 279.463 329.437 279.5L330.501 279.8C330.634 279.837 330.785 279.888 330.953 279.952C331.123 280.013 331.287 280.1 331.445 280.212C331.605 280.324 331.737 280.473 331.841 280.66C331.945 280.844 331.997 281.076 331.997 281.356C331.997 281.647 331.938 281.903 331.821 282.124C331.703 282.343 331.542 282.527 331.337 282.676C331.134 282.823 330.899 282.933 330.633 283.008C330.366 283.083 330.085 283.12 329.789 283.12ZM332.849 283V277.24H334.653C334.706 277.24 334.805 277.241 334.949 277.244C335.096 277.247 335.236 277.257 335.369 277.276C335.82 277.332 336.198 277.493 336.505 277.76C336.814 278.027 337.048 278.365 337.205 278.776C337.362 279.184 337.441 279.632 337.441 280.12C337.441 280.611 337.362 281.061 337.205 281.472C337.048 281.88 336.814 282.217 336.505 282.484C336.198 282.748 335.82 282.908 335.369 282.964C335.236 282.983 335.096 282.993 334.949 282.996C334.805 282.999 334.706 283 334.653 283H332.849ZM333.705 282.204H334.653C334.744 282.204 334.852 282.201 334.977 282.196C335.102 282.191 335.213 282.18 335.309 282.164C335.602 282.108 335.84 281.981 336.021 281.784C336.205 281.584 336.34 281.339 336.425 281.048C336.51 280.757 336.553 280.448 336.553 280.12C336.553 279.781 336.509 279.468 336.421 279.18C336.333 278.889 336.197 278.647 336.013 278.452C335.832 278.255 335.597 278.129 335.309 278.076C335.213 278.057 335.101 278.047 334.973 278.044C334.848 278.039 334.741 278.036 334.653 278.036H333.705V282.204ZM339.652 283V278.028H337.736V277.24H342.404V278.028H340.488V283H339.652Z" fill="#848484"/>
<circle cx="15.5" cy="234.5" r="2.5" fill="#00C4C3"/>
<path d="M161.901 332V326.24H165.581V327.028H162.737V328.644H165.101V329.432H162.737V331.212H165.581V332H161.901ZM166.061 332L167.677 329.816L166.097 327.68H167.089L168.165 329.164L169.229 327.68H170.221L168.641 329.816L170.261 332H169.265L168.165 330.468L167.057 332H166.061ZM172.929 332.12C172.515 332.12 172.169 332.02 171.889 331.82C171.609 331.617 171.397 331.344 171.253 331C171.109 330.656 171.037 330.268 171.037 329.836C171.037 329.404 171.107 329.016 171.249 328.672C171.393 328.328 171.603 328.057 171.881 327.86C172.161 327.66 172.505 327.56 172.913 327.56C173.318 327.56 173.667 327.66 173.961 327.86C174.257 328.057 174.485 328.328 174.645 328.672C174.805 329.013 174.885 329.401 174.885 329.836C174.885 330.268 174.805 330.657 174.645 331.004C174.487 331.348 174.262 331.62 173.969 331.82C173.678 332.02 173.331 332.12 172.929 332.12ZM170.897 333.92V327.68H171.641V330.788H171.737V333.92H170.897ZM172.813 331.364C173.079 331.364 173.299 331.296 173.473 331.16C173.649 331.024 173.779 330.841 173.865 330.612C173.953 330.38 173.997 330.121 173.997 329.836C173.997 329.553 173.953 329.297 173.865 329.068C173.779 328.839 173.647 328.656 173.469 328.52C173.29 328.384 173.062 328.316 172.785 328.316C172.523 328.316 172.307 328.38 172.137 328.508C171.969 328.636 171.843 328.815 171.761 329.044C171.681 329.273 171.641 329.537 171.641 329.836C171.641 330.135 171.681 330.399 171.761 330.628C171.841 330.857 171.967 331.037 172.141 331.168C172.314 331.299 172.538 331.364 172.813 331.364ZM176.988 332.12C176.668 332.12 176.4 332.061 176.184 331.944C175.968 331.824 175.804 331.667 175.692 331.472C175.583 331.275 175.528 331.059 175.528 330.824C175.528 330.605 175.567 330.413 175.644 330.248C175.721 330.083 175.836 329.943 175.988 329.828C176.14 329.711 176.327 329.616 176.548 329.544C176.74 329.488 176.957 329.439 177.2 329.396C177.443 329.353 177.697 329.313 177.964 329.276C178.233 329.239 178.5 329.201 178.764 329.164L178.46 329.332C178.465 328.993 178.393 328.743 178.244 328.58C178.097 328.415 177.844 328.332 177.484 328.332C177.257 328.332 177.049 328.385 176.86 328.492C176.671 328.596 176.539 328.769 176.464 329.012L175.684 328.772C175.791 328.401 175.993 328.107 176.292 327.888C176.593 327.669 176.993 327.56 177.492 327.56C177.879 327.56 178.215 327.627 178.5 327.76C178.788 327.891 178.999 328.099 179.132 328.384C179.201 328.525 179.244 328.675 179.26 328.832C179.276 328.989 179.284 329.159 179.284 329.34V332H178.544V331.012L178.688 331.14C178.509 331.471 178.281 331.717 178.004 331.88C177.729 332.04 177.391 332.12 176.988 332.12ZM177.136 331.436C177.373 331.436 177.577 331.395 177.748 331.312C177.919 331.227 178.056 331.119 178.16 330.988C178.264 330.857 178.332 330.721 178.364 330.58C178.409 330.452 178.435 330.308 178.44 330.148C178.448 329.988 178.452 329.86 178.452 329.764L178.724 329.864C178.46 329.904 178.22 329.94 178.004 329.972C177.788 330.004 177.592 330.036 177.416 330.068C177.243 330.097 177.088 330.133 176.952 330.176C176.837 330.216 176.735 330.264 176.644 330.32C176.556 330.376 176.485 330.444 176.432 330.524C176.381 330.604 176.356 330.701 176.356 330.816C176.356 330.928 176.384 331.032 176.44 331.128C176.496 331.221 176.581 331.296 176.696 331.352C176.811 331.408 176.957 331.436 177.136 331.436ZM183.355 332V329.876C183.355 329.708 183.34 329.536 183.311 329.36C183.284 329.181 183.231 329.016 183.151 328.864C183.073 328.712 182.963 328.589 182.819 328.496C182.677 328.403 182.492 328.356 182.263 328.356C182.113 328.356 181.972 328.381 181.839 328.432C181.705 328.48 181.588 328.559 181.487 328.668C181.388 328.777 181.309 328.921 181.251 329.1C181.195 329.279 181.167 329.496 181.167 329.752L180.647 329.556C180.647 329.164 180.72 328.819 180.867 328.52C181.013 328.219 181.224 327.984 181.499 327.816C181.773 327.648 182.105 327.564 182.495 327.564C182.793 327.564 183.044 327.612 183.247 327.708C183.449 327.804 183.613 327.931 183.739 328.088C183.867 328.243 183.964 328.412 184.031 328.596C184.097 328.78 184.143 328.96 184.167 329.136C184.191 329.312 184.203 329.467 184.203 329.6V332H183.355ZM180.319 332V327.68H181.067V328.928H181.167V332H180.319ZM186.906 332.12C186.503 332.12 186.155 332.02 185.862 331.82C185.571 331.62 185.346 331.348 185.186 331.004C185.029 330.657 184.95 330.268 184.95 329.836C184.95 329.401 185.03 329.013 185.19 328.672C185.35 328.328 185.577 328.057 185.87 327.86C186.166 327.66 186.517 327.56 186.922 327.56C187.33 327.56 187.673 327.66 187.95 327.86C188.23 328.057 188.441 328.328 188.582 328.672C188.726 329.016 188.798 329.404 188.798 329.836C188.798 330.268 188.726 330.656 188.582 331C188.438 331.344 188.226 331.617 187.946 331.82C187.666 332.02 187.319 332.12 186.906 332.12ZM187.022 331.364C187.297 331.364 187.521 331.299 187.694 331.168C187.867 331.037 187.994 330.857 188.074 330.628C188.154 330.399 188.194 330.135 188.194 329.836C188.194 329.537 188.153 329.273 188.07 329.044C187.99 328.815 187.865 328.636 187.694 328.508C187.526 328.38 187.311 328.316 187.05 328.316C186.773 328.316 186.545 328.384 186.366 328.52C186.187 328.656 186.054 328.839 185.966 329.068C185.881 329.297 185.838 329.553 185.838 329.836C185.838 330.121 185.881 330.38 185.966 330.612C186.054 330.841 186.185 331.024 186.358 331.16C186.534 331.296 186.755 331.364 187.022 331.364ZM188.194 332V328.892H188.098V326.24H188.938V332H188.194Z" fill="black"/>
<path d="M197.997 327.598C198.001 327.425 197.898 327.27 197.742 327.21C197.586 327.15 197.41 327.199 197.304 327.332L195.253 329.807L193.204 327.332C193.117 327.209 192.971 327.147 192.826 327.172C192.681 327.196 192.561 327.302 192.516 327.447C192.471 327.591 192.508 327.749 192.611 327.857L194.956 330.691C195.031 330.781 195.139 330.833 195.254 330.833C195.368 330.833 195.477 330.781 195.551 330.691L197.898 327.857C197.96 327.785 197.995 327.694 197.997 327.598L197.997 327.598Z" fill="black"/>
</g>
<defs>
<filter id="filter0_d_504_11668" x="0" y="0" width="358" height="350" filterUnits="userSpaceOnUse" color-interpolation-filters="sRGB">
<feFlood flood-opacity="0" result="BackgroundImageFix"/>
<feColorMatrix in="SourceAlpha" type="matrix" values="0 0 0 0 0 0 0 0 0 0 0 0 0 0 0 0 0 0 127 0" result="hardAlpha"/>
<feOffset dy="4"/>
<feGaussianBlur stdDeviation="2"/>
<feComposite in2="hardAlpha" operator="out"/>
<feColorMatrix type="matrix" values="0 0 0 0 0 0 0 0 0 0 0 0 0 0 0 0 0 0 0.25 0"/>
<feBlend mode="normal" in2="BackgroundImageFix" result="effect1_dropShadow_504_11668"/>
<feBlend mode="normal" in="SourceGraphic" in2="effect1_dropShadow_504_11668" result="shape"/>
</filter>
</defs>
</svg>
