<svg width="350" height="278" viewBox="0 0 350 278" fill="none" xmlns="http://www.w3.org/2000/svg">
<rect width="350" height="278" rx="15" fill="white"/>
<path d="M36.626 256V247.11H33.14V246.13H41.26V247.11H37.788V256H36.626ZM44.0215 256.126C43.1908 256.126 42.5608 255.897 42.1315 255.44C41.7115 254.983 41.5015 254.283 41.5015 253.34V248.972H42.6355V253.312C42.6355 253.956 42.7662 254.432 43.0275 254.74C43.2888 255.039 43.6948 255.188 44.2455 255.188C44.8615 255.188 45.3562 254.987 45.7295 254.586C46.1028 254.185 46.2895 253.648 46.2895 252.976V248.972H47.4235V256H46.3175V254.418H46.4995C46.3035 254.959 45.9862 255.379 45.5475 255.678C45.1182 255.977 44.6095 256.126 44.0215 256.126ZM52.7456 256.126C51.6442 256.126 50.7762 255.809 50.1416 255.174C49.5069 254.53 49.1896 253.639 49.1896 252.5C49.1896 251.763 49.3296 251.123 49.6096 250.582C49.8896 250.031 50.2816 249.607 50.7856 249.308C51.2896 249 51.8682 248.846 52.5216 248.846C53.1656 248.846 53.7069 248.981 54.1456 249.252C54.5842 249.523 54.9202 249.91 55.1536 250.414C55.3869 250.909 55.5036 251.497 55.5036 252.178V252.598H50.0576V251.884H54.7616L54.5236 252.066C54.5236 251.319 54.3556 250.736 54.0196 250.316C53.6836 249.896 53.1842 249.686 52.5216 249.686C51.8216 249.686 51.2756 249.933 50.8836 250.428C50.4916 250.913 50.2956 251.571 50.2956 252.402V252.528C50.2956 253.405 50.5102 254.073 50.9396 254.53C51.3782 254.978 51.9896 255.202 52.7736 255.202C53.1936 255.202 53.5856 255.141 53.9496 255.02C54.3229 254.889 54.6776 254.679 55.0136 254.39L55.4056 255.188C55.0976 255.487 54.7056 255.72 54.2296 255.888C53.7629 256.047 53.2682 256.126 52.7456 256.126Z" fill="#2D2D2D"/>
<path d="M88.2962 256L84.8522 246.13H86.0702L89.0802 255.02H88.5902L91.7542 246.13H92.6782L95.6742 255.02H95.2262L98.3202 246.13H99.4682L95.9962 256H94.9602L92.0482 247.446H92.3422L89.3042 256H88.2962ZM103.356 256.126C102.255 256.126 101.387 255.809 100.752 255.174C100.118 254.53 99.8002 253.639 99.8002 252.5C99.8002 251.763 99.9402 251.123 100.22 250.582C100.5 250.031 100.892 249.607 101.396 249.308C101.9 249 102.479 248.846 103.132 248.846C103.776 248.846 104.318 248.981 104.756 249.252C105.195 249.523 105.531 249.91 105.764 250.414C105.998 250.909 106.114 251.497 106.114 252.178V252.598H100.668V251.884H105.372L105.134 252.066C105.134 251.319 104.966 250.736 104.63 250.316C104.294 249.896 103.795 249.686 103.132 249.686C102.432 249.686 101.886 249.933 101.494 250.428C101.102 250.913 100.906 251.571 100.906 252.402V252.528C100.906 253.405 101.121 254.073 101.55 254.53C101.989 254.978 102.6 255.202 103.384 255.202C103.804 255.202 104.196 255.141 104.56 255.02C104.934 254.889 105.288 254.679 105.624 254.39L106.016 255.188C105.708 255.487 105.316 255.72 104.84 255.888C104.374 256.047 103.879 256.126 103.356 256.126ZM110.509 256.126C109.893 256.126 109.352 255.981 108.885 255.692C108.419 255.393 108.055 254.973 107.793 254.432C107.541 253.891 107.415 253.242 107.415 252.486C107.415 251.721 107.541 251.067 107.793 250.526C108.055 249.985 108.419 249.569 108.885 249.28C109.352 248.991 109.893 248.846 110.509 248.846C111.144 248.846 111.69 249.005 112.147 249.322C112.614 249.639 112.927 250.069 113.085 250.61H112.917V245.696H114.051V256H112.931V254.32H113.085C112.936 254.88 112.628 255.323 112.161 255.65C111.695 255.967 111.144 256.126 110.509 256.126ZM110.747 255.202C111.41 255.202 111.942 254.973 112.343 254.516C112.745 254.049 112.945 253.373 112.945 252.486C112.945 251.59 112.745 250.913 112.343 250.456C111.942 249.989 111.41 249.756 110.747 249.756C110.085 249.756 109.553 249.989 109.151 250.456C108.759 250.913 108.563 251.59 108.563 252.486C108.563 253.373 108.759 254.049 109.151 254.516C109.553 254.973 110.085 255.202 110.747 255.202Z" fill="#2D2D2D"/>
<path d="M146.871 256V247.11H143.385V246.13H151.505V247.11H148.033V256H146.871ZM152.8 256V245.696H153.934V250.526H153.752C153.948 249.975 154.275 249.56 154.732 249.28C155.199 248.991 155.735 248.846 156.342 248.846C157.182 248.846 157.807 249.075 158.218 249.532C158.629 249.98 158.834 250.661 158.834 251.576V256H157.7V251.646C157.7 250.993 157.569 250.517 157.308 250.218C157.056 249.919 156.645 249.77 156.076 249.77C155.423 249.77 154.9 249.971 154.508 250.372C154.125 250.773 153.934 251.301 153.934 251.954V256H152.8ZM163.481 256.126C162.65 256.126 162.02 255.897 161.591 255.44C161.171 254.983 160.961 254.283 160.961 253.34V248.972H162.095V253.312C162.095 253.956 162.226 254.432 162.487 254.74C162.748 255.039 163.154 255.188 163.705 255.188C164.321 255.188 164.816 254.987 165.189 254.586C165.562 254.185 165.749 253.648 165.749 252.976V248.972H166.883V256H165.777V254.418H165.959C165.763 254.959 165.446 255.379 165.007 255.678C164.578 255.977 164.069 256.126 163.481 256.126Z" fill="#2D2D2D"/>
<path d="M196.923 256V246.13H203.083V247.082H198.085V250.54H202.775V251.492H198.085V256H196.923ZM204.493 256V250.666C204.493 250.386 204.484 250.101 204.465 249.812C204.456 249.523 204.437 249.243 204.409 248.972H205.501L205.641 250.68L205.445 250.694C205.539 250.274 205.702 249.929 205.935 249.658C206.169 249.387 206.444 249.187 206.761 249.056C207.079 248.916 207.41 248.846 207.755 248.846C207.895 248.846 208.017 248.851 208.119 248.86C208.231 248.869 208.334 248.893 208.427 248.93L208.413 249.938C208.273 249.891 208.143 249.863 208.021 249.854C207.909 249.835 207.779 249.826 207.629 249.826C207.219 249.826 206.859 249.924 206.551 250.12C206.253 250.316 206.024 250.568 205.865 250.876C205.716 251.184 205.641 251.511 205.641 251.856V256H204.493ZM209.607 256V248.972H210.741V256H209.607ZM209.467 247.376V246.102H210.867V247.376H209.467Z" fill="#2D2D2D"/>
<path d="M244.027 256.126C243.233 256.126 242.524 256.023 241.899 255.818C241.273 255.613 240.727 255.319 240.261 254.936L240.681 254.012C241.007 254.255 241.334 254.46 241.661 254.628C241.997 254.787 242.356 254.908 242.739 254.992C243.121 255.067 243.551 255.104 244.027 255.104C244.857 255.104 245.473 254.95 245.875 254.642C246.276 254.334 246.477 253.923 246.477 253.41C246.477 252.971 246.337 252.635 246.057 252.402C245.777 252.169 245.287 251.982 244.587 251.842L243.117 251.548C242.211 251.361 241.535 251.058 241.087 250.638C240.648 250.218 240.429 249.649 240.429 248.93C240.429 248.342 240.578 247.829 240.877 247.39C241.185 246.951 241.614 246.611 242.165 246.368C242.715 246.125 243.355 246.004 244.083 246.004C244.783 246.004 245.422 246.111 246.001 246.326C246.579 246.531 247.074 246.835 247.485 247.236L247.079 248.132C246.64 247.74 246.178 247.46 245.693 247.292C245.217 247.115 244.675 247.026 244.069 247.026C243.303 247.026 242.697 247.194 242.249 247.53C241.81 247.857 241.591 248.305 241.591 248.874C241.591 249.331 241.731 249.691 242.011 249.952C242.291 250.204 242.753 250.395 243.397 250.526L244.881 250.82C245.833 251.016 246.533 251.31 246.981 251.702C247.429 252.094 247.653 252.645 247.653 253.354C247.653 253.895 247.503 254.376 247.205 254.796C246.915 255.216 246.5 255.543 245.959 255.776C245.417 256.009 244.773 256.126 244.027 256.126ZM252.077 256.126C251.452 256.126 250.906 255.981 250.439 255.692C249.973 255.393 249.609 254.973 249.347 254.432C249.095 253.891 248.969 253.242 248.969 252.486C248.969 251.721 249.095 251.067 249.347 250.526C249.609 249.985 249.973 249.569 250.439 249.28C250.906 248.991 251.452 248.846 252.077 248.846C252.712 248.846 253.258 249.009 253.715 249.336C254.182 249.653 254.49 250.087 254.639 250.638H254.471L254.625 248.972H255.717C255.689 249.243 255.661 249.518 255.633 249.798C255.615 250.069 255.605 250.335 255.605 250.596V256H254.471V254.348H254.625C254.476 254.899 254.168 255.333 253.701 255.65C253.235 255.967 252.693 256.126 252.077 256.126ZM252.301 255.202C252.973 255.202 253.505 254.973 253.897 254.516C254.289 254.049 254.485 253.373 254.485 252.486C254.485 251.59 254.289 250.913 253.897 250.456C253.505 249.989 252.973 249.756 252.301 249.756C251.639 249.756 251.107 249.989 250.705 250.456C250.313 250.913 250.117 251.59 250.117 252.486C250.117 253.373 250.313 254.049 250.705 254.516C251.107 254.973 251.639 255.202 252.301 255.202ZM260.29 256.126C259.599 256.126 259.072 255.93 258.708 255.538C258.344 255.137 258.162 254.535 258.162 253.732V249.854H256.79V248.972H258.162V247.054L259.296 246.732V248.972H261.312V249.854H259.296V253.606C259.296 254.166 259.389 254.567 259.576 254.81C259.772 255.043 260.061 255.16 260.444 255.16C260.621 255.16 260.78 255.146 260.92 255.118C261.06 255.081 261.186 255.039 261.298 254.992V255.944C261.167 256 261.009 256.042 260.822 256.07C260.645 256.107 260.467 256.126 260.29 256.126Z" fill="#2D2D2D"/>
<path d="M294.332 256.126C293.539 256.126 292.83 256.023 292.204 255.818C291.579 255.613 291.033 255.319 290.566 254.936L290.986 254.012C291.313 254.255 291.64 254.46 291.966 254.628C292.302 254.787 292.662 254.908 293.044 254.992C293.427 255.067 293.856 255.104 294.332 255.104C295.163 255.104 295.779 254.95 296.18 254.642C296.582 254.334 296.782 253.923 296.782 253.41C296.782 252.971 296.642 252.635 296.362 252.402C296.082 252.169 295.592 251.982 294.892 251.842L293.422 251.548C292.517 251.361 291.84 251.058 291.392 250.638C290.954 250.218 290.734 249.649 290.734 248.93C290.734 248.342 290.884 247.829 291.182 247.39C291.49 246.951 291.92 246.611 292.47 246.368C293.021 246.125 293.66 246.004 294.388 246.004C295.088 246.004 295.728 246.111 296.306 246.326C296.885 246.531 297.38 246.835 297.79 247.236L297.384 248.132C296.946 247.74 296.484 247.46 295.998 247.292C295.522 247.115 294.981 247.026 294.374 247.026C293.609 247.026 293.002 247.194 292.554 247.53C292.116 247.857 291.896 248.305 291.896 248.874C291.896 249.331 292.036 249.691 292.316 249.952C292.596 250.204 293.058 250.395 293.702 250.526L295.186 250.82C296.138 251.016 296.838 251.31 297.286 251.702C297.734 252.094 297.958 252.645 297.958 253.354C297.958 253.895 297.809 254.376 297.51 254.796C297.221 255.216 296.806 255.543 296.264 255.776C295.723 256.009 295.079 256.126 294.332 256.126ZM302.187 256.126C301.356 256.126 300.726 255.897 300.297 255.44C299.877 254.983 299.667 254.283 299.667 253.34V248.972H300.801V253.312C300.801 253.956 300.932 254.432 301.193 254.74C301.454 255.039 301.86 255.188 302.411 255.188C303.027 255.188 303.522 254.987 303.895 254.586C304.268 254.185 304.455 253.648 304.455 252.976V248.972H305.589V256H304.483V254.418H304.665C304.469 254.959 304.152 255.379 303.713 255.678C303.284 255.977 302.775 256.126 302.187 256.126ZM307.789 256V250.596C307.789 250.335 307.775 250.069 307.747 249.798C307.728 249.518 307.705 249.243 307.677 248.972H308.769L308.909 250.512H308.741C308.946 249.971 309.273 249.56 309.721 249.28C310.178 248.991 310.706 248.846 311.303 248.846C312.134 248.846 312.759 249.07 313.179 249.518C313.608 249.957 313.823 250.652 313.823 251.604V256H312.689V251.674C312.689 251.011 312.554 250.531 312.283 250.232C312.022 249.924 311.611 249.77 311.051 249.77C310.398 249.77 309.88 249.971 309.497 250.372C309.114 250.773 308.923 251.31 308.923 251.982V256H307.789Z" fill="#2D2D2D"/>
<path d="M3.84 43V34.36H4.908V38.17H9.456V34.36H10.524V43H9.456V39.184H4.908V43H3.84ZM14.9672 43.18C14.3232 43.18 13.7672 43.034 13.2992 42.742C12.8352 42.45 12.4772 42.046 12.2252 41.53C11.9732 41.014 11.8472 40.422 11.8472 39.754C11.8472 39.074 11.9752 38.478 12.2312 37.966C12.4872 37.454 12.8492 37.056 13.3172 36.772C13.7852 36.484 14.3352 36.34 14.9672 36.34C15.6152 36.34 16.1732 36.486 16.6412 36.778C17.1092 37.066 17.4672 37.468 17.7152 37.984C17.9672 38.496 18.0932 39.086 18.0932 39.754C18.0932 40.43 17.9672 41.026 17.7152 41.542C17.4632 42.054 17.1032 42.456 16.6352 42.748C16.1672 43.036 15.6112 43.18 14.9672 43.18ZM14.9672 42.166C15.6392 42.166 16.1392 41.942 16.4672 41.494C16.7952 41.046 16.9592 40.466 16.9592 39.754C16.9592 39.022 16.7932 38.44 16.4612 38.008C16.1292 37.572 15.6312 37.354 14.9672 37.354C14.5152 37.354 14.1432 37.456 13.8512 37.66C13.5592 37.864 13.3412 38.146 13.1972 38.506C13.0532 38.866 12.9812 39.282 12.9812 39.754C12.9812 40.482 13.1492 41.066 13.4852 41.506C13.8212 41.946 14.3152 42.166 14.9672 42.166ZM19.5342 43V34.18H20.6022V43H19.5342ZM24.9465 43.18C24.3425 43.18 23.8245 43.03 23.3925 42.73C22.9605 42.426 22.6265 42.016 22.3905 41.5C22.1585 40.984 22.0425 40.402 22.0425 39.754C22.0425 39.106 22.1585 38.524 22.3905 38.008C22.6265 37.492 22.9605 37.086 23.3925 36.79C23.8245 36.49 24.3405 36.34 24.9405 36.34C25.5525 36.34 26.0665 36.488 26.4825 36.784C26.8985 37.08 27.2125 37.486 27.4245 38.002C27.6405 38.518 27.7485 39.102 27.7485 39.754C27.7485 40.398 27.6405 40.98 27.4245 41.5C27.2125 42.016 26.8985 42.426 26.4825 42.73C26.0665 43.03 25.5545 43.18 24.9465 43.18ZM25.0785 42.202C25.5145 42.202 25.8725 42.098 26.1525 41.89C26.4325 41.678 26.6385 41.388 26.7705 41.02C26.9065 40.648 26.9745 40.226 26.9745 39.754C26.9745 39.274 26.9065 38.852 26.7705 38.488C26.6385 38.12 26.4345 37.834 26.1585 37.63C25.8825 37.422 25.5325 37.318 25.1085 37.318C24.6685 37.318 24.3045 37.426 24.0165 37.642C23.7325 37.858 23.5205 38.15 23.3805 38.518C23.2445 38.886 23.1765 39.298 23.1765 39.754C23.1765 40.214 23.2465 40.63 23.3865 41.002C23.5265 41.37 23.7365 41.662 24.0165 41.878C24.3005 42.094 24.6545 42.202 25.0785 42.202ZM26.9745 43V38.23H26.8545V34.36H27.9285V43H26.9745ZM35.6299 43C35.2459 43.076 34.8659 43.106 34.4899 43.09C34.1179 43.078 33.7859 43.004 33.4939 42.868C33.2019 42.728 32.9799 42.512 32.8279 42.22C32.6999 41.964 32.6299 41.706 32.6179 41.446C32.6099 41.182 32.6059 40.884 32.6059 40.552V34.72H33.6739V40.504C33.6739 40.768 33.6759 40.994 33.6799 41.182C33.6879 41.37 33.7299 41.532 33.8059 41.668C33.9499 41.924 34.1779 42.074 34.4899 42.118C34.8059 42.162 35.1859 42.15 35.6299 42.082V43ZM31.2919 37.402V36.52H35.6299V37.402H31.2919ZM37.0655 35.374V34.27H38.1335V35.374H37.0655ZM37.0655 43V36.52H38.1335V43H37.0655ZM47.6798 43L47.6858 38.854C47.6858 38.37 47.5558 37.992 47.2958 37.72C47.0398 37.444 46.7058 37.306 46.2938 37.306C46.0538 37.306 45.8258 37.362 45.6098 37.474C45.3938 37.582 45.2178 37.754 45.0818 37.99C44.9458 38.222 44.8778 38.52 44.8778 38.884L44.3138 38.656C44.3058 38.196 44.3998 37.794 44.5958 37.45C44.7958 37.102 45.0678 36.832 45.4118 36.64C45.7558 36.448 46.1438 36.352 46.5758 36.352C47.2518 36.352 47.7838 36.558 48.1718 36.97C48.5598 37.378 48.7538 37.928 48.7538 38.62L48.7478 43H47.6798ZM39.9278 43V36.52H40.8818V38.254H41.0018V43H39.9278ZM43.8098 43L43.8158 38.896C43.8158 38.4 43.6878 38.012 43.4318 37.732C43.1758 37.448 42.8358 37.306 42.4118 37.306C41.9918 37.306 41.6518 37.45 41.3918 37.738C41.1318 38.026 41.0018 38.408 41.0018 38.884L40.4378 38.548C40.4378 38.128 40.5378 37.752 40.7378 37.42C40.9378 37.088 41.2098 36.828 41.5538 36.64C41.8978 36.448 42.2878 36.352 42.7238 36.352C43.1598 36.352 43.5398 36.444 43.8638 36.628C44.1878 36.812 44.4378 37.076 44.6138 37.42C44.7898 37.76 44.8778 38.166 44.8778 38.638L44.8718 43H43.8098ZM53.066 43.18C52.43 43.18 51.874 43.04 51.398 42.76C50.926 42.476 50.558 42.082 50.294 41.578C50.03 41.07 49.898 40.478 49.898 39.802C49.898 39.094 50.028 38.482 50.288 37.966C50.548 37.446 50.91 37.046 51.374 36.766C51.842 36.482 52.39 36.34 53.018 36.34C53.67 36.34 54.224 36.49 54.68 36.79C55.14 37.09 55.484 37.518 55.712 38.074C55.944 38.63 56.044 39.292 56.012 40.06H54.932V39.676C54.92 38.88 54.758 38.286 54.446 37.894C54.134 37.498 53.67 37.3 53.054 37.3C52.394 37.3 51.892 37.512 51.548 37.936C51.204 38.36 51.032 38.968 51.032 39.76C51.032 40.524 51.204 41.116 51.548 41.536C51.892 41.956 52.382 42.166 53.018 42.166C53.446 42.166 53.818 42.068 54.134 41.872C54.45 41.676 54.698 41.394 54.878 41.026L55.904 41.38C55.652 41.952 55.272 42.396 54.764 42.712C54.26 43.024 53.694 43.18 53.066 43.18ZM50.672 40.06V39.202H55.46V40.06H50.672Z" fill="#26A69A"/>
<path d="M297.216 44V38.24H298.052V43.212H300.66V44H297.216ZM302.559 44.12C302.239 44.12 301.971 44.0613 301.755 43.944C301.539 43.824 301.375 43.6667 301.263 43.472C301.154 43.2747 301.099 43.0587 301.099 42.824C301.099 42.6053 301.138 42.4133 301.215 42.248C301.293 42.0827 301.407 41.9427 301.559 41.828C301.711 41.7107 301.898 41.616 302.119 41.544C302.311 41.488 302.529 41.4387 302.771 41.396C303.014 41.3533 303.269 41.3133 303.535 41.276C303.805 41.2387 304.071 41.2013 304.335 41.164L304.031 41.332C304.037 40.9933 303.965 40.7427 303.815 40.58C303.669 40.4147 303.415 40.332 303.055 40.332C302.829 40.332 302.621 40.3853 302.431 40.492C302.242 40.596 302.11 40.7693 302.035 41.012L301.255 40.772C301.362 40.4013 301.565 40.1067 301.863 39.888C302.165 39.6693 302.565 39.56 303.063 39.56C303.45 39.56 303.786 39.6267 304.071 39.76C304.359 39.8907 304.57 40.0987 304.703 40.384C304.773 40.5253 304.815 40.6747 304.831 40.832C304.847 40.9893 304.855 41.1587 304.855 41.34V44H304.115V43.012L304.259 43.14C304.081 43.4707 303.853 43.7173 303.575 43.88C303.301 44.04 302.962 44.12 302.559 44.12ZM302.707 43.436C302.945 43.436 303.149 43.3947 303.319 43.312C303.49 43.2267 303.627 43.1187 303.731 42.988C303.835 42.8573 303.903 42.7213 303.935 42.58C303.981 42.452 304.006 42.308 304.011 42.148C304.019 41.988 304.023 41.86 304.023 41.764L304.295 41.864C304.031 41.904 303.791 41.94 303.575 41.972C303.359 42.004 303.163 42.036 302.987 42.068C302.814 42.0973 302.659 42.1333 302.523 42.176C302.409 42.216 302.306 42.264 302.215 42.32C302.127 42.376 302.057 42.444 302.003 42.524C301.953 42.604 301.927 42.7013 301.927 42.816C301.927 42.928 301.955 43.032 302.011 43.128C302.067 43.2213 302.153 43.296 302.267 43.352C302.382 43.408 302.529 43.436 302.707 43.436ZM307.546 44.116C307.021 44.116 306.593 44 306.262 43.768C305.931 43.536 305.729 43.2093 305.654 42.788L306.51 42.656C306.563 42.88 306.686 43.0573 306.878 43.188C307.073 43.316 307.314 43.38 307.602 43.38C307.863 43.38 308.067 43.3267 308.214 43.22C308.363 43.1133 308.438 42.9667 308.438 42.78C308.438 42.6707 308.411 42.5827 308.358 42.516C308.307 42.4467 308.199 42.3813 308.034 42.32C307.869 42.2587 307.617 42.1827 307.278 42.092C306.907 41.996 306.613 41.8933 306.394 41.784C306.178 41.672 306.023 41.5427 305.93 41.396C305.839 41.2467 305.794 41.0667 305.794 40.856C305.794 40.5947 305.863 40.3667 306.002 40.172C306.141 39.9773 306.335 39.8267 306.586 39.72C306.839 39.6133 307.135 39.56 307.474 39.56C307.805 39.56 308.099 39.612 308.358 39.716C308.617 39.82 308.826 39.968 308.986 40.16C309.146 40.3493 309.242 40.572 309.274 40.828L308.418 40.984C308.389 40.776 308.291 40.612 308.126 40.492C307.961 40.372 307.746 40.3067 307.482 40.296C307.229 40.2853 307.023 40.328 306.866 40.424C306.709 40.5173 306.63 40.6467 306.63 40.812C306.63 40.908 306.659 40.9893 306.718 41.056C306.779 41.1227 306.897 41.1867 307.07 41.248C307.243 41.3093 307.499 41.3827 307.838 41.468C308.201 41.5613 308.489 41.6653 308.702 41.78C308.915 41.892 309.067 42.0267 309.158 42.184C309.251 42.3387 309.298 42.5267 309.298 42.748C309.298 43.1747 309.142 43.5093 308.83 43.752C308.521 43.9947 308.093 44.116 307.546 44.116ZM312.655 44C312.383 44.0533 312.116 44.076 311.855 44.068C311.594 44.06 311.36 44.0093 311.155 43.916C310.95 43.8227 310.795 43.676 310.691 43.476C310.598 43.2973 310.547 43.116 310.539 42.932C310.534 42.7453 310.531 42.5347 310.531 42.3V38.48H311.371V42.26C311.371 42.4333 311.372 42.584 311.375 42.712C311.38 42.84 311.408 42.948 311.459 43.036C311.555 43.2013 311.707 43.296 311.915 43.32C312.126 43.3413 312.372 43.332 312.655 43.292V44ZM309.703 40.352V39.68H312.655V40.352H309.703ZM315.467 44L317.491 39.036H314.927V38.24H318.391V39.036L316.371 44H315.467ZM322.672 44.12C322.27 44.12 321.922 44.02 321.628 43.82C321.338 43.62 321.112 43.348 320.952 43.004C320.795 42.6573 320.716 42.268 320.716 41.836C320.716 41.4013 320.796 41.0133 320.956 40.672C321.116 40.328 321.343 40.0573 321.636 39.86C321.932 39.66 322.283 39.56 322.688 39.56C323.096 39.56 323.439 39.66 323.716 39.86C323.996 40.0573 324.207 40.328 324.348 40.672C324.492 41.016 324.564 41.404 324.564 41.836C324.564 42.268 324.492 42.656 324.348 43C324.204 43.344 323.992 43.6173 323.712 43.82C323.432 44.02 323.086 44.12 322.672 44.12ZM322.788 43.364C323.063 43.364 323.287 43.2987 323.46 43.168C323.634 43.0373 323.76 42.8573 323.84 42.628C323.92 42.3987 323.96 42.1347 323.96 41.836C323.96 41.5373 323.919 41.2733 323.836 41.044C323.756 40.8147 323.631 40.636 323.46 40.508C323.292 40.38 323.078 40.316 322.816 40.316C322.539 40.316 322.311 40.384 322.132 40.52C321.954 40.656 321.82 40.8387 321.732 41.068C321.647 41.2973 321.604 41.5533 321.604 41.836C321.604 42.1213 321.647 42.38 321.732 42.612C321.82 42.8413 321.951 43.024 322.124 43.16C322.3 43.296 322.522 43.364 322.788 43.364ZM323.96 44V40.892H323.864V38.24H324.704V44H323.96ZM327.044 44.12C326.724 44.12 326.456 44.0613 326.24 43.944C326.024 43.824 325.86 43.6667 325.748 43.472C325.638 43.2747 325.584 43.0587 325.584 42.824C325.584 42.6053 325.622 42.4133 325.7 42.248C325.777 42.0827 325.892 41.9427 326.044 41.828C326.196 41.7107 326.382 41.616 326.604 41.544C326.796 41.488 327.013 41.4387 327.256 41.396C327.498 41.3533 327.753 41.3133 328.02 41.276C328.289 41.2387 328.556 41.2013 328.82 41.164L328.516 41.332C328.521 40.9933 328.449 40.7427 328.3 40.58C328.153 40.4147 327.9 40.332 327.54 40.332C327.313 40.332 327.105 40.3853 326.916 40.492C326.726 40.596 326.594 40.7693 326.52 41.012L325.74 40.772C325.846 40.4013 326.049 40.1067 326.348 39.888C326.649 39.6693 327.049 39.56 327.548 39.56C327.934 39.56 328.27 39.6267 328.556 39.76C328.844 39.8907 329.054 40.0987 329.188 40.384C329.257 40.5253 329.3 40.6747 329.316 40.832C329.332 40.9893 329.34 41.1587 329.34 41.34V44H328.6V43.012L328.744 43.14C328.565 43.4707 328.337 43.7173 328.06 43.88C327.785 44.04 327.446 44.12 327.044 44.12ZM327.192 43.436C327.429 43.436 327.633 43.3947 327.804 43.312C327.974 43.2267 328.112 43.1187 328.216 42.988C328.32 42.8573 328.388 42.7213 328.42 42.58C328.465 42.452 328.49 42.308 328.496 42.148C328.504 41.988 328.508 41.86 328.508 41.764L328.78 41.864C328.516 41.904 328.276 41.94 328.06 41.972C327.844 42.004 327.648 42.036 327.472 42.068C327.298 42.0973 327.144 42.1333 327.008 42.176C326.893 42.216 326.79 42.264 326.7 42.32C326.612 42.376 326.541 42.444 326.488 42.524C326.437 42.604 326.412 42.7013 326.412 42.816C326.412 42.928 326.44 43.032 326.496 43.128C326.552 43.2213 326.637 43.296 326.752 43.352C326.866 43.408 327.013 43.436 327.192 43.436ZM330.72 45.92L331.556 43.644L331.568 44.316L329.684 39.68H330.556L331.964 43.26H331.708L333.052 39.68H333.9L331.516 45.92H330.72ZM336.179 44.116C335.653 44.116 335.225 44 334.895 43.768C334.564 43.536 334.361 43.2093 334.287 42.788L335.143 42.656C335.196 42.88 335.319 43.0573 335.511 43.188C335.705 43.316 335.947 43.38 336.235 43.38C336.496 43.38 336.7 43.3267 336.847 43.22C336.996 43.1133 337.071 42.9667 337.071 42.78C337.071 42.6707 337.044 42.5827 336.991 42.516C336.94 42.4467 336.832 42.3813 336.667 42.32C336.501 42.2587 336.249 42.1827 335.911 42.092C335.54 41.996 335.245 41.8933 335.027 41.784C334.811 41.672 334.656 41.5427 334.563 41.396C334.472 41.2467 334.427 41.0667 334.427 40.856C334.427 40.5947 334.496 40.3667 334.635 40.172C334.773 39.9773 334.968 39.8267 335.219 39.72C335.472 39.6133 335.768 39.56 336.107 39.56C336.437 39.56 336.732 39.612 336.991 39.716C337.249 39.82 337.459 39.968 337.619 40.16C337.779 40.3493 337.875 40.572 337.907 40.828L337.051 40.984C337.021 40.776 336.924 40.612 336.759 40.492C336.593 40.372 336.379 40.3067 336.115 40.296C335.861 40.2853 335.656 40.328 335.499 40.424C335.341 40.5173 335.263 40.6467 335.263 40.812C335.263 40.908 335.292 40.9893 335.351 41.056C335.412 41.1227 335.529 41.1867 335.703 41.248C335.876 41.3093 336.132 41.3827 336.471 41.468C336.833 41.5613 337.121 41.6653 337.335 41.78C337.548 41.892 337.7 42.0267 337.791 42.184C337.884 42.3387 337.931 42.5267 337.931 42.748C337.931 43.1747 337.775 43.5093 337.463 43.752C337.153 43.9947 336.725 44.116 336.179 44.116Z" fill="black"/>
<path d="M346.75 40.4313C346.754 40.259 346.651 40.1031 346.495 40.0431C346.339 39.9831 346.163 40.032 346.057 40.165L344.006 42.6405L341.956 40.165C341.87 40.0427 341.724 39.981 341.579 40.0052C341.434 40.0295 341.314 40.1356 341.269 40.2801C341.224 40.4245 341.261 40.583 341.364 40.6904L343.709 43.5247C343.783 43.6148 343.892 43.6667 344.007 43.6667C344.121 43.6667 344.23 43.6148 344.304 43.5247L346.651 40.6904C346.713 40.6188 346.748 40.527 346.75 40.4313L346.75 40.4313Z" fill="black"/>
<path d="M19.4684 117.048C19.2662 117.048 19.0841 117.008 18.9221 116.928C18.7601 116.847 18.6302 116.737 18.5326 116.597C18.4349 116.457 18.3815 116.297 18.3723 116.118H18.7859C18.802 116.277 18.8744 116.409 19.0031 116.514C19.1329 116.617 19.288 116.669 19.4684 116.669C19.6132 116.669 19.7419 116.635 19.8545 116.567C19.9682 116.5 20.0573 116.407 20.1216 116.288C20.1871 116.169 20.2199 116.034 20.2199 115.883C20.2199 115.729 20.186 115.592 20.1182 115.471C20.0516 115.349 19.9596 115.254 19.8424 115.183C19.7252 115.113 19.5914 115.078 19.4409 115.077C19.3328 115.075 19.222 115.092 19.1082 115.127C18.9945 115.16 18.9008 115.203 18.8273 115.256L18.4274 115.208L18.6411 113.47H20.475V113.849H18.9996L18.8755 114.89H18.8962C18.9686 114.833 19.0594 114.785 19.1685 114.747C19.2777 114.709 19.3914 114.69 19.5098 114.69C19.7258 114.69 19.9183 114.742 20.0872 114.846C20.2572 114.948 20.3905 115.088 20.487 115.266C20.5847 115.444 20.6335 115.648 20.6335 115.876C20.6335 116.101 20.583 116.303 20.4819 116.48C20.3819 116.655 20.244 116.794 20.0682 116.897C19.8924 116.998 19.6925 117.048 19.4684 117.048ZM22.4695 117.048C22.2098 117.048 21.9886 116.978 21.8059 116.836C21.6232 116.694 21.4836 116.488 21.3871 116.218C21.2906 115.946 21.2424 115.619 21.2424 115.235C21.2424 114.854 21.2906 114.528 21.3871 114.258C21.4848 113.987 21.625 113.78 21.8077 113.637C21.9915 113.494 22.2121 113.422 22.4695 113.422C22.7269 113.422 22.9469 113.494 23.1296 113.637C23.3134 113.78 23.4536 113.987 23.5501 114.258C23.6478 114.528 23.6966 114.854 23.6966 115.235C23.6966 115.619 23.6484 115.946 23.5519 116.218C23.4553 116.488 23.3157 116.694 23.133 116.836C22.9504 116.978 22.7292 117.048 22.4695 117.048ZM22.4695 116.669C22.7269 116.669 22.9268 116.545 23.0693 116.297C23.2117 116.049 23.283 115.695 23.283 115.235C23.283 114.929 23.2502 114.669 23.1847 114.454C23.1204 114.24 23.0273 114.076 22.9055 113.963C22.7849 113.851 22.6395 113.794 22.4695 113.794C22.2144 113.794 22.0151 113.92 21.8714 114.172C21.7278 114.422 21.656 114.777 21.656 115.235C21.656 115.541 21.6882 115.8 21.7525 116.014C21.8169 116.228 21.9094 116.39 22.03 116.502C22.1518 116.613 22.2983 116.669 22.4695 116.669Z" fill="#8D8D8D"/>
<line x1="29.6213" y1="114.657" x2="326.859" y2="114.657" stroke="#8D8D8D" stroke-width="0.40445" stroke-dasharray="0.81 0.81"/>
<path d="M21.3523 233.06C21.0926 233.06 20.8714 232.99 20.6888 232.848C20.5061 232.706 20.3665 232.5 20.2699 232.23C20.1734 231.959 20.1252 231.631 20.1252 231.247C20.1252 230.866 20.1734 230.54 20.2699 230.27C20.3676 229.999 20.5078 229.792 20.6905 229.65C20.8743 229.506 21.0949 229.434 21.3523 229.434C21.6097 229.434 21.8297 229.506 22.0124 229.65C22.1963 229.792 22.3364 229.999 22.4329 230.27C22.5306 230.54 22.5794 230.866 22.5794 231.247C22.5794 231.631 22.5312 231.959 22.4347 232.23C22.3382 232.5 22.1985 232.706 22.0159 232.848C21.8332 232.99 21.612 233.06 21.3523 233.06ZM21.3523 232.681C21.6097 232.681 21.8096 232.557 21.9521 232.309C22.0946 232.061 22.1658 231.707 22.1658 231.247C22.1658 230.942 22.1331 230.681 22.0676 230.467C22.0032 230.252 21.9101 230.088 21.7884 229.975C21.6677 229.863 21.5224 229.806 21.3523 229.806C21.0972 229.806 20.8979 229.932 20.7542 230.184C20.6106 230.434 20.5388 230.789 20.5388 231.247C20.5388 231.553 20.571 231.813 20.6353 232.026C20.6997 232.24 20.7922 232.403 20.9128 232.514C21.0346 232.626 21.1811 232.681 21.3523 232.681Z" fill="#8D8D8D"/>
<line x1="29.6213" y1="230.669" x2="326.859" y2="230.669" stroke="#8D8D8D" stroke-width="0.40445" stroke-dasharray="0.81 0.81"/>
<path d="M21.3443 204.058C21.1421 204.058 20.96 204.017 20.798 203.937C20.636 203.856 20.5061 203.746 20.4085 203.606C20.3108 203.466 20.2574 203.306 20.2482 203.127H20.6618C20.6779 203.287 20.7503 203.419 20.879 203.523C21.0088 203.627 21.1639 203.678 21.3443 203.678C21.4891 203.678 21.6178 203.644 21.7304 203.577C21.8442 203.509 21.9332 203.416 21.9975 203.297C22.063 203.178 22.0958 203.043 22.0958 202.892C22.0958 202.738 22.0619 202.601 21.9941 202.481C21.9275 202.359 21.8355 202.263 21.7183 202.193C21.6011 202.123 21.4673 202.087 21.3168 202.086C21.2088 202.085 21.0979 202.101 20.9841 202.136C20.8704 202.169 20.7767 202.212 20.7032 202.265L20.3033 202.217L20.517 200.48H22.3509V200.859H20.8755L20.7514 201.9H20.7721C20.8445 201.842 20.9353 201.795 21.0444 201.757C21.1536 201.719 21.2674 201.7 21.3857 201.7C21.6017 201.7 21.7942 201.751 21.9631 201.855C22.1331 201.957 22.2664 202.097 22.3629 202.275C22.4606 202.454 22.5094 202.657 22.5094 202.886C22.5094 203.111 22.4589 203.312 22.3578 203.489C22.2578 203.665 22.1199 203.804 21.9441 203.906C21.7683 204.007 21.5684 204.058 21.3443 204.058Z" fill="#8D8D8D"/>
<line x1="29.6213" y1="201.666" x2="326.859" y2="201.666" stroke="#8D8D8D" stroke-width="0.40445" stroke-dasharray="0.81 0.81"/>
<path d="M20.3139 171.477V175.006H19.8865V171.925H19.8658L19.004 172.497V172.063L19.8865 171.477H20.3139ZM22.4803 175.055C22.2207 175.055 21.9995 174.984 21.8168 174.843C21.6341 174.7 21.4945 174.494 21.398 174.224C21.3015 173.953 21.2532 173.625 21.2532 173.241C21.2532 172.86 21.3015 172.534 21.398 172.264C21.4956 171.993 21.6358 171.786 21.8185 171.644C22.0024 171.5 22.223 171.428 22.4803 171.428C22.7377 171.428 22.9578 171.5 23.1404 171.644C23.3243 171.786 23.4645 171.993 23.561 172.264C23.6586 172.534 23.7075 172.86 23.7075 173.241C23.7075 173.625 23.6592 173.953 23.5627 174.224C23.4662 174.494 23.3266 174.7 23.1439 174.843C22.9612 174.984 22.74 175.055 22.4803 175.055ZM22.4803 174.675C22.7377 174.675 22.9376 174.551 23.0801 174.303C23.2226 174.055 23.2938 173.701 23.2938 173.241C23.2938 172.936 23.2611 172.676 23.1956 172.461C23.1313 172.246 23.0382 172.082 22.9164 171.97C22.7957 171.857 22.6504 171.801 22.4803 171.801C22.2253 171.801 22.0259 171.926 21.8823 172.178C21.7387 172.429 21.6668 172.783 21.6668 173.241C21.6668 173.547 21.699 173.807 21.7634 174.021C21.8277 174.234 21.9202 174.397 22.0408 174.508C22.1626 174.62 22.3091 174.675 22.4803 174.675Z" fill="#8D8D8D"/>
<line x1="29.6213" y1="172.663" x2="326.859" y2="172.663" stroke="#8D8D8D" stroke-width="0.40445" stroke-dasharray="0.81 0.81"/>
<path d="M20.3542 142.473V146.003H19.9267V142.921H19.9061L19.0443 143.493V143.059L19.9267 142.473H20.3542ZM22.4724 146.051C22.2701 146.051 22.088 146.011 21.926 145.931C21.764 145.85 21.6342 145.74 21.5365 145.6C21.4388 145.459 21.3854 145.3 21.3762 145.12H21.7899C21.8059 145.28 21.8783 145.412 22.007 145.517C22.1369 145.62 22.292 145.672 22.4724 145.672C22.6171 145.672 22.7458 145.638 22.8584 145.57C22.9722 145.503 23.0612 145.409 23.1256 145.291C23.1911 145.172 23.2238 145.037 23.2238 144.886C23.2238 144.732 23.1899 144.595 23.1221 144.474C23.0555 144.352 22.9636 144.256 22.8464 144.186C22.7292 144.116 22.5953 144.081 22.4448 144.079C22.3368 144.078 22.2259 144.095 22.1122 144.129C21.9984 144.163 21.9048 144.206 21.8312 144.259L21.4314 144.21L21.6451 142.473H23.4789V142.852H22.0036L21.8795 143.893H21.9002C21.9726 143.836 22.0633 143.788 22.1725 143.75C22.2816 143.712 22.3954 143.693 22.5137 143.693C22.7297 143.693 22.9222 143.745 23.0911 143.849C23.2612 143.951 23.3944 144.091 23.491 144.269C23.5886 144.447 23.6375 144.651 23.6375 144.879C23.6375 145.104 23.5869 145.305 23.4858 145.482C23.3858 145.658 23.248 145.797 23.0722 145.9C22.8964 146.001 22.6964 146.051 22.4724 146.051Z" fill="#8D8D8D"/>
<line x1="29.6213" y1="143.661" x2="326.859" y2="143.661" stroke="#8D8D8D" stroke-width="0.40445" stroke-dasharray="0.81 0.81"/>
<rect x="31" y="100" width="26" height="130" fill="#30C0C2"/>
<rect x="69" y="153" width="26" height="77" fill="#30C0C2"/>
<rect x="107" y="220" width="26" height="10" fill="#30C0C2"/>
<rect x="145" y="199" width="26" height="31" fill="#30C0C2"/>
<rect x="183" y="153" width="26" height="77" fill="#30C0C2"/>
<rect x="221" y="126" width="26" height="104" fill="#30C0C2"/>
<rect x="259" y="171" width="26" height="59" fill="#30C0C2"/>
<rect x="297" y="145" width="26" height="85" fill="#30C0C2"/>
</svg>
