<svg width="145" height="98" viewBox="0 0 145 98" fill="none" xmlns="http://www.w3.org/2000/svg">
<path d="M0.5 66.3533H4.47919C5.00135 66.3533 5.49451 66.059 5.8165 65.5551L7.60249 62.7604C8.23179 61.7757 9.42234 61.6884 10.1429 62.5742L15.2499 68.8533C15.5686 69.2452 16.0015 69.4653 16.4529 69.4653H22.1549C22.5149 69.4653 22.8653 69.3254 23.156 69.0653L24.9377 67.4723C25.6468 66.8382 26.6331 66.9707 27.2134 67.7778L29.0226 70.2945C29.6267 71.1345 30.6645 71.2386 31.372 70.5302L39.7138 62.1763C40.4212 61.4679 41.4591 61.572 42.0631 62.4122L43.5196 64.4379C44.2306 65.427 45.503 65.3675 46.1505 64.3149L49.3332 59.1405C49.5595 58.7727 49.8789 58.5072 50.2414 58.3856L55.7759 56.5298C56.3183 56.3481 56.7524 55.8487 56.9347 55.1965L59.4256 46.2875C59.5919 45.6925 59.9685 45.2217 60.4505 45.0062L64.2845 43.2922C64.6861 43.1125 65.0179 42.7539 65.2132 42.2879L66.0687 40.2483C66.689 38.7694 68.4036 38.7344 69.0637 40.1873L72.4448 47.6289C72.862 48.5472 73.7723 48.9406 74.567 48.5458L80.2459 45.7246C80.7263 45.486 81.0915 44.9914 81.2376 44.3817L85.7703 25.4683C86.026 24.4015 86.9203 23.7691 87.8016 24.0317L90.2054 24.7482C90.9411 24.9675 91.7065 24.5635 92.0819 23.7576L94.8563 17.8037C95.3587 16.7256 96.5144 16.4225 97.3327 17.1542L98.2852 18.0059C98.8071 18.4726 99.5457 18.2579 99.8411 17.5536M144.5 17.1542L140.825 13.5022C139.342 12.0288 135.309 11.9936 134.84 9.95652V9.95652L133.128 2.51671C132.921 1.61956 132.253 1 131.493 1H125.221C124.767 1 124.333 1.22225 124.013 1.61727L119.69 6.96995C119.189 7.59009 118.426 7.76161 117.778 7.39958L113.66 5.0982C112.725 4.57595 111.63 5.18179 111.33 6.38611L107.614 21.3396C107.216 22.942 105.515 23.3416 104.662 22.0335L101.599 17.3377C101.122 16.6074 100.19 16.7219 99.8411 17.5536M99.8411 17.5536Lnan nanCnan nan -nan -nan -nan -nanL-nan -nanC-nan -nan -nan -nan -nan -nanL99.8411 17.5536Z" stroke="#00C4C3" stroke-linecap="round"/>
<path d="M0 98V69.8022C0 69.3335 0.325532 68.9277 0.78307 68.826L8.42104 67.1287C8.77799 67.0493 9.14976 67.1712 9.39055 67.4463L12.3212 70.7957C12.4383 70.9295 12.5889 71.0296 12.7576 71.0859L19.7707 73.4236C19.9214 73.4738 20.0819 73.4874 20.2389 73.4632L26.3479 72.5234C26.4487 72.5079 26.5513 72.5079 26.6521 72.5234L32.4571 73.4165C32.7952 73.4685 33.1364 73.3441 33.3617 73.0866L39.4565 66.1212C39.772 65.7605 40.299 65.6744 40.7129 65.9159L45.2124 68.5406C45.6586 68.8009 46.2297 68.6784 46.53 68.258L50.8166 62.2567C50.936 62.0896 51.1039 61.9633 51.2975 61.895L59.0569 59.1564C59.3376 59.0573 59.5595 58.8384 59.6624 58.5591L62.8556 49.8919C62.948 49.6411 63.1369 49.4378 63.3802 49.3272L67.7915 47.322C68.2082 47.1326 68.7002 47.2503 68.9862 47.6077L74.047 53.9337C74.3172 54.2715 74.774 54.3973 75.179 54.2454L82.0144 51.6821C82.3189 51.5679 82.5488 51.3128 82.6309 50.9982L88.305 29.2476C88.4198 28.8072 88.8175 28.5 89.2726 28.5H92.4511C92.793 28.5 93.1112 28.3253 93.2947 28.0369L96.2053 23.4631C96.3888 23.1747 96.707 23 97.0489 23H100.995C101.312 23 101.611 23.151 101.8 23.4068L107.48 31.1153C107.935 31.7329 108.887 31.6292 109.199 30.9282L116.281 14.9918C116.418 14.6847 116.699 14.4668 117.031 14.4115L128.14 12.56C128.372 12.5213 128.611 12.5659 128.814 12.6861L141.51 20.2095C141.814 20.3896 142 20.7166 142 21.0698V98H0Z" fill="url(#paint0_linear_587_35077)"/>
<defs>
<linearGradient id="paint0_linear_587_35077" x1="105.5" y1="120" x2="68" y2="40" gradientUnits="userSpaceOnUse">
<stop stop-color="#00C4C3"/>
<stop offset="1" stop-color="#00C4C3" stop-opacity="0"/>
</linearGradient>
</defs>
</svg>
