<svg width="350" height="278" viewBox="0 0 350 278" fill="none" xmlns="http://www.w3.org/2000/svg">
<rect width="350" height="278" rx="15" fill="white"/>
<path d="M36.626 218V209.11H33.14V208.13H41.26V209.11H37.788V218H36.626ZM44.0215 218.126C43.1908 218.126 42.5608 217.897 42.1315 217.44C41.7115 216.983 41.5015 216.283 41.5015 215.34V210.972H42.6355V215.312C42.6355 215.956 42.7662 216.432 43.0275 216.74C43.2888 217.039 43.6948 217.188 44.2455 217.188C44.8615 217.188 45.3562 216.987 45.7295 216.586C46.1028 216.185 46.2895 215.648 46.2895 214.976V210.972H47.4235V218H46.3175V216.418H46.4995C46.3035 216.959 45.9862 217.379 45.5475 217.678C45.1182 217.977 44.6095 218.126 44.0215 218.126ZM52.7456 218.126C51.6442 218.126 50.7762 217.809 50.1416 217.174C49.5069 216.53 49.1896 215.639 49.1896 214.5C49.1896 213.763 49.3296 213.123 49.6096 212.582C49.8896 212.031 50.2816 211.607 50.7856 211.308C51.2896 211 51.8682 210.846 52.5216 210.846C53.1656 210.846 53.7069 210.981 54.1456 211.252C54.5842 211.523 54.9202 211.91 55.1536 212.414C55.3869 212.909 55.5036 213.497 55.5036 214.178V214.598H50.0576V213.884H54.7616L54.5236 214.066C54.5236 213.319 54.3556 212.736 54.0196 212.316C53.6836 211.896 53.1842 211.686 52.5216 211.686C51.8216 211.686 51.2756 211.933 50.8836 212.428C50.4916 212.913 50.2956 213.571 50.2956 214.402V214.528C50.2956 215.405 50.5102 216.073 50.9396 216.53C51.3782 216.978 51.9896 217.202 52.7736 217.202C53.1936 217.202 53.5856 217.141 53.9496 217.02C54.3229 216.889 54.6776 216.679 55.0136 216.39L55.4056 217.188C55.0976 217.487 54.7056 217.72 54.2296 217.888C53.7629 218.047 53.2682 218.126 52.7456 218.126Z" fill="#2D2D2D"/>
<path d="M88.2962 218L84.8522 208.13H86.0702L89.0802 217.02H88.5902L91.7542 208.13H92.6782L95.6742 217.02H95.2262L98.3202 208.13H99.4682L95.9962 218H94.9602L92.0482 209.446H92.3422L89.3042 218H88.2962ZM103.356 218.126C102.255 218.126 101.387 217.809 100.752 217.174C100.118 216.53 99.8002 215.639 99.8002 214.5C99.8002 213.763 99.9402 213.123 100.22 212.582C100.5 212.031 100.892 211.607 101.396 211.308C101.9 211 102.479 210.846 103.132 210.846C103.776 210.846 104.318 210.981 104.756 211.252C105.195 211.523 105.531 211.91 105.764 212.414C105.998 212.909 106.114 213.497 106.114 214.178V214.598H100.668V213.884H105.372L105.134 214.066C105.134 213.319 104.966 212.736 104.63 212.316C104.294 211.896 103.795 211.686 103.132 211.686C102.432 211.686 101.886 211.933 101.494 212.428C101.102 212.913 100.906 213.571 100.906 214.402V214.528C100.906 215.405 101.121 216.073 101.55 216.53C101.989 216.978 102.6 217.202 103.384 217.202C103.804 217.202 104.196 217.141 104.56 217.02C104.934 216.889 105.288 216.679 105.624 216.39L106.016 217.188C105.708 217.487 105.316 217.72 104.84 217.888C104.374 218.047 103.879 218.126 103.356 218.126ZM110.509 218.126C109.893 218.126 109.352 217.981 108.885 217.692C108.419 217.393 108.055 216.973 107.793 216.432C107.541 215.891 107.415 215.242 107.415 214.486C107.415 213.721 107.541 213.067 107.793 212.526C108.055 211.985 108.419 211.569 108.885 211.28C109.352 210.991 109.893 210.846 110.509 210.846C111.144 210.846 111.69 211.005 112.147 211.322C112.614 211.639 112.927 212.069 113.085 212.61H112.917V207.696H114.051V218H112.931V216.32H113.085C112.936 216.88 112.628 217.323 112.161 217.65C111.695 217.967 111.144 218.126 110.509 218.126ZM110.747 217.202C111.41 217.202 111.942 216.973 112.343 216.516C112.745 216.049 112.945 215.373 112.945 214.486C112.945 213.59 112.745 212.913 112.343 212.456C111.942 211.989 111.41 211.756 110.747 211.756C110.085 211.756 109.553 211.989 109.151 212.456C108.759 212.913 108.563 213.59 108.563 214.486C108.563 215.373 108.759 216.049 109.151 216.516C109.553 216.973 110.085 217.202 110.747 217.202Z" fill="#2D2D2D"/>
<path d="M146.871 218V209.11H143.385V208.13H151.505V209.11H148.033V218H146.871ZM152.8 218V207.696H153.934V212.526H153.752C153.948 211.975 154.275 211.56 154.732 211.28C155.199 210.991 155.735 210.846 156.342 210.846C157.182 210.846 157.807 211.075 158.218 211.532C158.629 211.98 158.834 212.661 158.834 213.576V218H157.7V213.646C157.7 212.993 157.569 212.517 157.308 212.218C157.056 211.919 156.645 211.77 156.076 211.77C155.423 211.77 154.9 211.971 154.508 212.372C154.125 212.773 153.934 213.301 153.934 213.954V218H152.8ZM163.481 218.126C162.65 218.126 162.02 217.897 161.591 217.44C161.171 216.983 160.961 216.283 160.961 215.34V210.972H162.095V215.312C162.095 215.956 162.226 216.432 162.487 216.74C162.748 217.039 163.154 217.188 163.705 217.188C164.321 217.188 164.816 216.987 165.189 216.586C165.562 216.185 165.749 215.648 165.749 214.976V210.972H166.883V218H165.777V216.418H165.959C165.763 216.959 165.446 217.379 165.007 217.678C164.578 217.977 164.069 218.126 163.481 218.126Z" fill="#2D2D2D"/>
<path d="M196.923 218V208.13H203.083V209.082H198.085V212.54H202.775V213.492H198.085V218H196.923ZM204.493 218V212.666C204.493 212.386 204.484 212.101 204.465 211.812C204.456 211.523 204.437 211.243 204.409 210.972H205.501L205.641 212.68L205.445 212.694C205.539 212.274 205.702 211.929 205.935 211.658C206.169 211.387 206.444 211.187 206.761 211.056C207.079 210.916 207.41 210.846 207.755 210.846C207.895 210.846 208.017 210.851 208.119 210.86C208.231 210.869 208.334 210.893 208.427 210.93L208.413 211.938C208.273 211.891 208.143 211.863 208.021 211.854C207.909 211.835 207.779 211.826 207.629 211.826C207.219 211.826 206.859 211.924 206.551 212.12C206.253 212.316 206.024 212.568 205.865 212.876C205.716 213.184 205.641 213.511 205.641 213.856V218H204.493ZM209.607 218V210.972H210.741V218H209.607ZM209.467 209.376V208.102H210.867V209.376H209.467Z" fill="#2D2D2D"/>
<path d="M244.027 218.126C243.233 218.126 242.524 218.023 241.899 217.818C241.273 217.613 240.727 217.319 240.261 216.936L240.681 216.012C241.007 216.255 241.334 216.46 241.661 216.628C241.997 216.787 242.356 216.908 242.739 216.992C243.121 217.067 243.551 217.104 244.027 217.104C244.857 217.104 245.473 216.95 245.875 216.642C246.276 216.334 246.477 215.923 246.477 215.41C246.477 214.971 246.337 214.635 246.057 214.402C245.777 214.169 245.287 213.982 244.587 213.842L243.117 213.548C242.211 213.361 241.535 213.058 241.087 212.638C240.648 212.218 240.429 211.649 240.429 210.93C240.429 210.342 240.578 209.829 240.877 209.39C241.185 208.951 241.614 208.611 242.165 208.368C242.715 208.125 243.355 208.004 244.083 208.004C244.783 208.004 245.422 208.111 246.001 208.326C246.579 208.531 247.074 208.835 247.485 209.236L247.079 210.132C246.64 209.74 246.178 209.46 245.693 209.292C245.217 209.115 244.675 209.026 244.069 209.026C243.303 209.026 242.697 209.194 242.249 209.53C241.81 209.857 241.591 210.305 241.591 210.874C241.591 211.331 241.731 211.691 242.011 211.952C242.291 212.204 242.753 212.395 243.397 212.526L244.881 212.82C245.833 213.016 246.533 213.31 246.981 213.702C247.429 214.094 247.653 214.645 247.653 215.354C247.653 215.895 247.503 216.376 247.205 216.796C246.915 217.216 246.5 217.543 245.959 217.776C245.417 218.009 244.773 218.126 244.027 218.126ZM252.077 218.126C251.452 218.126 250.906 217.981 250.439 217.692C249.973 217.393 249.609 216.973 249.347 216.432C249.095 215.891 248.969 215.242 248.969 214.486C248.969 213.721 249.095 213.067 249.347 212.526C249.609 211.985 249.973 211.569 250.439 211.28C250.906 210.991 251.452 210.846 252.077 210.846C252.712 210.846 253.258 211.009 253.715 211.336C254.182 211.653 254.49 212.087 254.639 212.638H254.471L254.625 210.972H255.717C255.689 211.243 255.661 211.518 255.633 211.798C255.615 212.069 255.605 212.335 255.605 212.596V218H254.471V216.348H254.625C254.476 216.899 254.168 217.333 253.701 217.65C253.235 217.967 252.693 218.126 252.077 218.126ZM252.301 217.202C252.973 217.202 253.505 216.973 253.897 216.516C254.289 216.049 254.485 215.373 254.485 214.486C254.485 213.59 254.289 212.913 253.897 212.456C253.505 211.989 252.973 211.756 252.301 211.756C251.639 211.756 251.107 211.989 250.705 212.456C250.313 212.913 250.117 213.59 250.117 214.486C250.117 215.373 250.313 216.049 250.705 216.516C251.107 216.973 251.639 217.202 252.301 217.202ZM260.29 218.126C259.599 218.126 259.072 217.93 258.708 217.538C258.344 217.137 258.162 216.535 258.162 215.732V211.854H256.79V210.972H258.162V209.054L259.296 208.732V210.972H261.312V211.854H259.296V215.606C259.296 216.166 259.389 216.567 259.576 216.81C259.772 217.043 260.061 217.16 260.444 217.16C260.621 217.16 260.78 217.146 260.92 217.118C261.06 217.081 261.186 217.039 261.298 216.992V217.944C261.167 218 261.009 218.042 260.822 218.07C260.645 218.107 260.467 218.126 260.29 218.126Z" fill="#2D2D2D"/>
<path d="M294.332 218.126C293.539 218.126 292.83 218.023 292.204 217.818C291.579 217.613 291.033 217.319 290.566 216.936L290.986 216.012C291.313 216.255 291.64 216.46 291.966 216.628C292.302 216.787 292.662 216.908 293.044 216.992C293.427 217.067 293.856 217.104 294.332 217.104C295.163 217.104 295.779 216.95 296.18 216.642C296.582 216.334 296.782 215.923 296.782 215.41C296.782 214.971 296.642 214.635 296.362 214.402C296.082 214.169 295.592 213.982 294.892 213.842L293.422 213.548C292.517 213.361 291.84 213.058 291.392 212.638C290.954 212.218 290.734 211.649 290.734 210.93C290.734 210.342 290.884 209.829 291.182 209.39C291.49 208.951 291.92 208.611 292.47 208.368C293.021 208.125 293.66 208.004 294.388 208.004C295.088 208.004 295.728 208.111 296.306 208.326C296.885 208.531 297.38 208.835 297.79 209.236L297.384 210.132C296.946 209.74 296.484 209.46 295.998 209.292C295.522 209.115 294.981 209.026 294.374 209.026C293.609 209.026 293.002 209.194 292.554 209.53C292.116 209.857 291.896 210.305 291.896 210.874C291.896 211.331 292.036 211.691 292.316 211.952C292.596 212.204 293.058 212.395 293.702 212.526L295.186 212.82C296.138 213.016 296.838 213.31 297.286 213.702C297.734 214.094 297.958 214.645 297.958 215.354C297.958 215.895 297.809 216.376 297.51 216.796C297.221 217.216 296.806 217.543 296.264 217.776C295.723 218.009 295.079 218.126 294.332 218.126ZM302.187 218.126C301.356 218.126 300.726 217.897 300.297 217.44C299.877 216.983 299.667 216.283 299.667 215.34V210.972H300.801V215.312C300.801 215.956 300.932 216.432 301.193 216.74C301.454 217.039 301.86 217.188 302.411 217.188C303.027 217.188 303.522 216.987 303.895 216.586C304.268 216.185 304.455 215.648 304.455 214.976V210.972H305.589V218H304.483V216.418H304.665C304.469 216.959 304.152 217.379 303.713 217.678C303.284 217.977 302.775 218.126 302.187 218.126ZM307.789 218V212.596C307.789 212.335 307.775 212.069 307.747 211.798C307.728 211.518 307.705 211.243 307.677 210.972H308.769L308.909 212.512H308.741C308.946 211.971 309.273 211.56 309.721 211.28C310.178 210.991 310.706 210.846 311.303 210.846C312.134 210.846 312.759 211.07 313.179 211.518C313.608 211.957 313.823 212.652 313.823 213.604V218H312.689V213.674C312.689 213.011 312.554 212.531 312.283 212.232C312.022 211.924 311.611 211.77 311.051 211.77C310.398 211.77 309.88 211.971 309.497 212.372C309.114 212.773 308.923 213.31 308.923 213.982V218H307.789Z" fill="#2D2D2D"/>
<path d="M3.84 43V34.36H4.908V38.17H9.456V34.36H10.524V43H9.456V39.184H4.908V43H3.84ZM14.9672 43.18C14.3232 43.18 13.7672 43.034 13.2992 42.742C12.8352 42.45 12.4772 42.046 12.2252 41.53C11.9732 41.014 11.8472 40.422 11.8472 39.754C11.8472 39.074 11.9752 38.478 12.2312 37.966C12.4872 37.454 12.8492 37.056 13.3172 36.772C13.7852 36.484 14.3352 36.34 14.9672 36.34C15.6152 36.34 16.1732 36.486 16.6412 36.778C17.1092 37.066 17.4672 37.468 17.7152 37.984C17.9672 38.496 18.0932 39.086 18.0932 39.754C18.0932 40.43 17.9672 41.026 17.7152 41.542C17.4632 42.054 17.1032 42.456 16.6352 42.748C16.1672 43.036 15.6112 43.18 14.9672 43.18ZM14.9672 42.166C15.6392 42.166 16.1392 41.942 16.4672 41.494C16.7952 41.046 16.9592 40.466 16.9592 39.754C16.9592 39.022 16.7932 38.44 16.4612 38.008C16.1292 37.572 15.6312 37.354 14.9672 37.354C14.5152 37.354 14.1432 37.456 13.8512 37.66C13.5592 37.864 13.3412 38.146 13.1972 38.506C13.0532 38.866 12.9812 39.282 12.9812 39.754C12.9812 40.482 13.1492 41.066 13.4852 41.506C13.8212 41.946 14.3152 42.166 14.9672 42.166ZM19.5342 43V34.18H20.6022V43H19.5342ZM24.9465 43.18C24.3425 43.18 23.8245 43.03 23.3925 42.73C22.9605 42.426 22.6265 42.016 22.3905 41.5C22.1585 40.984 22.0425 40.402 22.0425 39.754C22.0425 39.106 22.1585 38.524 22.3905 38.008C22.6265 37.492 22.9605 37.086 23.3925 36.79C23.8245 36.49 24.3405 36.34 24.9405 36.34C25.5525 36.34 26.0665 36.488 26.4825 36.784C26.8985 37.08 27.2125 37.486 27.4245 38.002C27.6405 38.518 27.7485 39.102 27.7485 39.754C27.7485 40.398 27.6405 40.98 27.4245 41.5C27.2125 42.016 26.8985 42.426 26.4825 42.73C26.0665 43.03 25.5545 43.18 24.9465 43.18ZM25.0785 42.202C25.5145 42.202 25.8725 42.098 26.1525 41.89C26.4325 41.678 26.6385 41.388 26.7705 41.02C26.9065 40.648 26.9745 40.226 26.9745 39.754C26.9745 39.274 26.9065 38.852 26.7705 38.488C26.6385 38.12 26.4345 37.834 26.1585 37.63C25.8825 37.422 25.5325 37.318 25.1085 37.318C24.6685 37.318 24.3045 37.426 24.0165 37.642C23.7325 37.858 23.5205 38.15 23.3805 38.518C23.2445 38.886 23.1765 39.298 23.1765 39.754C23.1765 40.214 23.2465 40.63 23.3865 41.002C23.5265 41.37 23.7365 41.662 24.0165 41.878C24.3005 42.094 24.6545 42.202 25.0785 42.202ZM26.9745 43V38.23H26.8545V34.36H27.9285V43H26.9745ZM35.6299 43C35.2459 43.076 34.8659 43.106 34.4899 43.09C34.1179 43.078 33.7859 43.004 33.4939 42.868C33.2019 42.728 32.9799 42.512 32.8279 42.22C32.6999 41.964 32.6299 41.706 32.6179 41.446C32.6099 41.182 32.6059 40.884 32.6059 40.552V34.72H33.6739V40.504C33.6739 40.768 33.6759 40.994 33.6799 41.182C33.6879 41.37 33.7299 41.532 33.8059 41.668C33.9499 41.924 34.1779 42.074 34.4899 42.118C34.8059 42.162 35.1859 42.15 35.6299 42.082V43ZM31.2919 37.402V36.52H35.6299V37.402H31.2919ZM37.0655 35.374V34.27H38.1335V35.374H37.0655ZM37.0655 43V36.52H38.1335V43H37.0655ZM47.6798 43L47.6858 38.854C47.6858 38.37 47.5558 37.992 47.2958 37.72C47.0398 37.444 46.7058 37.306 46.2938 37.306C46.0538 37.306 45.8258 37.362 45.6098 37.474C45.3938 37.582 45.2178 37.754 45.0818 37.99C44.9458 38.222 44.8778 38.52 44.8778 38.884L44.3138 38.656C44.3058 38.196 44.3998 37.794 44.5958 37.45C44.7958 37.102 45.0678 36.832 45.4118 36.64C45.7558 36.448 46.1438 36.352 46.5758 36.352C47.2518 36.352 47.7838 36.558 48.1718 36.97C48.5598 37.378 48.7538 37.928 48.7538 38.62L48.7478 43H47.6798ZM39.9278 43V36.52H40.8818V38.254H41.0018V43H39.9278ZM43.8098 43L43.8158 38.896C43.8158 38.4 43.6878 38.012 43.4318 37.732C43.1758 37.448 42.8358 37.306 42.4118 37.306C41.9918 37.306 41.6518 37.45 41.3918 37.738C41.1318 38.026 41.0018 38.408 41.0018 38.884L40.4378 38.548C40.4378 38.128 40.5378 37.752 40.7378 37.42C40.9378 37.088 41.2098 36.828 41.5538 36.64C41.8978 36.448 42.2878 36.352 42.7238 36.352C43.1598 36.352 43.5398 36.444 43.8638 36.628C44.1878 36.812 44.4378 37.076 44.6138 37.42C44.7898 37.76 44.8778 38.166 44.8778 38.638L44.8718 43H43.8098ZM53.066 43.18C52.43 43.18 51.874 43.04 51.398 42.76C50.926 42.476 50.558 42.082 50.294 41.578C50.03 41.07 49.898 40.478 49.898 39.802C49.898 39.094 50.028 38.482 50.288 37.966C50.548 37.446 50.91 37.046 51.374 36.766C51.842 36.482 52.39 36.34 53.018 36.34C53.67 36.34 54.224 36.49 54.68 36.79C55.14 37.09 55.484 37.518 55.712 38.074C55.944 38.63 56.044 39.292 56.012 40.06H54.932V39.676C54.92 38.88 54.758 38.286 54.446 37.894C54.134 37.498 53.67 37.3 53.054 37.3C52.394 37.3 51.892 37.512 51.548 37.936C51.204 38.36 51.032 38.968 51.032 39.76C51.032 40.524 51.204 41.116 51.548 41.536C51.892 41.956 52.382 42.166 53.018 42.166C53.446 42.166 53.818 42.068 54.134 41.872C54.45 41.676 54.698 41.394 54.878 41.026L55.904 41.38C55.652 41.952 55.272 42.396 54.764 42.712C54.26 43.024 53.694 43.18 53.066 43.18ZM50.672 40.06V39.202H55.46V40.06H50.672Z" fill="#26A69A"/>
<path d="M297.216 44V38.24H298.052V43.212H300.66V44H297.216ZM302.559 44.12C302.239 44.12 301.971 44.0613 301.755 43.944C301.539 43.824 301.375 43.6667 301.263 43.472C301.154 43.2747 301.099 43.0587 301.099 42.824C301.099 42.6053 301.138 42.4133 301.215 42.248C301.293 42.0827 301.407 41.9427 301.559 41.828C301.711 41.7107 301.898 41.616 302.119 41.544C302.311 41.488 302.529 41.4387 302.771 41.396C303.014 41.3533 303.269 41.3133 303.535 41.276C303.805 41.2387 304.071 41.2013 304.335 41.164L304.031 41.332C304.037 40.9933 303.965 40.7427 303.815 40.58C303.669 40.4147 303.415 40.332 303.055 40.332C302.829 40.332 302.621 40.3853 302.431 40.492C302.242 40.596 302.11 40.7693 302.035 41.012L301.255 40.772C301.362 40.4013 301.565 40.1067 301.863 39.888C302.165 39.6693 302.565 39.56 303.063 39.56C303.45 39.56 303.786 39.6267 304.071 39.76C304.359 39.8907 304.57 40.0987 304.703 40.384C304.773 40.5253 304.815 40.6747 304.831 40.832C304.847 40.9893 304.855 41.1587 304.855 41.34V44H304.115V43.012L304.259 43.14C304.081 43.4707 303.853 43.7173 303.575 43.88C303.301 44.04 302.962 44.12 302.559 44.12ZM302.707 43.436C302.945 43.436 303.149 43.3947 303.319 43.312C303.49 43.2267 303.627 43.1187 303.731 42.988C303.835 42.8573 303.903 42.7213 303.935 42.58C303.981 42.452 304.006 42.308 304.011 42.148C304.019 41.988 304.023 41.86 304.023 41.764L304.295 41.864C304.031 41.904 303.791 41.94 303.575 41.972C303.359 42.004 303.163 42.036 302.987 42.068C302.814 42.0973 302.659 42.1333 302.523 42.176C302.409 42.216 302.306 42.264 302.215 42.32C302.127 42.376 302.057 42.444 302.003 42.524C301.953 42.604 301.927 42.7013 301.927 42.816C301.927 42.928 301.955 43.032 302.011 43.128C302.067 43.2213 302.153 43.296 302.267 43.352C302.382 43.408 302.529 43.436 302.707 43.436ZM307.546 44.116C307.021 44.116 306.593 44 306.262 43.768C305.931 43.536 305.729 43.2093 305.654 42.788L306.51 42.656C306.563 42.88 306.686 43.0573 306.878 43.188C307.073 43.316 307.314 43.38 307.602 43.38C307.863 43.38 308.067 43.3267 308.214 43.22C308.363 43.1133 308.438 42.9667 308.438 42.78C308.438 42.6707 308.411 42.5827 308.358 42.516C308.307 42.4467 308.199 42.3813 308.034 42.32C307.869 42.2587 307.617 42.1827 307.278 42.092C306.907 41.996 306.613 41.8933 306.394 41.784C306.178 41.672 306.023 41.5427 305.93 41.396C305.839 41.2467 305.794 41.0667 305.794 40.856C305.794 40.5947 305.863 40.3667 306.002 40.172C306.141 39.9773 306.335 39.8267 306.586 39.72C306.839 39.6133 307.135 39.56 307.474 39.56C307.805 39.56 308.099 39.612 308.358 39.716C308.617 39.82 308.826 39.968 308.986 40.16C309.146 40.3493 309.242 40.572 309.274 40.828L308.418 40.984C308.389 40.776 308.291 40.612 308.126 40.492C307.961 40.372 307.746 40.3067 307.482 40.296C307.229 40.2853 307.023 40.328 306.866 40.424C306.709 40.5173 306.63 40.6467 306.63 40.812C306.63 40.908 306.659 40.9893 306.718 41.056C306.779 41.1227 306.897 41.1867 307.07 41.248C307.243 41.3093 307.499 41.3827 307.838 41.468C308.201 41.5613 308.489 41.6653 308.702 41.78C308.915 41.892 309.067 42.0267 309.158 42.184C309.251 42.3387 309.298 42.5267 309.298 42.748C309.298 43.1747 309.142 43.5093 308.83 43.752C308.521 43.9947 308.093 44.116 307.546 44.116ZM312.655 44C312.383 44.0533 312.116 44.076 311.855 44.068C311.594 44.06 311.36 44.0093 311.155 43.916C310.95 43.8227 310.795 43.676 310.691 43.476C310.598 43.2973 310.547 43.116 310.539 42.932C310.534 42.7453 310.531 42.5347 310.531 42.3V38.48H311.371V42.26C311.371 42.4333 311.372 42.584 311.375 42.712C311.38 42.84 311.408 42.948 311.459 43.036C311.555 43.2013 311.707 43.296 311.915 43.32C312.126 43.3413 312.372 43.332 312.655 43.292V44ZM309.703 40.352V39.68H312.655V40.352H309.703ZM315.467 44L317.491 39.036H314.927V38.24H318.391V39.036L316.371 44H315.467ZM322.672 44.12C322.27 44.12 321.922 44.02 321.628 43.82C321.338 43.62 321.112 43.348 320.952 43.004C320.795 42.6573 320.716 42.268 320.716 41.836C320.716 41.4013 320.796 41.0133 320.956 40.672C321.116 40.328 321.343 40.0573 321.636 39.86C321.932 39.66 322.283 39.56 322.688 39.56C323.096 39.56 323.439 39.66 323.716 39.86C323.996 40.0573 324.207 40.328 324.348 40.672C324.492 41.016 324.564 41.404 324.564 41.836C324.564 42.268 324.492 42.656 324.348 43C324.204 43.344 323.992 43.6173 323.712 43.82C323.432 44.02 323.086 44.12 322.672 44.12ZM322.788 43.364C323.063 43.364 323.287 43.2987 323.46 43.168C323.634 43.0373 323.76 42.8573 323.84 42.628C323.92 42.3987 323.96 42.1347 323.96 41.836C323.96 41.5373 323.919 41.2733 323.836 41.044C323.756 40.8147 323.631 40.636 323.46 40.508C323.292 40.38 323.078 40.316 322.816 40.316C322.539 40.316 322.311 40.384 322.132 40.52C321.954 40.656 321.82 40.8387 321.732 41.068C321.647 41.2973 321.604 41.5533 321.604 41.836C321.604 42.1213 321.647 42.38 321.732 42.612C321.82 42.8413 321.951 43.024 322.124 43.16C322.3 43.296 322.522 43.364 322.788 43.364ZM323.96 44V40.892H323.864V38.24H324.704V44H323.96ZM327.044 44.12C326.724 44.12 326.456 44.0613 326.24 43.944C326.024 43.824 325.86 43.6667 325.748 43.472C325.638 43.2747 325.584 43.0587 325.584 42.824C325.584 42.6053 325.622 42.4133 325.7 42.248C325.777 42.0827 325.892 41.9427 326.044 41.828C326.196 41.7107 326.382 41.616 326.604 41.544C326.796 41.488 327.013 41.4387 327.256 41.396C327.498 41.3533 327.753 41.3133 328.02 41.276C328.289 41.2387 328.556 41.2013 328.82 41.164L328.516 41.332C328.521 40.9933 328.449 40.7427 328.3 40.58C328.153 40.4147 327.9 40.332 327.54 40.332C327.313 40.332 327.105 40.3853 326.916 40.492C326.726 40.596 326.594 40.7693 326.52 41.012L325.74 40.772C325.846 40.4013 326.049 40.1067 326.348 39.888C326.649 39.6693 327.049 39.56 327.548 39.56C327.934 39.56 328.27 39.6267 328.556 39.76C328.844 39.8907 329.054 40.0987 329.188 40.384C329.257 40.5253 329.3 40.6747 329.316 40.832C329.332 40.9893 329.34 41.1587 329.34 41.34V44H328.6V43.012L328.744 43.14C328.565 43.4707 328.337 43.7173 328.06 43.88C327.785 44.04 327.446 44.12 327.044 44.12ZM327.192 43.436C327.429 43.436 327.633 43.3947 327.804 43.312C327.974 43.2267 328.112 43.1187 328.216 42.988C328.32 42.8573 328.388 42.7213 328.42 42.58C328.465 42.452 328.49 42.308 328.496 42.148C328.504 41.988 328.508 41.86 328.508 41.764L328.78 41.864C328.516 41.904 328.276 41.94 328.06 41.972C327.844 42.004 327.648 42.036 327.472 42.068C327.298 42.0973 327.144 42.1333 327.008 42.176C326.893 42.216 326.79 42.264 326.7 42.32C326.612 42.376 326.541 42.444 326.488 42.524C326.437 42.604 326.412 42.7013 326.412 42.816C326.412 42.928 326.44 43.032 326.496 43.128C326.552 43.2213 326.637 43.296 326.752 43.352C326.866 43.408 327.013 43.436 327.192 43.436ZM330.72 45.92L331.556 43.644L331.568 44.316L329.684 39.68H330.556L331.964 43.26H331.708L333.052 39.68H333.9L331.516 45.92H330.72ZM336.179 44.116C335.653 44.116 335.225 44 334.895 43.768C334.564 43.536 334.361 43.2093 334.287 42.788L335.143 42.656C335.196 42.88 335.319 43.0573 335.511 43.188C335.705 43.316 335.947 43.38 336.235 43.38C336.496 43.38 336.7 43.3267 336.847 43.22C336.996 43.1133 337.071 42.9667 337.071 42.78C337.071 42.6707 337.044 42.5827 336.991 42.516C336.94 42.4467 336.832 42.3813 336.667 42.32C336.501 42.2587 336.249 42.1827 335.911 42.092C335.54 41.996 335.245 41.8933 335.027 41.784C334.811 41.672 334.656 41.5427 334.563 41.396C334.472 41.2467 334.427 41.0667 334.427 40.856C334.427 40.5947 334.496 40.3667 334.635 40.172C334.773 39.9773 334.968 39.8267 335.219 39.72C335.472 39.6133 335.768 39.56 336.107 39.56C336.437 39.56 336.732 39.612 336.991 39.716C337.249 39.82 337.459 39.968 337.619 40.16C337.779 40.3493 337.875 40.572 337.907 40.828L337.051 40.984C337.021 40.776 336.924 40.612 336.759 40.492C336.593 40.372 336.379 40.3067 336.115 40.296C335.861 40.2853 335.656 40.328 335.499 40.424C335.341 40.5173 335.263 40.6467 335.263 40.812C335.263 40.908 335.292 40.9893 335.351 41.056C335.412 41.1227 335.529 41.1867 335.703 41.248C335.876 41.3093 336.132 41.3827 336.471 41.468C336.833 41.5613 337.121 41.6653 337.335 41.78C337.548 41.892 337.7 42.0267 337.791 42.184C337.884 42.3387 337.931 42.5267 337.931 42.748C337.931 43.1747 337.775 43.5093 337.463 43.752C337.153 43.9947 336.725 44.116 336.179 44.116Z" fill="black"/>
<path d="M346.75 40.4313C346.754 40.259 346.651 40.1031 346.495 40.0431C346.339 39.9831 346.163 40.032 346.057 40.165L344.006 42.6405L341.956 40.165C341.87 40.0427 341.724 39.981 341.579 40.0052C341.434 40.0295 341.314 40.1356 341.269 40.2801C341.224 40.4245 341.261 40.583 341.364 40.6904L343.709 43.5247C343.783 43.6148 343.892 43.6667 344.007 43.6667C344.121 43.6667 344.23 43.6148 344.304 43.5247L346.651 40.6904C346.713 40.6188 346.748 40.527 346.75 40.4313L346.75 40.4313Z" fill="black"/>
<path d="M19.4684 79.0483C19.2662 79.0483 19.0841 79.008 18.9221 78.9276C18.7601 78.8472 18.6302 78.7369 18.5326 78.5967C18.4349 78.4565 18.3815 78.2968 18.3723 78.1176H18.7859C18.802 78.2773 18.8744 78.4094 19.0031 78.514C19.1329 78.6174 19.288 78.6691 19.4684 78.6691C19.6132 78.6691 19.7419 78.6352 19.8545 78.5674C19.9682 78.4996 20.0573 78.4065 20.1216 78.2882C20.1871 78.1687 20.2199 78.0337 20.2199 77.8832C20.2199 77.7292 20.186 77.5919 20.1182 77.4712C20.0516 77.3495 19.9596 77.2535 19.8424 77.1834C19.7252 77.1133 19.5914 77.0777 19.4409 77.0766C19.3328 77.0754 19.222 77.0921 19.1082 77.1265C18.9945 77.1599 18.9008 77.203 18.8273 77.2558L18.4274 77.2075L18.6411 75.4703H20.475V75.8494H18.9996L18.8755 76.8904H18.8962C18.9686 76.833 19.0594 76.7853 19.1685 76.7474C19.2777 76.7095 19.3914 76.6905 19.5098 76.6905C19.7258 76.6905 19.9183 76.7422 20.0872 76.8456C20.2572 76.9479 20.3905 77.0881 20.487 77.2661C20.5847 77.4442 20.6335 77.6476 20.6335 77.8763C20.6335 78.1015 20.583 78.3026 20.4819 78.4795C20.3819 78.6553 20.244 78.7943 20.0682 78.8966C19.8924 78.9977 19.6925 79.0483 19.4684 79.0483ZM22.4695 79.0483C22.2098 79.0483 21.9886 78.9776 21.8059 78.8363C21.6232 78.6938 21.4836 78.4875 21.3871 78.2175C21.2906 77.9464 21.2424 77.6189 21.2424 77.2351C21.2424 76.8537 21.2906 76.5279 21.3871 76.2579C21.4848 75.9867 21.625 75.7799 21.8077 75.6374C21.9915 75.4938 22.2121 75.422 22.4695 75.422C22.7269 75.422 22.9469 75.4938 23.1296 75.6374C23.3134 75.7799 23.4536 75.9867 23.5501 76.2579C23.6478 76.5279 23.6966 76.8537 23.6966 77.2351C23.6966 77.6189 23.6484 77.9464 23.5519 78.2175C23.4553 78.4875 23.3157 78.6938 23.133 78.8363C22.9504 78.9776 22.7292 79.0483 22.4695 79.0483ZM22.4695 78.6691C22.7269 78.6691 22.9268 78.545 23.0693 78.2968C23.2117 78.0486 23.283 77.6947 23.283 77.2351C23.283 76.9295 23.2502 76.6692 23.1847 76.4544C23.1204 76.2395 23.0273 76.0758 22.9055 75.9632C22.7849 75.8506 22.6395 75.7943 22.4695 75.7943C22.2144 75.7943 22.0151 75.9201 21.8714 76.1717C21.7278 76.4222 21.656 76.7767 21.656 77.2351C21.656 77.5408 21.6882 77.8004 21.7525 78.0142C21.8169 78.2279 21.9094 78.3905 22.03 78.5019C22.1518 78.6134 22.2983 78.6691 22.4695 78.6691Z" fill="#8D8D8D"/>
<line x1="29.6213" y1="76.6571" x2="326.859" y2="76.6572" stroke="#8D8D8D" stroke-width="0.40445" stroke-dasharray="0.81 0.81"/>
<path d="M21.3523 195.06C21.0926 195.06 20.8714 194.99 20.6888 194.848C20.5061 194.706 20.3665 194.5 20.2699 194.23C20.1734 193.959 20.1252 193.631 20.1252 193.247C20.1252 192.866 20.1734 192.54 20.2699 192.27C20.3676 191.999 20.5078 191.792 20.6905 191.65C20.8743 191.506 21.0949 191.434 21.3523 191.434C21.6097 191.434 21.8297 191.506 22.0124 191.65C22.1963 191.792 22.3364 191.999 22.4329 192.27C22.5306 192.54 22.5794 192.866 22.5794 193.247C22.5794 193.631 22.5312 193.959 22.4347 194.23C22.3382 194.5 22.1985 194.706 22.0159 194.848C21.8332 194.99 21.612 195.06 21.3523 195.06ZM21.3523 194.681C21.6097 194.681 21.8096 194.557 21.9521 194.309C22.0946 194.061 22.1658 193.707 22.1658 193.247C22.1658 192.942 22.1331 192.681 22.0676 192.467C22.0032 192.252 21.9101 192.088 21.7884 191.975C21.6677 191.863 21.5224 191.806 21.3523 191.806C21.0972 191.806 20.8979 191.932 20.7542 192.184C20.6106 192.434 20.5388 192.789 20.5388 193.247C20.5388 193.553 20.571 193.813 20.6353 194.026C20.6997 194.24 20.7922 194.403 20.9128 194.514C21.0346 194.626 21.1811 194.681 21.3523 194.681Z" fill="#8D8D8D"/>
<line x1="29.6213" y1="192.669" x2="326.859" y2="192.669" stroke="#8D8D8D" stroke-width="0.40445" stroke-dasharray="0.81 0.81"/>
<path d="M21.3443 166.058C21.1421 166.058 20.96 166.017 20.798 165.937C20.636 165.856 20.5061 165.746 20.4085 165.606C20.3108 165.466 20.2574 165.306 20.2482 165.127H20.6618C20.6779 165.287 20.7503 165.419 20.879 165.523C21.0088 165.627 21.1639 165.678 21.3443 165.678C21.4891 165.678 21.6178 165.644 21.7304 165.577C21.8442 165.509 21.9332 165.416 21.9975 165.297C22.063 165.178 22.0958 165.043 22.0958 164.892C22.0958 164.738 22.0619 164.601 21.9941 164.481C21.9275 164.359 21.8355 164.263 21.7183 164.193C21.6011 164.123 21.4673 164.087 21.3168 164.086C21.2088 164.085 21.0979 164.101 20.9841 164.136C20.8704 164.169 20.7767 164.212 20.7032 164.265L20.3033 164.217L20.517 162.48H22.3509V162.859H20.8755L20.7514 163.9H20.7721C20.8445 163.842 20.9353 163.795 21.0444 163.757C21.1536 163.719 21.2674 163.7 21.3857 163.7C21.6017 163.7 21.7942 163.751 21.9631 163.855C22.1331 163.957 22.2664 164.097 22.3629 164.275C22.4606 164.454 22.5094 164.657 22.5094 164.886C22.5094 165.111 22.4589 165.312 22.3578 165.489C22.2578 165.665 22.1199 165.804 21.9441 165.906C21.7683 166.007 21.5684 166.058 21.3443 166.058Z" fill="#8D8D8D"/>
<line x1="29.6213" y1="163.666" x2="326.859" y2="163.666" stroke="#8D8D8D" stroke-width="0.40445" stroke-dasharray="0.81 0.81"/>
<path d="M20.3139 133.477V137.006H19.8865V133.925H19.8658L19.004 134.497V134.063L19.8865 133.477H20.3139ZM22.4803 137.055C22.2207 137.055 21.9995 136.984 21.8168 136.843C21.6341 136.7 21.4945 136.494 21.398 136.224C21.3015 135.953 21.2532 135.625 21.2532 135.241C21.2532 134.86 21.3015 134.534 21.398 134.264C21.4956 133.993 21.6358 133.786 21.8185 133.644C22.0024 133.5 22.223 133.428 22.4803 133.428C22.7377 133.428 22.9578 133.5 23.1404 133.644C23.3243 133.786 23.4645 133.993 23.561 134.264C23.6586 134.534 23.7075 134.86 23.7075 135.241C23.7075 135.625 23.6592 135.953 23.5627 136.224C23.4662 136.494 23.3266 136.7 23.1439 136.843C22.9612 136.984 22.74 137.055 22.4803 137.055ZM22.4803 136.675C22.7377 136.675 22.9376 136.551 23.0801 136.303C23.2226 136.055 23.2938 135.701 23.2938 135.241C23.2938 134.936 23.2611 134.676 23.1956 134.461C23.1313 134.246 23.0382 134.082 22.9164 133.97C22.7957 133.857 22.6504 133.801 22.4803 133.801C22.2253 133.801 22.0259 133.926 21.8823 134.178C21.7387 134.429 21.6668 134.783 21.6668 135.241C21.6668 135.547 21.699 135.807 21.7634 136.021C21.8277 136.234 21.9202 136.397 22.0408 136.508C22.1626 136.62 22.3091 136.675 22.4803 136.675Z" fill="#8D8D8D"/>
<line x1="29.6213" y1="134.663" x2="326.859" y2="134.663" stroke="#8D8D8D" stroke-width="0.40445" stroke-dasharray="0.81 0.81"/>
<path d="M20.3542 104.473V108.003H19.9267V104.921H19.9061L19.0443 105.493V105.059L19.9267 104.473H20.3542ZM22.4724 108.051C22.2701 108.051 22.088 108.011 21.926 107.931C21.764 107.85 21.6342 107.74 21.5365 107.6C21.4388 107.459 21.3854 107.3 21.3762 107.12H21.7899C21.8059 107.28 21.8783 107.412 22.007 107.517C22.1369 107.62 22.292 107.672 22.4724 107.672C22.6171 107.672 22.7458 107.638 22.8584 107.57C22.9722 107.503 23.0612 107.409 23.1256 107.291C23.1911 107.172 23.2238 107.037 23.2238 106.886C23.2238 106.732 23.1899 106.595 23.1221 106.474C23.0555 106.352 22.9636 106.256 22.8464 106.186C22.7292 106.116 22.5953 106.081 22.4448 106.079C22.3368 106.078 22.2259 106.095 22.1122 106.129C21.9984 106.163 21.9048 106.206 21.8312 106.259L21.4314 106.21L21.6451 104.473H23.4789V104.852H22.0036L21.8795 105.893H21.9002C21.9726 105.836 22.0633 105.788 22.1725 105.75C22.2816 105.712 22.3954 105.693 22.5137 105.693C22.7297 105.693 22.9222 105.745 23.0911 105.849C23.2612 105.951 23.3944 106.091 23.491 106.269C23.5886 106.447 23.6375 106.651 23.6375 106.879C23.6375 107.104 23.5869 107.305 23.4858 107.482C23.3858 107.658 23.248 107.797 23.0722 107.9C22.8964 108.001 22.6964 108.051 22.4724 108.051Z" fill="#8D8D8D"/>
<line x1="29.6213" y1="105.661" x2="326.859" y2="105.661" stroke="#8D8D8D" stroke-width="0.40445" stroke-dasharray="0.81 0.81"/>
<circle cx="60.5" cy="170.5" r="2.5" fill="#D52E2E"/>
<circle cx="67.5" cy="170.5" r="2.5" fill="#D52E2E"/>
<circle cx="74.5" cy="170.5" r="2.5" fill="#D52E2E"/>
<circle cx="81.5" cy="170.5" r="2.5" fill="#D52E2E"/>
<circle cx="88.5" cy="170.5" r="2.5" fill="#D52E2E"/>
<circle cx="95.5" cy="170.5" r="2.5" fill="#D52E2E"/>
<circle cx="102.5" cy="170.5" r="2.5" fill="#D52E2E"/>
<circle cx="48.5" cy="176.5" r="2.5" fill="#D52E2E"/>
<circle cx="57.5" cy="178.5" r="2.5" fill="#D52E2E"/>
<circle cx="66.5" cy="176.5" r="2.5" fill="#D52E2E"/>
<circle cx="75.5" cy="174.5" r="2.5" fill="#D52E2E"/>
<circle cx="79.5" cy="171.5" r="2.5" fill="#D52E2E"/>
<circle cx="83.5" cy="168.5" r="2.5" fill="#D52E2E"/>
<circle cx="87.5" cy="165.5" r="2.5" fill="#D52E2E"/>
<circle cx="91.5" cy="162.5" r="2.5" fill="#D52E2E"/>
<circle cx="97.5" cy="162.5" r="2.5" fill="#D52E2E"/>
<circle cx="103.5" cy="162.5" r="2.5" fill="#D52E2E"/>
<circle cx="109.5" cy="162.5" r="2.5" fill="#D52E2E"/>
<circle cx="109.5" cy="165.5" r="2.5" fill="#D52E2E"/>
<circle cx="109.5" cy="168.5" r="2.5" fill="#D52E2E"/>
<circle cx="106.5" cy="171.5" r="2.5" fill="#D52E2E"/>
<circle cx="103.5" cy="174.5" r="2.5" fill="#D52E2E"/>
<circle cx="97.5" cy="174.5" r="2.5" fill="#D52E2E"/>
<circle cx="91.5" cy="174.5" r="2.5" fill="#D52E2E"/>
<circle cx="85.5" cy="174.5" r="2.5" fill="#D52E2E"/>
<circle cx="79.5" cy="174.5" r="2.5" fill="#D52E2E"/>
<circle cx="155" cy="118" r="2.5" transform="rotate(90 155 118)" fill="#30C0C2"/>
<circle cx="160" cy="120" r="2.5" transform="rotate(90 160 120)" fill="#30C0C2"/>
<circle cx="157" cy="125" r="2.5" transform="rotate(90 157 125)" fill="#30C0C2"/>
<circle cx="154" cy="130" r="2.5" transform="rotate(90 154 130)" fill="#30C0C2"/>
<circle cx="151" cy="135" r="2.5" transform="rotate(90 151 135)" fill="#30C0C2"/>
<circle cx="157" cy="138" r="2.5" transform="rotate(90 157 138)" fill="#30C0C2"/>
<circle cx="163" cy="141" r="2.5" transform="rotate(90 163 141)" fill="#30C0C2"/>
<circle cx="168" cy="135" r="2.5" transform="rotate(90 168 135)" fill="#30C0C2"/>
<circle cx="170" cy="142" r="2.5" transform="rotate(90 170 142)" fill="#30C0C2"/>
<circle cx="172" cy="149" r="2.5" transform="rotate(90 172 149)" fill="#30C0C2"/>
<circle cx="165" cy="152" r="2.5" transform="rotate(90 165 152)" fill="#30C0C2"/>
<circle cx="158" cy="155" r="2.5" transform="rotate(90 158 155)" fill="#30C0C2"/>
<circle cx="151" cy="158" r="2.5" transform="rotate(90 151 158)" fill="#30C0C2"/>
<circle cx="144" cy="161" r="2.5" transform="rotate(90 144 161)" fill="#30C0C2"/>
<circle cx="137" cy="157" r="2.5" transform="rotate(90 137 157)" fill="#30C0C2"/>
<circle cx="130" cy="153" r="2.5" transform="rotate(90 130 153)" fill="#30C0C2"/>
<circle cx="123" cy="149" r="2.5" transform="rotate(90 123 149)" fill="#30C0C2"/>
<circle cx="116" cy="145" r="2.5" transform="rotate(90 116 145)" fill="#30C0C2"/>
<circle cx="118" cy="136" r="2.5" transform="rotate(90 118 136)" fill="#30C0C2"/>
<circle cx="120" cy="127" r="2.5" transform="rotate(90 120 127)" fill="#30C0C2"/>
<circle cx="122" cy="118" r="2.5" transform="rotate(90 122 118)" fill="#30C0C2"/>
<circle cx="130" cy="118" r="2.5" transform="rotate(90 130 118)" fill="#30C0C2"/>
<circle cx="138" cy="118" r="2.5" transform="rotate(90 138 118)" fill="#30C0C2"/>
<circle cx="142" cy="124" r="2.5" transform="rotate(90 142 124)" fill="#30C0C2"/>
<circle cx="146" cy="130" r="2.5" transform="rotate(90 146 130)" fill="#30C0C2"/>
<circle cx="139" cy="136" r="2.5" transform="rotate(90 139 136)" fill="#30C0C2"/>
<circle cx="132" cy="142" r="2.5" transform="rotate(90 132 142)" fill="#30C0C2"/>
<circle cx="148" cy="140" r="2.5" transform="rotate(90 148 140)" fill="#30C0C2"/>
<circle cx="145" cy="145" r="2.5" transform="rotate(90 145 145)" fill="#30C0C2"/>
<circle cx="140.5" cy="243" r="2.5" fill="#30C0C2"/>
<path d="M147.464 245V240.294H149.229C149.591 240.294 149.894 240.361 150.139 240.496C150.386 240.631 150.572 240.816 150.698 241.052C150.825 241.286 150.888 241.553 150.888 241.852C150.888 242.154 150.825 242.422 150.698 242.656C150.57 242.89 150.383 243.075 150.134 243.21C149.886 243.343 149.581 243.41 149.218 243.41H148.048V242.709H149.103C149.314 242.709 149.487 242.672 149.622 242.599C149.757 242.525 149.856 242.424 149.921 242.295C149.987 242.167 150.02 242.019 150.02 241.852C150.02 241.685 149.987 241.538 149.921 241.411C149.856 241.283 149.756 241.185 149.62 241.114C149.485 241.042 149.311 241.006 149.098 241.006H148.317V245H147.464ZM151.592 245V241.47H152.399V242.059H152.435C152.5 241.855 152.61 241.698 152.766 241.587C152.924 241.476 153.104 241.42 153.306 241.42C153.352 241.42 153.404 241.422 153.46 241.427C153.519 241.43 153.567 241.435 153.605 241.443V242.208C153.57 242.196 153.514 242.185 153.437 242.176C153.362 242.165 153.289 242.16 153.219 242.16C153.067 242.16 152.931 242.193 152.81 242.258C152.69 242.323 152.596 242.412 152.527 242.527C152.458 242.642 152.424 242.775 152.424 242.925V245H151.592ZM155.552 245.069C155.207 245.069 154.909 244.993 154.656 244.841C154.403 244.69 154.207 244.478 154.068 244.205C153.93 243.932 153.861 243.614 153.861 243.249C153.861 242.884 153.93 242.565 154.068 242.291C154.207 242.016 154.403 241.803 154.656 241.652C154.909 241.5 155.207 241.424 155.552 241.424C155.897 241.424 156.195 241.5 156.448 241.652C156.701 241.803 156.896 242.016 157.034 242.291C157.174 242.565 157.243 242.884 157.243 243.249C157.243 243.614 157.174 243.932 157.034 244.205C156.896 244.478 156.701 244.69 156.448 244.841C156.195 244.993 155.897 245.069 155.552 245.069ZM155.557 244.403C155.744 244.403 155.9 244.351 156.025 244.249C156.151 244.144 156.245 244.005 156.306 243.83C156.369 243.656 156.4 243.461 156.4 243.247C156.4 243.031 156.369 242.835 156.306 242.661C156.245 242.484 156.151 242.344 156.025 242.24C155.9 242.136 155.744 242.084 155.557 242.084C155.365 242.084 155.206 242.136 155.079 242.24C154.953 242.344 154.859 242.484 154.796 242.661C154.735 242.835 154.704 243.031 154.704 243.247C154.704 243.461 154.735 243.656 154.796 243.83C154.859 244.005 154.953 244.144 155.079 244.249C155.206 244.351 155.365 244.403 155.557 244.403ZM159.737 241.47V242.114H157.651V241.47H159.737ZM158.172 245V241.137C158.172 240.9 158.221 240.702 158.319 240.544C158.419 240.386 158.552 240.268 158.719 240.19C158.886 240.112 159.072 240.073 159.275 240.073C159.419 240.073 159.547 240.085 159.659 240.108C159.771 240.131 159.854 240.151 159.907 240.17L159.742 240.813C159.707 240.802 159.662 240.792 159.609 240.781C159.555 240.769 159.495 240.762 159.429 240.762C159.275 240.762 159.165 240.8 159.101 240.875C159.038 240.949 159.007 241.054 159.007 241.192V245H158.172ZM160.389 245V241.47H161.221L161.221 245H160.389ZM160.807 240.969C160.675 240.969 160.562 240.926 160.467 240.838C160.372 240.749 160.324 240.643 160.324 240.519C160.324 240.393 160.372 240.287 160.467 240.199C160.562 240.111 160.675 240.066 160.807 240.066C160.94 240.066 161.054 240.111 161.147 240.199C161.242 240.287 161.29 240.393 161.29 240.519C161.29 240.643 161.242 240.749 161.147 240.838C161.054 240.926 160.94 240.969 160.807 240.969ZM163.839 241.47V242.114H161.81V241.47H163.839ZM162.311 240.625H163.142V243.938C163.142 244.05 163.159 244.136 163.193 244.196C163.228 244.254 163.274 244.294 163.331 244.315C163.388 244.337 163.45 244.347 163.519 244.347C163.571 244.347 163.619 244.344 163.662 244.336C163.706 244.328 163.74 244.321 163.763 244.315L163.903 244.966C163.859 244.981 163.795 244.998 163.712 245.016C163.631 245.034 163.532 245.045 163.414 245.048C163.205 245.054 163.018 245.023 162.851 244.954C162.684 244.884 162.551 244.775 162.453 244.628C162.356 244.481 162.309 244.297 162.311 244.076V240.625Z" fill="#8D8D8D"/>
<circle cx="188.5" cy="243" r="2.5" fill="#D52E2E"/>
<path d="M193.464 245V240.294H194.317V244.285H196.39V245H193.464ZM198.632 245.069C198.288 245.069 197.989 244.993 197.736 244.841C197.483 244.69 197.287 244.478 197.148 244.205C197.01 243.932 196.941 243.614 196.941 243.249C196.941 242.884 197.01 242.565 197.148 242.291C197.287 242.016 197.483 241.803 197.736 241.652C197.989 241.5 198.288 241.424 198.632 241.424C198.977 241.424 199.276 241.5 199.529 241.652C199.781 241.803 199.977 242.016 200.115 242.291C200.254 242.565 200.324 242.884 200.324 243.249C200.324 243.614 200.254 243.932 200.115 244.205C199.977 244.478 199.781 244.69 199.529 244.841C199.276 244.993 198.977 245.069 198.632 245.069ZM198.637 244.403C198.824 244.403 198.98 244.351 199.106 244.249C199.231 244.144 199.325 244.005 199.386 243.83C199.449 243.656 199.48 243.461 199.48 243.247C199.48 243.031 199.449 242.835 199.386 242.661C199.325 242.484 199.231 242.344 199.106 242.24C198.98 242.136 198.824 242.084 198.637 242.084C198.446 242.084 198.286 242.136 198.159 242.24C198.033 242.344 197.939 242.484 197.876 242.661C197.815 242.835 197.784 243.031 197.784 243.247C197.784 243.461 197.815 243.656 197.876 243.83C197.939 244.005 198.033 244.144 198.159 244.249C198.286 244.351 198.446 244.403 198.637 244.403ZM203.82 242.403L203.061 242.486C203.04 242.409 203.002 242.337 202.949 242.27C202.897 242.203 202.826 242.148 202.737 242.107C202.648 242.065 202.54 242.045 202.411 242.045C202.238 242.045 202.092 242.082 201.974 242.157C201.858 242.232 201.8 242.33 201.802 242.449C201.8 242.552 201.838 242.635 201.915 242.7C201.993 242.764 202.121 242.817 202.301 242.858L202.903 242.987C203.237 243.059 203.485 243.173 203.647 243.329C203.811 243.486 203.894 243.69 203.895 243.943C203.894 244.165 203.829 244.361 203.7 244.531C203.573 244.7 203.396 244.831 203.169 244.926C202.943 245.021 202.682 245.069 202.388 245.069C201.956 245.069 201.608 244.979 201.345 244.798C201.081 244.615 200.924 244.362 200.874 244.037L201.685 243.959C201.722 244.118 201.8 244.239 201.919 244.32C202.039 244.401 202.194 244.442 202.386 244.442C202.583 244.442 202.742 244.401 202.861 244.32C202.982 244.239 203.043 244.138 203.043 244.019C203.043 243.918 203.004 243.834 202.926 243.768C202.849 243.702 202.73 243.652 202.567 243.617L201.965 243.49C201.627 243.42 201.376 243.301 201.214 243.134C201.051 242.965 200.971 242.753 200.972 242.495C200.971 242.278 201.03 242.089 201.149 241.93C201.27 241.769 201.438 241.645 201.653 241.558C201.869 241.469 202.118 241.424 202.399 241.424C202.813 241.424 203.139 241.512 203.376 241.689C203.615 241.865 203.763 242.103 203.82 242.403ZM207.371 242.403L206.613 242.486C206.591 242.409 206.554 242.337 206.5 242.27C206.448 242.203 206.378 242.148 206.289 242.107C206.2 242.065 206.091 242.045 205.963 242.045C205.789 242.045 205.644 242.082 205.526 242.157C205.409 242.232 205.352 242.33 205.354 242.449C205.352 242.552 205.39 242.635 205.466 242.7C205.544 242.764 205.673 242.817 205.852 242.858L206.454 242.987C206.788 243.059 207.036 243.173 207.199 243.329C207.363 243.486 207.446 243.69 207.447 243.943C207.446 244.165 207.38 244.361 207.252 244.531C207.125 244.7 206.948 244.831 206.721 244.926C206.494 245.021 206.234 245.069 205.94 245.069C205.508 245.069 205.16 244.979 204.896 244.798C204.633 244.615 204.476 244.362 204.425 244.037L205.236 243.959C205.273 244.118 205.351 244.239 205.471 244.32C205.59 244.401 205.746 244.442 205.937 244.442C206.135 244.442 206.293 244.401 206.413 244.32C206.534 244.239 206.594 244.138 206.594 244.019C206.594 243.918 206.555 243.834 206.477 243.768C206.401 243.702 206.281 243.652 206.119 243.617L205.517 243.49C205.178 243.42 204.928 243.301 204.765 243.134C204.603 242.965 204.522 242.753 204.524 242.495C204.522 242.278 204.581 242.089 204.701 241.93C204.822 241.769 204.99 241.645 205.204 241.558C205.42 241.469 205.669 241.424 205.951 241.424C206.365 241.424 206.69 241.512 206.928 241.689C207.167 241.865 207.315 242.103 207.371 242.403Z" fill="#8D8D8D"/>
</svg>
