<svg width="81" height="109" viewBox="0 0 81 109" fill="none" xmlns="http://www.w3.org/2000/svg">
<path fill-rule="evenodd" clip-rule="evenodd" d="M0.973497 65.475C0.909925 61.5625 1.37621 57.6594 2.35965 53.8719C3.95148 47.9025 6.70902 42.2795 10.1353 37.1541C10.987 35.8801 11.8808 34.6353 12.8168 33.4197C17.7126 27.0524 23.7753 21.6616 30.4387 17.2044C42.546 9.10261 55.8585 4.01044 70.1643 1.40066C73.1267 0.860177 76.1091 0.506498 79.0808 0.0509233C80.6058 -0.18314 80.9718 0.385406 80.9555 1.84516C80.8849 8.17522 80.8849 14.5059 80.9555 20.8372C80.9725 22.3645 80.4663 22.8012 78.9568 22.8821C63.2368 23.7249 48.4001 27.6003 35.1226 36.3297C24.5828 43.2589 16.4897 52.2475 12.6428 64.5517C11.0969 69.5863 10.6476 74.8937 11.3254 80.1165C12.751 91.9988 18.8181 100.946 28.6187 107.55C29.0179 107.819 29.9668 107.876 29.6127 108.595C29.184 109.466 28.5452 108.698 28.0704 108.453C17.8082 103.143 8.46037 94.8958 4.18374 83.928C2.83328 80.4057 1.92934 76.7282 1.49303 72.9813C1.17797 70.491 1.00451 67.9849 0.973497 65.475ZM80.9282 49.061C80.9282 51.8259 80.8333 54.5951 80.9622 57.354C81.036 58.9508 80.3795 59.1291 79.0181 59.0726C73.1865 58.8308 67.3676 58.8356 61.5575 59.6865C55.8064 60.529 50.1976 61.9914 45.0561 64.5698C37.9869 68.1139 32.1007 73.1275 29.1837 80.8353C26.3128 88.4213 27.3703 95.5322 32.0165 102.143C33.4098 104.153 35.1325 105.913 37.1121 107.349C37.4153 107.567 38.0316 107.798 37.7557 108.309C37.3987 108.969 36.8666 108.473 36.4962 108.253C28.8628 103.702 23.1697 97.4985 21.1725 88.6661C17.9367 74.3565 22.9304 62.7013 33.6209 53.2664C41.4612 46.3471 50.9309 42.7328 61.0431 40.6207C67.019 39.3725 73.0732 38.9549 79.161 38.8117C80.5109 38.7799 81.0072 39.1809 80.9581 40.5856C80.861 43.4058 80.93 46.2345 80.9282 49.061ZM80.9167 78.4017C80.9167 79.6916 80.8894 80.9826 80.9241 82.2715C80.9633 83.7371 80.4415 84.199 78.9073 83.8745C71.8708 82.3166 64.5977 82.148 57.4965 83.3779C53.2955 84.1322 49.2567 85.3874 45.8375 88.0666C41.2219 91.6846 39.8656 97.14 42.0918 102.959C42.5718 104.214 43.2446 105.395 43.7992 106.624C43.9565 106.973 44.5045 107.356 44.0123 107.738C43.5895 108.066 43.2121 107.641 42.9223 107.341C39.8339 104.142 37.5168 100.498 36.682 96.0676C35.1751 88.0625 38.7498 82.418 45.1861 78.199C50.3833 74.7914 56.237 73.2083 62.3159 72.4434C67.934 71.7945 73.6107 71.8409 79.2175 72.5815C80.515 72.7384 81.0696 73.1744 80.9511 74.5337C80.8403 75.814 80.9271 77.1117 80.9271 78.4017L80.9156 78.4017L80.9167 78.4017Z" fill="#01081E"/>
</svg>
