<svg width="135" height="71" viewBox="0 0 135 71" fill="none" xmlns="http://www.w3.org/2000/svg">
<path d="M3.27427 51.2947L1 54.3327L1.18287 83.1314L140.289 77.2275L139.805 1H133.558L130.958 2.01265C130.2 3.02529 128.359 5.05058 127.06 5.05058C125.76 5.05058 126.518 7.30091 127.06 8.42607L124.136 12.8142L121.212 16.5272L119.587 20.5778L116.338 22.6031L113.414 25.9786L112.114 28.0039H108.216H104.642H102.368L97.1693 22.6031L92.6207 20.5778L86.7726 24.9659V32.392L81.5742 33.7422L76.7008 37.7928L73.4518 44.2062L67.6037 46.9066L63.3801 44.2062L55.9074 40.4932L52.9834 37.7928L52.0087 35.7675L49.4095 33.7422L47.785 32.392L45.1859 36.7801L42.9116 38.8054L41.9369 40.4932L38.3631 43.1936L30.5656 47.5817L29.266 44.2062L24.0676 41.8434L20.8187 43.1936L18.8693 46.2315L16.595 47.5817L15.6203 46.9066L12.6963 45.2189L11.3967 46.2315L10.422 46.9066L9.4473 47.5817L8.14772 48.5943H7.49792L6.84813 49.9445H5.22365L3.27427 51.2947Z" fill="url(#paint0_linear_423_10346)" fill-opacity="0.2" stroke="#00C4C3" stroke-width="1.98354"/>
<defs>
<linearGradient id="paint0_linear_423_10346" x1="64.5362" y1="21.3172" x2="78.9978" y2="70.8503" gradientUnits="userSpaceOnUse">
<stop offset="0.159513" stop-color="#00C4C3"/>
<stop offset="1" stop-color="#00C4C3" stop-opacity="0"/>
</linearGradient>
</defs>
</svg>
