<svg width="512" height="512" viewBox="0 0 512 512" fill="none" xmlns="http://www.w3.org/2000/svg">
<path d="M255.283 0L33.8325 128V384L255.283 512L478.167 384V128L255.283 0ZM457.775 372.247L255.283 489.066L52.3593 372.247V138.608L255.283 21.9303L457.775 138.608V372.247Z" fill="white"/>
<path d="M198.413 263.168L146.567 230.202L87.9739 273.776L167.965 412.524H199.847L237.618 377.266V359.776L198.413 322.222V263.168ZM312.153 263.168V322.222L273.09 359.632L273.234 377.408L311.003 412.095H342.454L421.872 273.776L363.421 229.769L312.153 263.168ZM147.287 199.811L363.421 199.956L342.312 110.944H167.393L147.287 199.811Z" fill="white"/>
<path d="M293.34 263.168L312.009 213.43H198.554L217.656 263.168L211.769 318.638L298.796 318.496L293.34 263.168Z" fill="white"/>
</svg>
