<svg width="30" height="30" viewBox="0 0 30 30" fill="none" xmlns="http://www.w3.org/2000/svg">
<g clip-path="url(#clip0_196_9461)">
<path d="M15 30C23.2843 30 30 23.2843 30 15C30 6.71573 23.2843 0 15 0C6.71573 0 0 6.71573 0 15C0 23.2843 6.71573 30 15 30Z" fill="#00C4C3"/>
<path d="M23.9029 11.5537V21.5252C23.9029 21.7887 23.6916 22 23.4281 22H6.57151C6.44558 22 6.3248 21.95 6.23575 21.8609C6.14671 21.7719 6.09668 21.6511 6.09668 21.5252V11.5537C6.09668 11.2925 6.31035 11.0788 6.57151 11.0788H23.4281C23.554 11.0788 23.6748 11.1288 23.7639 11.2179C23.8529 11.3069 23.9029 11.4277 23.9029 11.5537Z" fill="#01081E"/>
<path d="M16.6623 12.4969H13.3385C13.2755 12.4969 13.2151 12.4719 13.1706 12.4274C13.1261 12.3829 13.1011 12.3225 13.1011 12.2595C13.1011 12.1965 13.1261 12.1361 13.1706 12.0916C13.2151 12.0471 13.2755 12.0221 13.3385 12.0221H16.6623C16.7253 12.0221 16.7857 12.0471 16.8302 12.0916C16.8747 12.1361 16.8997 12.1965 16.8997 12.2595C16.8997 12.3225 16.8747 12.3829 16.8302 12.4274C16.7857 12.4719 16.7253 12.4969 16.6623 12.4969Z" fill="#64798A"/>
<path d="M16.4257 12.0221H13.5767V8.96106C13.5767 8.70615 13.678 8.4617 13.8583 8.28148C14.0386 8.10125 14.2831 8 14.538 8H15.4646C15.7195 8.00006 15.9639 8.10134 16.1441 8.28156C16.3243 8.46178 16.4256 8.70619 16.4257 8.96106V12.0221Z" fill="#E1E6E9"/>
<path d="M15.0009 10.4865C15.4598 10.4865 15.8318 10.1145 15.8318 9.65557C15.8318 9.19664 15.4598 8.82461 15.0009 8.82461C14.542 8.82461 14.1699 9.19664 14.1699 9.65557C14.1699 10.1145 14.542 10.4865 15.0009 10.4865Z" fill="#64798A"/>
<path d="M15.0006 10.121C15.2576 10.121 15.466 9.91261 15.466 9.65556C15.466 9.39852 15.2576 9.19015 15.0006 9.19015C14.7435 9.19015 14.5352 9.39852 14.5352 9.65556C14.5352 9.91261 14.7435 10.121 15.0006 10.121Z" fill="#E1E6E9"/>
<path d="M12.4943 16.5396C12.4943 17.5487 12.1992 18.4627 11.7175 19.137C11.2132 19.8469 10.4995 20.2885 9.71273 20.2885C8.91596 20.2885 8.19469 19.835 7.68756 19.1109C7.21866 18.439 6.93115 17.5344 6.93115 16.5396C6.93115 14.4694 8.17688 12.7908 9.71273 12.7908C11.2483 12.7908 12.4943 14.4694 12.4943 16.5396Z" fill="#E1E6E9"/>
<path d="M11.7174 19.137C11.2131 19.8469 10.4995 20.2885 9.71267 20.2885C8.91589 20.2885 8.19462 19.835 7.6875 19.1109C7.71552 19.0966 7.73308 19.0895 7.73308 19.0895C8.45958 18.9186 9.02178 18.4129 9.02178 18.4129V17.7054C8.84655 17.5771 8.69902 17.4148 8.58802 17.2282C8.57283 17.2424 8.55526 17.2566 8.53745 17.259C8.42658 17.2804 8.29291 17.0881 8.23498 16.8317C8.17943 16.5753 8.2224 16.3497 8.33066 16.3283H8.34087C8.3385 16.1883 8.35084 16.1004 8.35084 16.1004C8.20459 15.9461 8.18703 15.2291 8.18703 15.2291C8.40379 13.4841 10.2751 14.0658 10.2751 14.0658C10.2751 14.0658 11.3442 14.1679 11.1828 14.8184C11.1828 14.8184 11.2913 15.8084 11.0543 16.0648C11.0543 16.0648 11.0617 16.1693 11.0567 16.3283C11.0692 16.326 11.0821 16.326 11.0947 16.3283C11.2029 16.3497 11.2459 16.5753 11.1903 16.8317C11.1324 17.0881 10.9988 17.2804 10.8879 17.259C10.8744 17.2555 10.8616 17.2499 10.8499 17.2424C10.7616 17.43 10.6355 17.608 10.4565 17.741V18.4129C10.4565 18.4129 10.6559 18.8497 11.5989 19.0895C11.5989 19.0895 11.6441 19.1061 11.7174 19.137Z" fill="#64798A"/>
<path d="M17.7312 15.2968H14.4073C14.3444 15.2968 14.284 15.2718 14.2395 15.2272C14.1949 15.1827 14.1699 15.1223 14.1699 15.0594C14.1699 14.9964 14.1949 14.936 14.2395 14.8915C14.284 14.847 14.3444 14.8219 14.4073 14.8219H17.7312C17.7941 14.8219 17.8545 14.847 17.8991 14.8915C17.9436 14.936 17.9686 14.9964 17.9686 15.0594C17.9686 15.1223 17.9436 15.1827 17.8991 15.2272C17.8545 15.2718 17.7941 15.2968 17.7312 15.2968Z" fill="#E1E6E9"/>
<path d="M22.5441 16.5883H14.4073C14.3444 16.5883 14.284 16.5633 14.2395 16.5188C14.1949 16.4743 14.1699 16.4139 14.1699 16.3509C14.1699 16.2879 14.1949 16.2275 14.2395 16.183C14.284 16.1385 14.3444 16.1135 14.4073 16.1135H22.5441C22.6071 16.1135 22.6674 16.1385 22.712 16.183C22.7565 16.2275 22.7815 16.2879 22.7815 16.3509C22.7815 16.4139 22.7565 16.4743 22.712 16.5188C22.6674 16.5633 22.6071 16.5883 22.5441 16.5883Z" fill="#E1E6E9"/>
<path d="M22.5441 17.8801H14.4073C14.3444 17.8801 14.284 17.8551 14.2395 17.8106C14.1949 17.766 14.1699 17.7057 14.1699 17.6427C14.1699 17.5797 14.1949 17.5193 14.2395 17.4748C14.284 17.4303 14.3444 17.4053 14.4073 17.4053H22.5441C22.6071 17.4053 22.6674 17.4303 22.712 17.4748C22.7565 17.5193 22.7815 17.5797 22.7815 17.6427C22.7815 17.7057 22.7565 17.766 22.712 17.8106C22.6674 17.8551 22.6071 17.8801 22.5441 17.8801Z" fill="#E1E6E9"/>
<path d="M22.5441 19.1719H14.4073C14.3444 19.1719 14.284 19.1469 14.2395 19.1024C14.1949 19.0578 14.1699 18.9974 14.1699 18.9345C14.1699 18.8715 14.1949 18.8111 14.2395 18.7666C14.284 18.7221 14.3444 18.6971 14.4073 18.6971H22.5441C22.6071 18.6971 22.6674 18.7221 22.712 18.7666C22.7565 18.8111 22.7815 18.8715 22.7815 18.9345C22.7815 18.9974 22.7565 19.0578 22.712 19.1024C22.6674 19.1469 22.6071 19.1719 22.5441 19.1719Z" fill="#E1E6E9"/>
<path d="M23.9029 21.1904V21.5252C23.9029 21.7887 23.6916 22 23.4281 22H6.57151C6.44558 22 6.3248 21.95 6.23575 21.8609C6.14671 21.7719 6.09668 21.6511 6.09668 21.5252V21.1904H23.9029Z" fill="#2D93BA"/>
</g>
<defs>
<clipPath id="clip0_196_9461">
<rect width="30" height="30" fill="white"/>
</clipPath>
</defs>
</svg>
