<svg width="12" height="12" viewBox="0 0 12 12" fill="none" xmlns="http://www.w3.org/2000/svg">
<path d="M6.7782 6.94687C6.67508 6.88125 6.5532 6.825 6.45008 6.77813L6.42195 6.75937C6.35633 6.73125 6.30008 6.70312 6.23445 6.675C6.19695 6.65625 6.15945 6.6375 6.11258 6.61875L6.09383 6.60938C5.9907 6.5625 5.89695 6.51563 5.8032 6.45938C5.66258 6.375 5.6157 6.17812 5.68133 5.98125C5.71883 5.87812 5.78445 5.75625 6.04695 5.75625C6.24383 5.75625 6.37508 5.84062 6.43133 6.00937C6.45008 6.06562 6.45945 6.13125 6.46883 6.1875L6.48758 6.28125H7.1907V6.25312C7.20945 6.06562 7.16258 5.84063 7.06883 5.67188C6.9282 5.42813 6.69383 5.27813 6.35633 5.19375L6.28133 5.18437V4.6875H5.85008V5.16562L5.71883 5.20312C5.60633 5.23125 5.51258 5.26875 5.41883 5.30625C5.1282 5.45625 4.9407 5.7375 4.91258 6.075C4.88445 6.40313 5.02508 6.7125 5.28758 6.9C5.4282 7.00312 5.5782 7.06875 5.71883 7.13437C5.78445 7.1625 5.85008 7.19062 5.90633 7.21875C5.9532 7.2375 6.00008 7.26562 6.03758 7.28437C6.13133 7.33125 6.2157 7.36875 6.30008 7.425C6.4407 7.51875 6.49695 7.71563 6.4407 7.90313C6.4032 8.01563 6.31883 8.14688 6.07508 8.14688H6.01883C5.9907 8.14688 5.96258 8.14688 5.93445 8.14688C5.70945 8.12813 5.55008 7.97812 5.53133 7.75312L5.51258 7.6125H4.81883V7.64062C4.76258 8.20312 5.08133 8.55937 5.77508 8.72812L5.82195 8.7375V9.1875H6.2532V8.71875L6.34695 8.70938C6.41258 8.7 6.45945 8.68125 6.5157 8.67188C6.91883 8.55 7.14383 8.29688 7.20008 7.92188C7.24695 7.48125 7.09695 7.14375 6.7782 6.94687Z" fill="#01081E"/>
<path d="M9.31875 3.41251L9.9 2.84063C9.94687 2.79376 9.9375 2.71876 9.89062 2.68126L9.1125 2.10938C9.06562 2.07188 8.99062 2.09063 8.9625 2.14688L8.5875 2.85001C7.93125 2.43751 7.18125 2.17501 6.375 2.10938V1.36876H7.03125C7.15312 1.36876 7.24687 1.27501 7.24687 1.15313V0.440631C7.24687 0.318756 7.15312 0.225006 7.03125 0.225006H6H4.96875C4.84687 0.225006 4.75312 0.318756 4.75312 0.440631V1.15313C4.75312 1.27501 4.84687 1.36876 4.96875 1.36876H5.625V2.10938C4.81875 2.17501 4.06875 2.42813 3.42187 2.84063L3.04687 2.13751C3.01875 2.08126 2.94375 2.06251 2.89687 2.10001L2.11875 2.67188C2.0625 2.71876 2.0625 2.79376 2.10937 2.84063L2.69062 3.41251C1.75313 4.29376 1.17188 5.54063 1.17188 6.93751C1.17188 9.61876 3.32812 11.775 6.00937 11.775C8.69062 11.775 10.8469 9.61876 10.8469 6.93751C10.8375 5.54063 10.2562 4.29376 9.31875 3.41251ZM9.19687 9.41251C9.16875 9.45001 9.14062 9.47813 9.1125 9.51563L8.90625 9.31876C8.80312 9.21563 8.63437 9.21563 8.53125 9.31876C8.48437 9.36563 8.45625 9.43126 8.45625 9.50626C8.45625 9.57188 8.48437 9.64688 8.53125 9.69376L8.7375 9.90001C8.05312 10.5094 7.18125 10.875 6.2625 10.9406V10.6406C6.2625 10.4906 6.15 10.3781 6 10.3781C5.85 10.3781 5.7375 10.4906 5.7375 10.6406V10.9406C4.81875 10.8844 3.94687 10.5188 3.2625 9.90001L3.46875 9.69376C3.51562 9.64688 3.54375 9.57188 3.54375 9.50626C3.54375 9.44063 3.51562 9.36563 3.46875 9.31876C3.36562 9.21563 3.19687 9.21563 3.09375 9.31876L2.89687 9.51563C2.86875 9.4875 2.84062 9.45001 2.8125 9.41251C2.325 8.78438 2.01562 8.01563 1.96875 7.18126H2.20312C2.34375 7.18126 2.46562 7.06876 2.475 6.92813C2.46562 6.78751 2.34375 6.675 2.20312 6.675H1.96875C2.01562 5.83126 2.325 5.06251 2.8125 4.44376C2.84062 4.40626 2.86875 4.37813 2.89687 4.34063L3.09375 4.53751C3.19687 4.64063 3.36562 4.64063 3.46875 4.53751C3.51562 4.49063 3.54375 4.42501 3.54375 4.35001C3.54375 4.28438 3.51562 4.20938 3.46875 4.16251L3.2625 3.95626C3.94687 3.34688 4.81875 2.98126 5.7375 2.91563V3.21563C5.7375 3.36563 5.85 3.47813 6 3.47813C6.15 3.47813 6.2625 3.36563 6.2625 3.21563V2.91563C7.18125 2.97188 8.05312 3.33751 8.7375 3.95626L8.53125 4.18126C8.48437 4.22813 8.45625 4.30313 8.45625 4.36876C8.45625 4.43438 8.48437 4.50938 8.53125 4.55626C8.63437 4.65938 8.80312 4.65938 8.90625 4.55626L9.10312 4.35938C9.13125 4.38751 9.15937 4.42501 9.1875 4.46251C9.675 5.09063 9.98437 5.85938 10.0312 6.69376H9.79687C9.65625 6.69376 9.53437 6.80626 9.525 6.94688C9.53437 7.08751 9.65625 7.20001 9.79687 7.20001H10.0312C9.98437 8.02501 9.675 8.79376 9.19687 9.41251Z" fill="#01081E"/>
</svg>
