<svg width="10" height="10" viewBox="0 0 10 10" fill="none" xmlns="http://www.w3.org/2000/svg">
<g clip-path="url(#clip0_423_11222)">
<path fill-rule="evenodd" clip-rule="evenodd" d="M0.833371 0.416019C0.778373 0.415799 0.723876 0.426468 0.673023 0.447413C0.622169 0.468358 0.575966 0.499164 0.537076 0.538053C0.498187 0.576942 0.467382 0.623146 0.446437 0.673999C0.425492 0.724853 0.414822 0.77935 0.415042 0.834347V2.50183C0.415822 2.60264 0.453127 2.69975 0.520041 2.77516L3.33417 5.9897V9.16674C3.33426 9.24192 3.35468 9.31567 3.39328 9.38018C3.43188 9.44469 3.48721 9.49756 3.55341 9.53318C3.61961 9.5688 3.69421 9.58584 3.76931 9.58251C3.84441 9.57917 3.91721 9.55558 3.98 9.51424L6.47997 7.84676C6.53705 7.80857 6.58382 7.75686 6.61609 7.69624C6.64837 7.63561 6.66516 7.56795 6.66496 7.49926V5.9897L9.47993 2.77516C9.54654 2.69963 9.58354 2.60253 9.58409 2.50183V0.834347C9.58431 0.77935 9.57364 0.724853 9.5527 0.673999C9.53175 0.623146 9.50095 0.576942 9.46206 0.538053C9.42317 0.499164 9.37697 0.468358 9.32611 0.447413C9.27526 0.426468 9.22076 0.415799 9.16577 0.416019H0.833371ZM1.24837 1.24934H8.75077V2.0835H1.24837V1.24934ZM1.75003 2.91682H8.24994L5.93622 5.55845C5.87063 5.63468 5.83482 5.73206 5.83539 5.83262V7.27802L4.16791 8.38884V5.83262C4.16756 5.73163 4.13055 5.6342 4.06375 5.55845L1.75003 2.91682Z" fill="black"/>
</g>
<defs>
<clipPath id="clip0_423_11222">
<rect width="10" height="10" fill="white"/>
</clipPath>
</defs>
</svg>
