<svg width="58" height="56" viewBox="0 0 58 56" fill="none" xmlns="http://www.w3.org/2000/svg">
<path d="M17.251 33.4891L29.3767 35.6348L42.9657 33.4449L29.876 31.8376L17.251 33.4891Z" fill="#00C4C3"/>
<path opacity="0.3" d="M17.251 33.4891L29.3767 35.6348L42.9657 33.4449L29.876 31.8376L17.251 33.4891Z" fill="black"/>
<path d="M18.8184 51.9737L17.251 33.4891L29.3767 35.6348L29.7564 54.1289L18.8184 51.9737Z" fill="#00C4C3"/>
<path opacity="0.1" d="M18.8184 51.9737L17.251 33.4891L29.3767 35.6348L29.7564 54.1289L18.8184 51.9737Z" fill="black"/>
<path d="M22.3887 52.6776L25.2652 53.2437L24.5803 34.786L21.2271 34.193L22.3887 52.6776Z" fill="#455A64"/>
<path d="M29.3765 35.6348L29.7562 54.1289L41.9954 52.0605L42.9655 33.4449L29.3765 35.6348Z" fill="#00C4C3"/>
<path d="M34.6003 53.3096L37.9172 52.7495L38.3221 34.193L34.5752 34.7972L34.6003 53.3096Z" fill="#455A64"/>
<path d="M15.1465 30.0526L27.7863 31.1259L27.1049 26.6491L14.2007 26.0934L15.1465 30.0526Z" fill="#00C4C3"/>
<path opacity="0.2" d="M15.1465 30.0526L27.7863 31.1259L27.1049 26.6491L14.2007 26.0934L15.1465 30.0526Z" fill="black"/>
<path d="M19.3332 30.4081L23.0852 30.7262L22.2409 26.4393L18.4272 26.2728L19.3332 30.4081Z" fill="#455A64"/>
<path d="M42.8943 27.229L42.7608 22.9716L27.105 26.6491L27.7864 31.1259L42.8943 27.229Z" fill="#00C4C3"/>
<path opacity="0.1" d="M42.8943 27.229L42.7608 22.9716L27.105 26.6491L27.7864 31.1259L42.8943 27.229Z" fill="black"/>
<path d="M33.2172 29.7249L37.5917 28.5971L37.3741 24.2373L32.7646 25.3201L33.2172 29.7249Z" fill="#455A64"/>
<path d="M14.2007 26.0934L27.1049 26.6491L42.7607 22.9716L28.4686 23.451L14.2007 26.0934Z" fill="#00C4C3"/>
<path d="M18.4272 26.2728L33.0592 23.2967L36.2036 23.1918L22.2409 26.4393L18.4272 26.2728Z" fill="#455A64"/>
<path d="M32.7645 25.3201L37.3739 24.2373L23.6782 24.3379L19.9834 25.0227L32.7645 25.3201Z" fill="#455A64"/>
<path d="M22.8259 24.8788C22.8259 24.8788 19.7718 25.0929 18.467 26.9161C17.1623 28.7392 17.0531 30.6395 16.5754 31.2386C16.0977 31.8376 13.9478 32.4523 13.9478 32.4523L17.0878 35.7596C17.0878 35.7596 18.4445 35.7509 19.2109 33.7266C19.9772 31.7024 19.7631 29.3313 20.7713 27.9018C21.7796 26.4722 23.6495 25.6642 23.6495 25.6642L22.8259 24.8788Z" fill="#455A64"/>
<path d="M20.2156 29.1102C19.5771 28.3658 19.0747 27.5148 18.7314 26.5962C20.1437 25.0678 22.8259 24.8788 22.8259 24.8788L23.6487 25.659C23.6487 25.659 21.7796 26.467 20.7713 27.8966C20.5209 28.268 20.3332 28.678 20.2156 29.1102Z" fill="#37474F"/>
<path d="M30.651 24.2737C30.651 24.2737 33.289 22.982 35.393 23.7536C37.4971 24.5251 38.6657 25.783 39.3982 26.0076C40.1308 26.2321 42.2513 25.5316 42.2513 25.5316L41.517 30.0327C41.517 30.0327 40.39 30.7895 38.618 29.5481C36.846 28.3067 35.6878 26.226 34.0493 25.6123C32.4108 24.9985 30.416 25.3626 30.416 25.3626L30.651 24.2737Z" fill="#455A64"/>
<path d="M36.9743 28.0752C35.999 27.0583 35.1286 26.0171 34.0502 25.6131C32.4117 24.9994 30.416 25.3643 30.416 25.3643L30.651 24.2737C30.651 24.2737 33.289 22.9829 35.393 23.7536C35.8124 23.908 36.2208 24.0908 36.6154 24.3006C36.8703 25.3019 37.1122 26.6951 36.9743 28.0752Z" fill="#37474F"/>
<path d="M36.9741 28.0751C37.6789 28.7617 38.3976 29.4622 39.2689 29.9346C38.369 29.5142 37.6365 28.8016 36.9741 28.0751Z" fill="#263238"/>
<path d="M37.5015 24.818C38.1161 25.1561 38.6458 25.6381 39.2769 25.945C39.6662 26.1054 40.1109 26.0404 40.5166 25.9788C40.1109 26.0655 39.6592 26.1436 39.2613 25.9788C38.6267 25.6798 38.0927 25.1856 37.5015 24.8154V24.818Z" fill="#263238"/>
<path d="M20.4583 26.2641C20.421 25.4527 24.0786 23.9676 26.6698 24.5233C26.6698 24.5233 25.0599 26.5502 23.2116 26.9126C21.3634 27.275 20.4748 26.617 20.4583 26.2641Z" fill="#263238"/>
<path d="M26.6698 24.5242L26.7105 24.7947L26.7582 25.1102L26.7764 25.2272C25.7361 28.2017 23.2732 29.7777 23.0712 29.8072C22.8692 29.8367 21.6702 29.1197 21.0842 28.304C20.4981 27.4882 20.3906 26.0092 20.4582 26.265C20.5259 26.5207 21.3781 27.0963 22.8033 26.825C24.2285 26.5536 26.4036 24.9455 26.6698 24.5242Z" fill="#455A64"/>
<path d="M26.7106 24.7947L26.7582 25.1102C26.5178 25.6635 26.1657 26.1611 25.724 26.5719C25.7228 26.5731 25.7214 26.5741 25.7198 26.5748C25.7182 26.5755 25.7165 26.5759 25.7148 26.576C25.713 26.576 25.7113 26.5757 25.7097 26.5751C25.7081 26.5744 25.7066 26.5735 25.7054 26.5723C25.7041 26.5711 25.7031 26.5697 25.7024 26.5681C25.7017 26.5665 25.7013 26.5648 25.7013 26.5631C25.7012 26.5613 25.7015 26.5596 25.7022 26.558C25.7028 26.5564 25.7037 26.5549 25.7049 26.5537C25.9069 26.2641 26.0942 25.9694 26.2702 25.6677C25.75 26.2225 25.1275 26.6924 24.5233 27.1146C24.4973 27.1328 24.4652 27.0946 24.4921 27.0756C25.366 26.4384 26.0127 25.6027 26.7106 24.7947Z" fill="#263238"/>
<path d="M21.1552 20.0231C21.88 19.3963 25.1942 21.4214 26.5683 24.2277C26.5683 24.2277 24.2354 24.532 22.551 23.0825C20.8666 21.633 20.8405 20.2953 21.1552 20.0231Z" fill="#263238"/>
<path d="M26.5685 24.2312L26.7133 25.1615C23.1961 26.3639 19.9391 25.2334 19.7648 25.0678C19.5906 24.9022 19.3799 23.2681 19.7094 22.1307C20.0388 20.9933 21.327 19.8099 21.1433 20.0587C20.9595 20.3075 21.0427 21.5178 22.3335 22.6413C23.6244 23.7648 25.9824 24.2893 26.5685 24.2312Z" fill="#455A64"/>
<path d="M26.6214 24.5676L26.6552 24.7869C25.5161 24.9534 24.3015 24.7696 23.2257 24.4254C23.1936 24.415 23.2075 24.3595 23.2404 24.3673C23.8562 24.5128 24.4843 24.5999 25.1164 24.6274C25.6189 24.641 26.1217 24.6211 26.6214 24.5676Z" fill="#263238"/>
<path d="M20.1081 21.2723C19.9143 21.6235 19.7593 21.9947 19.646 22.3794C19.6867 21.9771 19.8766 21.5992 20.1081 21.2723Z" fill="#263238"/>
<path d="M34.5529 24.07C34.3414 23.2898 30.4047 22.9829 28.1064 24.2997C28.1064 24.2997 30.2556 25.7414 32.1264 25.5238C33.9972 25.3062 34.6439 24.4107 34.5529 24.07Z" fill="#263238"/>
<path d="M34.5763 26.2035C34.2668 27.1571 33.3427 28.2061 33.1407 28.2399C32.9387 28.2737 30.1168 27.5195 28.2183 25.0028L28.1931 24.8485L28.1342 24.4749L28.1064 24.3015C28.4879 24.6214 31.054 25.4935 32.4896 25.3184C33.9253 25.1433 34.5616 24.3353 34.5529 24.0709C34.5442 23.8065 34.8858 25.249 34.5763 26.2035Z" fill="#455A64"/>
<path d="M31.1312 26.5441C30.4102 26.3137 29.7274 25.9774 29.1052 25.5463C28.7881 25.3329 28.4836 25.1013 28.1932 24.8528L28.1343 24.4791C28.4586 24.7985 28.8063 25.0932 29.1746 25.3608C29.8004 25.7929 30.4685 26.1603 31.1685 26.4575C31.1765 26.4643 31.1821 26.4735 31.1845 26.4838C31.1869 26.4941 31.186 26.5048 31.1818 26.5145C31.1776 26.5242 31.1705 26.5323 31.1614 26.5376C31.1523 26.543 31.1417 26.5452 31.1312 26.5441Z" fill="#263238"/>
<path d="M32.0024 18.3361C31.1216 17.9624 28.5685 20.8961 28.1143 23.9876C28.1143 23.9876 30.4298 23.568 31.5932 21.6755C32.7566 19.783 32.3856 18.5025 32.0024 18.3361Z" fill="#263238"/>
<path d="M34.8485 22.7149C34.7324 22.9264 31.9738 24.9932 28.2599 24.9169L28.1143 23.9876C28.6908 23.8679 30.7775 22.6499 31.6687 21.1882C32.5599 19.7266 32.2694 18.5502 32.0154 18.3655C31.7614 18.1809 33.3496 18.9169 34.0094 19.8965C34.6691 20.8762 34.963 22.5034 34.8485 22.7149Z" fill="#455A64"/>
<path d="M31.601 22.5034C31.2352 23.1207 30.6882 23.5134 30.0562 23.8411C29.6012 24.0771 29.1252 24.2701 28.6344 24.4176C28.9497 24.385 29.2629 24.3347 29.5724 24.2668C30.1377 24.1315 30.637 23.9001 31.1563 23.6504C31.1927 23.6339 31.2144 23.6842 31.1884 23.7067C30.4489 24.3578 29.2231 24.5875 28.2148 24.6161L28.1646 24.3179C28.7034 24.1758 29.2311 23.9941 29.7432 23.7744C30.3865 23.4796 31.1459 23.0747 31.5534 22.474C31.5716 22.4497 31.6167 22.4766 31.601 22.5034Z" fill="#263238"/>
<path d="M28.6962 24.708C28.7205 24.8979 28.7682 25.601 28.5228 25.7483C28.2775 25.8957 27.7972 25.8056 27.6759 25.8238C27.5553 25.8437 27.1245 26.0778 26.8462 26.0084C26.5679 25.9391 26.3997 25.2568 26.3651 25.0678C26.3304 24.8788 26.2324 24.1402 26.4622 24.0171C26.6919 23.894 27.2875 23.9651 27.3846 23.9495C27.4817 23.9339 28.027 23.6894 28.2844 23.7336C28.5419 23.7778 28.672 24.5182 28.6962 24.708Z" fill="#455A64"/>
<path d="M33.0635 28.2347C33.0926 28.2334 33.1216 28.2296 33.1502 28.2234C33.2253 28.1739 33.2942 28.1157 33.3556 28.05C33.9625 27.4553 34.3717 26.7054 34.6491 25.9087C34.6133 26.3441 34.4841 26.7667 34.2703 27.1477C34.0565 27.5287 33.7632 27.8593 33.4102 28.1168C33.3336 28.1729 33.2488 28.217 33.1588 28.2477C33.1265 28.2468 33.0944 28.2416 33.0635 28.2321V28.2347Z" fill="#263238"/>
<path d="M22.8952 29.7631C21.9519 29.4163 21.0096 28.6647 20.7495 27.6591C21.2411 28.5633 22.0603 29.1944 22.8952 29.7631Z" fill="#263238"/>
<path d="M33.4556 40.4361L42.202 41.9838L52.0039 40.4042L42.5622 39.2449L33.4556 40.4361Z" fill="#00C4C3"/>
<path opacity="0.3" d="M33.4556 40.4361L42.202 41.9838L52.0039 40.4042L42.5622 39.2449L33.4556 40.4361Z" fill="black"/>
<path d="M34.5862 53.7692L33.4556 40.436L42.202 41.9837L42.4759 55.3237L34.5862 53.7692Z" fill="#00C4C3"/>
<path opacity="0.1" d="M34.5862 53.7692L33.4556 40.436L42.202 41.9837L42.4759 55.3237L34.5862 53.7692Z" fill="black"/>
<path d="M37.1617 54.277L39.2365 54.6853L38.7425 41.3716L36.3237 40.9438L37.1617 54.277Z" fill="#455A64"/>
<path d="M42.2021 41.9837L42.476 55.3238L51.3044 53.8318L52.0041 40.4042L42.2021 41.9837Z" fill="#00C4C3"/>
<path d="M45.9703 54.7329L48.3628 54.3289L48.6548 40.9438L45.9521 41.3797L45.9703 54.7329Z" fill="#455A64"/>
<path d="M31.9376 37.9573L41.0548 38.7314L40.5633 35.5023L31.2554 35.1014L31.9376 37.9573Z" fill="#00C4C3"/>
<path opacity="0.2" d="M31.9376 37.9573L41.0548 38.7314L40.5633 35.5023L31.2554 35.1014L31.9376 37.9573Z" fill="black"/>
<path d="M34.9577 38.2138L37.6641 38.4432L37.055 35.351L34.3042 35.231L34.9577 38.2138Z" fill="#455A64"/>
<path d="M51.9525 35.9207L51.8562 32.8497L40.5635 35.5024L41.055 38.7315L51.9525 35.9207Z" fill="#00C4C3"/>
<path opacity="0.1" d="M51.9525 35.9207L51.8562 32.8497L40.5635 35.5024L41.055 38.7315L51.9525 35.9207Z" fill="black"/>
<path d="M44.9719 37.721L48.1273 36.9074L47.9704 33.7627L44.6455 34.5437L44.9719 37.721Z" fill="#455A64"/>
<path d="M31.2554 35.1015L40.5633 35.5024L51.856 32.8497L41.547 33.1955L31.2554 35.1015Z" fill="#00C4C3"/>
<path d="M34.3042 35.2309L44.8584 33.0842L47.1265 33.0085L37.055 35.351L34.3042 35.2309Z" fill="#455A64"/>
<path d="M44.6459 34.5437L47.9708 33.7627L38.0919 33.8352L35.4268 34.3292L44.6459 34.5437Z" fill="#455A64"/>
<path d="M37.4772 34.2253C37.4772 34.2253 35.2742 34.3798 34.3331 35.6949C33.3919 37.0099 33.3132 38.3806 32.9686 38.8127C32.624 39.2448 31.0732 39.6882 31.0732 39.6882L33.3382 42.0738C33.3382 42.0738 34.3168 42.0675 34.8696 40.6074C35.4224 39.1473 35.2679 37.437 35.9952 36.4058C36.7224 35.3747 38.0712 34.7919 38.0712 34.7919L37.4772 34.2253Z" fill="#455A64"/>
<path d="M35.594 37.2775C35.1334 36.7406 34.7711 36.1267 34.5234 35.4641C35.5421 34.3617 37.4768 34.2253 37.4768 34.2253L38.0703 34.7881C38.0703 34.7881 36.7221 35.3709 35.9948 36.4021C35.8142 36.67 35.6788 36.9658 35.594 37.2775Z" fill="#37474F"/>
<path d="M43.1211 33.7889C43.1211 33.7889 45.024 32.8572 46.5416 33.4137C48.0593 33.9703 48.9022 34.8776 49.4306 35.0396C49.959 35.2015 51.4886 34.6963 51.4886 34.6963L50.9589 37.9429C50.9589 37.9429 50.146 38.4888 48.8678 37.5934C47.5897 36.6979 46.7543 35.1971 45.5724 34.7544C44.3905 34.3117 42.9517 34.5743 42.9517 34.5743L43.1211 33.7889Z" fill="#455A64"/>
<path d="M47.6822 36.5309C46.9787 35.7974 46.3509 35.0464 45.573 34.755C44.3912 34.3123 42.9517 34.5756 42.9517 34.5756L43.1211 33.7889C43.1211 33.7889 45.024 32.8578 46.5416 33.4137C46.8441 33.5251 47.1387 33.657 47.4234 33.8083C47.6072 34.5305 47.7817 35.5354 47.6822 36.5309Z" fill="#37474F"/>
<path d="M47.6821 36.5309C48.1905 37.0261 48.7089 37.5314 49.3374 37.8722C48.6883 37.5689 48.1599 37.0549 47.6821 36.5309Z" fill="#263238"/>
<path d="M48.0625 34.1816C48.5059 34.4254 48.8879 34.7731 49.3432 34.9945C49.6239 35.1102 49.9447 35.0633 50.2374 35.0189C49.9447 35.0814 49.6189 35.1377 49.3319 35.0189C48.8742 34.8031 48.489 34.4467 48.0625 34.1797V34.1816Z" fill="#263238"/>
<path d="M35.7692 35.2246C35.7424 34.6393 38.3806 33.5681 40.2497 33.969C40.2497 33.969 39.0885 35.431 37.7553 35.6924C36.4221 35.9538 35.7811 35.4791 35.7692 35.2246Z" fill="#263238"/>
<path d="M40.2496 33.9696L40.279 34.1647L40.3134 34.3923L40.3266 34.4767C39.5762 36.6222 37.7996 37.7591 37.6539 37.7803C37.5082 37.8016 36.6434 37.2844 36.2207 36.696C35.798 36.1076 35.7204 35.0408 35.7692 35.2253C35.818 35.4097 36.4327 35.8249 37.4607 35.6292C38.4887 35.4335 40.0577 34.2735 40.2496 33.9696Z" fill="#455A64"/>
<path d="M40.2789 34.1647L40.3133 34.3923C40.1399 34.7913 39.8859 35.1503 39.5673 35.4466C39.5664 35.4475 39.5654 35.4482 39.5643 35.4487C39.5631 35.4492 39.5619 35.4495 39.5606 35.4495C39.5594 35.4496 39.5582 35.4493 39.557 35.4489C39.5558 35.4484 39.5548 35.4478 39.5539 35.4469C39.5529 35.446 39.5522 35.445 39.5517 35.4439C39.5512 35.4427 39.5509 35.4415 39.5509 35.4402C39.5509 35.439 39.5511 35.4378 39.5516 35.4366C39.552 35.4354 39.5527 35.4344 39.5535 35.4335C39.6992 35.2246 39.8343 35.012 39.9613 34.7944C39.5861 35.1946 39.1371 35.5335 38.7012 35.838C38.6825 35.8512 38.6593 35.8237 38.6787 35.8099C39.309 35.3503 39.7755 34.7475 40.2789 34.1647Z" fill="#263238"/>
<path d="M36.272 30.723C36.7948 30.2709 39.1854 31.7317 40.1765 33.7558C40.1765 33.7558 38.4938 33.9753 37.2788 32.9298C36.0638 31.8843 36.045 30.9194 36.272 30.723Z" fill="#263238"/>
<path d="M40.1765 33.7583L40.2809 34.4293C37.744 35.2966 35.3947 34.4812 35.269 34.3617C35.1433 34.2423 34.9913 33.0636 35.229 32.2431C35.4666 31.4227 36.3958 30.5692 36.2632 30.7486C36.1307 30.9281 36.1907 31.801 37.1218 32.6115C38.0529 33.4219 39.7538 33.8002 40.1765 33.7583Z" fill="#455A64"/>
<path d="M40.2144 34.0009L40.2388 34.1592C39.4172 34.2792 38.5411 34.1466 37.7651 33.8984C37.7419 33.8909 37.7519 33.8509 37.7757 33.8565C38.2199 33.9614 38.6729 34.0242 39.1289 34.0441C39.4913 34.0539 39.854 34.0395 40.2144 34.0009Z" fill="#263238"/>
<path d="M35.5164 31.624C35.3766 31.8773 35.2648 32.1451 35.1831 32.4226C35.2125 32.1324 35.3494 31.8598 35.5164 31.624Z" fill="#263238"/>
<path d="M45.9356 33.6419C45.783 33.0791 42.9434 32.8578 41.2856 33.8076C41.2856 33.8076 42.8358 34.8476 44.1853 34.6906C45.5347 34.5336 46.0012 33.8877 45.9356 33.6419Z" fill="#263238"/>
<path d="M45.9524 35.1809C45.7292 35.8687 45.0626 36.6254 44.9169 36.6498C44.7712 36.6742 42.7358 36.1301 41.3663 34.3148L41.3482 34.2035L41.3057 33.934L41.2856 33.8089C41.5608 34.0397 43.4117 34.6687 44.4473 34.5424C45.4828 34.4161 45.9418 33.8333 45.9356 33.6426C45.9293 33.4519 46.1757 34.4924 45.9524 35.1809Z" fill="#455A64"/>
<path d="M43.4674 35.4267C42.9473 35.2604 42.4548 35.0179 42.006 34.7069C41.7773 34.553 41.5576 34.3859 41.3482 34.2066L41.3057 33.9371C41.5396 34.1675 41.7904 34.3801 42.0561 34.5731C42.5074 34.8848 42.9893 35.1498 43.4943 35.3641C43.5001 35.3691 43.5041 35.3757 43.5058 35.3831C43.5076 35.3905 43.5069 35.3983 43.5039 35.4053C43.5009 35.4123 43.4957 35.4181 43.4891 35.422C43.4826 35.4258 43.475 35.4274 43.4674 35.4267Z" fill="#263238"/>
<path d="M44.0961 29.5061C43.4608 29.2365 41.6192 31.3526 41.2915 33.5825C41.2915 33.5825 42.9617 33.2799 43.8009 31.9148C44.6401 30.5497 44.3725 29.6261 44.0961 29.5061Z" fill="#263238"/>
<path d="M46.149 32.6645C46.0652 32.8171 44.0754 34.3079 41.3966 34.2528L41.2915 33.5825C41.7073 33.4962 43.2125 32.6176 43.8553 31.5633C44.4982 30.509 44.2887 29.6605 44.1055 29.5273C43.9222 29.3941 45.0678 29.925 45.5437 30.6316C46.0196 31.3382 46.2316 32.5119 46.149 32.6645Z" fill="#455A64"/>
<path d="M43.8064 32.512C43.5425 32.9572 43.148 33.2405 42.6921 33.4769C42.3639 33.6471 42.0206 33.7863 41.6666 33.8927C41.894 33.8692 42.1199 33.8329 42.3432 33.7839C42.7509 33.6863 43.1111 33.5194 43.4856 33.3393C43.5119 33.3274 43.5275 33.3637 43.5088 33.3799C42.9754 33.8496 42.0912 34.0153 41.3639 34.0359L41.3276 33.8208C41.7163 33.7183 42.0969 33.5873 42.4664 33.4287C42.9303 33.2161 43.4781 32.9241 43.772 32.4907C43.7852 32.4732 43.8177 32.4926 43.8064 32.512Z" fill="#263238"/>
<path d="M41.7112 34.1022C41.7287 34.2392 41.7631 34.7463 41.5861 34.8526C41.4091 34.9589 41.0627 34.8939 40.9752 34.907C40.8882 34.9214 40.5775 35.0902 40.3767 35.0402C40.176 34.9902 40.0547 34.4981 40.0297 34.3617C40.0047 34.2254 39.934 33.6926 40.0997 33.6038C40.2654 33.515 40.695 33.5663 40.765 33.5551C40.8351 33.5438 41.2284 33.3675 41.4141 33.3994C41.5999 33.4313 41.6937 33.9653 41.7112 34.1022Z" fill="#455A64"/>
<path d="M44.8613 36.646C44.8824 36.6451 44.9033 36.6424 44.9239 36.6379C44.978 36.6022 45.0278 36.5602 45.0721 36.5128C45.5098 36.0838 45.8049 35.5429 46.005 34.9683C45.9792 35.2823 45.886 35.5872 45.7318 35.862C45.5776 36.1368 45.366 36.3752 45.1115 36.561C45.0561 36.6014 44.995 36.6333 44.9301 36.6554C44.9068 36.6548 44.8836 36.651 44.8613 36.6441V36.646Z" fill="#263238"/>
<path d="M37.5267 37.7485C36.8463 37.4984 36.1666 36.9562 35.979 36.2308C36.3336 36.883 36.9245 37.3383 37.5267 37.7485Z" fill="#263238"/>
<path d="M8.48096 39.9604L17.2274 41.5081L27.0293 39.9285L17.5875 38.7692L8.48096 39.9604Z" fill="#00C4C3"/>
<path opacity="0.3" d="M8.48096 39.9604L17.2274 41.5081L27.0293 39.9285L17.5875 38.7692L8.48096 39.9604Z" fill="black"/>
<path d="M9.61154 53.2936L8.48096 39.9604L17.2274 41.5081L17.5013 54.8482L9.61154 53.2936Z" fill="#00C4C3"/>
<path opacity="0.1" d="M9.61154 53.2936L8.48096 39.9604L17.2274 41.5081L17.5013 54.8482L9.61154 53.2936Z" fill="black"/>
<path d="M12.1875 53.8013L14.2624 54.2096L13.7684 40.8959L11.3496 40.4681L12.1875 53.8013Z" fill="#455A64"/>
<path d="M17.2275 41.5082L17.5014 54.8482L26.3298 53.3562L27.0295 39.9286L17.2275 41.5082Z" fill="#00C4C3"/>
<path d="M20.9962 54.2572L23.3887 53.8532L23.6807 40.4681L20.978 40.904L20.9962 54.2572Z" fill="#455A64"/>
<path d="M6.96348 37.4817L16.0807 38.2559L15.5892 35.0267L6.28125 34.6259L6.96348 37.4817Z" fill="#00C4C3"/>
<path opacity="0.2" d="M6.96348 37.4817L16.0807 38.2559L15.5892 35.0267L6.28125 34.6259L6.96348 37.4817Z" fill="black"/>
<path d="M9.98305 37.738L12.6895 37.9675L12.0804 34.8753L9.32959 34.7552L9.98305 37.738Z" fill="#455A64"/>
<path d="M26.9784 35.445L26.8821 32.374L15.5894 35.0266L16.0809 38.2558L26.9784 35.445Z" fill="#00C4C3"/>
<path opacity="0.1" d="M26.9784 35.445L26.8821 32.374L15.5894 35.0266L16.0809 38.2558L26.9784 35.445Z" fill="black"/>
<path d="M19.9978 37.2453L23.1532 36.4317L22.9962 33.287L19.6714 34.068L19.9978 37.2453Z" fill="#455A64"/>
<path d="M6.28125 34.6258L15.5892 35.0266L26.8819 32.374L16.5728 32.7198L6.28125 34.6258Z" fill="#00C4C3"/>
<path d="M9.32959 34.7552L19.8838 32.6085L22.1519 32.5328L12.0804 34.8753L9.32959 34.7552Z" fill="#455A64"/>
<path d="M19.6713 34.068L22.9961 33.287L13.1173 33.3595L10.4521 33.8535L19.6713 34.068Z" fill="#455A64"/>
<path d="M12.5026 33.7498C12.5026 33.7498 10.2996 33.9042 9.35845 35.2193C8.41733 36.5343 8.33854 37.905 7.99399 38.3371C7.64944 38.7692 6.09863 39.2126 6.09863 39.2126L8.36356 41.5982C8.36356 41.5982 9.34219 41.5919 9.89497 40.1318C10.4478 38.6717 10.2933 36.9614 11.0206 35.9303C11.7478 34.8991 13.0966 34.3163 13.0966 34.3163L12.5026 33.7498Z" fill="#455A64"/>
<path d="M10.6199 36.802C10.1593 36.265 9.79694 35.6512 9.54932 34.9885C10.568 33.8861 12.5027 33.7498 12.5027 33.7498L13.0962 34.3125C13.0962 34.3125 11.748 34.8953 11.0207 35.9265C10.8401 36.1944 10.7047 36.4902 10.6199 36.802Z" fill="#37474F"/>
<path d="M18.147 33.3132C18.147 33.3132 20.0499 32.3815 21.5675 32.938C23.0852 33.4945 23.9281 34.4019 24.4565 34.5639C24.9849 34.7258 26.5145 34.2205 26.5145 34.2205L25.9848 37.4672C25.9848 37.4672 25.1719 38.0131 23.8937 37.1177C22.6156 36.2222 21.7801 34.7214 20.5983 34.2787C19.4164 33.836 17.9775 34.0986 17.9775 34.0986L18.147 33.3132Z" fill="#455A64"/>
<path d="M22.7081 36.0552C22.0046 35.3217 21.3768 34.5707 20.5989 34.2793C19.417 33.8366 17.9775 34.0998 17.9775 34.0998L18.147 33.3132C18.147 33.3132 20.0499 32.3821 21.5675 32.938C21.87 33.0494 22.1646 33.1812 22.4492 33.3326C22.6331 34.0548 22.8075 35.0597 22.7081 36.0552Z" fill="#37474F"/>
<path d="M22.708 36.0553C23.2164 36.5506 23.7348 37.0558 24.3632 37.3966C23.7142 37.0933 23.1858 36.5793 22.708 36.0553Z" fill="#263238"/>
<path d="M23.0884 33.706C23.5317 33.9499 23.9138 34.2975 24.369 34.5189C24.6498 34.6346 24.9706 34.5877 25.2633 34.5433C24.9706 34.6058 24.6448 34.6621 24.3578 34.5433C23.9 34.3275 23.5148 33.9711 23.0884 33.7041V33.706Z" fill="#263238"/>
<path d="M10.7951 34.749C10.7682 34.1637 13.4065 33.0926 15.2756 33.4934C15.2756 33.4934 14.1143 34.9554 12.7812 35.2168C11.448 35.4782 10.807 35.0035 10.7951 34.749Z" fill="#263238"/>
<path d="M15.2755 33.494L15.3049 33.6891L15.3393 33.9167L15.3524 34.0012C14.602 36.1466 12.8255 37.2835 12.6798 37.3047C12.5341 37.326 11.6693 36.8089 11.2466 36.2204C10.8238 35.632 10.7463 34.5652 10.7951 34.7497C10.8439 34.9341 11.4585 35.3494 12.4866 35.1536C13.5146 34.9579 15.0835 33.7979 15.2755 33.494Z" fill="#455A64"/>
<path d="M15.3048 33.6891L15.3392 33.9167C15.1657 34.3157 14.9118 34.6747 14.5932 34.971C14.5923 34.9719 14.5913 34.9726 14.5901 34.9731C14.589 34.9736 14.5878 34.9739 14.5865 34.9739C14.5853 34.974 14.584 34.9738 14.5829 34.9733C14.5817 34.9729 14.5806 34.9722 14.5797 34.9713C14.5788 34.9705 14.5781 34.9694 14.5776 34.9683C14.5771 34.9671 14.5768 34.9659 14.5768 34.9647C14.5768 34.9634 14.577 34.9622 14.5774 34.961C14.5779 34.9598 14.5786 34.9588 14.5794 34.9579C14.7251 34.749 14.8602 34.5364 14.9871 34.3188C14.6119 34.719 14.163 35.0579 13.7271 35.3625C13.7083 35.3756 13.6852 35.3481 13.7046 35.3343C14.3349 34.8747 14.8014 34.2719 15.3048 33.6891Z" fill="#263238"/>
<path d="M11.2979 30.2473C11.8206 29.7952 14.2113 31.256 15.2024 33.2801C15.2024 33.2801 13.5197 33.4996 12.3046 32.4541C11.0896 31.4085 11.0709 30.4437 11.2979 30.2473Z" fill="#263238"/>
<path d="M15.2024 33.2826L15.3068 33.9536C12.7699 34.8209 10.4205 34.0055 10.2949 33.886C10.1692 33.7666 10.0172 32.5879 10.2548 31.7674C10.4925 30.947 11.4217 30.0934 11.2891 30.2729C11.1566 30.4524 11.2166 31.3253 12.1477 32.1358C13.0788 32.9462 14.7797 33.3245 15.2024 33.2826Z" fill="#455A64"/>
<path d="M15.2403 33.5252L15.2647 33.6834C14.443 33.8035 13.567 33.6709 12.7909 33.4227C12.7678 33.4152 12.7778 33.3752 12.8016 33.3808C13.2457 33.4857 13.6988 33.5485 14.1548 33.5684C14.5172 33.5782 14.8798 33.5638 15.2403 33.5252Z" fill="#263238"/>
<path d="M10.5423 31.1483C10.4025 31.4016 10.2907 31.6693 10.209 31.9469C10.2384 31.6567 10.3753 31.3841 10.5423 31.1483Z" fill="#263238"/>
<path d="M20.9614 33.1662C20.8089 32.6034 17.9693 32.3821 16.3115 33.3319C16.3115 33.3319 17.8617 34.3718 19.2111 34.2149C20.5606 34.0579 21.0271 33.412 20.9614 33.1662Z" fill="#263238"/>
<path d="M20.9783 34.7053C20.7551 35.3931 20.0885 36.1498 19.9428 36.1742C19.7971 36.1986 17.7616 35.6545 16.3922 33.8392L16.3741 33.7279L16.3315 33.4584L16.3115 33.3333C16.5867 33.5641 18.4376 34.1932 19.4732 34.0668C20.5087 33.9405 20.9677 33.3577 20.9614 33.167C20.9552 32.9763 21.2016 34.0168 20.9783 34.7053Z" fill="#455A64"/>
<path d="M18.4933 34.9509C17.9732 34.7847 17.4807 34.5422 17.0319 34.2312C16.8032 34.0773 16.5835 33.9102 16.3741 33.7309L16.3315 33.4614C16.5655 33.6918 16.8163 33.9044 17.0819 34.0974C17.5333 34.4091 18.0152 34.6741 18.5202 34.8884C18.526 34.8934 18.53 34.9 18.5317 34.9074C18.5334 34.9148 18.5328 34.9226 18.5297 34.9296C18.5267 34.9366 18.5216 34.9424 18.515 34.9462C18.5085 34.9501 18.5008 34.9517 18.4933 34.9509Z" fill="#263238"/>
<path d="M19.122 29.0303C18.4866 28.7608 16.6451 30.8769 16.3174 33.1068C16.3174 33.1068 17.9876 32.8042 18.8268 31.4391C19.666 30.074 19.3984 29.1504 19.122 29.0303Z" fill="#263238"/>
<path d="M21.1749 32.1889C21.0911 32.3415 19.1013 33.8323 16.4224 33.7773L16.3174 33.1069C16.7332 33.0206 18.2384 32.142 18.8812 31.0877C19.524 30.0334 19.3146 29.1849 19.1313 29.0517C18.9481 28.9185 20.0937 29.4494 20.5696 30.156C21.0455 30.8626 21.2574 32.0364 21.1749 32.1889Z" fill="#455A64"/>
<path d="M18.8323 32.0363C18.5684 32.4815 18.1738 32.7648 17.718 33.0012C17.3898 33.1714 17.0465 33.3106 16.6924 33.417C16.9198 33.3935 17.1457 33.3572 17.369 33.3082C17.7768 33.2106 18.1369 33.0437 18.5115 32.8636C18.5378 32.8517 18.5534 32.888 18.5346 32.9042C18.0012 33.3738 17.117 33.5396 16.3898 33.5602L16.3535 33.3451C16.7422 33.2426 17.1228 33.1115 17.4922 32.953C17.9562 32.7404 18.504 32.4484 18.7979 32.015C18.811 31.9975 18.8436 32.0169 18.8323 32.0363Z" fill="#263238"/>
<path d="M16.7366 33.6265C16.7541 33.7635 16.7885 34.2706 16.6115 34.3769C16.4345 34.4832 16.0881 34.4182 16.0005 34.4313C15.9136 34.4457 15.6028 34.6145 15.4021 34.5645C15.2014 34.5145 15.0801 34.0223 15.0551 33.886C15.03 33.7497 14.9594 33.2169 15.1251 33.1281C15.2908 33.0393 15.7204 33.0906 15.7904 33.0794C15.8605 33.0681 16.2538 32.8918 16.4395 32.9237C16.6252 32.9555 16.719 33.4896 16.7366 33.6265Z" fill="#455A64"/>
<path d="M19.8872 36.1703C19.9082 36.1694 19.9292 36.1667 19.9497 36.1622C20.0039 36.1265 20.0537 36.0845 20.0979 36.0371C20.5357 35.6081 20.8308 35.0672 21.0309 34.4926C21.0051 34.8066 20.9119 35.1115 20.7577 35.3863C20.6035 35.6611 20.3919 35.8995 20.1373 36.0853C20.082 36.1257 20.0209 36.1576 19.956 36.1797C19.9327 36.1791 19.9095 36.1753 19.8872 36.1684V36.1703Z" fill="#263238"/>
<path d="M12.5526 37.2728C11.8722 37.0227 11.1925 36.4805 11.0049 35.7551C11.3594 36.4073 11.9504 36.8626 12.5526 37.2728Z" fill="#263238"/>
<path d="M19.4315 16.5135L19.6307 17.3435C19.6355 17.3633 19.6456 17.3814 19.66 17.3958C19.6744 17.4102 19.6925 17.4203 19.7123 17.4251L20.5422 17.6243L19.7123 17.8235C19.6906 17.8285 19.6709 17.8401 19.6561 17.8567C19.6412 17.8733 19.6319 17.8941 19.6293 17.9162L19.4232 19.6826L19.2157 17.9162C19.2131 17.8941 19.2038 17.8733 19.1889 17.8567C19.174 17.8401 19.1544 17.8285 19.1327 17.8235L18.3027 17.6243L19.1327 17.4251C19.1525 17.4203 19.1706 17.4102 19.185 17.3958C19.1994 17.3814 19.2095 17.3633 19.2143 17.3435L19.4315 16.5135Z" fill="#00C4C3"/>
<path d="M6.85067 45.1293L7.04987 45.9662C7.05458 45.9858 7.06473 46.0038 7.07916 46.018C7.09359 46.0322 7.11172 46.042 7.13148 46.0464L7.96144 46.247L7.14393 46.4448C7.12222 46.4498 7.10259 46.4613 7.08773 46.4779C7.07287 46.4945 7.06351 46.5153 7.06093 46.5374L6.85482 48.3039L6.64733 46.5374C6.64476 46.5153 6.6354 46.4945 6.62054 46.4779C6.60568 46.4613 6.58605 46.4498 6.56434 46.4448L5.73438 46.2456L6.56434 46.045C6.5841 46.0406 6.60223 46.0308 6.61666 46.0166C6.63109 46.0024 6.64124 45.9844 6.64595 45.9648L6.85067 45.1293Z" fill="#00C4C3"/>
<path d="M36.2313 0L36.4319 0.838262C36.4365 0.857767 36.4464 0.875603 36.4606 0.889774C36.4747 0.903945 36.4926 0.913888 36.5121 0.918491L37.3504 1.11907L36.5204 1.31687C36.4987 1.32231 36.4791 1.33421 36.4643 1.35101C36.4495 1.3678 36.4401 1.3887 36.4374 1.41094L36.2313 3.17737L36.0238 1.41094C36.0211 1.3887 36.0117 1.3678 35.9969 1.35101C35.9821 1.33421 35.9625 1.32231 35.9408 1.31687L35.1108 1.11907L35.9477 0.918491C35.9674 0.913969 35.9855 0.904077 35.9999 0.889914C36.0143 0.875751 36.0245 0.857872 36.0293 0.838262L36.2313 0Z" fill="#00C4C3"/>
<path d="M26.5471 32.1832L26.7477 33.0215C26.7526 33.0411 26.7628 33.059 26.7772 33.0731C26.7916 33.0873 26.8096 33.0972 26.8293 33.1017L27.6662 33.3023L26.8362 33.5001C26.8145 33.5055 26.7949 33.5174 26.7801 33.5342C26.7653 33.551 26.7559 33.5719 26.7532 33.5942L26.5457 35.3606L26.3382 33.5942C26.3359 33.5718 26.3267 33.5507 26.3118 33.5338C26.2969 33.517 26.2772 33.5052 26.2553 33.5001L25.4253 33.3023L26.2636 33.1017C26.2831 33.0971 26.3009 33.0872 26.3151 33.073C26.3292 33.0588 26.3392 33.041 26.3438 33.0215L26.5471 32.1832Z" fill="#00C4C3"/>
<path d="M11.4074 28.4512L11.5374 28.9976C11.5409 29.0103 11.5478 29.0219 11.5573 29.0311C11.5667 29.0404 11.5785 29.0469 11.5913 29.0501L12.1364 29.1802L11.5969 29.3102C11.5826 29.3133 11.5697 29.3209 11.56 29.3318C11.5503 29.3428 11.5443 29.3565 11.5429 29.371L11.4046 29.941L11.2663 29.371C11.2649 29.3565 11.2589 29.3428 11.2492 29.3318C11.2395 29.3209 11.2266 29.3133 11.2123 29.3102L10.6729 29.1802L11.2179 29.0501C11.2307 29.0469 11.2425 29.0404 11.2519 29.0311C11.2614 29.0219 11.2683 29.0103 11.2718 28.9976L11.4074 28.4512Z" fill="#00C4C3"/>
<path d="M49.3336 16.9119L49.4636 17.4583C49.4667 17.471 49.4733 17.4826 49.4826 17.4919C49.4918 17.5011 49.5034 17.5077 49.5162 17.5108L50.0695 17.6422L49.53 17.7709C49.5158 17.7742 49.503 17.7819 49.4934 17.7928C49.4837 17.8036 49.4776 17.8173 49.476 17.8317L49.3377 18.4016L49.1994 17.8317C49.1978 17.8173 49.1917 17.8036 49.1821 17.7928C49.1724 17.7819 49.1596 17.7742 49.1454 17.7709L48.606 17.6422L49.151 17.5108C49.1639 17.5081 49.1758 17.5017 49.1851 17.4924C49.1944 17.4831 49.2008 17.4712 49.2035 17.4583L49.3336 16.9119Z" fill="#00C4C3"/>
<path d="M41.1533 30.295L41.2833 30.8414C41.2863 30.8542 41.2928 30.8659 41.3021 30.8752C41.3114 30.8845 41.3231 30.891 41.3359 30.894L41.8823 31.0254L41.3414 31.1541C41.3273 31.1576 41.3147 31.1653 41.305 31.1761C41.2954 31.187 41.2893 31.2005 41.2875 31.2149L41.1491 31.7862L41.0108 31.2149C41.009 31.2005 41.0029 31.187 40.9933 31.1761C40.9836 31.1653 40.971 31.1576 40.9569 31.1541L40.416 31.0254L40.9624 30.894C40.9753 30.8913 40.9872 30.8849 40.9965 30.8756C41.0059 30.8662 41.0123 30.8544 41.015 30.8414L41.1533 30.295Z" fill="#00C4C3"/>
<path d="M31.8283 36.5792L31.9583 37.1256C31.962 37.1383 31.9688 37.1498 31.9783 37.159C31.9878 37.1683 31.9995 37.1749 32.0122 37.1782L32.5572 37.3082L32.0178 37.4369C32.0034 37.4403 31.9904 37.4481 31.9808 37.4593C31.9711 37.4705 31.9652 37.4844 31.9638 37.4991L31.8255 38.069L31.6872 37.4991C31.6858 37.4844 31.6799 37.4705 31.6702 37.4593C31.6605 37.4481 31.6476 37.4403 31.6332 37.4369L31.0938 37.3082L31.6388 37.1782C31.6515 37.1749 31.6632 37.1683 31.6727 37.159C31.6821 37.1498 31.689 37.1383 31.6927 37.1256L31.8283 36.5792Z" fill="#00C4C3"/>
<path d="M26.5958 23.4963L26.7272 24.0496C26.7299 24.0626 26.7363 24.0744 26.7456 24.0838C26.7549 24.0931 26.7668 24.0995 26.7797 24.1022L27.3247 24.2336L26.7853 24.3623C26.7711 24.3656 26.7583 24.3732 26.7486 24.3841C26.739 24.395 26.7329 24.4087 26.7313 24.4231L26.593 24.993L26.4547 24.4231C26.4525 24.4089 26.4463 24.3955 26.4367 24.3847C26.4271 24.3739 26.4146 24.3661 26.4007 24.3623L25.8599 24.2336L26.4132 24.1022C26.426 24.0992 26.4377 24.0927 26.4469 24.0834C26.4562 24.0741 26.4627 24.0624 26.4657 24.0496L26.5958 23.4963Z" fill="#00C4C3"/>
<path d="M37.8057 3.23413L37.9371 3.78052C37.9403 3.79324 37.9468 3.80486 37.9561 3.81412C37.9654 3.82338 37.977 3.82994 37.9897 3.83309L38.5361 3.96311L37.9952 4.09314C37.981 4.09629 37.9681 4.10387 37.9584 4.11481C37.9487 4.12574 37.9427 4.13946 37.9413 4.154L37.803 4.72391L37.6646 4.154C37.663 4.13953 37.657 4.12591 37.6473 4.11502C37.6377 4.10412 37.6249 4.09648 37.6107 4.09314L37.0698 3.96311L37.6162 3.83309C37.6288 3.82968 37.6403 3.82303 37.6495 3.81381C37.6587 3.80459 37.6654 3.79311 37.6688 3.78052L37.8057 3.23413Z" fill="#00C4C3"/>
<path d="M8.66567 7.15161L8.79708 7.698C8.79977 7.71093 8.80617 7.72279 8.81551 7.73213C8.82485 7.74147 8.83671 7.74788 8.84964 7.75057L9.39465 7.88198L8.85518 8.01062C8.841 8.01396 8.82821 8.0216 8.81855 8.0325C8.80889 8.04339 8.80284 8.05701 8.80123 8.07148L8.6629 8.64278L8.52458 8.07148C8.52296 8.05701 8.51691 8.04339 8.50725 8.0325C8.4976 8.0216 8.4848 8.01396 8.47063 8.01062L7.93115 7.88198L8.48446 7.75057C8.49718 7.74742 8.50879 7.74086 8.51806 7.7316C8.52732 7.72234 8.53388 7.71072 8.53702 7.698L8.66567 7.15161Z" fill="#00C4C3"/>
<path d="M48.6973 41.2325L48.8357 41.7789C48.8388 41.7917 48.8454 41.8033 48.8546 41.8125C48.8639 41.8218 48.8755 41.8284 48.8882 41.8315L49.4332 41.9615L48.8937 42.0916C48.8795 42.0947 48.8666 42.1023 48.8569 42.1132C48.8472 42.1242 48.8412 42.1379 48.8398 42.1524L48.7015 42.7223L48.5631 42.1524C48.5617 42.1379 48.5558 42.1242 48.5461 42.1132C48.5364 42.1023 48.5235 42.0947 48.5092 42.0916L47.9697 41.9615L48.5161 41.8315C48.5286 41.8278 48.5399 41.8211 48.5491 41.8119C48.5583 41.8028 48.565 41.7914 48.5687 41.7789L48.6973 41.2325Z" fill="#00C4C3"/>
<path d="M26.312 4.97852L26.4503 5.53182C26.4533 5.54461 26.4598 5.5563 26.4691 5.56559C26.4784 5.57488 26.4901 5.58139 26.5029 5.58439L27.0493 5.71442L26.5084 5.84444C26.4941 5.84759 26.4812 5.85517 26.4715 5.86611C26.4619 5.87704 26.4559 5.89076 26.4545 5.90531L26.3161 6.47521L26.1778 5.90531C26.1762 5.89083 26.1702 5.87721 26.1605 5.86632C26.1508 5.85542 26.138 5.84778 26.1239 5.84444L25.583 5.71442L26.1294 5.58439C26.1421 5.58124 26.1537 5.57469 26.163 5.56542C26.1723 5.55616 26.1788 5.54454 26.182 5.53182L26.312 4.97852Z" fill="#00C4C3"/>
<path d="M19.4164 42.3572L19.5464 42.9036C19.5494 42.9164 19.5559 42.928 19.5652 42.9373C19.5745 42.9466 19.5862 42.9531 19.599 42.9561L20.1523 43.0862L19.6114 43.2162C19.5974 43.2197 19.5847 43.2274 19.575 43.2383C19.5654 43.2491 19.5593 43.2626 19.5575 43.2771L19.4192 43.847L19.2808 43.2771C19.279 43.2626 19.2729 43.2491 19.2633 43.2383C19.2537 43.2274 19.241 43.2197 19.2269 43.2162L18.686 43.0862L19.2324 42.9561C19.2454 42.9534 19.2572 42.947 19.2666 42.9377C19.2759 42.9284 19.2823 42.9165 19.285 42.9036L19.4164 42.3572Z" fill="#00C4C3"/>
<g opacity="0.8">
<path opacity="0.8" d="M19.4315 16.5135L19.6307 17.3435C19.6355 17.3633 19.6456 17.3814 19.66 17.3958C19.6744 17.4102 19.6925 17.4203 19.7123 17.4251L20.5422 17.6243L19.7123 17.8235C19.6906 17.8285 19.6709 17.8401 19.6561 17.8567C19.6412 17.8733 19.6319 17.8941 19.6293 17.9162L19.4232 19.6826L19.2157 17.9162C19.2131 17.8941 19.2038 17.8733 19.1889 17.8567C19.174 17.8401 19.1544 17.8285 19.1327 17.8235L18.3027 17.6243L19.1327 17.4251C19.1525 17.4203 19.1706 17.4102 19.185 17.3958C19.1994 17.3814 19.2095 17.3633 19.2143 17.3435L19.4315 16.5135Z" fill="white"/>
<path opacity="0.8" d="M6.85067 45.1293L7.04987 45.9662C7.05458 45.9858 7.06473 46.0038 7.07916 46.018C7.09359 46.0322 7.11172 46.042 7.13148 46.0464L7.96144 46.247L7.14393 46.4448C7.12222 46.4498 7.10259 46.4613 7.08773 46.4779C7.07287 46.4945 7.06351 46.5153 7.06093 46.5374L6.85482 48.3039L6.64733 46.5374C6.64476 46.5153 6.6354 46.4945 6.62054 46.4779C6.60568 46.4613 6.58605 46.4498 6.56434 46.4448L5.73438 46.2456L6.56434 46.045C6.5841 46.0406 6.60223 46.0308 6.61666 46.0166C6.63109 46.0024 6.64124 45.9844 6.64595 45.9648L6.85067 45.1293Z" fill="white"/>
<path opacity="0.8" d="M36.2313 0L36.4319 0.838262C36.4365 0.857767 36.4464 0.875603 36.4606 0.889774C36.4747 0.903945 36.4926 0.913888 36.5121 0.918491L37.3504 1.11907L36.5204 1.31687C36.4987 1.32231 36.4791 1.33421 36.4643 1.35101C36.4495 1.3678 36.4401 1.3887 36.4374 1.41094L36.2313 3.17737L36.0238 1.41094C36.0211 1.3887 36.0117 1.3678 35.9969 1.35101C35.9821 1.33421 35.9625 1.32231 35.9408 1.31687L35.1108 1.11907L35.9477 0.918491C35.9674 0.913969 35.9855 0.904077 35.9999 0.889914C36.0143 0.875751 36.0245 0.857872 36.0293 0.838262L36.2313 0Z" fill="white"/>
<path opacity="0.8" d="M26.5471 32.1832L26.7477 33.0215C26.7526 33.0411 26.7628 33.059 26.7772 33.0731C26.7916 33.0873 26.8096 33.0972 26.8293 33.1017L27.6662 33.3023L26.8362 33.5001C26.8145 33.5055 26.7949 33.5174 26.7801 33.5342C26.7653 33.551 26.7559 33.5719 26.7532 33.5942L26.5457 35.3606L26.3382 33.5942C26.3359 33.5718 26.3267 33.5507 26.3118 33.5338C26.2969 33.517 26.2772 33.5052 26.2553 33.5001L25.4253 33.3023L26.2636 33.1017C26.2831 33.0971 26.3009 33.0872 26.3151 33.073C26.3292 33.0588 26.3392 33.041 26.3438 33.0215L26.5471 32.1832Z" fill="white"/>
<path opacity="0.8" d="M11.4074 28.4512L11.5374 28.9976C11.5409 29.0103 11.5478 29.0219 11.5573 29.0311C11.5667 29.0404 11.5785 29.0469 11.5913 29.0501L12.1364 29.1802L11.5969 29.3102C11.5826 29.3133 11.5697 29.3209 11.56 29.3318C11.5503 29.3428 11.5443 29.3565 11.5429 29.371L11.4046 29.941L11.2663 29.371C11.2649 29.3565 11.2589 29.3428 11.2492 29.3318C11.2395 29.3209 11.2266 29.3133 11.2123 29.3102L10.6729 29.1802L11.2179 29.0501C11.2307 29.0469 11.2425 29.0404 11.2519 29.0311C11.2614 29.0219 11.2683 29.0103 11.2718 28.9976L11.4074 28.4512Z" fill="white"/>
<path opacity="0.8" d="M49.3336 16.9119L49.4636 17.4583C49.4667 17.471 49.4733 17.4826 49.4826 17.4919C49.4918 17.5011 49.5034 17.5077 49.5162 17.5108L50.0695 17.6422L49.53 17.7709C49.5158 17.7742 49.503 17.7819 49.4934 17.7928C49.4837 17.8036 49.4776 17.8173 49.476 17.8317L49.3377 18.4016L49.1994 17.8317C49.1978 17.8173 49.1917 17.8036 49.1821 17.7928C49.1724 17.7819 49.1596 17.7742 49.1454 17.7709L48.606 17.6422L49.151 17.5108C49.1639 17.5081 49.1758 17.5017 49.1851 17.4924C49.1944 17.4831 49.2008 17.4712 49.2035 17.4583L49.3336 16.9119Z" fill="white"/>
<path opacity="0.8" d="M41.1533 30.295L41.2833 30.8414C41.2863 30.8542 41.2928 30.8659 41.3021 30.8752C41.3114 30.8845 41.3231 30.891 41.3359 30.894L41.8823 31.0254L41.3414 31.1541C41.3273 31.1576 41.3147 31.1653 41.305 31.1761C41.2954 31.187 41.2893 31.2005 41.2875 31.2149L41.1491 31.7862L41.0108 31.2149C41.009 31.2005 41.0029 31.187 40.9933 31.1761C40.9836 31.1653 40.971 31.1576 40.9569 31.1541L40.416 31.0254L40.9624 30.894C40.9753 30.8913 40.9872 30.8849 40.9965 30.8756C41.0059 30.8662 41.0123 30.8544 41.015 30.8414L41.1533 30.295Z" fill="white"/>
<path opacity="0.8" d="M31.8283 36.5792L31.9583 37.1256C31.962 37.1383 31.9688 37.1498 31.9783 37.159C31.9878 37.1683 31.9995 37.1749 32.0122 37.1782L32.5572 37.3082L32.0178 37.4369C32.0034 37.4403 31.9904 37.4481 31.9808 37.4593C31.9711 37.4705 31.9652 37.4844 31.9638 37.4991L31.8255 38.069L31.6872 37.4991C31.6858 37.4844 31.6799 37.4705 31.6702 37.4593C31.6605 37.4481 31.6476 37.4403 31.6332 37.4369L31.0938 37.3082L31.6388 37.1782C31.6515 37.1749 31.6632 37.1683 31.6727 37.159C31.6821 37.1498 31.689 37.1383 31.6927 37.1256L31.8283 36.5792Z" fill="white"/>
<path opacity="0.8" d="M26.5958 23.4963L26.7272 24.0496C26.7299 24.0626 26.7363 24.0744 26.7456 24.0838C26.7549 24.0931 26.7668 24.0995 26.7797 24.1022L27.3247 24.2336L26.7853 24.3623C26.7711 24.3656 26.7583 24.3732 26.7486 24.3841C26.739 24.395 26.7329 24.4087 26.7313 24.4231L26.593 24.993L26.4547 24.4231C26.4525 24.4089 26.4463 24.3955 26.4367 24.3847C26.4271 24.3739 26.4146 24.3661 26.4007 24.3623L25.8599 24.2336L26.4132 24.1022C26.426 24.0992 26.4377 24.0927 26.4469 24.0834C26.4562 24.0741 26.4627 24.0624 26.4657 24.0496L26.5958 23.4963Z" fill="white"/>
<path opacity="0.8" d="M37.8057 3.23413L37.9371 3.78052C37.9403 3.79324 37.9468 3.80486 37.9561 3.81412C37.9654 3.82338 37.977 3.82994 37.9897 3.83309L38.5361 3.96311L37.9952 4.09314C37.981 4.09629 37.9681 4.10387 37.9584 4.11481C37.9487 4.12574 37.9427 4.13946 37.9413 4.154L37.803 4.72391L37.6646 4.154C37.663 4.13953 37.657 4.12591 37.6473 4.11502C37.6377 4.10412 37.6249 4.09648 37.6107 4.09314L37.0698 3.96311L37.6162 3.83309C37.6288 3.82968 37.6403 3.82303 37.6495 3.81381C37.6587 3.80459 37.6654 3.79311 37.6688 3.78052L37.8057 3.23413Z" fill="white"/>
<path opacity="0.8" d="M8.66567 7.15161L8.79708 7.698C8.79977 7.71093 8.80617 7.72279 8.81551 7.73213C8.82485 7.74147 8.83671 7.74788 8.84964 7.75057L9.39465 7.88198L8.85518 8.01062C8.841 8.01396 8.82821 8.0216 8.81855 8.0325C8.80889 8.04339 8.80284 8.05701 8.80123 8.07148L8.6629 8.64278L8.52458 8.07148C8.52296 8.05701 8.51691 8.04339 8.50725 8.0325C8.4976 8.0216 8.4848 8.01396 8.47063 8.01062L7.93115 7.88198L8.48446 7.75057C8.49718 7.74742 8.50879 7.74086 8.51806 7.7316C8.52732 7.72234 8.53388 7.71072 8.53702 7.698L8.66567 7.15161Z" fill="white"/>
<path opacity="0.8" d="M48.6973 41.2325L48.8357 41.7789C48.8388 41.7917 48.8454 41.8033 48.8546 41.8125C48.8639 41.8218 48.8755 41.8284 48.8882 41.8315L49.4332 41.9615L48.8937 42.0916C48.8795 42.0947 48.8666 42.1023 48.8569 42.1132C48.8472 42.1242 48.8412 42.1379 48.8398 42.1524L48.7015 42.7223L48.5631 42.1524C48.5617 42.1379 48.5558 42.1242 48.5461 42.1132C48.5364 42.1023 48.5235 42.0947 48.5092 42.0916L47.9697 41.9615L48.5161 41.8315C48.5286 41.8278 48.5399 41.8211 48.5491 41.8119C48.5583 41.8028 48.565 41.7914 48.5687 41.7789L48.6973 41.2325Z" fill="white"/>
<path opacity="0.8" d="M26.312 4.97852L26.4503 5.53182C26.4533 5.54461 26.4598 5.5563 26.4691 5.56559C26.4784 5.57488 26.4901 5.58139 26.5029 5.58439L27.0493 5.71442L26.5084 5.84444C26.4941 5.84759 26.4812 5.85517 26.4715 5.86611C26.4619 5.87704 26.4559 5.89076 26.4545 5.90531L26.3161 6.47521L26.1778 5.90531C26.1762 5.89083 26.1702 5.87721 26.1605 5.86632C26.1508 5.85542 26.138 5.84778 26.1239 5.84444L25.583 5.71442L26.1294 5.58439C26.1421 5.58124 26.1537 5.57469 26.163 5.56542C26.1723 5.55616 26.1788 5.54454 26.182 5.53182L26.312 4.97852Z" fill="white"/>
<path opacity="0.8" d="M19.4164 42.3572L19.5464 42.9036C19.5494 42.9164 19.5559 42.928 19.5652 42.9373C19.5745 42.9466 19.5862 42.9531 19.599 42.9561L20.1523 43.0862L19.6114 43.2162C19.5974 43.2197 19.5847 43.2274 19.575 43.2383C19.5654 43.2491 19.5593 43.2626 19.5575 43.2771L19.4192 43.847L19.2808 43.2771C19.279 43.2626 19.2729 43.2491 19.2633 43.2383C19.2537 43.2274 19.241 43.2197 19.2269 43.2162L18.686 43.0862L19.2324 42.9561C19.2454 42.9534 19.2572 42.947 19.2666 42.9377C19.2759 42.9284 19.2823 42.9165 19.285 42.9036L19.4164 42.3572Z" fill="white"/>
</g>
<path d="M15.3386 12.0719C15.355 12.1956 15.3344 12.3213 15.2793 12.4333C15.2243 12.5452 15.1373 12.6384 15.0293 12.7009C14.9213 12.7634 14.7972 12.7924 14.6727 12.7844C14.5482 12.7764 14.4289 12.7316 14.3298 12.6558C14.2308 12.5799 14.1564 12.4764 14.1162 12.3583C14.076 12.2402 14.0717 12.1129 14.1038 11.9923C14.136 11.8718 14.2032 11.7635 14.2969 11.6811C14.3906 11.5988 14.5067 11.5461 14.6303 11.5297C14.7962 11.5077 14.9639 11.5524 15.0967 11.6541C15.2296 11.7558 15.3165 11.9061 15.3386 12.0719Z" fill="#263238"/>
<path d="M8.11234 25.0538C8.12849 25.1771 8.1077 25.3026 8.05261 25.4141C7.99751 25.5257 7.91058 25.6184 7.8028 25.6806C7.69501 25.7428 7.57122 25.7716 7.44705 25.7635C7.32289 25.7553 7.20392 25.7106 7.10519 25.6348C7.00646 25.5591 6.9324 25.4558 6.89236 25.338C6.85232 25.2201 6.8481 25.0931 6.88024 24.9729C6.91238 24.8527 6.97943 24.7447 7.07291 24.6626C7.1664 24.5805 7.28214 24.5279 7.40549 24.5115C7.57109 24.4899 7.7385 24.5349 7.87101 24.6365C8.00352 24.7382 8.0903 24.8882 8.11234 25.0538Z" fill="#455A64"/>
<path d="M47.4939 13.6447C47.5021 13.7062 47.4919 13.7687 47.4645 13.8244C47.4372 13.8801 47.3939 13.9264 47.3403 13.9576C47.2866 13.9887 47.225 14.0033 47.163 13.9994C47.1011 13.9955 47.0417 13.9734 46.9924 13.9358C46.943 13.8982 46.9059 13.8469 46.8857 13.7882C46.8656 13.7295 46.8632 13.6662 46.879 13.6062C46.8947 13.5462 46.9279 13.4922 46.9744 13.4511C47.0208 13.4099 47.0784 13.3834 47.1398 13.375C47.2225 13.3639 47.3062 13.3861 47.3726 13.4367C47.4389 13.4872 47.4826 13.562 47.4939 13.6447Z" fill="#DBDBDB"/>
<path d="M21.3446 17.3006C21.3531 17.3624 21.3431 17.4254 21.3157 17.4815C21.2884 17.5377 21.245 17.5844 21.1911 17.6159C21.1372 17.6473 21.0751 17.6621 21.0128 17.6583C20.9505 17.6544 20.8907 17.6322 20.8411 17.5944C20.7914 17.5565 20.7541 17.5048 20.7338 17.4458C20.7136 17.3867 20.7113 17.323 20.7273 17.2626C20.7433 17.2023 20.7769 17.148 20.8237 17.1068C20.8706 17.0655 20.9286 17.0391 20.9905 17.0308C21.0732 17.0198 21.1569 17.042 21.2233 17.0926C21.2897 17.1431 21.3333 17.2179 21.3446 17.3006Z" fill="#DBDBDB"/>
<path d="M33.7708 13.96C33.7779 14.0217 33.7666 14.0842 33.7383 14.1396C33.71 14.1949 33.666 14.2407 33.6117 14.2711C33.5575 14.3015 33.4955 14.3152 33.4335 14.3105C33.3715 14.3058 33.3123 14.2829 33.2633 14.2446C33.2143 14.2063 33.1777 14.1544 33.1581 14.0954C33.1386 14.0364 33.1369 13.9729 33.1532 13.9129C33.1696 13.8529 33.2034 13.7991 33.2503 13.7583C33.2971 13.7174 33.355 13.6914 33.4167 13.6833C33.4581 13.6779 33.5003 13.6808 33.5406 13.6918C33.5809 13.7028 33.6187 13.7218 33.6516 13.7475C33.6846 13.7733 33.7121 13.8053 33.7325 13.8418C33.753 13.8782 33.766 13.9184 33.7708 13.96Z" fill="#455A64"/>
<path d="M52.0133 9.82954C52.0201 9.89101 52.0087 9.95313 51.9803 10.0081C51.952 10.0631 51.908 10.1085 51.854 10.1386C51.8 10.1687 51.7383 10.1821 51.6766 10.1773C51.6149 10.1724 51.5561 10.1495 51.5074 10.1113C51.4588 10.0732 51.4225 10.0215 51.4031 9.96273C51.3837 9.90401 51.382 9.84086 51.3984 9.78121C51.4147 9.72156 51.4483 9.66808 51.495 9.62746C51.5416 9.58684 51.5992 9.5609 51.6606 9.55289C51.7019 9.54768 51.7439 9.55072 51.7841 9.56183C51.8243 9.57294 51.8618 9.59191 51.8946 9.61764C51.9274 9.64337 51.9548 9.67534 51.9752 9.71171C51.9955 9.74808 52.0085 9.78813 52.0133 9.82954Z" fill="#263238"/>
<path d="M18.9103 20.6384C18.9171 20.6998 18.9056 20.7619 18.8773 20.8168C18.849 20.8717 18.8051 20.9171 18.7512 20.9472C18.6972 20.9773 18.6356 20.9908 18.574 20.986C18.5124 20.9813 18.4536 20.9584 18.4049 20.9204C18.3562 20.8824 18.3198 20.8308 18.3003 20.7722C18.2807 20.7136 18.2789 20.6505 18.2951 20.5909C18.3113 20.5312 18.3446 20.4777 18.3911 20.4369C18.4375 20.3962 18.4949 20.37 18.5562 20.3618C18.5976 20.3564 18.6398 20.3593 18.6801 20.3703C18.7204 20.3813 18.7582 20.4002 18.7911 20.426C18.8241 20.4517 18.8516 20.4838 18.872 20.5202C18.8925 20.5567 18.9055 20.5969 18.9103 20.6384Z" fill="#455A64"/>
<path d="M38.2098 11.5587C38.2169 11.6204 38.2056 11.6829 38.1773 11.7383C38.149 11.7936 38.1049 11.8394 38.0507 11.8698C37.9965 11.9002 37.9345 11.9139 37.8725 11.9092C37.8105 11.9045 37.7513 11.8815 37.7023 11.8433C37.6533 11.805 37.6167 11.7531 37.5971 11.6941C37.5775 11.6351 37.5758 11.5716 37.5922 11.5116C37.6086 11.4516 37.6423 11.3978 37.6892 11.357C37.7361 11.3161 37.794 11.29 37.8556 11.282C37.8971 11.2764 37.9393 11.2791 37.9797 11.2901C38.0202 11.301 38.058 11.32 38.091 11.3457C38.124 11.3715 38.1515 11.4036 38.1719 11.4402C38.1923 11.4768 38.2051 11.517 38.2098 11.5587Z" fill="#263238"/>
<path d="M0.626081 16.5786C0.632917 16.64 0.621447 16.7022 0.593111 16.7571C0.564775 16.8121 0.520835 16.8575 0.466803 16.8876C0.412772 16.9177 0.351055 16.9312 0.289397 16.9263C0.227739 16.9215 0.168885 16.8985 0.120219 16.8603C0.0715531 16.8222 0.0352433 16.7705 0.0158447 16.7118C-0.00355389 16.653 -0.00517728 16.5899 0.0111785 16.5302C0.0275342 16.4706 0.0611406 16.4171 0.107781 16.3765C0.154422 16.3359 0.212019 16.3099 0.273347 16.3019C0.314707 16.2967 0.356689 16.2997 0.396867 16.3109C0.437046 16.322 0.474621 16.3409 0.507423 16.3667C0.540224 16.3924 0.5676 16.4244 0.587967 16.4607C0.608334 16.4971 0.621288 16.5372 0.626081 16.5786Z" fill="#DBDBDB"/>
<path d="M31.2545 17.2342C31.2613 17.2956 31.2498 17.3576 31.2215 17.4126C31.1932 17.4675 31.1494 17.5128 31.0954 17.5429C31.0415 17.573 30.9798 17.5865 30.9182 17.5818C30.8566 17.577 30.7978 17.5542 30.7491 17.5162C30.7004 17.4781 30.664 17.4266 30.6445 17.368C30.625 17.3093 30.6232 17.2463 30.6393 17.1866C30.6555 17.127 30.6889 17.0735 30.7353 17.0327C30.7817 16.9919 30.8392 16.9658 30.9004 16.9575C30.9419 16.9519 30.9841 16.9547 31.0245 16.9656C31.0649 16.9766 31.1027 16.9955 31.1357 17.0213C31.1687 17.0471 31.1962 17.0792 31.2166 17.1157C31.237 17.1523 31.2499 17.1926 31.2545 17.2342Z" fill="#DBDBDB"/>
<path d="M27.8238 14.6364C27.8307 14.6979 27.8192 14.76 27.7909 14.815C27.7625 14.87 27.7186 14.9154 27.6646 14.9455C27.6105 14.9755 27.5488 14.989 27.4872 14.9842C27.4255 14.9793 27.3666 14.9564 27.318 14.9182C27.2693 14.88 27.233 14.8283 27.2136 14.7696C27.1942 14.7109 27.1926 14.6477 27.2089 14.5881C27.2253 14.5284 27.2589 14.475 27.3055 14.4343C27.3522 14.3937 27.4098 14.3678 27.4711 14.3598C27.5125 14.3546 27.5544 14.3576 27.5946 14.3687C27.6348 14.3798 27.6724 14.3988 27.7052 14.4245C27.738 14.4502 27.7654 14.4822 27.7857 14.5186C27.8061 14.555 27.819 14.595 27.8238 14.6364Z" fill="#455A64"/>
<path d="M6.62659 30.4611C6.63338 30.5225 6.62191 30.5845 6.59361 30.6394C6.5653 30.6944 6.52143 30.7397 6.46747 30.7698C6.41352 30.7999 6.35188 30.8134 6.29029 30.8087C6.22869 30.8039 6.16986 30.7811 6.12118 30.743C6.07249 30.705 6.03611 30.6534 6.01658 30.5948C5.99706 30.5362 5.99526 30.4731 6.01141 30.4135C6.02756 30.3539 6.06094 30.3003 6.10738 30.2596C6.15382 30.2188 6.21125 30.1927 6.27247 30.1844C6.31394 30.179 6.35607 30.1819 6.3964 30.1929C6.43674 30.2039 6.47449 30.2229 6.50744 30.2486C6.54039 30.2744 6.5679 30.3064 6.58835 30.3429C6.60881 30.3793 6.62181 30.4195 6.62659 30.4611Z" fill="#DBDBDB"/>
<path d="M28.5324 18.4502C28.5488 18.5739 28.5282 18.6996 28.4732 18.8116C28.4181 18.9235 28.3311 19.0167 28.2231 19.0792C28.1152 19.1417 27.9911 19.1707 27.8666 19.1627C27.7421 19.1547 27.6227 19.1099 27.5237 19.0341C27.4246 18.9582 27.3503 18.8547 27.3101 18.7366C27.2698 18.6185 27.2655 18.4912 27.2977 18.3706C27.3299 18.2501 27.397 18.1418 27.4908 18.0594C27.5845 17.9771 27.7005 17.9244 27.8242 17.9079C27.99 17.8859 28.1578 17.9307 28.2906 18.0324C28.4234 18.1341 28.5104 18.2844 28.5324 18.4502Z" fill="#455A64"/>
<path d="M21.5301 14.6115L21.6822 13.6833C21.6822 13.6833 21.1206 14.0748 20.2575 13.6197C19.3943 13.1646 19.4413 12.2475 18.491 12.1548L18.2642 13.159C18.2642 13.159 19.1135 13.159 19.6087 13.8161C19.9905 14.3099 20.4691 14.8314 21.5301 14.6115Z" fill="#455A64"/>
<path d="M25.8003 21.4545L24.9205 21.1309C24.9205 21.1309 25.1972 21.7575 24.5789 22.5141C23.9605 23.2708 23.0725 23.0439 22.7944 23.9569L23.7351 24.3719C23.7351 24.3719 23.9066 23.5419 24.6425 23.1822C25.2013 22.9097 25.8072 22.5432 25.8003 21.4545Z" fill="#DBDBDB"/>
<path d="M32.498 17.403L33.198 18.0324C33.198 18.0324 33.1703 17.3477 34.0196 16.8663C34.869 16.3849 35.6159 16.9202 36.2066 16.1747L35.4831 15.4415C35.4831 15.4415 35.0211 16.1539 34.205 16.2203C33.5853 16.266 32.8881 16.3863 32.498 17.403Z" fill="#DBDBDB"/>
<path d="M2.85596 22.6788L3.7039 23.0869C3.7039 23.0869 3.48673 22.4367 4.1673 21.7382C4.84787 21.0396 5.71518 21.344 6.07206 20.4587L5.17293 19.9565C5.17293 19.9565 4.92809 20.7699 4.16315 21.0632C3.58217 21.2817 2.94587 21.593 2.85596 22.6788Z" fill="#455A64"/>
<path d="M52.8346 22.7258L51.7778 23.1228C51.7778 23.1228 52.1679 24.5213 53.2621 24.1907C53.2621 24.1907 52.5372 23.8269 52.8346 22.7258Z" fill="#37474F"/>
<path d="M54.3937 25.1424L54.7838 24.0994C54.7838 24.0994 54.1475 23.4686 53.2622 24.1962C53.2622 24.1907 54.3384 24.1866 54.3937 25.1424Z" fill="#37474F"/>
<path d="M14.7601 16.5841L13.6978 16.9631C13.6978 16.9631 14.0602 18.3644 15.1668 18.0559C15.1668 18.0559 14.4447 17.6797 14.7601 16.5841Z" fill="#DBDBDB"/>
<path d="M16.2736 19.02L16.6803 17.984C16.6803 17.984 16.0551 17.3421 15.1587 18.0559C15.167 18.0559 16.239 18.0683 16.2736 19.02Z" fill="#DBDBDB"/>
<path d="M40.2595 10.4022L39.9897 11.4978C39.9897 11.4978 41.3633 11.9695 41.7091 10.8808C41.7091 10.8808 40.9995 11.2709 40.2595 10.4022Z" fill="#455A64"/>
<path d="M43.1299 10.4797L42.4909 9.56812C42.4909 9.56812 41.6111 9.73549 41.7093 10.8781C41.7093 10.8808 42.3152 9.99001 43.1299 10.4797Z" fill="#455A64"/>
<path d="M24.3716 16.8427L24.4656 17.9673C24.4656 17.9673 25.9181 17.9673 25.8973 16.8317C25.8973 16.8289 25.3509 17.4265 24.3716 16.8427Z" fill="#37474F"/>
<path d="M27.1159 15.9962L26.2181 15.3378C26.2181 15.3378 25.438 15.779 25.8972 16.8289C25.8972 16.8289 26.1863 15.7915 27.1159 15.9962Z" fill="#37474F"/>
<path d="M31.8881 11.7661C31.872 11.6427 31.8928 11.5173 31.9479 11.4058C32.003 11.2942 32.0899 11.2015 32.1977 11.1393C32.3055 11.0771 32.4293 11.0483 32.5534 11.0564C32.6776 11.0646 32.7966 11.1093 32.8953 11.1851C32.994 11.2608 33.0681 11.3641 33.1081 11.4819C33.1482 11.5997 33.1524 11.7268 33.1202 11.847C33.0881 11.9672 33.021 12.0752 32.9276 12.1573C32.8341 12.2394 32.7183 12.292 32.595 12.3084C32.4294 12.33 32.262 12.285 32.1295 12.1834C31.997 12.0817 31.9102 11.9317 31.8881 11.7661Z" fill="#DBDBDB"/>
<path d="M52.8706 30.2287C52.8637 30.1672 52.8752 30.1051 52.9035 30.0501C52.9319 29.9952 52.9758 29.9498 53.0299 29.9197C53.0839 29.8896 53.1456 29.8761 53.2073 29.881C53.2689 29.8858 53.3278 29.9088 53.3764 29.9469C53.4251 29.9851 53.4614 30.0368 53.4808 30.0955C53.5002 30.1543 53.5018 30.2174 53.4855 30.277C53.4691 30.3367 53.4355 30.3902 53.3889 30.4308C53.3422 30.4714 53.2846 30.4974 53.2233 30.5054C53.1819 30.5108 53.1399 30.5079 53.0996 30.4968C53.0594 30.4858 53.0217 30.4668 52.9889 30.4411C52.956 30.4153 52.9286 30.3833 52.9083 30.3468C52.888 30.3103 52.8752 30.2702 52.8706 30.2287Z" fill="#DBDBDB"/>
<path d="M56.7438 14.2034C56.7273 14.0798 56.748 13.954 56.803 13.8421C56.8581 13.7301 56.9451 13.637 57.0531 13.5745C57.161 13.512 57.2851 13.4829 57.4096 13.4909C57.5341 13.499 57.6534 13.5437 57.7525 13.6196C57.8516 13.6954 57.9259 13.7989 57.9661 13.917C58.0064 14.0351 58.0107 14.1625 57.9785 14.283C57.9463 14.4036 57.8791 14.5119 57.7854 14.5942C57.6917 14.6766 57.5757 14.7293 57.452 14.7457C57.2862 14.7677 57.1184 14.7229 56.9856 14.6212C56.8528 14.5195 56.7658 14.3693 56.7438 14.2034Z" fill="#DBDBDB"/>
<path d="M46.2145 20.1322C46.198 20.0085 46.2187 19.8827 46.2737 19.7708C46.3288 19.6588 46.4158 19.5657 46.5238 19.5032C46.6317 19.4407 46.7558 19.4116 46.8803 19.4196C47.0048 19.4277 47.1241 19.4724 47.2232 19.5483C47.3223 19.6241 47.3966 19.7276 47.4368 19.8457C47.4771 19.9638 47.4814 20.0912 47.4492 20.2117C47.417 20.3323 47.3498 20.4406 47.2561 20.5229C47.1624 20.6053 47.0464 20.658 46.9227 20.6744C46.7569 20.6964 46.5891 20.6516 46.4563 20.5499C46.3235 20.4483 46.2365 20.298 46.2145 20.1322Z" fill="#455A64"/>
<path d="M49.0669 15.2617L49.125 16.201C49.125 16.201 49.5856 15.6933 50.529 15.9451C51.4724 16.1968 51.6287 17.1029 52.5749 16.9825V15.952C52.5749 15.952 51.7449 16.1359 51.1169 15.6103C50.6397 15.2119 50.0573 14.8094 49.0669 15.2617Z" fill="#455A64"/>
<path d="M39.5718 19.6231L38.0682 20.0491C38.0682 20.0491 37.3531 18.172 38.8415 17.6409C38.8415 17.6409 38.3352 18.641 39.5718 19.6231Z" fill="#263238"/>
<path d="M39.3259 15.6573L40.6165 16.4984C40.6165 16.4984 40.4256 17.724 38.8418 17.641C38.8418 17.641 40.0452 16.7612 39.3259 15.6573Z" fill="#263238"/>
<path d="M9.33215 15.9838L8.45654 14.6904C8.45654 14.6904 10.0141 13.422 10.9852 14.6697C10.9852 14.6697 9.87716 14.5009 9.33215 15.9838Z" fill="#263238"/>
<path d="M13.0201 14.505L12.6273 15.9948C12.6273 15.9948 11.4031 16.1981 10.9854 14.6696C10.9854 14.6696 12.1985 15.5355 13.0201 14.505Z" fill="#263238"/>
</svg>
