<svg width="30" height="30" viewBox="0 0 30 30" fill="none" xmlns="http://www.w3.org/2000/svg">
<g clip-path="url(#clip0_196_9405)">
<path d="M15 30C23.2843 30 30 23.2843 30 15C30 6.71573 23.2843 0 15 0C6.71573 0 0 6.71573 0 15C0 23.2843 6.71573 30 15 30Z" fill="#00C4C3"/>
<path d="M23.986 13.6313V14.3719H6.01416V13.6313C6.01416 13.2583 6.16232 12.9006 6.42604 12.6369C6.68976 12.3732 7.04745 12.225 7.42041 12.225H22.5798C22.9527 12.225 23.3104 12.3732 23.5742 12.6369C23.8379 12.9006 23.986 13.2583 23.986 13.6313Z" fill="#01081E"/>
<path d="M23.9857 14.3719V23.3484C23.9857 23.7214 23.8376 24.0791 23.5739 24.3428C23.3101 24.6065 22.9525 24.7547 22.5795 24.7547H7.4248C7.05184 24.7547 6.69416 24.6065 6.43044 24.3428C6.16671 24.0791 6.01855 23.7214 6.01855 23.3484V14.3719H23.9857Z" fill="#161E37"/>
<path d="M22.7157 15.5906H16.2095C16.0412 15.5906 15.9048 15.727 15.9048 15.8953V15.9C15.9048 16.0683 16.0412 16.2047 16.2095 16.2047H22.7157C22.884 16.2047 23.0204 16.0683 23.0204 15.9V15.8953C23.0204 15.727 22.884 15.5906 22.7157 15.5906Z" fill="#EBEBEB"/>
<path d="M22.7157 17.0578H16.2095C16.0412 17.0578 15.9048 17.1942 15.9048 17.3625V17.3672C15.9048 17.5355 16.0412 17.6719 16.2095 17.6719H22.7157C22.884 17.6719 23.0204 17.5355 23.0204 17.3672V17.3625C23.0204 17.1942 22.884 17.0578 22.7157 17.0578Z" fill="#EBEBEB"/>
<path d="M22.7157 18.525H16.2095C16.0412 18.525 15.9048 18.6614 15.9048 18.8297V18.8344C15.9048 19.0026 16.0412 19.1391 16.2095 19.1391H22.7157C22.884 19.1391 23.0204 19.0026 23.0204 18.8344V18.8297C23.0204 18.6614 22.884 18.525 22.7157 18.525Z" fill="#EBEBEB"/>
<path d="M22.7157 19.9922H16.2095C16.0412 19.9922 15.9048 20.1286 15.9048 20.2969V20.3016C15.9048 20.4698 16.0412 20.6062 16.2095 20.6062H22.7157C22.884 20.6062 23.0204 20.4698 23.0204 20.3016V20.2969C23.0204 20.1286 22.884 19.9922 22.7157 19.9922Z" fill="#EBEBEB"/>
<path d="M22.7157 21.4594H16.2095C16.0412 21.4594 15.9048 21.5958 15.9048 21.7641V21.7688C15.9048 21.937 16.0412 22.0734 16.2095 22.0734H22.7157C22.884 22.0734 23.0204 21.937 23.0204 21.7688V21.7641C23.0204 21.5958 22.884 21.4594 22.7157 21.4594Z" fill="#EBEBEB"/>
<path d="M22.7157 22.9266H16.2095C16.0412 22.9266 15.9048 23.063 15.9048 23.2312V23.2359C15.9048 23.4042 16.0412 23.5406 16.2095 23.5406H22.7157C22.884 23.5406 23.0204 23.4042 23.0204 23.2359V23.2312C23.0204 23.063 22.884 22.9266 22.7157 22.9266Z" fill="#EBEBEB"/>
<path d="M12.792 22.7859H8.16074C8.01318 22.7859 7.89355 22.9056 7.89355 23.0531V23.0578C7.89355 23.2054 8.01318 23.325 8.16074 23.325H12.792C12.9396 23.325 13.0592 23.2054 13.0592 23.0578V23.0531C13.0592 22.9056 12.9396 22.7859 12.792 22.7859Z" fill="#EBEBEB"/>
<path d="M12.792 21.45H8.16074C8.01318 21.45 7.89355 21.5696 7.89355 21.7172V21.7219C7.89355 21.8694 8.01318 21.9891 8.16074 21.9891H12.792C12.9396 21.9891 13.0592 21.8694 13.0592 21.7219V21.7172C13.0592 21.5696 12.9396 21.45 12.792 21.45Z" fill="#EBEBEB"/>
<path d="M13.0592 15.2812H7.89355V20.4469H13.0592V15.2812Z" fill="#DADDE1"/>
<path d="M16.6688 10.4297V11.4234H13.3313V10.4297H16.6688ZM17.4704 9.62813H12.5298V12.225H17.4704V9.62813Z" fill="#161E37"/>
<path d="M16.3641 5.24532H13.6406V10.9313H16.3641V5.24532Z" fill="#01081E"/>
<path d="M15 7.7625C15.5307 7.7625 15.9609 7.33227 15.9609 6.80156C15.9609 6.27085 15.5307 5.84062 15 5.84062C14.4693 5.84062 14.0391 6.27085 14.0391 6.80156C14.0391 7.33227 14.4693 7.7625 15 7.7625Z" fill="#EBEBEB"/>
<path d="M11.5452 18.6516H9.40771V19.9078H11.5452V18.6516Z" fill="white"/>
<path d="M12.8861 20.1187H10.5752L11.0955 18.4922L11.4893 18.4547C11.8486 18.5288 12.1947 18.6568 12.5158 18.8344C12.7125 19.2379 12.8378 19.6724 12.8861 20.1187Z" fill="#161E37"/>
<path d="M10.1812 18.4312H10.7812L10.7483 18.6422L10.6077 18.7969H10.3499L10.1999 18.6422L10.1812 18.4312Z" fill="#F75267"/>
<path d="M10.6783 19.4859L10.6268 18.7922H10.3643L10.2471 20.1094C10.3142 20.1052 10.3815 20.1052 10.4486 20.1094C10.5103 20.1055 10.5715 20.0961 10.6314 20.0813L10.6736 20.0297L10.6783 19.4859Z" fill="#F75267"/>
<path d="M10.9922 18.1781C10.9594 18.4969 10.575 18.45 10.4766 18.4312C10.3781 18.4125 10.0078 18.4922 9.96094 18.1781C9.99109 17.9958 10.0334 17.8157 10.0875 17.6391C10.1203 17.5781 10.3969 17.6391 10.4766 17.6391C10.5563 17.6391 10.8328 17.5734 10.8656 17.6391C10.9193 17.8159 10.9615 17.9959 10.9922 18.1781Z" fill="#E5B28F"/>
<path d="M11.4118 16.9443C11.4476 16.7878 11.4172 16.6474 11.344 16.6307C11.2708 16.6139 11.1825 16.7272 11.1468 16.8837C11.111 17.0402 11.1414 17.1806 11.2146 17.1973C11.2877 17.214 11.3761 17.1007 11.4118 16.9443Z" fill="#E5B28F"/>
<path d="M9.74002 17.2034C9.81321 17.1866 9.84356 17.0462 9.80781 16.8898C9.77205 16.7333 9.68374 16.62 9.61055 16.6367C9.53736 16.6534 9.50701 16.7938 9.54276 16.9503C9.57851 17.1068 9.66683 17.2201 9.74002 17.2034Z" fill="#E5B28F"/>
<path d="M10.4765 20.1187H10.2843L9.34678 18.9797L9.57646 18.9281L9.26709 18.6187C9.31748 18.5533 9.37944 18.4977 9.4499 18.4547L9.88115 18.3516L9.97959 18.6656L10.4765 20.1187Z" fill="#01081E"/>
<path d="M10.2845 20.1187L9.34697 18.9797L9.57666 18.9281L9.26729 18.6187C9.31768 18.5533 9.37964 18.4977 9.4501 18.4547C9.09058 18.5283 8.7444 18.6563 8.42353 18.8344C8.22675 19.2379 8.10145 19.6724 8.05322 20.1187H10.2845Z" fill="#161E37"/>
<path d="M10.4998 18.4312L10.4764 18.4687L10.2045 18.8953C10.1219 18.8332 10.0546 18.753 10.0076 18.6609C9.95735 18.57 9.91651 18.4742 9.88574 18.375V18.3469L9.94668 18.1734C9.98418 18.3141 10.3639 18.3984 10.4623 18.4172L10.4998 18.4312Z" fill="#E2E2E0"/>
<path d="M11.3626 18.9281L11.5923 18.9797L10.7251 20.0531L10.6829 20.1047H10.4907L10.6876 19.4859L10.9501 18.6656L11.0485 18.3516L11.4798 18.4547C11.5515 18.4979 11.615 18.5534 11.6673 18.6187L11.3626 18.9281Z" fill="#01081E"/>
<path d="M11.0623 18.3797C11.0316 18.4789 10.9907 18.5747 10.9404 18.6656C10.8935 18.7577 10.8261 18.8379 10.7436 18.9L10.4717 18.4734L10.4482 18.4359H10.4717C10.5701 18.4359 10.9404 18.3281 10.9873 18.1922L11.0482 18.3656L11.0623 18.3797Z" fill="#E2E2E0"/>
<path d="M10.3643 18.7969H10.6268V18.8719" fill="#B22B39"/>
<path d="M11.1235 17.4422C11.0358 17.7419 10.8532 18.005 10.6032 18.1922H10.3876C10.1388 18.0048 9.95785 17.7415 9.87195 17.4422C9.76886 17.0253 9.72312 16.5964 9.73601 16.1672C9.78289 15.9234 10.2798 15.9422 10.5188 15.9656C10.7579 15.9891 11.2548 15.9234 11.3016 16.1672C11.3001 16.5983 11.2402 17.0272 11.1235 17.4422Z" fill="#F1BD95"/>
<path d="M9.70761 16.875C9.74372 16.772 9.76733 16.6649 9.77793 16.5563C9.77793 16.5563 9.82949 16.6734 9.85293 16.5563C9.89901 16.4374 9.97296 16.3313 10.0686 16.2469C10.0686 16.2469 9.98418 16.3781 9.99355 16.4813C10.111 16.4908 10.2287 16.4646 10.3311 16.4063C10.6111 16.2956 10.9228 16.2956 11.2029 16.4063L11.2498 16.875C11.3095 16.7866 11.3481 16.6857 11.3627 16.5801C11.3773 16.4745 11.3676 16.3669 11.3342 16.2656C11.3009 16.0756 11.1979 15.9049 11.0452 15.787C10.8926 15.669 10.7014 15.6124 10.5092 15.6281C10.3556 15.6311 10.2053 15.6731 10.0725 15.7502C9.9396 15.8272 9.82856 15.9369 9.7498 16.0688C9.64304 16.3246 9.62813 16.6095 9.70761 16.875Z" fill="#471F27"/>
</g>
<defs>
<clipPath id="clip0_196_9405">
<rect width="30" height="30" fill="white"/>
</clipPath>
</defs>
</svg>
