<svg width="88" height="88" viewBox="0 0 88 88" fill="none" xmlns="http://www.w3.org/2000/svg">
<path fill-rule="evenodd" clip-rule="evenodd" d="M44.0001 88C68.3007 88 88 68.3003 88 43.9998C88 19.6994 68.3007 0 44.0001 0C19.6995 0 0 19.6994 0 43.9998C0 68.3003 19.6995 88 44.0001 88Z" fill="#01081E"/>
<path d="M44.939 77.0803C26.8874 77.0803 12.2041 62.242 12.2041 44C12.2041 25.7579 26.8874 10.9197 44.939 10.9197C53.1639 10.9197 60.9315 13.9681 66.9702 19.5264C67.5996 20.1057 67.598 21.095 66.9965 21.7038L64.2734 24.4599C63.6716 25.069 62.6976 25.0655 62.061 24.4934C57.3377 20.2492 51.3131 17.9299 44.939 17.9299C30.7105 17.9299 19.1411 29.6291 19.1411 44C19.1411 58.3708 30.7182 70.0701 44.939 70.0701C51.1059 70.0701 56.9773 67.8812 61.6387 63.8707C62.287 63.3129 63.2601 63.3297 63.8492 63.9509L66.5178 66.7645C67.1069 67.3856 67.0885 68.3748 66.4471 68.9407C60.4844 74.2014 52.9021 77.0803 44.939 77.0803Z" fill="#00C4C3"/>
<path d="M44.6425 59.0948C53.3339 59.0948 60.3797 52.0491 60.3797 43.3576C60.3797 34.6662 53.3339 27.6204 44.6425 27.6204C35.9511 27.6204 28.9053 34.6662 28.9053 43.3576C28.9053 52.0491 35.9511 59.0948 44.6425 59.0948Z" fill="#00C4C3"/>
<path d="M44.3216 53.3138C49.6428 53.3138 53.9566 49 53.9566 43.6787C53.9566 38.3575 49.6428 34.0437 44.3216 34.0437C39.0003 34.0437 34.6865 38.3575 34.6865 43.6787C34.6865 49 39.0003 53.3138 44.3216 53.3138Z" fill="#01081E"/>
</svg>
