<svg width="229" height="53" viewBox="0 0 229 53" fill="none" xmlns="http://www.w3.org/2000/svg">
<g clip-path="url(#clip0_103_4563)">
<path fill-rule="evenodd" clip-rule="evenodd" d="M153.914 29.2752C156.706 25.9438 159.824 23.2538 163.145 20.7911C167.642 17.4558 172.471 14.6684 177.518 12.262C183.648 9.35879 190.007 6.96632 196.53 5.10892C202.882 3.30293 209.339 1.88602 215.864 0.866077C218.297 0.477577 220.747 0.19839 223.212 0C221.92 0.246531 220.628 0.486009 219.337 0.740665C209.822 2.61893 200.622 5.48055 191.784 9.49848C183.807 13.1259 176.401 17.647 169.744 23.3681C167.738 25.0914 165.823 26.9069 163.996 28.8146C163.792 29.0276 163.63 29.2835 163.256 29.2821C160.198 29.27 157.141 29.2752 153.914 29.2752Z" fill="#00C4C3"/>
<path fill-rule="evenodd" clip-rule="evenodd" d="M140.809 29.2284C137.385 29.2284 133.959 29.2103 130.535 29.2437C129.851 29.2503 129.425 29.0001 129.106 28.4422C128.747 27.8136 128.491 27.1629 128.493 26.4213C128.501 23.7403 128.508 21.0591 128.485 18.3783C128.48 17.8841 128.6 17.7264 129.114 17.737C130.775 17.771 132.437 17.7656 134.098 17.7394C134.51 17.733 134.695 17.8467 134.731 18.2578C134.791 18.9535 135.188 19.1482 135.877 19.1441C140.554 19.1157 145.231 19.1419 149.909 19.1134C150.543 19.1096 150.744 19.2701 150.707 19.9107C150.648 20.8795 150.648 21.8509 150.708 22.8197C150.751 23.4889 150.503 23.5985 149.894 23.5954C145.166 23.5706 140.437 23.5801 135.709 23.5856C135.331 23.5856 134.784 23.4148 134.809 24.0657C134.831 24.6317 135.139 24.9509 135.801 24.9481C140.887 24.9274 145.974 24.9563 151.06 24.9156C151.831 24.9094 152.004 25.1343 151.954 25.8478C151.9 26.7656 151.898 27.6858 151.948 28.6038C151.97 29.1071 151.822 29.2445 151.314 29.2411C147.813 29.2178 144.311 29.2287 140.809 29.2284ZM64.7119 11.8926C66.755 11.8926 68.7981 11.8849 70.841 11.8944C75.1809 11.9148 78.0671 14.8168 78.0746 19.1657C78.0801 22.278 78.0632 25.3903 78.0876 28.5026C78.0917 29.036 78.02 29.2442 77.4017 29.2396C73.035 29.2074 68.6678 29.2348 64.3008 29.2175C60.4501 29.2022 57.4629 26.5055 57.2923 22.6647C57.1389 19.2272 57.2521 15.7782 57.2274 12.3344C57.2239 11.8475 57.4995 11.8898 57.8166 11.8898C60.1149 11.8937 62.4133 11.8946 64.7119 11.8926ZM68.9483 25.7325V25.7374C70.6348 25.7374 72.3213 25.7221 74.0077 25.7477C74.4677 25.7547 74.6273 25.6477 74.621 25.1588C74.5928 23.0916 74.6265 21.0236 74.6006 18.9563C74.5733 16.7792 73.1722 15.3776 70.9816 15.3613C67.762 15.3374 64.5424 15.3652 61.3228 15.3482C60.867 15.3457 60.708 15.4475 60.7146 15.9363C60.7434 18.0545 60.7083 20.1736 60.7348 22.2918C60.7596 24.2665 62.2005 25.6925 64.1962 25.727C65.7796 25.7543 67.3641 25.7325 68.9483 25.7325ZM213.482 29.2235C211.412 29.2235 209.344 29.2339 207.274 29.2212C203.314 29.197 200.331 26.4213 200.205 22.4753C200.098 19.1104 200.18 15.7396 200.167 12.3719C200.165 12.0174 200.252 11.8839 200.634 11.8854C205.307 11.9042 209.983 11.8308 214.656 11.9406C218.049 12.0203 220.927 15.0421 220.985 18.4359C221.047 21.8549 220.999 25.2738 221.022 28.6927C221.025 29.1459 220.869 29.2342 220.455 29.2312C218.131 29.2144 215.806 29.2235 213.482 29.2235ZM217.542 18.9054C217.513 16.7806 216.072 15.3721 213.942 15.3624C210.721 15.3471 207.5 15.3689 204.28 15.3442C203.766 15.3402 203.644 15.4901 203.651 15.9872C203.679 18.0296 203.658 20.0727 203.664 22.1156C203.671 24.2694 205.106 25.7159 207.26 25.7339C208.82 25.7472 210.379 25.7365 211.938 25.7368C213.625 25.7368 215.313 25.7215 216.999 25.7471C217.442 25.7537 217.559 25.618 217.556 25.1864M45.4614 29.2236C42.2418 29.2236 39.0235 29.2069 35.805 29.239C35.2186 29.2448 35.0964 29.0801 35.0987 28.5184C35.1211 23.2102 35.1211 17.9019 35.0987 12.5936C35.0961 12.0249 35.2294 11.8768 35.8079 11.8788C42.2967 11.9015 48.7855 11.9026 55.2743 11.8822C55.7875 11.8808 55.9856 11.978 55.9672 12.539C55.9242 13.8391 55.9245 15.1404 55.9681 16.4428C55.9863 16.9995 55.7994 17.1378 55.2762 17.1087C54.5122 17.0662 53.743 17.0795 52.978 17.1056C52.5836 17.1191 52.4567 17.0027 52.4484 16.5929C52.424 15.3575 52.4037 15.3583 51.1549 15.3584C47.2208 15.3584 43.2866 15.3693 39.3526 15.3468C38.7853 15.3436 38.5706 15.4405 38.5792 16.079C38.6182 19.0644 38.6111 22.0508 38.5835 25.0365C38.5783 25.5858 38.6823 25.7581 39.2779 25.7537C43.4417 25.723 47.6058 25.7227 51.77 25.7527C52.3483 25.7566 52.5012 25.6115 52.4752 25.0414C52.4283 24.0172 52.4657 24.016 53.5248 24.0171C54.189 24.0171 54.8535 24.0295 55.5179 24.0108C55.8476 24.0016 55.9639 24.1121 55.9606 24.4485C55.9461 25.903 55.9385 27.3579 55.9624 28.8123C55.9708 29.3343 55.6346 29.222 55.3491 29.2221C52.0529 29.2249 48.757 29.2254 45.4614 29.2236ZM89.8001 11.8931C93.0458 11.8931 96.2916 11.9111 99.5368 11.8777C100.135 11.8714 100.281 12.0464 100.242 12.605C100.19 13.2928 100.19 13.9835 100.243 14.6711C100.294 15.2766 100.061 15.3715 99.5102 15.3692C94.2712 15.3485 89.032 15.3758 83.7932 15.3394C83.023 15.3341 82.7386 15.5061 82.8427 16.2957C82.915 16.8537 82.915 17.4188 82.8427 17.9769C82.7435 18.7324 83.0786 18.8319 83.7344 18.8287C88.9222 18.8045 94.1104 18.8333 99.298 18.7948C100.071 18.789 100.341 18.9653 100.246 19.7489C100.184 20.3591 100.182 20.974 100.243 21.5844C100.289 22.1547 100.114 22.3108 99.5289 22.3076C94.8011 22.2817 90.073 22.2935 85.3451 22.2936C84.7062 22.2936 84.0652 22.3254 83.4286 22.2834C82.9347 22.2509 82.8388 22.439 82.8451 22.8966C82.8709 24.7856 82.8356 26.6754 82.8695 28.5641C82.879 29.1007 82.7347 29.2701 82.1949 29.2368C81.4289 29.196 80.6613 29.1951 79.8952 29.2341C79.4763 29.2518 79.3908 29.095 79.3916 28.7091C79.4018 23.2715 79.4002 17.8336 79.3868 12.3952C79.3851 11.8947 79.6117 11.8872 79.9867 11.8885C83.2579 11.8973 86.5291 11.8927 89.8003 11.8931H89.8001ZM106.298 20.5094C106.298 17.8799 106.311 15.2507 106.287 12.6211C106.282 12.0968 106.347 11.8717 106.971 11.8763C111.315 11.9082 115.659 11.8774 120.003 11.8983C124.214 11.9185 127.117 14.8373 127.134 19.0463C127.147 22.2118 127.126 25.3774 127.148 28.5428C127.151 29.0487 127.069 29.2778 126.496 29.2365C125.756 29.1849 125.014 29.1849 124.274 29.2365C123.738 29.2729 123.648 29.062 123.651 28.5843C123.669 25.47 123.663 22.3554 123.659 19.241C123.655 16.7093 122.306 15.3595 119.787 15.359C116.695 15.359 113.602 15.3791 110.511 15.3425C109.883 15.3351 109.773 15.5343 109.777 16.1091C109.8 20.2446 109.778 24.3803 109.802 28.5156C109.805 29.0748 109.69 29.2842 109.095 29.2382C108.356 29.1876 107.614 29.1869 106.874 29.2362C106.381 29.265 106.284 29.0852 106.287 28.6285C106.308 25.9211 106.298 23.2149 106.298 20.5091L106.298 20.5094ZM140.22 16.1221C136.543 16.1221 132.866 16.1068 129.189 16.1374C128.599 16.1423 128.456 15.9761 128.483 15.4129C128.531 14.4203 128.516 13.4231 128.488 12.429C128.475 11.9895 128.553 11.8057 129.061 11.8069C136.492 11.8242 143.923 11.825 151.355 11.8093C151.828 11.8084 151.967 11.9453 151.95 12.4165C151.914 13.4357 151.903 14.4588 151.954 15.4766C151.983 16.0536 151.756 16.1359 151.252 16.1325C147.575 16.1135 143.897 16.1221 140.22 16.1221ZM187.126 29.2292C183.756 29.2292 180.49 29.227 177.223 29.2335C176.994 29.2323 176.772 29.1529 176.594 29.0085C174.4 27.3834 172.202 25.7572 170 24.1299C170.077 23.8214 170.345 23.702 170.548 23.539C171.863 22.4867 173.191 21.4506 174.502 20.3961C174.781 20.1725 174.982 20.1396 175.293 20.3717C179.184 23.2642 183.081 26.1478 186.985 29.0225C187.038 29.0865 187.086 29.1557 187.126 29.2292ZM198.889 20.5899C198.889 23.2411 198.876 25.8926 198.902 28.5437C198.906 29.061 198.802 29.2678 198.241 29.2316C197.453 29.1807 196.659 29.2025 195.868 29.2253C195.498 29.2361 195.392 29.1073 195.394 28.7445C195.403 23.289 195.402 17.8333 195.391 12.3777C195.389 11.9394 195.567 11.882 195.932 11.8915C196.723 11.9121 197.516 11.9271 198.305 11.8869C198.782 11.8625 198.905 12.0125 198.9 12.483C198.879 15.1852 198.889 17.8875 198.889 20.5903V20.5899ZM101.524 20.5317C101.524 17.876 101.539 15.2201 101.511 12.5647C101.506 12.0364 101.627 11.8481 102.18 11.8848C102.943 11.9355 103.713 11.9154 104.479 11.8921C104.856 11.8806 105.022 11.9587 105.021 12.387C105.008 17.8262 105.008 23.2654 105.021 28.7044C105.022 29.1014 104.914 29.2422 104.505 29.2272C103.714 29.1982 102.919 29.1821 102.129 29.2315C101.588 29.2653 101.512 29.0456 101.515 28.5756C101.534 25.895 101.524 23.2131 101.524 20.5317ZM153.448 11.9116C156.318 11.9116 158.966 11.9929 161.606 11.8809C163.146 11.8155 164.41 12.1416 165.568 13.1814C166.492 14.0117 167.555 14.6924 168.571 15.4172C168.887 15.6424 168.947 15.7544 168.568 15.9821C166.951 16.9526 165.364 17.9714 163.84 19.0846C163.558 19.2917 163.374 19.2551 163.11 19.0598C159.96 16.7185 156.801 14.3889 153.448 11.9116ZM104.108 45.0583C104.107 46.4359 104.131 47.814 104.102 49.1909C104.042 52.0294 101.576 53.5075 98.9734 52.3019C98.2896 51.9851 98.8201 51.5623 98.8417 51.2046C98.8679 50.7808 99.1752 50.9815 99.4104 51.0456C99.7482 51.1577 100.096 51.2364 100.449 51.2806C102.153 51.3971 102.583 50.2977 102.562 48.9679C102.557 48.6421 102.394 48.687 102.167 48.7209C99.5957 49.1026 98.3576 48.1893 98.0364 45.6224C97.9032 44.6077 97.9444 43.5778 98.1581 42.5771C98.6627 40.2715 100.353 39.2961 102.942 39.8165C104.109 40.0509 104.109 40.0509 104.109 41.2316C104.109 42.507 104.108 43.7824 104.108 45.058V45.0583ZM102.559 44.2442C102.559 43.5323 102.559 42.8204 102.559 42.1085C102.559 41.0714 102.282 40.8455 101.246 41.0536C100.928 41.1028 100.632 41.2425 100.391 41.456C100.151 41.6694 99.9775 41.9475 99.8912 42.2571C99.4842 43.5501 99.454 44.9322 99.8041 46.2418C100.093 47.2886 100.929 47.718 101.992 47.4806C102.407 47.3876 102.587 47.2109 102.568 46.7607C102.533 45.9229 102.558 45.0829 102.56 44.2439L102.559 44.2442ZM43.3763 44.5841C43.3224 43.5628 43.4938 42.5422 43.8783 41.5945C44.3951 40.3765 45.3174 39.6934 46.6594 39.6944C47.9687 39.6963 48.9105 40.3471 49.3826 41.5512C50.1624 43.4874 50.1773 45.6475 49.4243 47.5942C48.9654 48.8207 48.0389 49.52 46.676 49.5259C45.3574 49.5321 44.3879 48.8667 43.85 47.5788C43.451 46.6208 43.3479 45.6113 43.3763 44.5841ZM48.3239 44.6315C48.3126 43.7895 48.2836 42.9473 47.9848 42.1469C47.7594 41.5428 47.4044 41.0517 46.6835 41.0294C45.9546 41.0067 45.5508 41.4754 45.3496 42.0872C44.8097 43.7194 44.8038 45.4811 45.3328 47.1169C45.5236 47.7271 45.9215 48.2077 46.6513 48.1978C47.4093 48.1875 47.7683 47.6809 48.0004 47.043C48.2858 46.2634 48.3037 45.4476 48.3239 44.6315ZM112.913 44.6833C112.929 45.6851 112.824 46.6684 112.425 47.5992C111.907 48.8095 111.022 49.5235 109.666 49.5285C108.32 49.5337 107.358 48.8806 106.886 47.6443C106.114 45.6776 106.123 43.4902 106.912 41.5301C107.382 40.3201 108.351 39.6986 109.651 39.6928C110.927 39.6869 111.825 40.3348 112.354 41.4761C112.824 42.4908 112.941 43.5768 112.913 44.6833ZM107.947 44.6396C108.002 45.5085 107.993 46.4028 108.373 47.2406C108.623 47.7895 108.981 48.1942 109.627 48.1978C110.306 48.2014 110.726 47.7975 110.923 47.1985C111.49 45.5209 111.487 43.703 110.914 42.0274C110.715 41.4304 110.301 41.0211 109.617 41.0309C108.969 41.0398 108.617 41.4522 108.373 41.9995C107.999 42.8363 107.991 43.7303 107.947 44.6396ZM35.2396 42.8944C35.2169 41.5828 35.3487 40.2964 35.8728 39.0769C36.1123 38.5328 36.4638 38.0451 36.9043 37.6458C37.3447 37.2464 37.8643 36.9443 38.4293 36.759C38.9942 36.5737 39.5919 36.5094 40.1833 36.5703C40.7747 36.6312 41.3467 36.8159 41.862 37.1125C42.5559 37.5227 41.9006 37.9514 41.8402 38.3534C41.7688 38.8287 41.4686 38.5044 41.273 38.4172C39.1611 37.4758 37.6183 38.2261 37.1721 40.484C36.8165 42.2154 36.8486 44.0041 37.2662 45.7216C37.8081 47.9097 39.4114 48.6617 41.4663 47.7286C41.6711 47.6357 41.9457 47.3366 42.0402 47.7953C42.1188 48.1786 42.673 48.574 42.0287 48.9823C40.0282 50.2505 37.0818 49.4359 36.035 47.2958C35.3559 45.9063 35.2311 44.4106 35.2396 42.8944ZM61.8474 44.6988C61.8474 43.3715 61.8474 42.0443 61.8474 40.7172C61.8474 40.444 61.7847 40.1558 62.1905 40.0658C63.1638 39.8502 64.1349 39.6017 65.1408 39.7132C66.6987 39.8859 67.5966 40.7097 67.7128 42.4422C67.8578 44.6025 67.7786 46.7779 67.8032 48.9467C67.8061 49.2064 67.7082 49.2849 67.4498 49.3159C66.3332 49.45 66.2474 49.3847 66.2472 48.258C66.2472 46.7012 66.2472 45.1442 66.2472 43.5873C66.2666 43.0764 66.2055 42.5656 66.0663 42.0736C65.7657 41.1342 64.4188 40.6516 63.5826 41.169C63.2933 41.3483 63.4071 41.6218 63.4063 41.8568C63.398 44.1027 63.366 46.3497 63.4216 48.5944C63.4402 49.3456 63.0767 49.2964 62.5525 49.3242C61.9725 49.3548 61.8117 49.1816 61.8319 48.6036C61.8794 47.3033 61.8476 46.0005 61.8474 44.6988ZM143.158 45.6133C143.158 46.5824 143.131 47.5526 143.169 48.5202C143.188 48.9922 143.037 49.2092 142.575 49.2923C141.719 49.4456 140.864 49.5969 139.992 49.5012C138.277 49.313 137.374 48.2609 137.401 46.5116C137.427 44.8575 138.415 43.8163 140.094 43.6785C140.221 43.6679 140.379 43.7191 140.471 43.6609C140.83 43.436 141.546 44.3468 141.623 43.322C141.728 41.9401 141.324 41.2747 140.366 41.162C139.882 41.0983 139.39 41.1556 138.934 41.3288C138.631 41.4474 138.42 41.4208 138.427 41.057C138.433 40.7066 137.898 40.2461 138.518 40.0158C140.542 39.2645 143.044 39.6632 143.133 42.6309C143.163 43.6244 143.138 44.6194 143.138 45.6138H143.158L143.158 45.6133ZM141.63 46.6267C141.611 46.3471 141.613 46.0665 141.637 45.7872C141.726 45.1998 141.433 45.0087 140.911 45.0143C140.682 45.004 140.453 45.0091 140.225 45.0297C139.661 45.1126 139.182 45.3542 139.032 45.9495C138.874 46.5792 138.812 47.2484 139.318 47.7505C139.878 48.3075 140.625 48.327 141.326 48.1154C141.966 47.9224 141.492 47.3237 141.626 46.9317C141.644 46.8309 141.645 46.7279 141.63 46.6267ZM73.8029 45.0024C73.3177 45.0024 72.8246 45.058 72.3493 44.9898C71.588 44.8803 71.5322 45.2236 71.6097 45.8504C71.8595 47.8646 72.9091 48.5856 74.8266 47.9903C75.0863 47.9097 75.3649 47.7757 75.3952 48.1743C75.4201 48.4984 75.831 48.8613 75.2824 49.1709C73.5653 50.1416 71.1181 49.3855 70.4447 47.5413C69.7331 45.6049 69.7511 43.4756 70.4953 41.5515C70.6943 40.9637 71.0858 40.4601 71.6066 40.1225C72.1274 39.7848 72.7468 39.6327 73.3647 39.6909C74.6549 39.7962 75.3703 40.4446 75.7718 41.8793C76.0146 42.7474 76.0467 43.6379 76.0619 44.5325C76.0681 44.9062 75.9194 45.0198 75.5645 45.0077C74.9781 44.9876 74.39 45.0022 73.8032 45.0024H73.8029ZM72.937 43.7827C74.5707 43.7827 74.7154 43.5793 74.2195 41.9795C74.1908 41.8822 74.1559 41.7869 74.1148 41.6943C74.0431 41.5237 73.9298 41.3739 73.7852 41.2585C73.6406 41.143 73.4694 41.0657 73.2872 41.0336C73.105 41.0015 72.9177 41.0156 72.7423 41.0746C72.567 41.1336 72.4092 41.2357 72.2836 41.3714C72.0607 41.618 71.9026 41.9162 71.8236 42.239C71.346 43.7591 71.3657 43.7831 72.9373 43.7827H72.937ZM52.2359 43.3671C52.2359 41.608 52.1858 39.8468 52.2491 38.0898C52.3225 36.0492 53.7724 35.0082 55.7476 35.4746C56.0732 35.5513 56.3961 35.6095 56.1904 36.0474C56.0524 36.3398 56.313 36.9254 55.5408 36.7747C54.388 36.5498 53.8729 37.0156 53.7777 38.182C53.6362 39.9207 53.6362 39.9207 55.4137 39.9256C55.5554 39.9176 55.6967 39.9482 55.8225 40.0141C55.9482 40.08 56.0538 40.1788 56.1279 40.2999C56.2019 40.421 56.2418 40.56 56.2432 40.7019C56.2446 40.8439 56.2075 40.9836 56.1358 41.1062C56.0199 41.3292 55.8263 41.2311 55.6641 41.2426C55.1514 41.2793 54.1935 40.9053 53.8221 41.4237C53.7279 41.5733 53.6695 41.7427 53.6513 41.9186C53.4858 42.941 53.7587 43.9804 53.7662 45.0105C53.7752 46.2407 53.7355 47.4709 53.7721 48.7008C53.7938 49.4327 53.3671 49.2961 52.9487 49.3081C52.5303 49.32 52.1726 49.3875 52.1913 48.7213C52.2413 46.9377 52.2083 45.1517 52.2083 43.3668H52.2359V43.3671ZM83.5561 49.2403C82.1594 49.4132 82.1704 49.4079 81.6188 48.2802C81.3275 47.6865 80.9942 47.1138 80.674 46.5349C80.5899 46.3827 80.4841 46.2424 80.3439 46.029C79.839 46.7368 79.4009 47.4901 79.0354 48.279C78.4907 49.3758 78.5008 49.3807 77.1355 49.2536C77.6679 47.9068 78.3312 46.6156 79.1159 45.3984C79.497 44.7851 79.5441 44.3218 79.1688 43.6823C78.4769 42.5039 77.8932 41.2622 77.258 40.0334C78.6435 39.7421 78.6851 39.7633 79.2868 40.9417C79.6194 41.5931 79.9567 42.2421 80.364 43.032C80.7703 42.2557 81.1187 41.5959 81.4618 40.9332C82.0453 39.8065 82.0444 39.8058 83.4589 40.0034C82.7689 41.3251 82.1071 42.6366 81.3975 43.9215C81.2871 44.0848 81.2292 44.2781 81.2318 44.4752C81.2344 44.6724 81.2972 44.8641 81.4119 45.0244C82.2035 46.384 82.9909 47.7492 83.5561 49.2403ZM115.093 42.4762C115.092 40.996 115.092 39.5157 115.093 38.0353C115.094 37.4148 115.424 37.1873 116.299 37.2043C116.9 37.216 116.6 37.6814 116.63 37.9419C116.704 38.5696 116.384 39.3659 116.762 39.793C117.12 40.1972 117.919 39.9237 118.52 39.91C119.043 39.898 119.031 40.1797 118.999 40.53C118.97 40.8454 119.172 41.3119 118.543 41.2466C118.517 41.2445 118.492 41.2445 118.466 41.2466C117.886 41.2833 117.128 40.9972 116.77 41.3637C116.382 41.7613 116.657 42.5263 116.648 43.1295C116.63 44.3284 116.625 45.5289 116.666 46.727C116.708 47.9755 117.339 48.4152 118.532 48.094C118.731 48.0405 119.006 47.8267 119.053 48.2252C119.093 48.5616 119.49 48.934 119.002 49.2494C117.769 50.0466 115.769 49.3524 115.3 47.9682C115.142 47.4285 115.073 46.8667 115.095 46.3048C115.088 45.0287 115.093 43.7524 115.093 42.4762H115.093ZM128.688 42.3814C128.688 40.9029 128.702 39.4242 128.682 37.9459C128.669 36.9713 129.475 37.3489 129.909 37.2354C130.468 37.089 130.113 37.6432 130.225 37.8594C130.23 37.8843 130.231 37.9099 130.227 37.935C130.263 38.5662 129.969 39.3553 130.337 39.7861C130.693 40.2022 131.494 39.9241 132.093 39.9088C132.675 39.8948 132.598 40.2335 132.608 40.5956C132.62 40.9875 132.621 41.3369 132.068 41.2462C132.042 41.2432 132.016 41.2432 131.991 41.2462C131.433 41.282 130.71 41.005 130.359 41.3483C129.976 41.723 130.242 42.4587 130.232 43.0347C130.213 44.2326 130.208 45.4313 130.237 46.6289C130.269 47.9574 130.892 48.4081 132.177 48.0745C132.399 48.0167 132.645 47.873 132.666 48.2592C132.685 48.5945 133.097 48.9587 132.574 49.2656C131.165 50.0924 129.205 49.3003 128.837 47.7202C128.742 47.2721 128.694 46.8152 128.696 46.3571C128.676 45.0327 128.688 43.707 128.687 42.3814H128.688ZM90.3211 49.5242C89.7336 49.5309 89.1507 49.419 88.6075 49.1951C88.2673 49.0649 88.1466 48.9286 88.2242 48.5263C88.3491 47.8824 88.5078 47.7137 89.2054 48.005C90.6328 48.6007 91.7245 47.9022 91.5614 46.6126C91.4915 46.059 91.1432 45.699 90.705 45.4094C90.3012 45.1425 89.8688 44.9148 89.4849 44.6229C88.2898 43.7141 87.9491 42.0736 88.6803 40.8655C89.3422 39.772 91.0874 39.3584 92.3804 39.9523C93.0168 40.2447 92.5532 40.635 92.5204 40.9808C92.4727 41.485 92.1615 41.2414 91.9143 41.1687C90.9195 40.8774 90.266 41.0461 89.9619 41.6673C89.6125 42.3814 89.8667 43.1148 90.6904 43.697C91.0645 43.9614 91.4723 44.1788 91.8502 44.4374C93.0027 45.2247 93.4257 46.4748 92.9984 47.795C92.6332 48.9229 91.7146 49.5172 90.3211 49.5242ZM145.801 41.6687C145.801 39.8303 145.798 37.9917 145.804 36.1533C145.804 35.9445 145.71 35.6678 146.068 35.6212C146.469 35.5689 146.876 35.4393 147.264 35.4832C147.435 35.5025 147.341 35.8971 147.341 36.119C147.346 39.5916 147.347 43.0642 147.342 46.5369C147.34 47.2563 147.374 47.8819 148.233 48.1878C148.717 48.3604 148.304 48.847 148.315 49.1891C148.324 49.5279 148.091 49.5183 147.841 49.5048C146.683 49.4422 145.898 48.7351 145.855 47.4882C145.79 45.5505 145.838 43.6093 145.838 41.6685H145.8L145.801 41.6687ZM150.147 41.6339C150.147 39.8466 150.147 38.0595 150.147 36.2725C150.148 35.7647 151.139 35.1686 151.577 35.4312C151.807 35.5692 151.684 35.8516 151.686 36.0652C151.692 39.486 151.694 42.907 151.69 46.3281C151.69 47.0966 151.615 47.8491 152.608 48.1962C153.024 48.3417 152.689 48.8736 152.678 49.2267C152.666 49.5705 152.393 49.5114 152.163 49.4954C151.126 49.424 150.479 48.8495 150.251 47.8298C150.12 47.2472 150.149 46.662 150.148 46.076C150.145 44.5953 150.147 43.1146 150.147 41.6339ZM126.015 44.699C126.015 46.052 125.983 47.406 126.027 48.7577C126.053 49.5426 125.52 49.2661 125.149 49.303C124.75 49.3429 124.436 49.3643 124.444 48.7449C124.482 45.9883 124.482 43.2313 124.444 40.4739C124.434 39.7622 124.863 39.9345 125.238 39.9275C125.629 39.9203 126.054 39.7884 126.029 40.4872C125.979 41.8895 126.015 43.2949 126.015 44.699ZM57.5173 44.6223C57.5173 43.2438 57.5561 41.8637 57.502 40.4874C57.4742 39.7878 57.8949 39.9218 58.283 39.9276C58.6586 39.9333 59.0834 39.7637 59.0733 40.4747C59.0343 43.2312 59.0343 45.9881 59.0733 48.7454C59.0851 49.5273 58.5944 49.2773 58.2177 49.3032C57.8353 49.3295 57.4752 49.3984 57.5005 48.7572C57.5547 47.3804 57.517 46.0004 57.5173 44.6218V44.6223ZM156.364 40.2556C156.347 41.8114 156.239 43.3649 156.039 44.9079C155.997 45.2443 155.96 45.4652 155.518 45.4692C155.07 45.4732 155.046 45.2409 154.994 44.9107C154.603 42.4008 154.715 39.8724 154.689 37.3486C154.686 37.0176 154.804 36.93 155.133 36.9138C156.366 36.8524 156.364 36.8371 156.363 38.0357C156.363 38.7753 156.363 39.5151 156.364 40.2551V40.2556ZM192.463 25.7435C194.114 25.7435 194.114 25.7435 194.114 27.4099C194.115 29.219 194.115 29.219 192.305 29.219C190.623 29.219 190.623 29.219 190.623 27.5202C190.623 25.7431 190.623 25.7431 192.463 25.7431V25.7435ZM229.004 26.4479C228.987 27.1814 228.681 27.8785 228.151 28.3861C227.621 28.8937 226.912 29.1703 226.178 29.1551C225.445 29.1347 224.748 28.8282 224.238 28.301C223.728 27.7738 223.444 27.0678 223.448 26.3341C223.478 24.8187 224.766 23.553 226.255 23.5744C226.624 23.5814 226.989 23.6614 227.327 23.8097C227.665 23.9581 227.971 24.1719 228.227 24.4389C228.482 24.7058 228.682 25.0207 228.816 25.3653C228.949 25.71 229.013 26.0775 229.004 26.4469V26.4479ZM228.68 26.4019C228.688 25.9157 228.55 25.4383 228.285 25.0305C228.021 24.6226 227.641 24.3027 227.194 24.1114C226.747 23.9201 226.253 23.8661 225.775 23.9562C225.297 24.0464 224.857 24.2766 224.511 24.6176C224.164 24.9586 223.927 25.395 223.829 25.8713C223.731 26.3476 223.777 26.8422 223.961 27.2922C224.145 27.7423 224.459 28.1274 224.862 28.3987C225.266 28.6699 225.741 28.815 226.227 28.8155C226.871 28.8146 227.488 28.5611 227.947 28.1096C228.406 27.6581 228.669 27.0445 228.68 26.401V26.4019ZM86.6107 37.2882C86.5034 38.2613 86.4085 39.0712 86.3277 39.8827C86.2999 40.1611 86.2541 40.3707 85.897 40.3818C85.5261 40.3931 85.4403 40.2237 85.3911 39.887C85.2255 38.6745 85.1283 37.4536 85.0998 36.2301C85.0776 35.5678 85.4969 35.7164 85.8526 35.7158C86.2083 35.7152 86.6694 35.5687 86.6171 36.2249C86.5843 36.6298 86.6107 37.0395 86.6107 37.2882ZM156.579 48.516C156.572 48.656 156.538 48.7932 156.478 48.9198C156.418 49.0464 156.333 49.1599 156.229 49.2538C156.125 49.3477 156.004 49.4201 155.872 49.4669C155.74 49.5136 155.6 49.5339 155.46 49.5264C155.183 49.5181 154.922 49.4002 154.732 49.1988C154.542 48.9974 154.44 48.7289 154.449 48.4524C154.457 48.1759 154.575 47.9141 154.776 47.7244C154.978 47.5348 155.246 47.433 155.523 47.4413C155.663 47.4422 155.801 47.4707 155.93 47.5253C156.059 47.5798 156.176 47.6593 156.274 47.7592C156.372 47.859 156.45 47.9773 156.502 48.1072C156.555 48.2371 156.581 48.376 156.579 48.516ZM58.2169 38.2531C58.0825 38.2483 57.9506 38.2152 57.83 38.1558C57.7093 38.0965 57.6025 38.0123 57.5167 37.9088C57.4308 37.8053 57.3678 37.6848 57.3318 37.5552C57.2958 37.4256 57.2876 37.2899 57.3077 37.1569C57.3734 36.5336 57.7809 36.2547 58.3573 36.283C58.9591 36.3126 59.2742 36.7096 59.2857 37.2974C59.2838 37.4321 59.2539 37.565 59.198 37.6876C59.1421 37.8102 59.0614 37.9199 58.961 38.0097C58.8605 38.0996 58.7425 38.1676 58.6145 38.2095C58.4864 38.2514 58.351 38.2662 58.2169 38.2531ZM126.226 37.2807C126.224 37.4136 126.196 37.5448 126.142 37.6665C126.089 37.7882 126.012 37.8979 125.915 37.989C125.818 38.08 125.704 38.1507 125.579 38.1966C125.454 38.2426 125.322 38.2629 125.189 38.2563C125.056 38.2547 124.925 38.2258 124.803 38.1714C124.682 38.117 124.573 38.0383 124.483 37.9401C124.394 37.842 124.325 37.7265 124.282 37.6008C124.239 37.475 124.221 37.3418 124.232 37.2092C124.275 36.6051 124.646 36.3037 125.222 36.2758C125.355 36.2719 125.487 36.2952 125.611 36.3444C125.734 36.3935 125.847 36.4674 125.941 36.5615C126.035 36.6556 126.109 36.7679 126.158 36.8916C126.207 37.0153 126.23 37.1477 126.226 37.2807ZM227.585 26.5946C227.307 26.7804 227.485 27.3296 227.128 27.302C226.637 27.2641 226.962 26.6121 226.59 26.3821C226.419 26.6706 226.697 27.065 226.323 27.394C226.094 26.7576 226.237 26.1636 226.215 25.5869C226.211 25.4182 226.36 25.4082 226.491 25.4089C226.654 25.4089 226.787 25.4372 226.83 25.6344C226.89 25.9073 226.97 26.1759 227.043 26.4577C227.393 26.3338 227.246 25.9815 227.362 25.7541C227.456 25.5701 227.483 25.3923 227.764 25.3998C228.098 25.4085 228.04 25.6241 228.043 25.817C228.049 26.1484 228.061 26.4811 228.038 26.8112C228.028 26.9857 228.178 27.3003 227.865 27.2966C227.575 27.2934 227.718 26.9799 227.673 26.8005C227.649 26.7295 227.619 26.6605 227.584 26.5941L227.585 26.5946ZM224.389 25.5568C224.902 25.3821 225.456 25.3668 225.978 25.5131C225.245 25.736 225.377 26.2837 225.381 26.791C225.384 26.9719 225.493 27.2845 225.211 27.2905C224.854 27.298 225.033 26.9564 225.006 26.7665C224.938 26.3099 225.277 25.6724 224.389 25.5563L224.389 25.5568Z" fill="black"/>
<path fill-rule="evenodd" clip-rule="evenodd" d="M-0.00152989 33.706C-0.0279256 32.0813 0.165679 30.4604 0.574015 28.8875C1.23496 26.4086 2.37991 24.0734 3.80252 21.9449C4.15617 21.4159 4.5273 20.899 4.9159 20.3942C6.9487 17.7499 9.46598 15.5112 12.2327 13.6603C17.2598 10.2958 22.7872 8.18108 28.7271 7.09729C29.9572 6.87284 31.1955 6.72596 32.4294 6.53677C33.0626 6.43957 33.2145 6.67568 33.2077 7.28188C33.1784 9.91062 33.1784 12.5396 33.2077 15.1689C33.2148 15.8031 33.0046 15.9845 32.3778 16.0181C25.8508 16.3681 19.6904 17.9775 14.1775 21.6026C9.80128 24.4802 6.44092 28.2129 4.84369 33.3226C4.20179 35.4134 4.01526 37.6174 4.29666 39.7864C4.88861 44.7208 7.40773 48.4363 11.477 51.1789C11.6428 51.2905 12.0368 51.3143 11.8897 51.6129C11.7117 51.9745 11.4465 51.6559 11.2493 51.5538C6.98841 49.3486 3.10709 45.9239 1.33139 41.3692C0.77067 39.9065 0.395347 38.3793 0.214184 36.8232C0.0833674 35.7891 0.0113468 34.7484 -0.00152989 33.706ZM33.1964 26.8897C33.1964 28.0378 33.157 29.1878 33.2105 30.3336C33.2412 30.9967 32.9686 31.0707 32.4033 31.0473C29.982 30.9468 27.5659 30.9488 25.1535 31.3022C22.7656 31.6521 20.4368 32.2594 18.302 33.3301C15.3668 34.8019 12.9228 36.884 11.7116 40.0849C10.5196 43.2352 10.9587 46.1882 12.8878 48.9336C13.4663 49.7682 14.1816 50.4991 15.0036 51.0953C15.1294 51.186 15.3853 51.2821 15.2708 51.494C15.1225 51.7681 14.9016 51.5623 14.7478 51.4707C11.5784 49.5811 9.21455 47.0047 8.38527 43.3368C7.04177 37.3943 9.1152 32.5542 13.554 28.6361C16.8093 25.7626 20.7412 24.2617 24.9399 23.3846C27.4212 22.8662 29.9349 22.6928 32.4626 22.6333C33.0232 22.6201 33.2292 22.7866 33.2088 23.37C33.1685 24.5412 33.1972 25.7159 33.1964 26.8897ZM33.1916 39.0742C33.1916 39.6099 33.1803 40.146 33.1947 40.6813C33.211 41.2899 32.9943 41.4817 32.3573 41.347C29.4357 40.7 26.4158 40.63 23.4673 41.1408C21.7231 41.454 20.0461 41.9752 18.6264 43.0879C16.71 44.5903 16.1468 46.8559 17.0712 49.2723C17.2705 49.7936 17.5498 50.2842 17.7801 50.7942C17.8454 50.9394 18.0729 51.0986 17.8686 51.2571C17.693 51.3931 17.5363 51.2166 17.416 51.092C16.1337 49.7638 15.1716 48.2503 14.825 46.4105C14.1993 43.0862 15.6835 40.7421 18.356 38.99C20.5139 37.5749 22.9444 36.9175 25.4684 36.5999C27.8011 36.3304 30.1581 36.3497 32.4861 36.6572C33.0248 36.7224 33.2551 36.9034 33.2059 37.4679C33.1599 37.9996 33.1959 38.5385 33.1959 39.0742H33.1912H33.1916Z" fill="#00C4C3"/>
</g>
<defs>
<clipPath id="clip0_103_4563">
<rect width="229" height="52.7212" fill="white"/>
</clipPath>
</defs>
</svg>
