<svg width="26" height="26" viewBox="0 0 26 26" fill="none" xmlns="http://www.w3.org/2000/svg">
<path d="M6.84125 11.6513C5.88992 11.6513 4.95996 11.3692 4.16896 10.8406C3.37796 10.3121 2.76145 9.56087 2.39739 8.68196C2.03333 7.80305 1.93808 6.83592 2.12367 5.90287C2.30927 4.96982 2.76738 4.11276 3.44007 3.44007C4.11276 2.76738 4.96982 2.30927 5.90287 2.12367C6.83592 1.93808 7.80305 2.03333 8.68196 2.39739C9.56087 2.76145 10.3121 3.37796 10.8406 4.16896C11.3692 4.95996 11.6513 5.88992 11.6513 6.84125C11.6491 8.11628 11.1416 9.33848 10.2401 10.2401C9.33848 11.1416 8.11628 11.6491 6.84125 11.6513ZM6.84125 4.46875C6.37202 4.46875 5.91332 4.6079 5.52316 4.86859C5.13301 5.12928 4.82892 5.49982 4.64935 5.93334C4.46978 6.36685 4.4228 6.84388 4.51434 7.3041C4.60588 7.76432 4.83184 8.18706 5.16364 8.51886C5.49544 8.85066 5.91818 9.07662 6.3784 9.16817C6.83862 9.25971 7.31565 9.21273 7.74917 9.03316C8.18269 8.85359 8.55322 8.5495 8.81391 8.15934C9.07461 7.76919 9.21375 7.31049 9.21375 6.84125C9.21375 6.21203 8.96379 5.60857 8.51886 5.16364C8.07393 4.71871 7.47048 4.46875 6.84125 4.46875ZM19.1588 11.6513C18.2074 11.6513 17.2775 11.3692 16.4865 10.8406C15.6955 10.3121 15.0789 9.56087 14.7149 8.68196C14.3508 7.80305 14.2556 6.83592 14.4412 5.90287C14.6268 4.96982 15.0849 4.11276 15.7576 3.44007C16.4303 2.76738 17.2873 2.30927 18.2204 2.12367C19.1534 1.93808 20.1205 2.03333 20.9995 2.39739C21.8784 2.76145 22.6296 3.37796 23.1581 4.16896C23.6867 4.95996 23.9688 5.88992 23.9688 6.84125C23.9688 7.47291 23.8443 8.09838 23.6026 8.68196C23.3609 9.26554 23.0066 9.79579 22.5599 10.2424C22.1133 10.6891 21.583 11.0434 20.9995 11.2851C20.4159 11.5268 19.7904 11.6513 19.1588 11.6513ZM19.1588 4.46875C18.6895 4.46875 18.2308 4.6079 17.8407 4.86859C17.4505 5.12928 17.1464 5.49982 16.9668 5.93334C16.7873 6.36685 16.7403 6.84388 16.8318 7.3041C16.9234 7.76432 17.1493 8.18706 17.4811 8.51886C17.8129 8.85066 18.2357 9.07662 18.6959 9.16817C19.1561 9.25971 19.6332 9.21273 20.0667 9.03316C20.5002 8.85359 20.8707 8.5495 21.1314 8.15934C21.3921 7.76919 21.5313 7.31049 21.5313 6.84125C21.5313 6.21203 21.2813 5.60857 20.8364 5.16364C20.3914 4.71871 19.788 4.46875 19.1588 4.46875ZM6.84125 23.9688C5.88992 23.9688 4.95996 23.6867 4.16896 23.1581C3.37796 22.6296 2.76145 21.8784 2.39739 20.9995C2.03333 20.1205 1.93808 19.1534 2.12367 18.2204C2.30927 17.2873 2.76738 16.4303 3.44007 15.7576C4.11276 15.0849 4.96982 14.6268 5.90287 14.4412C6.83592 14.2556 7.80305 14.3508 8.68196 14.7149C9.56087 15.0789 10.3121 15.6955 10.8406 16.4865C11.3692 17.2775 11.6513 18.2074 11.6513 19.1588C11.6491 20.4338 11.1416 21.656 10.2401 22.5576C9.33848 23.4591 8.11628 23.9666 6.84125 23.9688ZM6.84125 16.7863C6.37202 16.7863 5.91332 16.9254 5.52316 17.1861C5.13301 17.4468 4.82892 17.8173 4.64935 18.2508C4.46978 18.6844 4.4228 19.1614 4.51434 19.6216C4.60588 20.0818 4.83184 20.5046 5.16364 20.8364C5.49544 21.1682 5.91818 21.3941 6.3784 21.4857C6.83862 21.5772 7.31565 21.5302 7.74917 21.3507C8.18269 21.1711 8.55322 20.867 8.81391 20.4768C9.07461 20.0867 9.21375 19.628 9.21375 19.1588C9.21375 18.5295 8.96379 17.9261 8.51886 17.4811C8.07393 17.0362 7.47048 16.7863 6.84125 16.7863ZM16.6156 22.9206C16.3748 22.9182 16.14 22.8449 15.9405 22.7099C15.7411 22.575 15.5857 22.3843 15.4939 22.1616C15.4021 21.939 15.3778 21.6942 15.4241 21.4579C15.4704 21.2215 15.5853 21.004 15.7544 20.8325L20.8325 15.7544C21.0609 15.5249 21.3711 15.3955 21.6949 15.3948C22.0187 15.394 22.3296 15.5219 22.5591 15.7503C22.7886 15.9787 22.9179 16.289 22.9187 16.6128C22.9194 16.9365 22.7915 17.2474 22.5631 17.4769L17.4769 22.5631C17.3641 22.6767 17.2299 22.7668 17.0821 22.8281C16.9342 22.8895 16.7757 22.9209 16.6156 22.9206Z" fill="black"/>
<path d="M21.7019 22.9206C21.3765 22.9198 21.0643 22.7915 20.8325 22.5631L15.7544 17.4769C15.5391 17.2458 15.4219 16.9403 15.4275 16.6245C15.433 16.3088 15.5609 16.0075 15.7842 15.7842C16.0075 15.5609 16.3088 15.433 16.6245 15.4275C16.9403 15.4219 17.2458 15.5391 17.4769 15.7544L22.5631 20.8325C22.7322 21.004 22.8471 21.2215 22.8934 21.4579C22.9397 21.6942 22.9154 21.939 22.8236 22.1616C22.7318 22.3843 22.5764 22.575 22.377 22.7099C22.1775 22.8449 21.9427 22.9182 21.7019 22.9206Z" fill="#00C4C3"/>
<path d="M4.33563 10.5912C5.0773 11.0867 5.94926 11.3513 6.84125 11.3513C8.03671 11.3491 9.1826 10.8733 10.0279 10.0279C10.8733 9.1826 11.3491 8.03671 11.3513 6.84125L4.33563 10.5912ZM4.33563 10.5912C3.59396 10.0956 3.01591 9.39125 2.67456 8.56715M4.33563 10.5912L2.67456 8.56715M2.67456 8.56715C2.3332 7.74306 2.24389 6.83625 2.41791 5.96139M2.67456 8.56715L2.41791 5.96139M2.41791 5.96139C2.59193 5.08654 3.02147 4.28294 3.6522 3.6522M2.41791 5.96139L3.6522 3.6522M3.6522 3.6522C4.28294 3.02147 5.08654 2.59193 5.96139 2.41791M3.6522 3.6522L5.96139 2.41791M5.96139 2.41791C6.83625 2.24389 7.74306 2.3332 8.56715 2.67456M5.96139 2.41791L8.56715 2.67456M8.56715 2.67456C9.39125 3.01591 10.0956 3.59396 10.5912 4.33563M8.56715 2.67456L10.5912 4.33563M10.5912 4.33563C11.0867 5.07716 11.3512 5.94893 11.3513 6.84075L10.5912 4.33563ZM4.33563 22.9087C5.07716 23.4042 5.94893 23.6687 6.84075 23.6688C8.03639 23.6667 9.18248 23.1909 10.0279 22.3454C10.8733 21.5001 11.3491 20.3542 11.3513 19.1588L4.33563 22.9087ZM4.33563 22.9087C3.59396 22.4131 3.01591 21.7087 2.67456 20.8847M4.33563 22.9087L2.67456 20.8847M2.67456 20.8847C2.3332 20.0606 2.24389 19.1537 2.41791 18.2789M2.67456 20.8847L2.41791 18.2789M2.41791 18.2789C2.59193 17.404 3.02147 16.6004 3.6522 15.9697M2.41791 18.2789L3.6522 15.9697M3.6522 15.9697C4.28294 15.339 5.08654 14.9094 5.96139 14.7354M3.6522 15.9697L5.96139 14.7354M5.96139 14.7354C6.83625 14.5614 7.74306 14.6507 8.56715 14.9921M5.96139 14.7354L8.56715 14.9921M8.56715 14.9921C9.39125 15.3334 10.0956 15.9115 10.5912 16.6531M8.56715 14.9921L10.5912 16.6531M10.5912 16.6531C11.0867 17.3947 11.3512 18.2664 11.3513 19.1582L10.5912 16.6531ZM17.2688 15.9706L18.7316 17.431L17.431 18.7316L15.9706 17.2688C15.8104 17.0951 15.7232 16.8662 15.7274 16.6298C15.7316 16.3918 15.828 16.1647 15.9964 15.9964C16.1647 15.828 16.3918 15.7316 16.6298 15.7274C16.8662 15.7232 17.0951 15.8104 17.2688 15.9706ZM17.8549 19.1562L19.1562 17.8549L20.4595 19.1562L19.1562 20.4595L17.8549 19.1562ZM15.968 21.0431L17.4307 19.5805L18.7319 20.8838L17.2647 22.351L17.264 22.3517C17.1792 22.4371 17.0782 22.5049 16.967 22.5511C16.8562 22.5971 16.7374 22.6207 16.6174 22.6206C16.4359 22.6185 16.259 22.5632 16.1087 22.4615C15.958 22.3595 15.8406 22.2154 15.7712 22.0472C15.7019 21.879 15.6835 21.6941 15.7185 21.5156C15.7534 21.3373 15.84 21.1733 15.9673 21.0438C15.9676 21.0436 15.9678 21.0433 15.968 21.0431ZM20.8838 18.7319L19.5805 17.4307L21.0446 15.9665L21.0451 15.966C21.2174 15.7929 21.4514 15.6953 21.6956 15.6948C21.9399 15.6942 22.1743 15.7907 22.3474 15.9629C22.5205 16.1352 22.6181 16.3692 22.6187 16.6135C22.6193 16.8575 22.5229 17.0918 22.3509 17.2649C22.3507 17.265 22.3506 17.2651 22.3505 17.2652L20.8838 18.7319ZM20.8841 19.5801L22.3495 21.0431C22.3497 21.0434 22.35 21.0436 22.3502 21.0438C22.4775 21.1733 22.5641 21.3373 22.599 21.5156C22.634 21.6941 22.6157 21.879 22.5463 22.0472C22.4769 22.2154 22.3595 22.3595 22.2088 22.4615C22.0587 22.5631 21.882 22.6184 21.7008 22.6206C21.4549 22.6195 21.2191 22.5225 21.0437 22.3501C21.0435 22.3499 21.0433 22.3496 21.043 22.3494L19.5801 20.8841L20.8841 19.5801ZM6.84125 4.16875C6.31268 4.16875 5.79598 4.32549 5.35649 4.61915C4.917 4.91281 4.57446 5.3302 4.37218 5.81853C4.16991 6.30687 4.11698 6.84422 4.2201 7.36263C4.32322 7.88105 4.57775 8.35724 4.95151 8.731C5.32526 9.10475 5.80146 9.35928 6.31987 9.4624C6.83829 9.56552 7.37564 9.5126 7.86397 9.31032C8.35231 9.10805 8.7697 8.7655 9.06335 8.32601C9.35701 7.88652 9.51375 7.36982 9.51375 6.84125C9.51375 6.13246 9.23219 5.4527 8.731 4.95151C8.2298 4.45032 7.55004 4.16875 6.84125 4.16875ZM19.1588 11.3513C18.2668 11.3513 17.3948 11.0867 16.6531 10.5912C15.9115 10.0956 15.3334 9.39125 14.9921 8.56715C14.6507 7.74306 14.5614 6.83625 14.7354 5.96139C14.9094 5.08654 15.339 4.28294 15.9697 3.6522C16.6004 3.02147 17.404 2.59193 18.2789 2.41791C19.1537 2.24389 20.0606 2.3332 20.8847 2.67456C21.7087 3.01591 22.4131 3.59396 22.9087 4.33563C23.4042 5.0773 23.6688 5.94926 23.6688 6.84125C23.6688 7.43351 23.5521 8.01998 23.3254 8.56715C23.0988 9.11433 22.7666 9.61151 22.3478 10.0303C21.929 10.4491 21.4318 10.7813 20.8847 11.0079C20.3375 11.2346 19.751 11.3513 19.1588 11.3513ZM19.1588 4.16875C18.6302 4.16875 18.1135 4.32549 17.674 4.61915C17.2345 4.91281 16.892 5.3302 16.6897 5.81853C16.4874 6.30687 16.4345 6.84422 16.5376 7.36263C16.6407 7.88105 16.8953 8.35724 17.269 8.731C17.6428 9.10475 18.119 9.35928 18.6374 9.4624C19.1558 9.56552 19.6931 9.5126 20.1815 9.31032C20.6698 9.10805 21.0872 8.7655 21.3809 8.32601C21.6745 7.88652 21.8313 7.36982 21.8313 6.84125C21.8313 6.13246 21.5497 5.4527 21.0485 4.95151C20.5473 4.45032 19.8675 4.16875 19.1588 4.16875ZM6.84125 16.4863C6.31268 16.4863 5.79598 16.643 5.35649 16.9366C4.917 17.2303 4.57446 17.6477 4.37218 18.136C4.16991 18.6244 4.11698 19.1617 4.2201 19.6801C4.32322 20.1985 4.57775 20.6747 4.95151 21.0485C5.32527 21.4223 5.80146 21.6768 6.31987 21.7799C6.83829 21.883 7.37564 21.8301 7.86397 21.6278C8.35231 21.4255 8.7697 21.083 9.06335 20.6435C9.35701 20.204 9.51375 19.6873 9.51375 19.1588C9.51375 18.45 9.23219 17.7702 8.731 17.269C8.2298 16.7678 7.55004 16.4863 6.84125 16.4863Z" stroke="white" stroke-width="0.6"/>
</svg>
