<svg width="15" height="16" viewBox="0 0 15 16" fill="none" xmlns="http://www.w3.org/2000/svg">
<path fill-rule="evenodd" clip-rule="evenodd" d="M14.7362 11.4762L14.0538 10.4671C13.7664 10.0426 13.5145 9.21893 13.5145 8.70467V6.05321C13.5145 2.71532 10.8163 0 7.49988 0C4.18347 0 1.48564 2.7157 1.48564 6.05321V8.70467C1.48564 9.21855 1.23375 10.0422 0.94637 10.4671L0.26398 11.4762C-0.0249118 11.9038 -0.0796691 12.3603 0.114436 12.7294C0.308164 13.0984 0.714124 13.3098 1.22809 13.3098H13.7721C14.2856 13.3098 14.692 13.0981 14.8853 12.7298C15.0794 12.3607 15.0254 11.9038 14.7362 11.4762ZM13.7721 12.1695H1.22847C1.20656 12.1695 1.18768 12.1688 1.17031 12.1672C1.17862 12.152 1.18881 12.1357 1.20128 12.1174L1.88367 11.1083C2.29604 10.4983 2.6193 9.44242 2.6193 8.70467V6.05321C2.6193 3.34436 4.80922 1.14025 7.50064 1.14025C10.1924 1.14025 12.3823 3.34436 12.3823 6.05321V8.70467C12.3823 9.4428 12.7052 10.4991 13.1176 11.1083L13.8 12.1174C13.8121 12.1353 13.8223 12.152 13.8306 12.1672C13.8132 12.1688 13.794 12.1695 13.7721 12.1695ZM8.71889 13.9498C8.81217 13.6492 9.12901 13.4808 9.4281 13.5754C9.72681 13.6689 9.89372 13.989 9.80045 14.2892C9.48323 15.3124 8.55915 16 7.50026 16C6.44137 16 5.51691 15.3124 5.20007 14.2892C5.10717 13.9886 5.27371 13.6689 5.57242 13.5754C5.87076 13.4812 6.18835 13.6492 6.28162 13.9498C6.45043 14.4941 6.93985 14.8597 7.50026 14.8597C8.0603 14.8597 8.55009 14.4941 8.71889 13.9498Z" fill="#01081E"/>
</svg>
