<svg width="12" height="12" viewBox="0 0 12 12" fill="none" xmlns="http://www.w3.org/2000/svg">
<g clip-path="url(#clip0_196_9353)">
<path d="M0.5625 10.0312H6C6.03708 10.0312 6.07332 10.0202 6.10415 9.99964C6.13498 9.97903 6.159 9.94975 6.17319 9.9155C6.18738 9.88124 6.19109 9.84355 6.18386 9.80718C6.17663 9.77082 6.15878 9.73741 6.13256 9.71119L5.47631 9.05494C5.44095 9.02078 5.39359 9.00188 5.34442 9.00231C5.29526 9.00274 5.24824 9.02246 5.21347 9.05722C5.17871 9.09199 5.15899 9.13901 5.15856 9.18817C5.15813 9.23734 5.17703 9.2847 5.21119 9.32006L5.54719 9.65625H0.5625C0.512787 9.6562 0.465125 9.63643 0.429972 9.60128C0.39482 9.56612 0.37505 9.51846 0.375 9.46875V2.53125C0.37505 2.48154 0.39482 2.43387 0.429972 2.39872C0.465125 2.36357 0.512787 2.3438 0.5625 2.34375H4.875C4.92471 2.3438 4.97237 2.36357 5.00753 2.39872C5.04268 2.43387 5.06245 2.48154 5.0625 2.53125V8.03906C5.0625 8.08879 5.08225 8.13648 5.11742 8.17165C5.15258 8.20681 5.20027 8.22656 5.25 8.22656C5.29973 8.22656 5.34742 8.20681 5.38258 8.17165C5.41775 8.13648 5.4375 8.08879 5.4375 8.03906V2.53125C5.43733 2.38212 5.37801 2.23915 5.27256 2.13369C5.1671 2.02824 5.02413 1.96892 4.875 1.96875H0.5625C0.413369 1.96892 0.270396 2.02824 0.164944 2.13369C0.0594927 2.23915 0.000173682 2.38212 0 2.53125L0 9.46875C0.000173682 9.61788 0.0594927 9.76085 0.164944 9.86631C0.270396 9.97176 0.413369 10.0311 0.5625 10.0312ZM11.4375 1.96875H6C5.96292 1.96876 5.92668 1.97976 5.89585 2.00036C5.86502 2.02097 5.841 2.05025 5.82681 2.0845C5.81262 2.11876 5.80891 2.15645 5.81614 2.19282C5.82337 2.22918 5.84122 2.26259 5.86744 2.28881L6.52369 2.94506C6.55905 2.97922 6.60641 2.99812 6.65558 2.99769C6.70474 2.99726 6.75176 2.97754 6.78653 2.94278C6.82129 2.90801 6.84101 2.86099 6.84144 2.81183C6.84187 2.76266 6.82297 2.7153 6.78881 2.67994L6.45281 2.34375H11.4375C11.4872 2.3438 11.5349 2.36357 11.57 2.39872C11.6052 2.43387 11.625 2.48154 11.625 2.53125V9.46875C11.625 9.51846 11.6052 9.56612 11.57 9.60128C11.5349 9.63643 11.4872 9.6562 11.4375 9.65625H7.125C7.07529 9.6562 7.02763 9.63643 6.99247 9.60128C6.95732 9.56612 6.93755 9.51846 6.9375 9.46875V4.33594C6.9375 4.28621 6.91775 4.23852 6.88258 4.20335C6.84742 4.16819 6.79973 4.14844 6.75 4.14844C6.70027 4.14844 6.65258 4.16819 6.61742 4.20335C6.58225 4.23852 6.5625 4.28621 6.5625 4.33594V9.46875C6.56267 9.61788 6.62199 9.76085 6.72744 9.86631C6.8329 9.97176 6.97587 10.0311 7.125 10.0312H11.4375C11.5866 10.0311 11.7296 9.97176 11.8351 9.86631C11.9405 9.76085 11.9998 9.61788 12 9.46875V2.53125C11.9998 2.38212 11.9405 2.23915 11.8351 2.13369C11.7296 2.02824 11.5866 1.96892 11.4375 1.96875Z" fill="#01081E" stroke="#01081E" stroke-width="0.4"/>
<path d="M7.3125 6.75V8.25C7.3125 8.29973 7.33225 8.34742 7.36742 8.38259C7.40258 8.41775 7.45027 8.4375 7.5 8.4375H11.0625C11.1122 8.4375 11.1599 8.41775 11.1951 8.38259C11.2302 8.34742 11.25 8.29973 11.25 8.25V6.75C11.2496 6.54433 11.1817 6.34448 11.0566 6.1812C10.9315 6.01791 10.7563 5.90023 10.5578 5.84625C10.4794 5.97365 10.3824 6.08865 10.27 6.1875H10.3125C10.4616 6.18768 10.6046 6.247 10.7101 6.35245C10.8155 6.4579 10.8748 6.60087 10.875 6.75V8.0625H7.6875V6.75C7.68767 6.60087 7.74699 6.4579 7.85244 6.35245C7.9579 6.247 8.10087 6.18768 8.25 6.1875H8.29247C8.18014 6.08865 8.08314 5.97365 8.00466 5.84625C7.80619 5.90023 7.63096 6.01791 7.5059 6.1812C7.38084 6.34448 7.31289 6.54433 7.3125 6.75Z" fill="#01081E"/>
<path d="M9.28125 6.1875C9.50375 6.1875 9.72126 6.12152 9.90627 5.9979C10.0913 5.87429 10.2355 5.69859 10.3206 5.49302C10.4058 5.28745 10.428 5.06125 10.3846 4.84302C10.3412 4.6248 10.2341 4.42434 10.0767 4.26701C9.91941 4.10967 9.71896 4.00253 9.50073 3.95912C9.2825 3.91571 9.0563 3.93799 8.85073 4.02314C8.64516 4.10828 8.46946 4.25248 8.34585 4.43748C8.22223 4.62249 8.15625 4.84 8.15625 5.0625C8.15657 5.36077 8.2752 5.64673 8.48611 5.85764C8.69702 6.06855 8.98298 6.18718 9.28125 6.1875ZM9.28125 4.3125C9.42959 4.3125 9.57459 4.35649 9.69793 4.4389C9.82127 4.52131 9.91739 4.63844 9.97416 4.77549C10.0309 4.91253 10.0458 5.06333 10.0168 5.20882C9.9879 5.3543 9.91647 5.48794 9.81158 5.59283C9.70669 5.69772 9.57305 5.76915 9.42757 5.79809C9.28208 5.82703 9.13128 5.81218 8.99424 5.75541C8.85719 5.69864 8.74006 5.60252 8.65765 5.47918C8.57524 5.35584 8.53125 5.21084 8.53125 5.0625C8.5315 4.86366 8.6106 4.67304 8.75119 4.53244C8.89179 4.39185 9.08241 4.31275 9.28125 4.3125ZM0.75 6.75V8.25C0.75 8.29973 0.769754 8.34742 0.804918 8.38258C0.840081 8.41775 0.887772 8.4375 0.9375 8.4375H4.5C4.54973 8.4375 4.59742 8.41775 4.63258 8.38258C4.66775 8.34742 4.6875 8.29973 4.6875 8.25V6.75C4.68711 6.54433 4.61916 6.34448 4.4941 6.18119C4.36904 6.01791 4.19381 5.90023 3.99534 5.84625C3.91686 5.97364 3.81986 6.08865 3.70753 6.1875H3.75C3.89913 6.18767 4.0421 6.24699 4.14756 6.35245C4.25301 6.4579 4.31233 6.60087 4.3125 6.75V8.0625H1.125V6.75C1.12517 6.60087 1.18449 6.4579 1.28994 6.35245C1.3954 6.24699 1.53837 6.18767 1.6875 6.1875H1.72997C1.61764 6.08865 1.52064 5.97364 1.44216 5.84625C1.24369 5.90023 1.06846 6.01791 0.9434 6.18119C0.818344 6.34448 0.750393 6.54433 0.75 6.75Z" fill="#01081E"/>
<path d="M2.71875 6.1875C2.94125 6.1875 3.15876 6.12152 3.34377 5.9979C3.52877 5.87429 3.67297 5.69859 3.75811 5.49302C3.84326 5.28745 3.86554 5.06125 3.82213 4.84302C3.77873 4.6248 3.67158 4.42434 3.51425 4.26701C3.35691 4.10967 3.15646 4.00253 2.93823 3.95912C2.72 3.91571 2.4938 3.93799 2.28823 4.02314C2.08266 4.10828 1.90696 4.25248 1.78335 4.43748C1.65973 4.62249 1.59375 4.84 1.59375 5.0625C1.59407 5.36077 1.7127 5.64673 1.92361 5.85764C2.13452 6.06855 2.42048 6.18718 2.71875 6.1875ZM2.71875 4.3125C2.86709 4.3125 3.01209 4.35649 3.13543 4.4389C3.25876 4.52131 3.35489 4.63844 3.41166 4.77549C3.46843 4.91253 3.48328 5.06333 3.45434 5.20882C3.4254 5.3543 3.35397 5.48794 3.24908 5.59283C3.14419 5.69772 3.01055 5.76915 2.86507 5.79809C2.71958 5.82703 2.56878 5.81218 2.43174 5.75541C2.29469 5.69864 2.17756 5.60251 2.09515 5.47918C2.01274 5.35584 1.96875 5.21084 1.96875 5.0625C1.969 4.86366 2.0481 4.67304 2.18869 4.53244C2.32929 4.39185 2.51991 4.31275 2.71875 4.3125Z" fill="#01081E"/>
</g>
<defs>
<clipPath id="clip0_196_9353">
<rect width="12" height="12" fill="white"/>
</clipPath>
</defs>
</svg>
