<svg width="30" height="30" viewBox="0 0 30 30" fill="none" xmlns="http://www.w3.org/2000/svg">
<path d="M15 30C23.2843 30 30 23.2843 30 15C30 6.71573 23.2843 0 15 0C6.71573 0 0 6.71573 0 15C0 23.2843 6.71573 30 15 30Z" fill="#00C4C3"/>
<path d="M19.6561 7.81314C19.4961 7.82913 19.3745 7.96369 19.3747 8.12442V15.6239C19.3747 15.8325 19.5313 15.9366 19.6878 15.9364V16.562C19.5313 16.5617 19.3747 16.6658 19.3747 16.8745V21.2507H9.68836C9.68836 21.2507 9.46688 21.2458 9.23609 21.3612C9.0053 21.4766 8.75146 21.7704 8.75146 22.187C8.75146 22.652 9.0053 22.8974 9.23609 23.0128C9.46688 23.1282 9.68836 23.1257 9.68836 23.1257H20.3134C20.3134 23.1257 20.5349 23.1282 20.7657 23.0128C20.9965 22.8974 21.2503 22.6468 21.2503 22.187V8.74943C21.2503 8.28637 20.9965 8.03901 20.7657 7.92362C20.5349 7.80822 20.3134 7.81314 20.3134 7.81314H19.6561Z" fill="white"/>
<path d="M9.68836 6.87439C9.68836 6.87439 9.46688 6.87191 9.23609 6.98731C9.0053 7.1027 8.75146 7.33786 8.75146 7.81312V22.1882C8.75146 22.605 9.37647 22.605 9.37647 22.1882C9.37647 22.1882 9.36858 22.0972 9.40943 22.0155C9.46249 21.913 9.60881 21.8745 9.68775 21.8745H19.6878C19.8596 21.8739 19.9985 21.735 19.9991 21.5632L19.9997 7.81312C19.9997 7.34762 19.7465 7.1027 19.5157 6.98731C19.2849 6.87192 19.0634 6.87439 19.0634 6.87439H9.68836Z" fill="#01081E"/>
<path d="M14.3758 9.06342C12.6536 9.06342 11.25 10.4647 11.25 12.1869C11.25 13.9092 12.6536 15.3128 14.3758 15.3128C16.0981 15.3128 17.5017 13.9092 17.5017 12.1869C17.5017 11.8317 17.4402 11.4791 17.3217 11.1442C17.3092 11.1041 17.2886 11.0669 17.2613 11.0348C17.234 11.0028 17.2005 10.9767 17.1629 10.9579C17.1252 10.9391 17.0841 10.9282 17.0421 10.9256C17.0001 10.9231 16.9581 10.9291 16.9184 10.9433C16.8788 10.9574 16.8424 10.9794 16.8115 11.0079C16.7806 11.0365 16.7557 11.071 16.7385 11.1093C16.7212 11.1477 16.7119 11.1892 16.711 11.2312C16.7101 11.2733 16.7178 11.3151 16.7335 11.3542C16.8283 11.622 16.8765 11.9028 16.8765 12.1869C16.8765 13.5714 15.7603 14.6876 14.3758 14.6876C12.9914 14.6876 11.8752 13.5714 11.8752 12.1869C11.8752 10.8025 12.9914 9.68858 14.3758 9.68858C15.0864 9.68858 15.7632 9.99004 16.2375 10.5191C16.2649 10.5497 16.2981 10.5746 16.3351 10.5924C16.3722 10.6102 16.4123 10.6205 16.4534 10.6228C16.4944 10.625 16.5355 10.6192 16.5743 10.6056C16.613 10.5919 16.6488 10.5708 16.6794 10.5434C16.71 10.516 16.7349 10.4828 16.7526 10.4457C16.7704 10.4087 16.7807 10.3685 16.783 10.3275C16.7852 10.2864 16.7793 10.2453 16.7657 10.2066C16.7521 10.1678 16.7309 10.1321 16.7035 10.1015C16.1108 9.44053 15.2636 9.06342 14.3758 9.06342Z" fill="white"/>
<path d="M14.3136 9.06805C14.3136 9.06805 13.8502 9.1722 13.4416 9.62171C13.0329 10.0712 12.6572 10.8634 12.6572 12.187C12.6572 13.5105 13.0329 14.3027 13.4416 14.7522C13.8502 15.2017 14.3136 15.3059 14.3136 15.3059L14.4381 14.6945C14.4381 14.6945 14.1974 14.6563 13.9029 14.3324C13.6084 14.0084 13.2824 13.3947 13.2824 12.187C13.2824 10.9792 13.6084 10.3655 13.9029 10.0416C14.1974 9.71761 14.4381 9.68169 14.4381 9.68169L14.3136 9.06805Z" fill="white"/>
<path d="M14.438 9.06805L14.3135 9.68169C14.3135 9.68169 14.5519 9.71761 14.8464 10.0416C15.1409 10.3655 15.4692 10.9792 15.4692 12.187C15.4692 13.3947 15.1409 14.0084 14.8464 14.3324C14.5519 14.6563 14.3135 14.6945 14.3135 14.6945L14.438 15.3059C14.438 15.3059 14.9014 15.2017 15.3101 14.7522C15.7187 14.3027 16.0944 13.5105 16.0944 12.187C16.0944 10.8634 15.7187 10.0712 15.3101 9.62171C14.9014 9.1722 14.438 9.06805 14.438 9.06805Z" fill="white"/>
<path d="M11.5635 11.8755V12.5007H17.1877V11.8755H11.5635Z" fill="white"/>
<path d="M14.0619 9.37485V14.999H14.687V9.37485H14.0619ZM11.5635 16.2494C11.5224 16.2493 11.4817 16.2574 11.4437 16.273C11.4058 16.2887 11.3713 16.3117 11.3422 16.3408C11.3131 16.3698 11.2901 16.4043 11.2743 16.4422C11.2586 16.4802 11.2505 16.5209 11.2505 16.562C11.2505 16.603 11.2586 16.6437 11.2743 16.6817C11.2901 16.7196 11.3131 16.7541 11.3422 16.7831C11.3713 16.8122 11.4058 16.8352 11.4437 16.8509C11.4817 16.8665 11.5224 16.8746 11.5635 16.8745H17.1877C17.2288 16.8746 17.2695 16.8665 17.3074 16.8509C17.3454 16.8352 17.3799 16.8122 17.409 16.7831C17.4381 16.7541 17.4611 16.7196 17.4769 16.6817C17.4926 16.6437 17.5007 16.603 17.5007 16.562C17.5007 16.5209 17.4926 16.4802 17.4769 16.4422C17.4611 16.4043 17.4381 16.3698 17.409 16.3408C17.3799 16.3117 17.3454 16.2887 17.3074 16.273C17.2695 16.2574 17.2288 16.2493 17.1877 16.2494H11.5635ZM11.5635 17.4997C11.4806 17.4997 11.4011 17.5326 11.3425 17.5913C11.2839 17.6499 11.2509 17.7294 11.2509 17.8123C11.2509 17.8952 11.2839 17.9747 11.3425 18.0333C11.4011 18.0919 11.4806 18.1249 11.5635 18.1249H14.3756C14.4585 18.1249 14.538 18.0919 14.5966 18.0333C14.6552 17.9747 14.6882 17.8952 14.6882 17.8123C14.6882 17.7294 14.6552 17.6499 14.5966 17.5913C14.538 17.5326 14.4585 17.4997 14.3756 17.4997H11.5635ZM11.5635 18.75C11.4806 18.75 11.4011 18.783 11.3425 18.8416C11.2839 18.9002 11.2509 18.9797 11.2509 19.0626C11.2509 19.1455 11.2839 19.225 11.3425 19.2836C11.4011 19.3423 11.4806 19.3752 11.5635 19.3752H17.1877C17.2706 19.3752 17.3501 19.3423 17.4087 19.2836C17.4673 19.225 17.5003 19.1455 17.5003 19.0626C17.5003 18.9797 17.4673 18.9002 17.4087 18.8416C17.3501 18.783 17.2706 18.75 17.1877 18.75H11.5635ZM15.3122 17.4997C15.2293 17.4997 15.1498 17.5326 15.0912 17.5913C15.0325 17.6499 14.9996 17.7294 14.9996 17.8123C14.9996 17.8952 15.0325 17.9747 15.0912 18.0333C15.1498 18.0919 15.2293 18.1249 15.3122 18.1249H17.1877C17.2706 18.1249 17.3501 18.0919 17.4087 18.0333C17.4673 17.9747 17.5003 17.8952 17.5003 17.8123C17.5003 17.7294 17.4673 17.6499 17.4087 17.5913C17.3501 17.5326 17.2706 17.4997 17.1877 17.4997H15.3122Z" fill="white"/>
<path d="M19.6879 7.8121V8.43727H20.3131C20.4445 8.43727 20.5508 8.49505 20.5917 8.57677C20.6326 8.65848 20.6245 8.75101 20.6245 8.75101V22.1886C20.6245 22.331 20.5679 22.4154 20.4861 22.4562C20.4044 22.4971 20.3131 22.5 20.3131 22.5H9.6876C9.47926 22.5 9.46086 22.4434 9.42 22.3616C9.37914 22.2799 9.37617 22.1886 9.37617 22.1886H8.751C8.751 22.1886 8.74634 22.41 8.86173 22.6408C8.97713 22.8716 9.27092 23.1252 9.6876 23.1252H20.3131C20.3131 23.1252 20.5345 23.1298 20.7653 23.0145C20.9961 22.8991 21.2497 22.6536 21.2497 22.1886V8.75101C21.2497 8.75101 21.2653 8.52965 21.15 8.29886C21.0394 8.06807 20.7298 7.8121 20.3131 7.8121H19.6879Z" fill="#01081E"/>
</svg>
