<svg width="69" height="26" viewBox="0 0 69 26" fill="none" xmlns="http://www.w3.org/2000/svg">
<path d="M68 25L59.4019 18.6202C58.973 18.302 58.3115 18.2376 57.7876 18.4631L54.2938 19.9669C53.6592 20.2401 52.8482 20.0823 52.4732 19.6127L49.625 16.0463C49.273 15.6056 48.531 15.4352 47.9078 15.6519L46.8399 16.0234C46.285 16.2163 45.6255 16.1042 45.2374 15.7508L42.898 13.6204C42.4983 13.2565 41.7423 13.2816 41.3873 13.6704V13.6704C41.0447 14.0458 40.3226 14.0847 39.9111 13.7499L38.5247 12.6215C37.9049 12.1172 36.8049 12.2158 36.363 12.8153L35.1908 14.4054L33.7495 16.9619C33.4225 17.5419 32.4676 17.7551 31.7676 17.4045L30.6333 16.8364C30.0781 16.5583 29.3332 16.6282 28.8877 17.0002L27.8068 17.9025C27.1941 18.4139 26.0888 18.3236 25.6391 17.7252L23.9259 15.4461C23.8387 15.33 23.7214 15.2282 23.5807 15.1464L19.7072 12.8946C19.2587 12.6339 18.6387 12.6127 18.1602 12.8418L14.5459 14.5721C13.8079 14.9254 12.8215 14.6633 12.5488 14.0414L8.55469 4.93225C8.37448 4.52123 7.86064 4.24324 7.28114 4.24324H5.71811C5.35168 4.24324 5.00124 4.13126 4.74836 3.93336L1 1" stroke="#F13005"/>
</svg>
