<svg width="67" height="27" viewBox="0 0 67 27" fill="none" xmlns="http://www.w3.org/2000/svg">
<path d="M1 24.119L2.4082 25.3995C2.76784 25.7265 3.33672 25.6703 3.62328 25.2795L5.01658 23.379C5.32855 22.9535 5.96396 22.9318 6.30507 23.335L8.39119 25.8011C8.74498 26.2192 9.40939 26.1775 9.7063 25.7184L11.8579 22.3925C12.1869 21.8839 12.9463 21.9001 13.2527 22.4225L15.1238 25.6126C15.2696 25.8612 15.539 26.0144 15.8304 26.0144H17.1912C17.6008 26.0144 17.947 25.7152 18.0004 25.315L18.3096 22.9947C18.3472 22.7126 18.5333 22.4711 18.799 22.3596L20.8202 21.5113C21.1528 21.3717 21.5391 21.4644 21.7693 21.7392L22.5616 22.6847C22.9017 23.0907 23.5396 23.0704 23.8525 22.6436L26.8576 18.5447C26.9119 18.4707 26.953 18.388 26.9791 18.3003L29.7784 8.9017C29.8804 8.55923 30.1994 8.32402 30.5616 8.32402H30.9514C31.318 8.32402 31.6397 8.08317 31.7378 7.73516L33.1724 2.64752C33.3881 1.88288 34.4783 1.85558 34.733 2.60845L35.985 6.30841C36.2227 7.01099 37.2164 7.05017 37.5103 6.36856L38.4075 4.28837C38.6273 3.77875 39.3575 3.77074 39.5887 4.2754C39.8112 4.76108 40.5052 4.7773 40.7509 4.30258L42.1862 1.52918C42.4904 0.941498 43.3438 0.944787 43.6432 1.53479L44.7174 3.65114C44.886 3.9833 45.2636 4.15849 45.6308 4.075L47.3901 3.67507C47.6383 3.61864 47.8991 3.67966 48.095 3.84003L49.8943 5.31249C50.028 5.42191 50.1227 5.57052 50.1647 5.73669L51.8027 12.2157C51.9944 12.974 53.0603 13.0445 53.3531 12.3183L54.4602 9.57288C54.688 9.00792 55.4451 8.88674 55.8427 9.35159L56.3404 9.93353C56.4955 10.1148 56.7239 10.2194 56.9645 10.2194H59.8682C60.1303 10.2194 60.3733 10.0841 60.5085 9.86285C60.8532 9.2986 61.7189 9.42991 61.8755 10.0702L62.4562 12.4466C62.5444 12.8079 62.8725 13.0625 63.2496 13.0625H63.8301C64.2009 13.0625 64.5252 13.3089 64.6194 13.6623L66 18.8407" stroke="#F13005" stroke-linecap="round"/>
</svg>
