<svg width="68" height="34" viewBox="0 0 68 34" fill="none" xmlns="http://www.w3.org/2000/svg">
<path d="M1 30.8758H2.8626C3.10701 30.8758 3.33786 30.7413 3.48857 30.5109L4.32457 29.2333C4.61914 28.7832 5.17642 28.7433 5.51368 29.1482L7.9042 32.0187C8.0534 32.1978 8.25602 32.2984 8.46733 32.2984H11.1363C11.3048 32.2984 11.4689 32.2345 11.6049 32.1156L12.4389 31.3873C12.7708 31.0975 13.2325 31.158 13.5041 31.527L14.351 32.6775C14.6338 33.0615 15.1195 33.1091 15.4507 32.7852L19.3554 28.9663C19.6865 28.6425 20.1724 28.6901 20.4551 29.0742L21.1368 30.0002C21.4696 30.4524 22.0652 30.4251 22.3683 29.9439L23.8581 27.5785C23.964 27.4104 24.1135 27.289 24.2832 27.2334L26.8738 26.3851C27.1277 26.302 27.3309 26.0737 27.4162 25.7756L28.5822 21.7028C28.66 21.4309 28.8363 21.2156 29.0619 21.1171L30.8566 20.3336C31.0446 20.2514 31.1999 20.0875 31.2913 19.8745L31.6917 18.9421C31.9821 18.266 32.7846 18.25 33.0937 18.9142L34.6763 22.3161C34.8716 22.7359 35.2977 22.9157 35.6696 22.7352L38.3279 21.4455C38.5527 21.3364 38.7237 21.1104 38.7921 20.8316L40.9138 12.1855C41.0335 11.6978 41.452 11.4087 41.8646 11.5288L42.9898 11.8563C43.3342 11.9566 43.6924 11.7719 43.8681 11.4035L45.1668 8.68169C45.4019 8.18884 45.9429 8.05029 46.3259 8.38478L46.7718 8.77412C47.0161 8.98748 47.3618 8.88931 47.5001 8.56735V8.56735C47.6634 8.18715 48.0997 8.13481 48.3228 8.46868L49.7567 10.6153C50.1562 11.2133 50.952 11.0306 51.1385 10.2981L52.878 3.46222C53.0181 2.91167 53.5311 2.63472 53.9685 2.87346L55.8962 3.92552C56.1994 4.09102 56.5567 4.01261 56.7911 3.72912L58.8148 1.28218C58.9642 1.1016 59.1676 1 59.3799 1H62.3157C62.6716 1 62.9843 1.28323 63.081 1.69335L63.8827 5.09441C64.0657 5.87046 64.9214 6.03971 65.3032 5.37538L67 2.42266" stroke="#1ABC7B" stroke-linecap="round"/>
</svg>
