<svg width="68" height="26" viewBox="0 0 68 26" fill="none" xmlns="http://www.w3.org/2000/svg">
<path d="M1 23.3737H2.82372C3.17746 23.3737 3.48814 23.1427 3.58435 22.808L4.70092 18.924C4.89493 18.2492 5.82721 18.1523 6.16043 18.7724L7.82339 21.8669C7.84874 21.9141 7.86907 21.9637 7.88408 22.0149L8.44986 23.9472C8.62691 24.5518 9.42326 24.7097 9.82487 24.22L12.2123 21.308C12.6022 20.8324 13.372 20.9646 13.5749 21.5418L14.606 24.4763C14.7701 24.9436 15.3306 25.1433 15.7612 24.888L17.0427 24.1282C17.236 24.0136 17.3702 23.8233 17.4116 23.6052L20.3993 7.84961C20.514 7.24446 21.3554 7.14896 21.6074 7.71248V7.71248C21.8303 8.2109 22.5496 8.2109 22.7725 7.71248L23.3949 6.32055C23.5212 6.0384 23.805 5.85624 24.1186 5.85624H26.2684C26.6054 5.85624 26.9054 5.6461 27.0155 5.33289L28.354 1.5234C28.6132 0.785619 29.6932 0.842079 29.8714 1.60273L30.3928 3.82855C30.5569 4.52926 31.5178 4.65378 31.861 4.01883L31.902 3.94306C32.2441 3.31022 33.201 3.43127 33.3691 4.12862L35.1883 11.679C35.2607 11.9797 35.5075 12.2096 35.8167 12.2645L36.5768 12.3997C36.7966 12.4389 36.9894 12.5676 37.1073 12.7541L37.9804 14.1346C38.3092 14.6545 39.0921 14.6137 39.3632 14.0626L40.1026 12.5596C40.1347 12.4943 40.1574 12.4249 40.1699 12.3535L40.9106 8.13763C41.0177 7.52826 41.7707 7.28001 42.2298 7.70273L43.8498 9.19432C44.2257 9.5405 44.8327 9.44632 45.0819 9.00309L45.4299 8.38394C45.747 7.82007 46.5841 7.85857 46.8462 8.44905L48.6045 12.4106C48.6194 12.4443 48.6319 12.4789 48.6419 12.5144L49.9395 17.1306C50.1487 17.8748 51.2142 17.8961 51.454 17.161L52.9746 12.5007C53.124 12.043 53.671 11.8451 54.0865 12.0985V12.0985C54.4216 12.3028 54.8603 12.2178 55.0915 11.9038L58.3007 7.5448C58.6613 7.05499 59.4278 7.13992 59.6685 7.69638L60.297 9.1498C60.5107 9.64408 61.158 9.78123 61.5599 9.41726L61.8438 9.16021C62.3131 8.73516 63.0749 9.00395 63.1623 9.62543L63.6054 12.7782C63.7245 13.6255 64.9454 13.6894 65.1554 12.8594L67 5.56906" stroke="#1ABC7B" stroke-linecap="round"/>
</svg>
