<svg width="240" height="240" viewBox="0 0 240 240" fill="none" xmlns="http://www.w3.org/2000/svg">
<rect width="240" height="240" fill="white"/>
<rect x="66.6367" y="12" width="6.45455" height="6.45455" fill="black"/>
<rect x="86" y="12" width="6.45455" height="6.45455" fill="black"/>
<rect x="92.4541" y="12" width="6.45455" height="6.45455" fill="black"/>
<rect x="118.272" y="12" width="6.45455" height="6.45455" fill="black"/>
<rect x="131.182" y="12" width="6.45455" height="6.45455" fill="black"/>
<rect x="137.637" y="12" width="6.45455" height="6.45455" fill="black"/>
<rect x="144.091" y="12" width="6.45455" height="6.45455" fill="black"/>
<rect x="163.454" y="12" width="6.45455" height="6.45455" fill="black"/>
<rect x="66.6367" y="18.4546" width="6.45455" height="6.45455" fill="black"/>
<rect x="73.0908" y="18.4546" width="6.45455" height="6.45455" fill="black"/>
<rect x="105.363" y="18.4546" width="6.45455" height="6.45455" fill="black"/>
<rect x="118.272" y="18.4546" width="6.45455" height="6.45455" fill="black"/>
<rect x="124.728" y="18.4546" width="6.45455" height="6.45455" fill="black"/>
<rect x="131.182" y="18.4546" width="6.45455" height="6.45455" fill="black"/>
<rect x="144.091" y="18.4546" width="6.45455" height="6.45455" fill="black"/>
<rect x="150.546" y="18.4546" width="6.45455" height="6.45455" fill="black"/>
<rect x="157" y="18.4546" width="6.45455" height="6.45455" fill="black"/>
<rect x="163.454" y="18.4546" width="6.45455" height="6.45455" fill="black"/>
<rect x="169.909" y="18.4546" width="6.45455" height="6.45455" fill="black"/>
<rect x="92.4541" y="24.9091" width="6.45455" height="6.45455" fill="black"/>
<rect x="98.9092" y="24.9091" width="6.45455" height="6.45455" fill="black"/>
<rect x="105.363" y="24.9091" width="6.45455" height="6.45455" fill="black"/>
<rect x="111.818" y="24.9091" width="6.45455" height="6.45455" fill="black"/>
<rect x="131.182" y="24.9091" width="6.45455" height="6.45455" fill="black"/>
<rect x="144.091" y="24.9091" width="6.45455" height="6.45455" fill="black"/>
<rect x="169.909" y="24.9091" width="6.45455" height="6.45455" fill="black"/>
<rect x="66.6367" y="31.3636" width="6.45455" height="6.45455" fill="black"/>
<rect x="73.0908" y="31.3636" width="6.45455" height="6.45455" fill="black"/>
<rect x="86" y="31.3636" width="6.45455" height="6.45455" fill="black"/>
<rect x="124.728" y="31.3636" width="6.45455" height="6.45455" fill="black"/>
<rect x="131.182" y="31.3636" width="6.45455" height="6.45455" fill="black"/>
<rect x="137.637" y="31.3636" width="6.45455" height="6.45455" fill="black"/>
<rect x="157" y="31.3636" width="6.45455" height="6.45455" fill="black"/>
<rect x="169.909" y="31.3636" width="6.45455" height="6.45455" fill="black"/>
<rect x="79.5459" y="37.8182" width="6.45455" height="6.45455" fill="black"/>
<rect x="86" y="37.8182" width="6.45455" height="6.45455" fill="black"/>
<rect x="98.9092" y="37.8182" width="6.45455" height="6.45455" fill="black"/>
<rect x="118.272" y="37.8182" width="6.45455" height="6.45455" fill="black"/>
<rect x="124.728" y="37.8182" width="6.45455" height="6.45455" fill="black"/>
<rect x="131.182" y="37.8182" width="6.45455" height="6.45455" fill="black"/>
<rect x="137.637" y="37.8182" width="6.45455" height="6.45455" fill="black"/>
<rect x="169.909" y="37.8182" width="6.45455" height="6.45455" fill="black"/>
<rect x="79.5459" y="44.2727" width="6.45455" height="6.45455" fill="black"/>
<rect x="86" y="44.2727" width="6.45455" height="6.45455" fill="black"/>
<rect x="92.4541" y="44.2727" width="6.45455" height="6.45455" fill="black"/>
<rect x="98.9092" y="44.2727" width="6.45455" height="6.45455" fill="black"/>
<rect x="105.363" y="44.2727" width="6.45455" height="6.45455" fill="black"/>
<rect x="111.818" y="44.2727" width="6.45455" height="6.45455" fill="black"/>
<rect x="118.272" y="44.2727" width="6.45455" height="6.45455" fill="black"/>
<rect x="131.182" y="44.2727" width="6.45455" height="6.45455" fill="black"/>
<rect x="137.637" y="44.2727" width="6.45455" height="6.45455" fill="black"/>
<rect x="144.091" y="44.2727" width="6.45455" height="6.45455" fill="black"/>
<rect x="150.546" y="44.2727" width="6.45455" height="6.45455" fill="black"/>
<rect x="66.6367" y="50.7273" width="6.45455" height="6.45455" fill="black"/>
<rect x="79.5459" y="50.7273" width="6.45455" height="6.45455" fill="black"/>
<rect x="92.4541" y="50.7273" width="6.45455" height="6.45455" fill="black"/>
<rect x="105.363" y="50.7273" width="6.45455" height="6.45455" fill="black"/>
<rect x="118.272" y="50.7273" width="6.45455" height="6.45455" fill="black"/>
<rect x="131.182" y="50.7273" width="6.45455" height="6.45455" fill="black"/>
<rect x="144.091" y="50.7273" width="6.45455" height="6.45455" fill="black"/>
<rect x="157" y="50.7273" width="6.45455" height="6.45455" fill="black"/>
<rect x="169.909" y="50.7273" width="6.45455" height="6.45455" fill="black"/>
<rect x="66.6367" y="57.1818" width="6.45455" height="6.45455" fill="black"/>
<rect x="73.0908" y="57.1818" width="6.45455" height="6.45455" fill="black"/>
<rect x="79.5459" y="57.1818" width="6.45455" height="6.45455" fill="black"/>
<rect x="111.818" y="57.1818" width="6.45455" height="6.45455" fill="black"/>
<rect x="118.272" y="57.1818" width="6.45455" height="6.45455" fill="black"/>
<rect x="124.728" y="57.1818" width="6.45455" height="6.45455" fill="black"/>
<rect x="131.182" y="57.1818" width="6.45455" height="6.45455" fill="black"/>
<rect x="137.637" y="57.1818" width="6.45455" height="6.45455" fill="black"/>
<rect x="169.909" y="57.1818" width="6.45455" height="6.45455" fill="black"/>
<rect x="15" y="63.6364" width="6.45455" height="6.45455" fill="black"/>
<rect x="27.9092" y="63.6364" width="6.45455" height="6.45455" fill="black"/>
<rect x="34.3633" y="63.6364" width="6.45455" height="6.45455" fill="black"/>
<rect x="47.2725" y="63.6364" width="6.45455" height="6.45455" fill="black"/>
<rect x="53.7275" y="63.6364" width="6.45455" height="6.45455" fill="black"/>
<rect x="60.1816" y="63.6364" width="6.45455" height="6.45455" fill="black"/>
<rect x="92.4541" y="63.6364" width="6.45455" height="6.45455" fill="black"/>
<rect x="105.363" y="63.6364" width="6.45455" height="6.45455" fill="black"/>
<rect x="111.818" y="63.6364" width="6.45455" height="6.45455" fill="black"/>
<rect x="118.272" y="63.6364" width="6.45455" height="6.45455" fill="black"/>
<rect x="124.728" y="63.6364" width="6.45455" height="6.45455" fill="black"/>
<rect x="131.182" y="63.6364" width="6.45455" height="6.45455" fill="black"/>
<rect x="137.637" y="63.6364" width="6.45455" height="6.45455" fill="black"/>
<rect x="150.546" y="63.6364" width="6.45455" height="6.45455" fill="black"/>
<rect x="182.818" y="63.6364" width="6.45455" height="6.45455" fill="black"/>
<rect x="202.182" y="63.6364" width="6.45455" height="6.45455" fill="black"/>
<rect x="215.091" y="63.6364" width="6.45455" height="6.45455" fill="black"/>
<rect x="221.546" y="63.6364" width="6.45455" height="6.45455" fill="black"/>
<rect x="15" y="70.0909" width="6.45455" height="6.45455" fill="black"/>
<rect x="27.9092" y="70.0909" width="6.45455" height="6.45455" fill="black"/>
<rect x="34.3633" y="70.0909" width="6.45455" height="6.45455" fill="black"/>
<rect x="40.8184" y="70.0909" width="6.45455" height="6.45455" fill="black"/>
<rect x="47.2725" y="70.0909" width="6.45455" height="6.45455" fill="black"/>
<rect x="66.6367" y="70.0909" width="6.45455" height="6.45455" fill="black"/>
<rect x="73.0908" y="70.0909" width="6.45455" height="6.45455" fill="black"/>
<rect x="86" y="70.0909" width="6.45455" height="6.45455" fill="black"/>
<rect x="98.9092" y="70.0909" width="6.45455" height="6.45455" fill="black"/>
<rect x="124.728" y="70.0909" width="6.45455" height="6.45455" fill="black"/>
<rect x="137.637" y="70.0909" width="6.45455" height="6.45455" fill="black"/>
<rect x="144.091" y="70.0909" width="6.45455" height="6.45455" fill="black"/>
<rect x="163.454" y="70.0909" width="6.45455" height="6.45455" fill="black"/>
<rect x="182.818" y="70.0909" width="6.45455" height="6.45455" fill="black"/>
<rect x="189.272" y="70.0909" width="6.45455" height="6.45455" fill="black"/>
<rect x="202.182" y="70.0909" width="6.45455" height="6.45455" fill="black"/>
<rect x="208.637" y="70.0909" width="6.45455" height="6.45455" fill="black"/>
<rect x="215.091" y="70.0909" width="6.45455" height="6.45455" fill="black"/>
<rect x="221.546" y="70.0909" width="6.45455" height="6.45455" fill="black"/>
<rect x="40.8184" y="76.5454" width="6.45455" height="6.45455" fill="black"/>
<rect x="53.7275" y="76.5454" width="6.45455" height="6.45455" fill="black"/>
<rect x="60.1816" y="76.5454" width="6.45455" height="6.45455" fill="black"/>
<rect x="86" y="76.5454" width="6.45455" height="6.45455" fill="black"/>
<rect x="98.9092" y="76.5454" width="6.45455" height="6.45455" fill="black"/>
<rect x="124.728" y="76.5454" width="6.45455" height="6.45455" fill="black"/>
<rect x="131.182" y="76.5454" width="6.45455" height="6.45455" fill="black"/>
<rect x="144.091" y="76.5454" width="6.45455" height="6.45455" fill="black"/>
<rect x="157" y="76.5454" width="6.45455" height="6.45455" fill="black"/>
<rect x="163.454" y="76.5454" width="6.45455" height="6.45455" fill="black"/>
<rect x="169.909" y="76.5454" width="6.45455" height="6.45455" fill="black"/>
<rect x="176.363" y="76.5454" width="6.45455" height="6.45455" fill="black"/>
<rect x="189.272" y="76.5454" width="6.45455" height="6.45455" fill="black"/>
<rect x="195.728" y="76.5454" width="6.45455" height="6.45455" fill="black"/>
<rect x="202.182" y="76.5454" width="6.45455" height="6.45455" fill="black"/>
<rect x="215.091" y="76.5454" width="6.45455" height="6.45455" fill="black"/>
<rect x="221.546" y="76.5454" width="6.45455" height="6.45455" fill="black"/>
<rect x="15" y="83" width="6.45455" height="6.45455" fill="black"/>
<rect x="21.4541" y="83" width="6.45455" height="6.45455" fill="black"/>
<rect x="34.3633" y="83" width="6.45455" height="6.45455" fill="black"/>
<rect x="73.0908" y="83" width="6.45455" height="6.45455" fill="black"/>
<rect x="86" y="83" width="6.45455" height="6.45455" fill="black"/>
<rect x="92.4541" y="83" width="6.45455" height="6.45455" fill="black"/>
<rect x="111.818" y="83" width="6.45455" height="6.45455" fill="black"/>
<rect x="118.272" y="83" width="6.45455" height="6.45455" fill="black"/>
<rect x="131.182" y="83" width="6.45455" height="6.45455" fill="black"/>
<rect x="144.091" y="83" width="6.45455" height="6.45455" fill="black"/>
<rect x="157" y="83" width="6.45455" height="6.45455" fill="black"/>
<rect x="169.909" y="83" width="6.45455" height="6.45455" fill="black"/>
<rect x="182.818" y="83" width="6.45455" height="6.45455" fill="black"/>
<rect x="189.272" y="83" width="6.45455" height="6.45455" fill="black"/>
<rect x="202.182" y="83" width="6.45455" height="6.45455" fill="black"/>
<rect x="221.546" y="83" width="6.45455" height="6.45455" fill="black"/>
<rect x="34.3633" y="89.4546" width="6.45455" height="6.45455" fill="black"/>
<rect x="53.7275" y="89.4546" width="6.45455" height="6.45455" fill="black"/>
<rect x="86" y="89.4546" width="6.45455" height="6.45455" fill="black"/>
<rect x="105.363" y="89.4546" width="6.45455" height="6.45455" fill="black"/>
<rect x="111.818" y="89.4546" width="6.45455" height="6.45455" fill="black"/>
<rect x="118.272" y="89.4546" width="6.45455" height="6.45455" fill="black"/>
<rect x="124.728" y="89.4546" width="6.45455" height="6.45455" fill="black"/>
<rect x="131.182" y="89.4546" width="6.45455" height="6.45455" fill="black"/>
<rect x="137.637" y="89.4546" width="6.45455" height="6.45455" fill="black"/>
<rect x="157" y="89.4546" width="6.45455" height="6.45455" fill="black"/>
<rect x="163.454" y="89.4546" width="6.45455" height="6.45455" fill="black"/>
<rect x="169.909" y="89.4546" width="6.45455" height="6.45455" fill="black"/>
<rect x="176.363" y="89.4546" width="6.45455" height="6.45455" fill="black"/>
<rect x="189.272" y="89.4546" width="6.45455" height="6.45455" fill="black"/>
<rect x="195.728" y="89.4546" width="6.45455" height="6.45455" fill="black"/>
<rect x="202.182" y="89.4546" width="6.45455" height="6.45455" fill="black"/>
<rect x="221.546" y="89.4546" width="6.45455" height="6.45455" fill="black"/>
<rect x="40.8184" y="95.9091" width="6.45455" height="6.45455" fill="black"/>
<rect x="79.5459" y="95.9091" width="6.45455" height="6.45455" fill="black"/>
<rect x="98.9092" y="95.9091" width="6.45455" height="6.45455" fill="black"/>
<rect x="105.363" y="95.9091" width="6.45455" height="6.45455" fill="black"/>
<rect x="124.728" y="95.9091" width="6.45455" height="6.45455" fill="black"/>
<rect x="131.182" y="95.9091" width="6.45455" height="6.45455" fill="black"/>
<rect x="137.637" y="95.9091" width="6.45455" height="6.45455" fill="black"/>
<rect x="150.546" y="95.9091" width="6.45455" height="6.45455" fill="black"/>
<rect x="169.909" y="95.9091" width="6.45455" height="6.45455" fill="black"/>
<rect x="176.363" y="95.9091" width="6.45455" height="6.45455" fill="black"/>
<rect x="215.091" y="95.9091" width="6.45455" height="6.45455" fill="black"/>
<rect x="27.9092" y="102.364" width="6.45455" height="6.45455" fill="black"/>
<rect x="34.3633" y="102.364" width="6.45455" height="6.45455" fill="black"/>
<rect x="40.8184" y="102.364" width="6.45455" height="6.45455" fill="black"/>
<rect x="53.7275" y="102.364" width="6.45455" height="6.45455" fill="black"/>
<rect x="66.6367" y="102.364" width="6.45455" height="6.45455" fill="black"/>
<rect x="79.5459" y="102.364" width="6.45455" height="6.45455" fill="black"/>
<rect x="92.4541" y="102.364" width="6.45455" height="6.45455" fill="black"/>
<rect x="98.9092" y="102.364" width="6.45455" height="6.45455" fill="black"/>
<rect x="105.363" y="102.364" width="6.45455" height="6.45455" fill="black"/>
<rect x="131.182" y="102.364" width="6.45455" height="6.45455" fill="black"/>
<rect x="137.637" y="102.364" width="6.45455" height="6.45455" fill="black"/>
<rect x="144.091" y="102.364" width="6.45455" height="6.45455" fill="black"/>
<rect x="150.546" y="102.364" width="6.45455" height="6.45455" fill="black"/>
<rect x="182.818" y="102.364" width="6.45455" height="6.45455" fill="black"/>
<rect x="189.272" y="102.364" width="6.45455" height="6.45455" fill="black"/>
<rect x="195.728" y="102.364" width="6.45455" height="6.45455" fill="black"/>
<rect x="202.182" y="102.364" width="6.45455" height="6.45455" fill="black"/>
<rect x="27.9092" y="108.818" width="6.45455" height="6.45455" fill="black"/>
<rect x="34.3633" y="108.818" width="6.45455" height="6.45455" fill="black"/>
<rect x="40.8184" y="108.818" width="6.45455" height="6.45455" fill="black"/>
<rect x="47.2725" y="108.818" width="6.45455" height="6.45455" fill="black"/>
<rect x="66.6367" y="108.818" width="6.45455" height="6.45455" fill="black"/>
<rect x="98.9092" y="108.818" width="6.45455" height="6.45455" fill="black"/>
<rect x="105.363" y="108.818" width="6.45455" height="6.45455" fill="black"/>
<rect x="111.818" y="108.818" width="6.45455" height="6.45455" fill="black"/>
<rect x="131.182" y="108.818" width="6.45455" height="6.45455" fill="black"/>
<rect x="150.546" y="108.818" width="6.45455" height="6.45455" fill="black"/>
<rect x="157" y="108.818" width="6.45455" height="6.45455" fill="black"/>
<rect x="176.363" y="108.818" width="6.45455" height="6.45455" fill="black"/>
<rect x="182.818" y="108.818" width="6.45455" height="6.45455" fill="black"/>
<rect x="202.182" y="108.818" width="6.45455" height="6.45455" fill="black"/>
<rect x="208.637" y="108.818" width="6.45455" height="6.45455" fill="black"/>
<rect x="15" y="115.273" width="6.45455" height="6.45455" fill="black"/>
<rect x="21.4541" y="115.273" width="6.45455" height="6.45455" fill="black"/>
<rect x="34.3633" y="115.273" width="6.45455" height="6.45455" fill="black"/>
<rect x="40.8184" y="115.273" width="6.45455" height="6.45455" fill="black"/>
<rect x="53.7275" y="115.273" width="6.45455" height="6.45455" fill="black"/>
<rect x="60.1816" y="115.273" width="6.45455" height="6.45455" fill="black"/>
<rect x="66.6367" y="115.273" width="6.45455" height="6.45455" fill="black"/>
<rect x="73.0908" y="115.273" width="6.45455" height="6.45455" fill="black"/>
<rect x="79.5459" y="115.273" width="6.45455" height="6.45455" fill="black"/>
<rect x="92.4541" y="115.273" width="6.45455" height="6.45455" fill="black"/>
<rect x="118.272" y="115.273" width="6.45455" height="6.45455" fill="black"/>
<rect x="144.091" y="115.273" width="6.45455" height="6.45455" fill="black"/>
<rect x="150.546" y="115.273" width="6.45455" height="6.45455" fill="black"/>
<rect x="157" y="115.273" width="6.45455" height="6.45455" fill="black"/>
<rect x="163.454" y="115.273" width="6.45455" height="6.45455" fill="black"/>
<rect x="176.363" y="115.273" width="6.45455" height="6.45455" fill="black"/>
<rect x="182.818" y="115.273" width="6.45455" height="6.45455" fill="black"/>
<rect x="195.728" y="115.273" width="6.45455" height="6.45455" fill="black"/>
<rect x="202.182" y="115.273" width="6.45455" height="6.45455" fill="black"/>
<rect x="208.637" y="115.273" width="6.45455" height="6.45455" fill="black"/>
<rect x="34.3633" y="121.727" width="6.45455" height="6.45455" fill="black"/>
<rect x="47.2725" y="121.727" width="6.45455" height="6.45455" fill="black"/>
<rect x="60.1816" y="121.727" width="6.45455" height="6.45455" fill="black"/>
<rect x="73.0908" y="121.727" width="6.45455" height="6.45455" fill="black"/>
<rect x="86" y="121.727" width="6.45455" height="6.45455" fill="black"/>
<rect x="92.4541" y="121.727" width="6.45455" height="6.45455" fill="black"/>
<rect x="98.9092" y="121.727" width="6.45455" height="6.45455" fill="black"/>
<rect x="105.363" y="121.727" width="6.45455" height="6.45455" fill="black"/>
<rect x="111.818" y="121.727" width="6.45455" height="6.45455" fill="black"/>
<rect x="150.546" y="121.727" width="6.45455" height="6.45455" fill="black"/>
<rect x="163.454" y="121.727" width="6.45455" height="6.45455" fill="black"/>
<rect x="169.909" y="121.727" width="6.45455" height="6.45455" fill="black"/>
<rect x="182.818" y="121.727" width="6.45455" height="6.45455" fill="black"/>
<rect x="195.728" y="121.727" width="6.45455" height="6.45455" fill="black"/>
<rect x="202.182" y="121.727" width="6.45455" height="6.45455" fill="black"/>
<rect x="215.091" y="121.727" width="6.45455" height="6.45455" fill="black"/>
<rect x="221.546" y="121.727" width="6.45455" height="6.45455" fill="black"/>
<rect x="15" y="128.182" width="6.45455" height="6.45455" fill="black"/>
<rect x="34.3633" y="128.182" width="6.45455" height="6.45455" fill="black"/>
<rect x="47.2725" y="128.182" width="6.45455" height="6.45455" fill="black"/>
<rect x="53.7275" y="128.182" width="6.45455" height="6.45455" fill="black"/>
<rect x="60.1816" y="128.182" width="6.45455" height="6.45455" fill="black"/>
<rect x="79.5459" y="128.182" width="6.45455" height="6.45455" fill="black"/>
<rect x="92.4541" y="128.182" width="6.45455" height="6.45455" fill="black"/>
<rect x="105.363" y="128.182" width="6.45455" height="6.45455" fill="black"/>
<rect x="111.818" y="128.182" width="6.45455" height="6.45455" fill="black"/>
<rect x="118.272" y="128.182" width="6.45455" height="6.45455" fill="black"/>
<rect x="131.182" y="128.182" width="6.45455" height="6.45455" fill="black"/>
<rect x="150.546" y="128.182" width="6.45455" height="6.45455" fill="black"/>
<rect x="189.272" y="128.182" width="6.45455" height="6.45455" fill="black"/>
<rect x="195.728" y="128.182" width="6.45455" height="6.45455" fill="black"/>
<rect x="208.637" y="128.182" width="6.45455" height="6.45455" fill="black"/>
<rect x="215.091" y="128.182" width="6.45455" height="6.45455" fill="black"/>
<rect x="15" y="134.636" width="6.45455" height="6.45455" fill="black"/>
<rect x="21.4541" y="134.636" width="6.45455" height="6.45455" fill="black"/>
<rect x="27.9092" y="134.636" width="6.45455" height="6.45455" fill="black"/>
<rect x="34.3633" y="134.636" width="6.45455" height="6.45455" fill="black"/>
<rect x="40.8184" y="134.636" width="6.45455" height="6.45455" fill="black"/>
<rect x="60.1816" y="134.636" width="6.45455" height="6.45455" fill="black"/>
<rect x="66.6367" y="134.636" width="6.45455" height="6.45455" fill="black"/>
<rect x="79.5459" y="134.636" width="6.45455" height="6.45455" fill="black"/>
<rect x="86" y="134.636" width="6.45455" height="6.45455" fill="black"/>
<rect x="98.9092" y="134.636" width="6.45455" height="6.45455" fill="black"/>
<rect x="118.272" y="134.636" width="6.45455" height="6.45455" fill="black"/>
<rect x="124.728" y="134.636" width="6.45455" height="6.45455" fill="black"/>
<rect x="131.182" y="134.636" width="6.45455" height="6.45455" fill="black"/>
<rect x="157" y="134.636" width="6.45455" height="6.45455" fill="black"/>
<rect x="163.454" y="134.636" width="6.45455" height="6.45455" fill="black"/>
<rect x="169.909" y="134.636" width="6.45455" height="6.45455" fill="black"/>
<rect x="182.818" y="134.636" width="6.45455" height="6.45455" fill="black"/>
<rect x="195.728" y="134.636" width="6.45455" height="6.45455" fill="black"/>
<rect x="27.9092" y="141.091" width="6.45455" height="6.45455" fill="black"/>
<rect x="34.3633" y="141.091" width="6.45455" height="6.45455" fill="black"/>
<rect x="40.8184" y="141.091" width="6.45455" height="6.45455" fill="black"/>
<rect x="47.2725" y="141.091" width="6.45455" height="6.45455" fill="black"/>
<rect x="53.7275" y="141.091" width="6.45455" height="6.45455" fill="black"/>
<rect x="66.6367" y="141.091" width="6.45455" height="6.45455" fill="black"/>
<rect x="73.0908" y="141.091" width="6.45455" height="6.45455" fill="black"/>
<rect x="79.5459" y="141.091" width="6.45455" height="6.45455" fill="black"/>
<rect x="98.9092" y="141.091" width="6.45455" height="6.45455" fill="black"/>
<rect x="118.272" y="141.091" width="6.45455" height="6.45455" fill="black"/>
<rect x="137.637" y="141.091" width="6.45455" height="6.45455" fill="black"/>
<rect x="150.546" y="141.091" width="6.45455" height="6.45455" fill="black"/>
<rect x="169.909" y="141.091" width="6.45455" height="6.45455" fill="black"/>
<rect x="202.182" y="141.091" width="6.45455" height="6.45455" fill="black"/>
<rect x="208.637" y="141.091" width="6.45455" height="6.45455" fill="black"/>
<rect x="215.091" y="141.091" width="6.45455" height="6.45455" fill="black"/>
<rect x="15" y="147.545" width="6.45455" height="6.45455" fill="black"/>
<rect x="34.3633" y="147.545" width="6.45455" height="6.45455" fill="black"/>
<rect x="60.1816" y="147.545" width="6.45455" height="6.45455" fill="black"/>
<rect x="92.4541" y="147.545" width="6.45455" height="6.45455" fill="black"/>
<rect x="98.9092" y="147.545" width="6.45455" height="6.45455" fill="black"/>
<rect x="111.818" y="147.545" width="6.45455" height="6.45455" fill="black"/>
<rect x="118.272" y="147.545" width="6.45455" height="6.45455" fill="black"/>
<rect x="124.728" y="147.545" width="6.45455" height="6.45455" fill="black"/>
<rect x="131.182" y="147.545" width="6.45455" height="6.45455" fill="black"/>
<rect x="137.637" y="147.545" width="6.45455" height="6.45455" fill="black"/>
<rect x="144.091" y="147.545" width="6.45455" height="6.45455" fill="black"/>
<rect x="150.546" y="147.545" width="6.45455" height="6.45455" fill="black"/>
<rect x="163.454" y="147.545" width="6.45455" height="6.45455" fill="black"/>
<rect x="182.818" y="147.545" width="6.45455" height="6.45455" fill="black"/>
<rect x="202.182" y="147.545" width="6.45455" height="6.45455" fill="black"/>
<rect x="221.546" y="147.545" width="6.45455" height="6.45455" fill="black"/>
<rect x="34.3633" y="154" width="6.45455" height="6.45455" fill="black"/>
<rect x="40.8184" y="154" width="6.45455" height="6.45455" fill="black"/>
<rect x="53.7275" y="154" width="6.45455" height="6.45455" fill="black"/>
<rect x="79.5459" y="154" width="6.45455" height="6.45455" fill="black"/>
<rect x="86" y="154" width="6.45455" height="6.45455" fill="black"/>
<rect x="92.4541" y="154" width="6.45455" height="6.45455" fill="black"/>
<rect x="111.818" y="154" width="6.45455" height="6.45455" fill="black"/>
<rect x="131.182" y="154" width="6.45455" height="6.45455" fill="black"/>
<rect x="144.091" y="154" width="6.45455" height="6.45455" fill="black"/>
<rect x="150.546" y="154" width="6.45455" height="6.45455" fill="black"/>
<rect x="163.454" y="154" width="6.45455" height="6.45455" fill="black"/>
<rect x="176.363" y="154" width="6.45455" height="6.45455" fill="black"/>
<rect x="182.818" y="154" width="6.45455" height="6.45455" fill="black"/>
<rect x="195.728" y="154" width="6.45455" height="6.45455" fill="black"/>
<rect x="202.182" y="154" width="6.45455" height="6.45455" fill="black"/>
<rect x="215.091" y="154" width="6.45455" height="6.45455" fill="black"/>
<rect x="221.546" y="154" width="6.45455" height="6.45455" fill="black"/>
<rect x="21.4541" y="160.455" width="6.45455" height="6.45455" fill="black"/>
<rect x="27.9092" y="160.455" width="6.45455" height="6.45455" fill="black"/>
<rect x="40.8184" y="160.455" width="6.45455" height="6.45455" fill="black"/>
<rect x="47.2725" y="160.455" width="6.45455" height="6.45455" fill="black"/>
<rect x="60.1816" y="160.455" width="6.45455" height="6.45455" fill="black"/>
<rect x="66.6367" y="160.455" width="6.45455" height="6.45455" fill="black"/>
<rect x="73.0908" y="160.455" width="6.45455" height="6.45455" fill="black"/>
<rect x="79.5459" y="160.455" width="6.45455" height="6.45455" fill="black"/>
<rect x="86" y="160.455" width="6.45455" height="6.45455" fill="black"/>
<rect x="105.363" y="160.455" width="6.45455" height="6.45455" fill="black"/>
<rect x="111.818" y="160.455" width="6.45455" height="6.45455" fill="black"/>
<rect x="131.182" y="160.455" width="6.45455" height="6.45455" fill="black"/>
<rect x="137.637" y="160.455" width="6.45455" height="6.45455" fill="black"/>
<rect x="157" y="160.455" width="6.45455" height="6.45455" fill="black"/>
<rect x="163.454" y="160.455" width="6.45455" height="6.45455" fill="black"/>
<rect x="176.363" y="160.455" width="6.45455" height="6.45455" fill="black"/>
<rect x="189.272" y="160.455" width="6.45455" height="6.45455" fill="black"/>
<rect x="195.728" y="160.455" width="6.45455" height="6.45455" fill="black"/>
<rect x="202.182" y="160.455" width="6.45455" height="6.45455" fill="black"/>
<rect x="221.546" y="160.455" width="6.45455" height="6.45455" fill="black"/>
<rect x="15" y="166.909" width="6.45455" height="6.45455" fill="black"/>
<rect x="27.9092" y="166.909" width="6.45455" height="6.45455" fill="black"/>
<rect x="47.2725" y="166.909" width="6.45455" height="6.45455" fill="black"/>
<rect x="53.7275" y="166.909" width="6.45455" height="6.45455" fill="black"/>
<rect x="66.6367" y="166.909" width="6.45455" height="6.45455" fill="black"/>
<rect x="92.4541" y="166.909" width="6.45455" height="6.45455" fill="black"/>
<rect x="105.363" y="166.909" width="6.45455" height="6.45455" fill="black"/>
<rect x="124.728" y="166.909" width="6.45455" height="6.45455" fill="black"/>
<rect x="144.091" y="166.909" width="6.45455" height="6.45455" fill="black"/>
<rect x="157" y="166.909" width="6.45455" height="6.45455" fill="black"/>
<rect x="169.909" y="166.909" width="6.45455" height="6.45455" fill="black"/>
<rect x="176.363" y="166.909" width="6.45455" height="6.45455" fill="black"/>
<rect x="182.818" y="166.909" width="6.45455" height="6.45455" fill="black"/>
<rect x="189.272" y="166.909" width="6.45455" height="6.45455" fill="black"/>
<rect x="195.728" y="166.909" width="6.45455" height="6.45455" fill="black"/>
<rect x="215.091" y="166.909" width="6.45455" height="6.45455" fill="black"/>
<rect x="66.6367" y="173.364" width="6.45455" height="6.45455" fill="black"/>
<rect x="79.5459" y="173.364" width="6.45455" height="6.45455" fill="black"/>
<rect x="92.4541" y="173.364" width="6.45455" height="6.45455" fill="black"/>
<rect x="98.9092" y="173.364" width="6.45455" height="6.45455" fill="black"/>
<rect x="105.363" y="173.364" width="6.45455" height="6.45455" fill="black"/>
<rect x="111.818" y="173.364" width="6.45455" height="6.45455" fill="black"/>
<rect x="118.272" y="173.364" width="6.45455" height="6.45455" fill="black"/>
<rect x="131.182" y="173.364" width="6.45455" height="6.45455" fill="black"/>
<rect x="137.637" y="173.364" width="6.45455" height="6.45455" fill="black"/>
<rect x="150.546" y="173.364" width="6.45455" height="6.45455" fill="black"/>
<rect x="163.454" y="173.364" width="6.45455" height="6.45455" fill="black"/>
<rect x="169.909" y="173.364" width="6.45455" height="6.45455" fill="black"/>
<rect x="195.728" y="173.364" width="6.45455" height="6.45455" fill="black"/>
<rect x="202.182" y="173.364" width="6.45455" height="6.45455" fill="black"/>
<rect x="215.091" y="173.364" width="6.45455" height="6.45455" fill="black"/>
<rect x="66.6367" y="179.818" width="6.45455" height="6.45455" fill="black"/>
<rect x="73.0908" y="179.818" width="6.45455" height="6.45455" fill="black"/>
<rect x="92.4541" y="179.818" width="6.45455" height="6.45455" fill="black"/>
<rect x="98.9092" y="179.818" width="6.45455" height="6.45455" fill="black"/>
<rect x="105.363" y="179.818" width="6.45455" height="6.45455" fill="black"/>
<rect x="124.728" y="179.818" width="6.45455" height="6.45455" fill="black"/>
<rect x="131.182" y="179.818" width="6.45455" height="6.45455" fill="black"/>
<rect x="137.637" y="179.818" width="6.45455" height="6.45455" fill="black"/>
<rect x="144.091" y="179.818" width="6.45455" height="6.45455" fill="black"/>
<rect x="150.546" y="179.818" width="6.45455" height="6.45455" fill="black"/>
<rect x="163.454" y="179.818" width="6.45455" height="6.45455" fill="black"/>
<rect x="169.909" y="179.818" width="6.45455" height="6.45455" fill="black"/>
<rect x="182.818" y="179.818" width="6.45455" height="6.45455" fill="black"/>
<rect x="195.728" y="179.818" width="6.45455" height="6.45455" fill="black"/>
<rect x="66.6367" y="186.273" width="6.45455" height="6.45455" fill="black"/>
<rect x="73.0908" y="186.273" width="6.45455" height="6.45455" fill="black"/>
<rect x="86" y="186.273" width="6.45455" height="6.45455" fill="black"/>
<rect x="105.363" y="186.273" width="6.45455" height="6.45455" fill="black"/>
<rect x="124.728" y="186.273" width="6.45455" height="6.45455" fill="black"/>
<rect x="131.182" y="186.273" width="6.45455" height="6.45455" fill="black"/>
<rect x="137.637" y="186.273" width="6.45455" height="6.45455" fill="black"/>
<rect x="150.546" y="186.273" width="6.45455" height="6.45455" fill="black"/>
<rect x="157" y="186.273" width="6.45455" height="6.45455" fill="black"/>
<rect x="163.454" y="186.273" width="6.45455" height="6.45455" fill="black"/>
<rect x="169.909" y="186.273" width="6.45455" height="6.45455" fill="black"/>
<rect x="195.728" y="186.273" width="6.45455" height="6.45455" fill="black"/>
<rect x="202.182" y="186.273" width="6.45455" height="6.45455" fill="black"/>
<rect x="208.637" y="186.273" width="6.45455" height="6.45455" fill="black"/>
<rect x="215.091" y="186.273" width="6.45455" height="6.45455" fill="black"/>
<rect x="92.4541" y="192.727" width="6.45455" height="6.45455" fill="black"/>
<rect x="118.272" y="192.727" width="6.45455" height="6.45455" fill="black"/>
<rect x="124.728" y="192.727" width="6.45455" height="6.45455" fill="black"/>
<rect x="131.182" y="192.727" width="6.45455" height="6.45455" fill="black"/>
<rect x="150.546" y="192.727" width="6.45455" height="6.45455" fill="black"/>
<rect x="163.454" y="192.727" width="6.45455" height="6.45455" fill="black"/>
<rect x="169.909" y="192.727" width="6.45455" height="6.45455" fill="black"/>
<rect x="176.363" y="192.727" width="6.45455" height="6.45455" fill="black"/>
<rect x="182.818" y="192.727" width="6.45455" height="6.45455" fill="black"/>
<rect x="189.272" y="192.727" width="6.45455" height="6.45455" fill="black"/>
<rect x="195.728" y="192.727" width="6.45455" height="6.45455" fill="black"/>
<rect x="208.637" y="192.727" width="6.45455" height="6.45455" fill="black"/>
<rect x="215.091" y="192.727" width="6.45455" height="6.45455" fill="black"/>
<rect x="221.546" y="192.727" width="6.45455" height="6.45455" fill="black"/>
<rect x="66.6367" y="199.182" width="6.45455" height="6.45455" fill="black"/>
<rect x="79.5459" y="199.182" width="6.45455" height="6.45455" fill="black"/>
<rect x="105.363" y="199.182" width="6.45455" height="6.45455" fill="black"/>
<rect x="118.272" y="199.182" width="6.45455" height="6.45455" fill="black"/>
<rect x="144.091" y="199.182" width="6.45455" height="6.45455" fill="black"/>
<rect x="189.272" y="199.182" width="6.45455" height="6.45455" fill="black"/>
<rect x="202.182" y="199.182" width="6.45455" height="6.45455" fill="black"/>
<rect x="208.637" y="199.182" width="6.45455" height="6.45455" fill="black"/>
<rect x="221.546" y="199.182" width="6.45455" height="6.45455" fill="black"/>
<rect x="66.6367" y="205.636" width="6.45455" height="6.45455" fill="black"/>
<rect x="73.0908" y="205.636" width="6.45455" height="6.45455" fill="black"/>
<rect x="105.363" y="205.636" width="6.45455" height="6.45455" fill="black"/>
<rect x="111.818" y="205.636" width="6.45455" height="6.45455" fill="black"/>
<rect x="118.272" y="205.636" width="6.45455" height="6.45455" fill="black"/>
<rect x="144.091" y="205.636" width="6.45455" height="6.45455" fill="black"/>
<rect x="150.546" y="205.636" width="6.45455" height="6.45455" fill="black"/>
<rect x="157" y="205.636" width="6.45455" height="6.45455" fill="black"/>
<rect x="182.818" y="205.636" width="6.45455" height="6.45455" fill="black"/>
<rect x="189.272" y="205.636" width="6.45455" height="6.45455" fill="black"/>
<rect x="202.182" y="205.636" width="6.45455" height="6.45455" fill="black"/>
<rect x="79.5459" y="212.091" width="6.45455" height="6.45455" fill="black"/>
<rect x="86" y="212.091" width="6.45455" height="6.45455" fill="black"/>
<rect x="98.9092" y="212.091" width="6.45455" height="6.45455" fill="black"/>
<rect x="124.728" y="212.091" width="6.45455" height="6.45455" fill="black"/>
<rect x="131.182" y="212.091" width="6.45455" height="6.45455" fill="black"/>
<rect x="137.637" y="212.091" width="6.45455" height="6.45455" fill="black"/>
<rect x="157" y="212.091" width="6.45455" height="6.45455" fill="black"/>
<rect x="169.909" y="212.091" width="6.45455" height="6.45455" fill="black"/>
<rect x="176.363" y="212.091" width="6.45455" height="6.45455" fill="black"/>
<rect x="189.272" y="212.091" width="6.45455" height="6.45455" fill="black"/>
<rect x="195.728" y="212.091" width="6.45455" height="6.45455" fill="black"/>
<rect x="221.546" y="212.091" width="6.45455" height="6.45455" fill="black"/>
<rect x="66.6367" y="218.545" width="6.45455" height="6.45455" fill="black"/>
<rect x="73.0908" y="218.545" width="6.45455" height="6.45455" fill="black"/>
<rect x="79.5459" y="218.545" width="6.45455" height="6.45455" fill="black"/>
<rect x="92.4541" y="218.545" width="6.45455" height="6.45455" fill="black"/>
<rect x="98.9092" y="218.545" width="6.45455" height="6.45455" fill="black"/>
<rect x="105.363" y="218.545" width="6.45455" height="6.45455" fill="black"/>
<rect x="124.728" y="218.545" width="6.45455" height="6.45455" fill="black"/>
<rect x="131.182" y="218.545" width="6.45455" height="6.45455" fill="black"/>
<rect x="144.091" y="218.545" width="6.45455" height="6.45455" fill="black"/>
<rect x="150.546" y="218.545" width="6.45455" height="6.45455" fill="black"/>
<rect x="163.454" y="218.545" width="6.45455" height="6.45455" fill="black"/>
<rect x="182.818" y="218.545" width="6.45455" height="6.45455" fill="black"/>
<rect x="195.728" y="218.545" width="6.45455" height="6.45455" fill="black"/>
<rect x="202.182" y="218.545" width="6.45455" height="6.45455" fill="black"/>
<rect x="208.637" y="218.545" width="6.45455" height="6.45455" fill="black"/>
<path fill-rule="evenodd" clip-rule="evenodd" d="M21.7773 12H53.4045H60.1818V18.7773V50.4045V57.1818H53.4045H21.7773H15V50.4045V18.7773V12H21.7773ZM21.7773 50.4045H53.4045V18.7773H21.7773V50.4045Z" fill="black"/>
<path fill-rule="evenodd" clip-rule="evenodd" d="M189.596 12H221.223H228V18.7773V50.4045V57.1818H221.223H189.596H182.818V50.4045V18.7773V12H189.596ZM189.596 50.4045H221.223V18.7773H189.596V50.4045Z" fill="black"/>
<path fill-rule="evenodd" clip-rule="evenodd" d="M21.7773 179.818H53.4045H60.1818V186.595V218.223V225H53.4045H21.7773H15V218.223V186.595V179.818H21.7773ZM21.7773 218.223H53.4045V186.595H21.7773V218.223Z" fill="black"/>
<rect x="27.9092" y="24.9091" width="19.3636" height="19.3636" fill="black"/>
<rect x="195.728" y="24.9091" width="19.3636" height="19.3636" fill="black"/>
<rect x="27.9092" y="192.727" width="19.3636" height="19.3636" fill="black"/>
</svg>
