<svg width="32" height="32" viewBox="0 0 32 32" fill="none" xmlns="http://www.w3.org/2000/svg">
<rect width="32" height="32" rx="12" fill="#0A0615"/>
<path d="M28.264 13.9282C28.0471 13.7117 27.6952 13.7117 27.4786 13.9282L26.167 15.238C25.8486 10.9346 22.7944 7.32387 18.5987 6.29078C14.4033 5.25749 10.0181 7.03645 7.7325 10.6986C7.6253 10.8665 7.61655 11.0792 7.70972 11.2555C7.80288 11.4318 7.98351 11.5448 8.18306 11.5511C8.38261 11.5576 8.57037 11.4564 8.67451 11.2864C10.691 8.05613 14.5473 6.47116 18.2566 7.34824C21.966 8.22533 24.7012 11.3685 25.0531 15.1587L23.8202 13.9282C23.6023 13.7182 23.2559 13.721 23.0415 13.9351C22.8273 14.149 22.8243 14.4949 23.0348 14.7127L25.2567 16.9312C25.4735 17.1479 25.8252 17.1479 26.0421 16.9312L28.264 14.7127C28.481 14.4962 28.481 14.1448 28.264 13.9282Z" fill="white"/>
<path d="M24.5211 20.5373C24.2608 20.3754 23.9181 20.4542 23.7549 20.7134C21.7375 23.9441 17.8794 25.529 14.168 24.6519C10.4569 23.7749 7.72052 20.6315 7.36865 16.841L8.60171 18.0718C8.81966 18.2818 9.16623 18.279 9.38073 18.0649C9.59503 17.851 9.59808 17.5051 9.38745 17.2873L7.16454 15.0688C6.9476 14.8521 6.59573 14.8521 6.37879 15.0688L4.15608 17.2873C3.94545 17.5051 3.9483 17.851 4.1628 18.0649C4.37709 18.279 4.72367 18.2818 4.94183 18.0718L6.25384 16.762C6.57253 21.0654 9.62799 24.6761 13.8255 25.7092C18.0231 26.7425 22.4101 24.9637 24.6967 21.3014C24.8591 21.042 24.7805 20.7002 24.5211 20.5373Z" fill="#00C4C3"/>
</svg>
