<svg width="13" height="14" viewBox="0 0 13 14" fill="none" xmlns="http://www.w3.org/2000/svg">
<path d="M6.3373 12.1187C3.37105 12.1187 0.956055 9.7037 0.956055 6.73745C0.956055 3.7712 3.37105 1.3562 6.3373 1.3562C9.30355 1.3562 11.7186 3.7712 11.7186 6.73745C11.7186 9.7037 9.30355 12.1187 6.3373 12.1187ZM6.3373 2.1437C3.80155 2.1437 1.74355 4.20695 1.74355 6.73745C1.74355 9.26795 3.80155 11.3312 6.3373 11.3312C8.87305 11.3312 10.9311 9.26795 10.9311 6.73745C10.9311 4.20695 8.87305 2.1437 6.3373 2.1437Z" fill="#939393"/>
<path d="M11.8502 12.6437C11.7504 12.6437 11.6507 12.6069 11.5719 12.5282L10.5219 11.4782C10.3697 11.3259 10.3697 11.0739 10.5219 10.9217C10.6742 10.7694 10.9262 10.7694 11.0784 10.9217L12.1284 11.9717C12.2807 12.1239 12.2807 12.3759 12.1284 12.5282C12.0497 12.6069 11.9499 12.6437 11.8502 12.6437Z" fill="#939393"/>
</svg>
