<svg width="15" height="16" viewBox="0 0 15 16" fill="none" xmlns="http://www.w3.org/2000/svg">
<g clip-path="url(#clip0_423_10273)">
<path d="M7.11438 2.4243C7.00011 2.37715 6.87445 2.36487 6.75322 2.38901C6.63199 2.41314 6.52062 2.47261 6.43313 2.55993L3.75 5.50118H1.875C1.53125 5.50118 1.25 5.78305 1.25 6.12618V9.87618C1.25 10.2199 1.53125 10.5012 1.875 10.5012H3.75L6.43313 13.4437C6.52057 13.5311 6.63198 13.5906 6.75326 13.6147C6.87454 13.6388 7.00024 13.6264 7.11445 13.579C7.22866 13.5316 7.32626 13.4514 7.39489 13.3486C7.46352 13.2457 7.5001 13.1248 7.5 13.0012V3.00118C7.50007 2.87764 7.46346 2.75687 7.39481 2.65417C7.32616 2.55147 7.22855 2.47146 7.11438 2.4243Z" fill="#6C757D"/>
<path d="M8.75 3.62598V4.87598C10.4731 4.87598 11.875 6.27848 11.875 8.00098C11.875 9.7241 10.4731 11.126 8.75 11.126V12.376C11.1625 12.376 13.125 10.4141 13.125 8.00098C13.125 5.5891 11.1625 3.62598 8.75 3.62598Z" fill="#00C4C3"/>
<path d="M10.625 8.00098C10.625 6.96785 9.78375 6.12598 8.75 6.12598V7.37598C9.09438 7.37598 9.375 7.6566 9.375 8.00098C9.375 8.34535 9.09438 8.62598 8.75 8.62598V9.87598C9.78375 9.87598 10.625 9.03535 10.625 8.00098Z" fill="#6C757D"/>
</g>
<defs>
<clipPath id="clip0_423_10273">
<rect width="15" height="15" fill="white" transform="translate(0 0.5)"/>
</clipPath>
</defs>
</svg>
