<svg width="24" height="24" viewBox="0 0 24 24" fill="none" xmlns="http://www.w3.org/2000/svg">
<path d="M11.7386 4.27734C11.6197 4.15852 11.4534 4.08724 11.2633 4.111L5.27519 4.80011C5.01381 4.82387 4.79994 5.03773 4.77618 5.29912L4.08707 11.2872C4.06331 11.4536 4.1346 11.6437 4.25341 11.7625L12.2613 19.7229C12.3801 19.8417 12.5227 19.8892 12.6653 19.8892C12.8079 19.8892 12.9504 19.8417 13.0693 19.7229L19.7227 13.0694C19.8178 12.9506 19.8891 12.808 19.8891 12.6655C19.8891 12.5229 19.8415 12.3565 19.7227 12.2615L11.7386 4.27734ZM5.86925 5.86941L11.1207 5.27535L16.5623 10.7169L10.7168 16.5625L5.27519 11.1209L5.86925 5.86941ZM12.6653 18.5348L11.5247 17.3942L17.394 11.5249L18.5346 12.6655L12.6653 18.5348Z" fill="white"/>
<path d="M11.3111 9.12478C11.3111 8.55448 11.0972 8.00795 10.6695 7.60399C10.2655 7.20003 9.719 6.9624 9.1487 6.9624C8.57841 6.9624 8.03187 7.17626 7.62791 7.60399C6.77247 8.45943 6.77247 9.81389 7.62791 10.6693C8.03187 11.0733 8.57841 11.3109 9.1487 11.3109C9.719 11.3109 10.2655 11.0971 10.6695 10.6693C11.0735 10.2654 11.3111 9.71884 11.3111 9.12478ZM9.86158 9.86141C9.48138 10.2416 8.79227 10.2416 8.41207 9.86141C8.00811 9.45745 8.00811 8.81587 8.41207 8.41191C8.60217 8.22181 8.86356 8.103 9.1487 8.103C9.43385 8.103 9.67148 8.19805 9.88534 8.41191C10.0754 8.60201 10.1942 8.86339 10.1942 9.14854C10.1705 9.40993 10.0517 9.67131 9.86158 9.86141Z" fill="#00C4C3"/>
</svg>
