<svg width="102" height="104" viewBox="0 0 102 104" fill="none" xmlns="http://www.w3.org/2000/svg">
<path d="M2.47352 51.1405H4.94805V48.6659C4.94805 48.0097 5.20876 47.3802 5.67282 46.9162C6.13689 46.4521 6.7663 46.1914 7.42259 46.1914C8.07887 46.1914 8.70828 46.4521 9.17235 46.9162C9.63641 47.3802 9.89712 48.0097 9.89712 48.6659V51.1405H12.3717C13.0279 51.1405 13.6574 51.4012 14.1214 51.8653C14.5855 52.3293 14.8462 52.9587 14.8462 53.615C14.8462 54.2713 14.5855 54.9007 14.1214 55.3648C13.6574 55.8288 13.0279 56.0895 12.3717 56.0895H9.89712V58.5641C9.89712 59.2204 9.63641 59.8498 9.17235 60.3138C8.70828 60.7779 8.07887 61.0386 7.42259 61.0386C6.7663 61.0386 6.13689 60.7779 5.67282 60.3138C5.20876 59.8498 4.94805 59.2204 4.94805 58.5641V56.0895H2.47352C1.81723 56.0895 1.18782 55.8288 0.723753 55.3648C0.259687 54.9007 -0.00102043 54.2713 -0.00102043 53.615C-0.00102043 52.9587 0.259687 52.3293 0.723753 51.8653C1.18782 51.4012 1.81723 51.1405 2.47352 51.1405Z" fill="url(#paint0_linear_423_10494)"/>
<path d="M4.12293 4.94907H6.59746V2.47454C6.59746 1.81825 6.85817 1.18884 7.32224 0.724775C7.7863 0.260709 8.41571 0 9.072 0C9.72829 0 10.3577 0.260709 10.8218 0.724775C11.2858 1.18884 11.5465 1.81825 11.5465 2.47454V4.94907H14.0211C14.6774 4.94907 15.3068 5.20978 15.7708 5.67385C16.2349 6.13791 16.4956 6.76732 16.4956 7.42361C16.4956 8.07989 16.2349 8.7093 15.7708 9.17337C15.3068 9.63743 14.6774 9.89814 14.0211 9.89814H11.5465V12.3727C11.5465 13.029 11.2858 13.6584 10.8218 14.1224C10.3577 14.5865 9.72829 14.8472 9.072 14.8472C8.41571 14.8472 7.7863 14.5865 7.32224 14.1224C6.85817 13.6584 6.59746 13.029 6.59746 12.3727V9.89814H4.12293C3.46664 9.89814 2.83723 9.63743 2.37317 9.17337C1.9091 8.7093 1.64839 8.07989 1.64839 7.42361C1.64839 6.76732 1.9091 6.13791 2.37317 5.67385C2.83723 5.20978 3.46664 4.94907 4.12293 4.94907Z" fill="url(#paint1_linear_423_10494)"/>
<path d="M56.9135 21.4461H59.388V18.9716C59.388 18.3153 59.6487 17.6859 60.1128 17.2218C60.5768 16.7578 61.2062 16.4971 61.8625 16.4971C62.5188 16.4971 63.1482 16.7578 63.6123 17.2218C64.0764 17.6859 64.3371 18.3153 64.3371 18.9716V21.4461H66.8116C67.4679 21.4461 68.0973 21.7068 68.5614 22.1709C69.0254 22.635 69.2861 23.2644 69.2861 23.9207C69.2861 24.577 69.0254 25.2064 68.5614 25.6704C68.0973 26.1345 67.4679 26.3952 66.8116 26.3952H64.3371V28.8697C64.3371 29.526 64.0764 30.1554 63.6123 30.6195C63.1482 31.0836 62.5188 31.3443 61.8625 31.3443C61.2062 31.3443 60.5768 31.0836 60.1128 30.6195C59.6487 30.1554 59.388 29.526 59.388 28.8697V26.3952H56.9135C56.2572 26.3952 55.6278 26.1345 55.1637 25.6704C54.6996 25.2064 54.4389 24.577 54.4389 23.9207C54.4389 23.2644 54.6996 22.635 55.1637 22.1709C55.6278 21.7068 56.2572 21.4461 56.9135 21.4461Z" fill="url(#paint2_linear_423_10494)"/>
<path d="M34.6427 23.509C29.4039 23.509 25.157 19.2621 25.157 14.0233C25.157 8.7845 29.4039 4.5376 34.6427 4.5376C39.8815 4.5376 44.1284 8.7845 44.1284 14.0233C44.1284 19.2621 39.8815 23.509 34.6427 23.509Z" fill="url(#paint3_linear_423_10494)"/>
<path d="M28.0434 23.9199H41.2409C43.2091 23.9221 45.0961 24.7049 46.4878 26.0967C47.8795 27.4884 48.6624 29.3753 48.6646 31.3435V46.1907C48.6646 46.847 48.4038 47.4764 47.9398 47.9405C47.4757 48.4046 46.8463 48.6653 46.19 48.6653H23.0944C22.4381 48.6653 21.8087 48.4046 21.3446 47.9405C20.8805 47.4764 20.6198 46.847 20.6198 46.1907V31.3435C20.622 29.3753 21.4048 27.4884 22.7966 26.0967C24.1883 24.7049 26.0752 23.9221 28.0434 23.9199Z" fill="url(#paint4_linear_423_10494)"/>
<path d="M26.3189 9.34585C27.4156 7.15238 29.7499 4.53762 34.6428 4.53762H47.8307C48.1583 4.53574 48.4733 4.66358 48.7069 4.8932C48.9405 5.12282 49.0738 5.43557 49.0776 5.76313C49.0853 11.5488 43.5194 12.2947 43.2831 12.3736C43.1568 12.4158 43.0245 12.4372 42.8913 12.4372L30.5186 12.3736L28.8689 20.1478C28.8691 20.3229 28.8135 20.4935 28.7103 20.6349C28.607 20.7764 28.4615 20.8813 28.2946 20.9345C28.1278 20.9876 27.9484 20.9864 27.7823 20.9308C27.6163 20.8752 27.4722 20.7683 27.371 20.6254C26.34 19.1786 25.1571 16.8666 25.1571 14.0233C25.2106 12.3997 25.6065 10.8058 26.3189 9.34585Z" fill="url(#paint5_linear_423_10494)"/>
<path d="M32.168 68.4624C32.168 67.1498 32.6894 65.891 33.6175 64.9628C34.5457 64.0347 35.8045 63.5133 37.1171 63.5133H55.2637V52.1717C55.2637 49.0863 55.2637 42.9353 63.3579 42.1498C63.5866 42.1283 63.8173 42.1549 64.0353 42.2277C64.2532 42.3006 64.4534 42.4182 64.6233 42.5729C64.7931 42.7277 64.9287 42.9162 65.0215 43.1265C65.1142 43.3367 65.162 43.564 65.1618 43.7937V55.0042C65.1618 55.3094 65.2466 55.6087 65.4066 55.8686L70.1109 63.5133H69.9047L80.009 70.1121L81.6587 83.3096L80.009 96.5071C80.009 98.2572 79.3138 99.9356 78.0763 101.173C76.8388 102.411 75.1603 103.106 73.4102 103.106H40.4164C39.1039 103.106 37.8451 102.584 36.9169 101.656C35.9888 100.728 35.4674 99.4694 35.4674 98.1568C35.4674 96.8442 35.9888 95.5854 36.9169 94.6573C37.8451 93.7291 39.1039 93.2077 40.4164 93.2077H38.7668C37.4542 93.2077 36.1954 92.6863 35.2672 91.7582C34.3391 90.83 33.8177 89.5712 33.8177 88.2586C33.8177 86.9461 34.3391 85.6873 35.2672 84.7591C36.1954 83.831 37.4542 83.3096 38.7668 83.3096H37.1171C35.8045 83.3096 34.5457 82.7882 33.6175 81.86C32.6894 80.9319 32.168 79.6731 32.168 78.3605C32.168 77.0479 32.6894 75.7891 33.6175 74.861C34.5457 73.9329 35.8045 73.4114 37.1171 73.4114C35.8045 73.4114 34.5457 72.89 33.6175 71.9619C32.6894 71.0338 32.168 69.7749 32.168 68.4624Z" fill="url(#paint6_linear_423_10494)"/>
<path d="M82.4836 63.5132H98.9805C100.347 63.5132 101.455 64.6211 101.455 65.9877V100.631C101.455 101.998 100.347 103.106 98.9805 103.106H82.4836C81.117 103.106 80.0091 101.998 80.0091 100.631V65.9877C80.0091 64.6211 81.117 63.5132 82.4836 63.5132Z" fill="url(#paint7_linear_423_10494)"/>
<path d="M90.732 99.1874C89.3654 99.1874 88.2575 98.0795 88.2575 96.7128C88.2575 95.3462 89.3654 94.2383 90.732 94.2383C92.0987 94.2383 93.2065 95.3462 93.2065 96.7128C93.2065 98.0795 92.0987 99.1874 90.732 99.1874Z" fill="#BFE8E5"/>
<defs>
<linearGradient id="paint0_linear_423_10494" x1="14.8462" y1="53.615" x2="-0.00101948" y2="53.615" gradientUnits="userSpaceOnUse">
<stop offset="0.011" stop-color="#FAD46A"/>
<stop offset="1" stop-color="#FCE6AA"/>
</linearGradient>
<linearGradient id="paint1_linear_423_10494" x1="-6219.33" y1="593.888" x2="-7288.33" y2="593.888" gradientUnits="userSpaceOnUse">
<stop offset="0.011" stop-color="#FAD46A"/>
<stop offset="1" stop-color="#FCE6AA"/>
</linearGradient>
<linearGradient id="paint2_linear_423_10494" x1="-2365.66" y1="1798.16" x2="-3434.66" y2="1798.16" gradientUnits="userSpaceOnUse">
<stop offset="0.011" stop-color="#FAD46A"/>
<stop offset="1" stop-color="#FCE6AA"/>
</linearGradient>
<linearGradient id="paint3_linear_423_10494" x1="41.347" y1="20.7277" x2="27.9384" y2="7.31898" gradientUnits="userSpaceOnUse">
<stop offset="0.004" stop-color="#F1CCCD"/>
<stop offset="1" stop-color="#FAEEEE"/>
</linearGradient>
<linearGradient id="paint4_linear_423_10494" x1="46.389" y1="49.4914" x2="22.8954" y2="25.9979" gradientUnits="userSpaceOnUse">
<stop offset="0.015" stop-color="#CACAD5"/>
<stop offset="1" stop-color="#DCDCE3"/>
</linearGradient>
<linearGradient id="paint5_linear_423_10494" x1="41.4785" y1="16.2075" x2="30.1355" y2="4.86426" gradientUnits="userSpaceOnUse">
<stop offset="0.011" stop-color="#606082"/>
<stop offset="1" stop-color="#83839E"/>
</linearGradient>
<linearGradient id="paint6_linear_423_10494" x1="-5714.74" y1="29937.1" x2="-17384.5" y2="20463.4" gradientUnits="userSpaceOnUse">
<stop offset="0.004" stop-color="#F1CCCD"/>
<stop offset="1" stop-color="#FAEEEE"/>
</linearGradient>
<linearGradient id="paint7_linear_423_10494" x1="105.267" y1="97.8443" x2="76.1973" y2="68.7747" gradientUnits="userSpaceOnUse">
<stop offset="0.011" stop-color="#01081E"/>
<stop offset="1" stop-color="#000112"/>
</linearGradient>
</defs>
</svg>
