<svg width="24" height="24" viewBox="0 0 24 24" fill="none" xmlns="http://www.w3.org/2000/svg">
<path d="M2 16C2.825 16 3.5 16.675 3.5 17.5C3.5 17.775 3.725 18 4 18H20C20.275 18 20.5 17.775 20.5 17.5C20.5 16.675 21.175 16 22 16C22.275 16 22.5 15.775 22.5 15.5V8.5C22.5 8.225 22.275 8 22 8C21.175 8 20.5 7.325 20.5 6.5C20.5 6.225 20.275 6 20 6H4C3.725 6 3.5 6.225 3.5 6.5C3.5 7.325 2.825 8 2 8C1.725 8 1.5 8.225 1.5 8.5V15.5C1.5 15.775 1.725 16 2 16ZM2.5 8.95C3.475 8.75 4.25 7.975 4.45 7H19.55C19.75 7.975 20.525 8.75 21.5 8.95V15.05C20.525 15.25 19.75 16.025 19.55 17H4.45C4.25 16.025 3.475 15.25 2.5 15.05V8.95Z" fill="white"/>
<path d="M9.78 13.06L9.425 15.115C9.395 15.305 9.47 15.49 9.625 15.605C9.71 15.67 9.815 15.7 9.92 15.7C10 15.7 10.08 15.68 10.155 15.64L12 14.67L13.845 15.64C14.01 15.725 14.22 15.71 14.37 15.6C14.525 15.485 14.6 15.3 14.57 15.11L14.215 13.055L15.71 11.6C15.85 11.465 15.895 11.27 15.835 11.09C15.775 10.91 15.62 10.775 15.43 10.75L13.365 10.45L12.445 8.58C12.28 8.25 11.71 8.25 11.55 8.58L10.625 10.45L8.56 10.75C8.375 10.775 8.215 10.91 8.155 11.09C8.095 11.275 8.145 11.47 8.28 11.6L9.78 13.06ZM11.035 11.4C11.2 11.375 11.34 11.275 11.41 11.125L12 9.93L12.59 11.125C12.665 11.275 12.805 11.375 12.965 11.4L14.285 11.59L13.33 12.52C13.21 12.635 13.16 12.8 13.185 12.965L13.41 14.28L12.23 13.66C12.16 13.62 12.08 13.6 11.995 13.6C11.91 13.6 11.83 13.62 11.765 13.66L10.585 14.28L10.81 12.965C10.835 12.805 10.785 12.635 10.665 12.525L9.71 11.595L11.035 11.4ZM6 9.5C6.275 9.5 6.5 9.275 6.5 9V8C6.5 7.725 6.275 7.5 6 7.5C5.725 7.5 5.5 7.725 5.5 8V9C5.5 9.275 5.725 9.5 6 9.5ZM6 13C6.275 13 6.5 12.775 6.5 12.5V11.5C6.5 11.225 6.275 11 6 11C5.725 11 5.5 11.225 5.5 11.5V12.5C5.5 12.775 5.725 13 6 13ZM6 16.5C6.275 16.5 6.5 16.275 6.5 16V15C6.5 14.725 6.275 14.5 6 14.5C5.725 14.5 5.5 14.725 5.5 15V16C5.5 16.275 5.725 16.5 6 16.5Z" fill="#00C4C3"/>
</svg>
