<svg width="14" height="18" viewBox="0 0 14 18" fill="none" xmlns="http://www.w3.org/2000/svg">
<path fill-rule="evenodd" clip-rule="evenodd" d="M7 8.36805C9.14422 8.36805 10.8892 6.49113 10.8892 4.18425C10.8892 1.87737 9.14422 0 7 0C4.85578 0 3.1112 1.87693 3.1112 4.1838C3.1112 6.49068 4.85578 8.36805 7 8.36805ZM7 1.32023C8.46807 1.32023 9.66207 2.60481 9.66207 4.18381C9.66207 5.7628 8.46807 7.04782 7 7.04782C5.53234 7.04782 4.33834 5.76324 4.33834 4.18425C4.33834 2.60525 5.53234 1.32023 7 1.32023ZM0 17.3399C0 13.1873 3.13984 9.80886 7 9.80886C10.8602 9.80886 14 13.1873 14 17.3399C14 17.7043 13.7251 18 13.3864 18C13.0477 18 12.7729 17.7043 12.7729 17.3399C12.7729 13.9152 10.1832 11.1291 7 11.1291C4.02419 11.1291 1.56665 13.5645 1.25945 16.6798H10.9649C11.3036 16.6798 11.5784 16.9755 11.5784 17.3399C11.5784 17.7043 11.3036 18 10.9649 18H0.613569C0.27447 18 0 17.7043 0 17.3399Z" fill="#01081E"/>
</svg>
