<svg width="512" height="155" viewBox="0 0 512 155" fill="none" xmlns="http://www.w3.org/2000/svg">
<path d="M297.965 123.392C281.623 123.392 272.663 121.152 258.903 115.499L253.805 113.173L248.023 146.773C257.965 150.869 275.885 154.389 294.423 154.667C337.965 154.667 366.423 134.464 366.765 103.381C367.106 86.293 355.885 73.323 332.183 62.635C317.805 55.701 308.845 51.051 308.845 44.011C308.845 37.781 316.503 31.147 332.503 31.147C346.263 30.933 355.885 33.856 363.543 36.885L367.383 38.592L373.165 6.123L372.162 6.336C363.906 3.264 351.042 0 335.042 0C294.082 0 265.175 20.352 264.962 49.515C264.706 70.955 285.527 83.029 301.25 90.219C317.399 97.579 322.797 102.208 322.754 108.821C322.647 118.869 309.847 123.392 297.965 123.392ZM478.466 2.752H446.466C436.503 2.752 429.058 5.41899 424.685 15.189L363.138 152.576H406.679L415.383 130.091L468.503 130.133C469.805 135.381 473.623 152.576 473.623 152.576H512.002L478.466 2.752ZM427.309 99.349L443.821 57.472C443.607 57.899 447.234 48.811 449.325 43.179L452.162 56.107L461.741 99.349H427.309Z" fill="white"/>
<path d="M180.141 151.382H221.613L247.533 1.49417H206.082V1.45117L180.141 151.382Z" fill="white"/>
<path d="M105.024 104.917L100.715 84.0955V84.1595L86.1653 15.3385C83.6693 5.80253 76.3733 2.98653 67.328 2.64453H0.533333L0 5.80254C15.04 9.32254 28.5867 14.4205 40.704 20.6715C42.88 22.0155 43.7973 23.4875 44.544 25.6635L80.384 152.363H124.203L189.504 2.75153H145.579L105.024 104.917Z" fill="white"/>
</svg>
