<svg width="12" height="12" viewBox="0 0 12 12" fill="none" xmlns="http://www.w3.org/2000/svg">
<path d="M6 6C5.70333 6 5.41332 6.08797 5.16664 6.2528C4.91997 6.41762 4.72771 6.65189 4.61418 6.92597C4.50065 7.20006 4.47094 7.50166 4.52882 7.79264C4.5867 8.08361 4.72956 8.35088 4.93934 8.56066C5.14912 8.77044 5.41639 8.9133 5.70736 8.97118C5.99834 9.02906 6.29994 8.99935 6.57403 8.88582C6.84811 8.77229 7.08238 8.58003 7.2472 8.33335C7.41203 8.08668 7.5 7.79667 7.5 7.5C7.5 7.10218 7.34196 6.72064 7.06066 6.43934C6.77936 6.15804 6.39782 6 6 6ZM6 8C5.90111 8 5.80444 7.97068 5.72221 7.91573C5.63999 7.86079 5.5759 7.7827 5.53806 7.69134C5.50022 7.59998 5.49031 7.49945 5.50961 7.40245C5.5289 7.30546 5.57652 7.21637 5.64645 7.14645C5.71637 7.07652 5.80546 7.0289 5.90245 7.00961C5.99945 6.99031 6.09998 7.00022 6.19134 7.03806C6.2827 7.0759 6.36079 7.13999 6.41573 7.22221C6.47068 7.30444 6.5 7.40111 6.5 7.5C6.5 7.63261 6.44732 7.75979 6.35355 7.85355C6.25979 7.94732 6.13261 8 6 8ZM5.645 4.855C5.69255 4.90052 5.74862 4.9362 5.81 4.96C5.86985 4.98645 5.93456 5.00012 6 5.00012C6.06544 5.00012 6.13015 4.98645 6.19 4.96C6.25138 4.9362 6.30745 4.90052 6.355 4.855L7.5 3.73C7.5968 3.6332 7.65119 3.5019 7.65119 3.365C7.65119 3.2281 7.5968 3.0968 7.5 3C7.4032 2.9032 7.2719 2.84881 7.135 2.84881C6.9981 2.84881 6.8668 2.9032 6.77 3L6.5 3.295V1.5C6.5 1.36739 6.44732 1.24021 6.35355 1.14645C6.25979 1.05268 6.13261 1 6 1C5.86739 1 5.74021 1.05268 5.64645 1.14645C5.55268 1.24021 5.5 1.36739 5.5 1.5V3.295L5.23 3C5.1332 2.9032 5.0019 2.84881 4.865 2.84881C4.7281 2.84881 4.5968 2.9032 4.5 3C4.4032 3.0968 4.34881 3.2281 4.34881 3.365C4.34881 3.5019 4.4032 3.6332 4.5 3.73L5.645 4.855ZM9.5 7.5C9.5 7.40111 9.47068 7.30444 9.41574 7.22221C9.36079 7.13999 9.2827 7.0759 9.19134 7.03806C9.09998 7.00022 8.99944 6.99031 8.90245 7.00961C8.80546 7.0289 8.71637 7.07652 8.64645 7.14645C8.57652 7.21637 8.5289 7.30546 8.50961 7.40245C8.49031 7.49945 8.50022 7.59998 8.53806 7.69134C8.5759 7.7827 8.63999 7.86079 8.72221 7.91573C8.80444 7.97068 8.90111 8 9 8C9.13261 8 9.25979 7.94732 9.35355 7.85355C9.44732 7.75979 9.5 7.63261 9.5 7.5ZM10 4H8.5C8.36739 4 8.24021 4.05268 8.14645 4.14645C8.05268 4.24021 8 4.36739 8 4.5C8 4.63261 8.05268 4.75979 8.14645 4.85355C8.24021 4.94732 8.36739 5 8.5 5H10C10.1326 5 10.2598 5.05268 10.3536 5.14645C10.4473 5.24021 10.5 5.36739 10.5 5.5V9.5C10.5 9.63261 10.4473 9.75979 10.3536 9.85355C10.2598 9.94732 10.1326 10 10 10H2C1.86739 10 1.74021 9.94732 1.64645 9.85355C1.55268 9.75979 1.5 9.63261 1.5 9.5V5.5C1.5 5.36739 1.55268 5.24021 1.64645 5.14645C1.74021 5.05268 1.86739 5 2 5H3.5C3.63261 5 3.75979 4.94732 3.85355 4.85355C3.94732 4.75979 4 4.63261 4 4.5C4 4.36739 3.94732 4.24021 3.85355 4.14645C3.75979 4.05268 3.63261 4 3.5 4H2C1.60218 4 1.22064 4.15804 0.93934 4.43934C0.658035 4.72064 0.5 5.10218 0.5 5.5V9.5C0.5 9.89782 0.658035 10.2794 0.93934 10.5607C1.22064 10.842 1.60218 11 2 11H10C10.3978 11 10.7794 10.842 11.0607 10.5607C11.342 10.2794 11.5 9.89782 11.5 9.5V5.5C11.5 5.10218 11.342 4.72064 11.0607 4.43934C10.7794 4.15804 10.3978 4 10 4ZM2.5 7.5C2.5 7.59889 2.52932 7.69556 2.58427 7.77779C2.63921 7.86001 2.7173 7.9241 2.80866 7.96194C2.90002 7.99978 3.00055 8.00969 3.09755 7.99039C3.19454 7.9711 3.28363 7.92348 3.35355 7.85355C3.42348 7.78363 3.4711 7.69454 3.49039 7.59755C3.50969 7.50055 3.49978 7.40002 3.46194 7.30866C3.4241 7.2173 3.36001 7.13921 3.27779 7.08427C3.19556 7.02932 3.09889 7 3 7C2.86739 7 2.74021 7.05268 2.64645 7.14645C2.55268 7.24021 2.5 7.36739 2.5 7.5Z" fill="#01081E"/>
</svg>
