<svg width="22" height="22" viewBox="0 0 22 22" fill="none" xmlns="http://www.w3.org/2000/svg">
<path fill-rule="evenodd" clip-rule="evenodd" d="M0.175785 10.7518C0.180706 4.90541 4.92276 0.169888 10.7692 0.174809C16.6124 0.179729 21.3462 4.91686 21.3462 10.76C21.3372 16.6057 16.5985 21.3403 10.7528 21.3453C4.90639 21.3403 0.170865 16.5983 0.175785 10.7518ZM1.92965 10.7601C1.92965 15.6332 5.88025 19.5838 10.7534 19.5838C15.6265 19.5838 19.5771 15.6332 19.5771 10.7601C19.5722 5.88858 15.6249 1.94124 10.7534 1.93632C5.88025 1.93632 1.92965 5.88692 1.92965 10.7601Z" fill="white"/>
<path fill-rule="evenodd" clip-rule="evenodd" d="M13.6105 10.2439C14.3184 9.8449 14.701 9.04613 14.5691 8.24484C14.4053 7.00773 12.9306 6.5407 11.7671 6.44242V4.58264H10.6201V6.42604H9.85002V4.58264H8.70301V6.42604H6.39258V7.61403H7.25283C7.63791 7.61403 7.82634 7.72873 7.82634 8.04004V13.1442C7.82634 13.5702 7.61331 13.7014 7.38391 13.7014H6.50728V14.9139H8.73576V16.7983H9.89095V14.9139H10.6611V16.7983H11.7835V14.9139H12.0293C14.3888 14.9139 15.1754 13.7587 15.1754 12.1857C15.1565 11.2582 14.5134 10.4602 13.6105 10.2439ZM9.85028 7.68778H10.6696C11.2431 7.68778 12.3737 7.78611 12.3737 8.72009C12.413 9.32965 11.9714 9.86383 11.3659 9.94082H9.85028V7.68778ZM11.1202 13.5785V13.5866C12.3491 13.5866 12.9636 13.0705 12.9636 12.1529C12.9636 11.2353 11.6691 11.1206 11.325 11.1206H9.85028V13.5785H11.1202Z" fill="white"/>
</svg>
