<svg width="315" height="184" viewBox="0 0 315 184" fill="none" xmlns="http://www.w3.org/2000/svg">
<rect width="315" height="184" rx="20" fill="url(#paint0_linear_20_16)"/>
<rect x="26.875" y="34" width="41.25" height="30" rx="6.25" fill="url(#paint1_radial_20_16)"/>
<path fill-rule="evenodd" clip-rule="evenodd" d="M47.5 34.2985L42.9166 42.1385C42.9166 42.1385 44.75 48.9985 42.9166 54.8785L47.5 63.6985L52.0833 54.8785C52.0833 54.8785 50.25 49.9785 52.0833 42.1385C52.0833 42.1385 47.5 34.2985 47.5 34.2985Z" stroke="#4F4F07" stroke-width="1.625" stroke-linejoin="bevel"/>
<path d="M26.875 42.4987H42.9167" stroke="#4F4F07" stroke-width="1.625" stroke-linejoin="bevel"/>
<path d="M51.6245 42.4987H68.1245" stroke="#4F4F07" stroke-width="1.625" stroke-linejoin="bevel"/>
<path d="M26.875 54.4982H42.9167" stroke="#4F4F07" stroke-width="1.625" stroke-linejoin="bevel"/>
<path d="M51.6245 54.4982H68.1245" stroke="#4F4F07" stroke-width="1.625" stroke-linejoin="bevel"/>
<path d="M157.871 46L118.079 69V115L157.871 138L197.921 115V69L157.871 46ZM194.256 112.888L157.871 133.879L121.408 112.888V70.9061L157.871 49.9406L194.256 70.9061V112.888Z" fill="white"/>
<path d="M147.652 93.288L138.336 87.3644L127.808 95.1941L142.181 120.125H147.91L154.697 113.79V110.647L147.652 103.899V93.288ZM168.09 93.288V103.899L161.071 110.621L161.097 113.815L167.883 120.048H173.535L187.805 95.1941L177.302 87.2866L168.09 93.288ZM138.466 81.9035L177.302 81.9296L173.509 65.9352H142.078L138.466 81.9035Z" fill="white"/>
<path d="M164.71 93.288L168.064 84.3507H147.678L151.11 93.288L150.052 103.255L165.69 103.23L164.71 93.288Z" fill="white"/>
<g clip-path="url(#clip0_20_16)">
<path d="M262.828 164.752C260.753 164.752 259.615 164.468 257.869 163.75L257.221 163.455L256.487 167.72C257.749 168.24 260.024 168.687 262.378 168.722C267.906 168.722 271.519 166.158 271.562 162.211C271.605 160.042 270.181 158.395 267.172 157.039C265.346 156.158 264.209 155.568 264.209 154.674C264.209 153.883 265.181 153.041 267.212 153.041C268.959 153.014 270.181 153.385 271.153 153.77L271.64 153.986L272.374 149.864L272.247 149.891C271.199 149.501 269.566 149.087 267.535 149.087C262.335 149.087 258.665 151.671 258.638 155.373C258.605 158.095 261.249 159.628 263.245 160.54C265.295 161.475 265.98 162.063 265.975 162.902C265.961 164.178 264.336 164.752 262.828 164.752ZM285.743 149.436H281.68C280.415 149.436 279.47 149.775 278.915 151.015L271.102 168.457H276.629L277.734 165.602L284.478 165.608C284.643 166.274 285.128 168.457 285.128 168.457H290L285.743 149.436ZM279.248 161.7L281.344 156.383C281.317 156.437 281.778 155.284 282.043 154.569L282.403 156.21L283.619 161.7H279.248Z" fill="white"/>
<path d="M247.869 168.305H253.134L256.425 149.277H251.163V149.271L247.869 168.305Z" fill="white"/>
<path d="M238.333 162.406L237.786 159.763V159.771L235.939 151.034C235.622 149.824 234.696 149.466 233.548 149.423H225.068L225 149.824C226.909 150.27 228.629 150.918 230.167 151.711C230.444 151.882 230.56 152.069 230.655 152.345L235.205 168.43H240.768L249.058 149.436H243.482L238.333 162.406Z" fill="white"/>
</g>
<defs>
<linearGradient id="paint0_linear_20_16" x1="315" y1="92" x2="-1.97693e-05" y2="92" gradientUnits="userSpaceOnUse">
<stop stop-color="#005A82"/>
<stop offset="0.504418" stop-color="#002D49"/>
<stop offset="1" stop-color="#005883"/>
</linearGradient>
<radialGradient id="paint1_radial_20_16" cx="0" cy="0" r="1" gradientUnits="userSpaceOnUse" gradientTransform="translate(50.5629 44.928) rotate(138.849) scale(28.9827 29.2075)">
<stop stop-color="#FFC700"/>
<stop offset="1" stop-color="#DDDCDA"/>
</radialGradient>
<clipPath id="clip0_20_16">
<rect width="65" height="19.6777" fill="white" transform="translate(225 149.087)"/>
</clipPath>
</defs>
</svg>
