<svg width="24" height="24" viewBox="0 0 24 24" fill="none" xmlns="http://www.w3.org/2000/svg">
<path d="M20.7314 10.3545H17.5739C17.6568 10.0769 17.6633 9.78216 17.5928 9.50118C17.5223 9.22021 17.3775 8.9634 17.1734 8.75776L12.5722 4.15576C12.2094 3.80939 11.7271 3.61612 11.2256 3.61612C10.724 3.61612 10.2417 3.80939 9.87893 4.15576L1.92218 12.1125C1.56495 12.4698 1.36426 12.9543 1.36426 13.4595C1.36426 13.9647 1.56495 14.4493 1.92218 14.8065L6.94193 19.8263C7.11884 20.0039 7.32928 20.1447 7.56103 20.2403C7.79278 20.336 8.04122 20.3847 8.29193 20.3835H20.7314C21.2363 20.3829 21.7203 20.1821 22.0773 19.8251C22.4343 19.4681 22.6351 18.9841 22.6357 18.4793V12.2588C22.6351 11.7539 22.4343 11.2699 22.0773 10.9129C21.7203 10.5559 21.2363 10.3551 20.7314 10.3545ZM16.6814 10.3545H9.68768L13.6574 6.38551L16.6012 9.33001C16.7329 9.46415 16.813 9.64048 16.8274 9.8279C16.8418 10.0153 16.7896 10.2018 16.6799 10.3545H16.6814ZM2.17493 13.4595C2.17444 13.3156 2.20249 13.173 2.25746 13.0401C2.31243 12.9071 2.39323 12.7863 2.49518 12.6848L10.4512 4.72501C10.6597 4.52564 10.9371 4.41437 11.2256 4.41437C11.514 4.41437 11.7914 4.52564 11.9999 4.72501L12.4177 5.14201L2.91143 14.6513L2.49368 14.2343C2.39213 14.1325 2.3117 14.0117 2.257 13.8787C2.2023 13.7457 2.17441 13.6033 2.17493 13.4595ZM4.15268 15.8918L7.57493 12.4695V18.4793C7.57625 18.8389 7.68033 19.1908 7.87493 19.4933C7.74069 19.4382 7.6188 19.3569 7.51643 19.254L4.15268 15.8918ZM21.8249 18.4793C21.8245 18.7694 21.7093 19.0475 21.5044 19.2528C21.2994 19.4582 21.0215 19.574 20.7314 19.575H9.48143C9.19094 19.5746 8.91247 19.459 8.70706 19.2536C8.50165 19.0482 8.38608 18.7698 8.38568 18.4793V12.2588C8.38608 11.9683 8.50165 11.6898 8.70706 11.4844C8.91247 11.279 9.19094 11.1634 9.48143 11.163H20.7314C21.0215 11.164 21.2994 11.2798 21.5044 11.4852C21.7093 11.6905 21.8245 11.9687 21.8249 12.2588V18.4793Z" fill="black"/>
<path d="M11.589 15.489H9.28271V16.2975H11.589V15.489Z" fill="#00C4C3"/>
<path d="M14.6979 15.489H12.3916V16.2975H14.6979V15.489Z" fill="#00C4C3"/>
<path d="M17.8065 15.489H15.5002V16.2975H17.8065V15.489Z" fill="#00C4C3"/>
<path d="M20.9144 15.489H18.6082V16.2975H20.9144V15.489Z" fill="#00C4C3"/>
<path d="M20.9152 17.5298H15.5002V18.3383H20.9152V17.5298Z" fill="#00C4C3"/>
</svg>
