<svg width="16" height="16" viewBox="0 0 16 16" fill="none" xmlns="http://www.w3.org/2000/svg">
<path fill-rule="evenodd" clip-rule="evenodd" d="M11.0984 14.8635C11.2611 14.9533 11.4424 15.0001 11.6265 15L11.626 14.998C11.9598 14.9968 12.2762 14.8426 12.4911 14.5763C12.7059 14.3099 12.7974 13.9585 12.7412 13.6154L12.1642 10.1078C12.1554 10.052 12.1735 9.99524 12.2127 9.95613L14.658 7.47211C14.967 7.15768 15.0779 6.68759 14.9441 6.25958C14.8103 5.83156 14.455 5.51989 14.0276 5.45567L10.6485 4.94411C10.5952 4.93577 10.5493 4.90086 10.5253 4.85059L9.0149 1.65937C8.82417 1.25567 8.43 1 7.99834 1C7.56668 1 7.17251 1.25567 6.98178 1.65937L5.47234 4.8516C5.44859 4.90204 5.40251 4.93703 5.34918 4.94512L1.97294 5.45618C1.54532 5.52004 1.18968 5.8317 1.05583 6.25989C0.921975 6.68807 1.03318 7.15835 1.34259 7.47261L3.78543 9.95815C3.82475 9.99717 3.84292 10.054 3.83392 10.1098L3.25691 13.6175C3.1838 14.061 3.35864 14.5093 3.70787 14.7738C4.0571 15.0383 4.52012 15.0731 4.90212 14.8635L7.92391 13.2075C7.97148 13.181 8.0286 13.181 8.07616 13.2075L11.0984 14.8635ZM8.52497 12.3198C8.36324 12.23 8.18304 12.183 8.00007 12.1831C7.81716 12.1831 7.63701 12.2298 7.47517 12.3193L4.46906 13.9786C4.41409 14.0093 4.34724 14.0045 4.29678 13.9662C4.24631 13.9278 4.22106 13.8627 4.2317 13.7983L4.80629 10.2832C4.86859 9.89923 4.74743 9.50758 4.48208 9.2353L2.0496 6.74591C2.00493 6.70058 1.98877 6.6325 2.00795 6.57047C2.02713 6.50844 2.07831 6.4633 2.13982 6.45417L5.50101 5.94008C5.86861 5.88439 6.18643 5.64205 6.35059 5.29229L7.85244 2.09533C7.87993 2.03695 7.93659 2 7.99862 2C8.06065 2 8.11731 2.03695 8.1448 2.09533L9.64955 5.2933C9.81361 5.64293 10.1312 5.88524 10.4986 5.9411L13.8603 6.45417C13.9217 6.46351 13.9727 6.50858 13.9919 6.57048C14.0112 6.63237 13.9953 6.70036 13.951 6.74591L11.5181 9.2353C11.2527 9.50758 11.1315 9.89923 11.1938 10.2832L11.7684 13.7983C11.7806 13.8628 11.755 13.9287 11.7033 13.9659C11.6538 14.0062 11.586 14.0112 11.5316 13.9786L8.52497 12.3198Z" fill="#848484"/>
</svg>
