<svg width="24" height="24" viewBox="0 0 24 24" fill="none" xmlns="http://www.w3.org/2000/svg">
<path d="M14.5078 14.4297H20.8359C21.0281 14.4297 21.1875 14.2703 21.1875 14.0781C21.1875 13.8859 21.0281 13.7266 20.8359 13.7266H14.5078C14.3156 13.7266 14.1562 13.8859 14.1562 14.0781C14.1562 14.2703 14.3156 14.4297 14.5078 14.4297ZM22.2422 4H1.75781C0.7875 4 0 4.7875 0 5.75781V17.5234C0 18.4938 0.7875 19.2812 1.75781 19.2812H22.2422C23.2125 19.2812 24 18.4938 24 17.5234V5.75781C24 4.7875 23.2125 4 22.2422 4ZM0.703125 5.75781C0.703125 5.17656 1.17656 4.70312 1.75781 4.70312H7.52344V8.15781C7.27969 8.20469 7.05 8.30781 6.85312 8.44375L5.15156 7.57188C4.70625 7.34219 4.18125 7.36094 3.75469 7.62344C3.32812 7.88594 3.07031 8.34062 3.07031 8.84219V9.67188H0.703125V5.75781ZM6.47344 11.0031L4.82812 11.8469C4.60312 11.9641 4.33594 11.9547 4.11563 11.8187C3.9 11.6875 3.76875 11.4531 3.76875 11.2V8.84687C3.76875 8.59375 3.9 8.35938 4.11563 8.22813C4.33125 8.09688 4.59844 8.08281 4.82812 8.2L6.35156 8.97813C6.1875 9.25 6.09375 9.56875 6.09375 9.90625C6.09375 10.3188 6.23438 10.7031 6.47344 11.0031ZM7.52344 18.5781H1.75781C1.17656 18.5781 0.703125 18.1047 0.703125 17.5234V10.375H3.07031V11.2C3.07031 11.7016 3.32812 12.1563 3.75469 12.4188C3.98437 12.5594 4.24219 12.6297 4.5 12.6297C4.72031 12.6297 4.94531 12.5781 5.15156 12.4703L7.06406 11.4906C7.20469 11.5656 7.35938 11.6172 7.52344 11.65V18.5781ZM6.79688 9.90625C6.79688 9.31094 7.27969 8.82812 7.875 8.82812C8.47031 8.82812 8.95312 9.31094 8.95312 9.90625C8.95312 10.5016 8.47031 10.9844 7.875 10.9844C7.27969 10.9844 6.79688 10.5016 6.79688 9.90625ZM23.2969 17.5234C23.2969 18.1047 22.8234 18.5781 22.2422 18.5781H8.22656V11.6547C8.38594 11.6219 8.54063 11.5656 8.68594 11.4953L10.5984 12.475C10.8047 12.5828 11.0297 12.6344 11.25 12.6344C11.5078 12.6344 11.7656 12.5641 11.9953 12.4234C12.4219 12.1609 12.6797 11.7063 12.6797 11.2047V10.375H23.2969V17.5234ZM9.39844 8.97813L10.9219 8.2C11.1469 8.08281 11.4141 8.09219 11.6344 8.22813C11.85 8.35938 11.9813 8.59375 11.9813 8.84687V11.2C11.9813 11.4531 11.85 11.6875 11.6344 11.8187C11.4187 11.95 11.1516 11.9641 10.9219 11.8469L9.27656 11.0031C9.51562 10.6984 9.65625 10.3188 9.65625 9.90625C9.65625 9.56875 9.5625 9.25 9.39844 8.97813ZM23.2969 9.67188H12.6797V8.84687C12.6797 8.34531 12.4219 7.89062 11.9953 7.62812C11.5687 7.36562 11.0438 7.34687 10.5984 7.57656L8.89688 8.44844C8.7 8.30781 8.475 8.20937 8.23125 8.1625V4.70312H22.2469C22.8281 4.70312 23.3016 5.17656 23.3016 5.75781V9.67188H23.2969ZM14.5078 15.8359H18.0234C18.2156 15.8359 18.375 15.6766 18.375 15.4844C18.375 15.2922 18.2156 15.1328 18.0234 15.1328H14.5078C14.3156 15.1328 14.1562 15.2922 14.1562 15.4844C14.1562 15.6766 14.3156 15.8359 14.5078 15.8359Z" fill="black"/>
<path d="M14.5078 14.4297H20.8359C21.0281 14.4297 21.1875 14.2703 21.1875 14.0781C21.1875 13.8859 21.0281 13.7266 20.8359 13.7266H14.5078C14.3156 13.7266 14.1562 13.8859 14.1562 14.0781C14.1562 14.2703 14.3156 14.4297 14.5078 14.4297ZM22.2422 4H1.75781C0.7875 4 0 4.7875 0 5.75781V17.5234C0 18.4938 0.7875 19.2812 1.75781 19.2812H22.2422C23.2125 19.2812 24 18.4938 24 17.5234V5.75781C24 4.7875 23.2125 4 22.2422 4ZM0.703125 5.75781C0.703125 5.17656 1.17656 4.70312 1.75781 4.70312H7.52344V8.15781C7.27969 8.20469 7.05 8.30781 6.85312 8.44375L5.15156 7.57188C4.70625 7.34219 4.18125 7.36094 3.75469 7.62344C3.32812 7.88594 3.07031 8.34062 3.07031 8.84219V9.67188H0.703125V5.75781ZM6.47344 11.0031L4.82812 11.8469C4.60312 11.9641 4.33594 11.9547 4.11563 11.8187C3.9 11.6875 3.76875 11.4531 3.76875 11.2V8.84687C3.76875 8.59375 3.9 8.35938 4.11563 8.22813C4.33125 8.09688 4.59844 8.08281 4.82812 8.2L6.35156 8.97813C6.1875 9.25 6.09375 9.56875 6.09375 9.90625C6.09375 10.3188 6.23438 10.7031 6.47344 11.0031ZM7.52344 18.5781H1.75781C1.17656 18.5781 0.703125 18.1047 0.703125 17.5234V10.375H3.07031V11.2C3.07031 11.7016 3.32812 12.1563 3.75469 12.4188C3.98437 12.5594 4.24219 12.6297 4.5 12.6297C4.72031 12.6297 4.94531 12.5781 5.15156 12.4703L7.06406 11.4906C7.20469 11.5656 7.35938 11.6172 7.52344 11.65V18.5781ZM6.79688 9.90625C6.79688 9.31094 7.27969 8.82812 7.875 8.82812C8.47031 8.82812 8.95312 9.31094 8.95312 9.90625C8.95312 10.5016 8.47031 10.9844 7.875 10.9844C7.27969 10.9844 6.79688 10.5016 6.79688 9.90625ZM23.2969 17.5234C23.2969 18.1047 22.8234 18.5781 22.2422 18.5781H8.22656V11.6547C8.38594 11.6219 8.54063 11.5656 8.68594 11.4953L10.5984 12.475C10.8047 12.5828 11.0297 12.6344 11.25 12.6344C11.5078 12.6344 11.7656 12.5641 11.9953 12.4234C12.4219 12.1609 12.6797 11.7063 12.6797 11.2047V10.375H23.2969V17.5234ZM9.39844 8.97813L10.9219 8.2C11.1469 8.08281 11.4141 8.09219 11.6344 8.22813C11.85 8.35938 11.9813 8.59375 11.9813 8.84687V11.2C11.9813 11.4531 11.85 11.6875 11.6344 11.8187C11.4187 11.95 11.1516 11.9641 10.9219 11.8469L9.27656 11.0031C9.51562 10.6984 9.65625 10.3188 9.65625 9.90625C9.65625 9.56875 9.5625 9.25 9.39844 8.97813ZM23.2969 9.67188H12.6797V8.84687C12.6797 8.34531 12.4219 7.89062 11.9953 7.62812C11.5687 7.36562 11.0438 7.34687 10.5984 7.57656L8.89688 8.44844C8.7 8.30781 8.475 8.20937 8.23125 8.1625V4.70312H22.2469C22.8281 4.70312 23.3016 5.17656 23.3016 5.75781V9.67188H23.2969ZM14.5078 15.8359H18.0234C18.2156 15.8359 18.375 15.6766 18.375 15.4844C18.375 15.2922 18.2156 15.1328 18.0234 15.1328H14.5078C14.3156 15.1328 14.1562 15.2922 14.1562 15.4844C14.1562 15.6766 14.3156 15.8359 14.5078 15.8359Z" fill="black"/>
<path d="M21 16.2812H15C14.4477 16.2812 14 15.8335 14 15.2813V14.2812C14 13.729 14.4477 13.2812 15 13.2812H21C21.5523 13.2812 22 13.729 22 14.2812V15.2812C22 15.8335 21.5523 16.2812 21 16.2812Z" fill="#00C4C3"/>
</svg>
