<svg width="80" height="40" viewBox="0 0 80 40" fill="none" xmlns="http://www.w3.org/2000/svg">
<path d="M7 30.119L8.4082 31.3995C8.76784 31.7265 9.33672 31.6703 9.62328 31.2795L11.0166 29.379C11.3286 28.9535 11.964 28.9318 12.3051 29.335L14.3912 31.8011C14.745 32.2192 15.4094 32.1775 15.7063 31.7184L17.8579 28.3925C18.1869 27.8839 18.9463 27.9001 19.2527 28.4225L21.1238 31.6126C21.2696 31.8612 21.539 32.0144 21.8304 32.0144H23.1912C23.6008 32.0144 23.947 31.7152 24.0004 31.315L24.3096 28.9947C24.3472 28.7126 24.5333 28.4711 24.799 28.3596L26.8202 27.5113C27.1528 27.3717 27.5391 27.4644 27.7693 27.7392L28.5616 28.6847C28.9017 29.0907 29.5396 29.0704 29.8525 28.6436L32.8576 24.5447C32.9119 24.4707 32.953 24.388 32.9791 24.3003L35.7784 14.9017C35.8804 14.5592 36.1994 14.324 36.5616 14.324H36.9514C37.318 14.324 37.6397 14.0832 37.7378 13.7352L39.1724 8.64752C39.3881 7.88288 40.4783 7.85558 40.733 8.60845L41.985 12.3084C42.2227 13.011 43.2164 13.0502 43.5103 12.3686L44.4075 10.2884C44.6273 9.77875 45.3575 9.77074 45.5887 10.2754C45.8112 10.7611 46.5052 10.7773 46.7509 10.3026L48.1862 7.52918C48.4904 6.9415 49.3438 6.94479 49.6432 7.53479L50.7174 9.65114C50.886 9.9833 51.2636 10.1585 51.6308 10.075L53.3901 9.67507C53.6383 9.61864 53.8991 9.67966 54.095 9.84003L55.8943 11.3125C56.028 11.4219 56.1227 11.5705 56.1647 11.7367L57.8027 18.2157C57.9944 18.974 59.0603 19.0445 59.3531 18.3183L60.4602 15.5729C60.688 15.0079 61.4451 14.8867 61.8427 15.3516L62.3404 15.9335C62.4955 16.1148 62.7239 16.2194 62.9645 16.2194H65.8682C66.1303 16.2194 66.3733 16.0841 66.5085 15.8628C66.8532 15.2986 67.7189 15.4299 67.8755 16.0702L68.4562 18.4466C68.5444 18.8079 68.8725 19.0625 69.2496 19.0625H69.8301C70.2009 19.0625 70.5252 19.3089 70.6194 19.6623L72 24.8407" stroke="#F13005" stroke-linecap="round"/>
</svg>
