<svg width="80" height="40" viewBox="0 0 80 40" fill="none" xmlns="http://www.w3.org/2000/svg">
<path d="M7 33.8758H8.8626C9.10701 33.8758 9.33786 33.7413 9.48857 33.5109L10.3246 32.2333C10.6191 31.7832 11.1764 31.7433 11.5137 32.1482L13.9042 35.0187C14.0534 35.1978 14.256 35.2984 14.4673 35.2984H17.1363C17.3048 35.2984 17.4689 35.2345 17.6049 35.1156L18.4389 34.3873C18.7708 34.0975 19.2325 34.158 19.5041 34.527L20.351 35.6775C20.6338 36.0615 21.1195 36.1091 21.4507 35.7852L25.3554 31.9663C25.6865 31.6425 26.1724 31.6901 26.4551 32.0742L27.1368 33.0002C27.4696 33.4524 28.0652 33.4251 28.3683 32.9439L29.8581 30.5785C29.964 30.4104 30.1135 30.289 30.2832 30.2334L32.8738 29.3851C33.1277 29.302 33.3309 29.0737 33.4162 28.7756L34.5822 24.7028C34.66 24.4309 34.8363 24.2156 35.0619 24.1171L36.8566 23.3336C37.0446 23.2514 37.1999 23.0875 37.2913 22.8745L37.6917 21.9421C37.9821 21.266 38.7846 21.25 39.0937 21.9142L40.6763 25.3161C40.8716 25.7359 41.2977 25.9157 41.6696 25.7352L44.3279 24.4455C44.5527 24.3364 44.7237 24.1104 44.7921 23.8316L46.9138 15.1855C47.0335 14.6978 47.452 14.4087 47.8646 14.5288L48.9898 14.8563C49.3342 14.9566 49.6924 14.7719 49.8681 14.4035L51.1668 11.6817C51.4019 11.1888 51.9429 11.0503 52.3259 11.3848L52.7718 11.7741C53.0161 11.9875 53.3618 11.8893 53.5001 11.5673V11.5673C53.6634 11.1871 54.0997 11.1348 54.3228 11.4687L55.7567 13.6153C56.1562 14.2133 56.952 14.0306 57.1385 13.2981L58.878 6.46222C59.0181 5.91167 59.5311 5.63472 59.9685 5.87346L61.8962 6.92552C62.1994 7.09102 62.5567 7.01261 62.7911 6.72912L64.8148 4.28218C64.9642 4.1016 65.1676 4 65.3799 4H68.3157C68.6716 4 68.9843 4.28323 69.081 4.69335L69.8827 8.09441C70.0657 8.87046 70.9214 9.03971 71.3032 8.37538L73 5.42266" stroke="#1ABC7B" stroke-linecap="round"/>
</svg>
