<svg width="17" height="17" viewBox="0 0 17 17" fill="none" xmlns="http://www.w3.org/2000/svg">
<g clip-path="url(#clip0_577_28629)">
<path opacity="0.4" d="M14.9493 6.35966C14.6281 6.35966 14.3665 6.09678 14.3623 5.76964V4.90852C14.3727 4.17758 14.0971 3.47247 13.5962 2.94887C13.0954 2.42528 12.4106 2.12627 11.6929 2.11787H11.0667C10.7424 2.11787 10.4796 1.85014 10.4796 1.51987C10.4796 1.18961 10.7424 0.921875 11.0667 0.921875H11.6929C13.8362 0.948074 15.5601 2.7253 15.5599 4.90852V5.76166C15.5642 5.91878 15.5058 6.07095 15.3982 6.18358C15.2906 6.29621 15.1428 6.35972 14.9885 6.35966H14.9493ZM1.25047 6.35971C1.09548 6.36179 0.946126 6.30057 0.835793 6.18969C0.72546 6.07881 0.663357 5.92751 0.663372 5.76964V4.90852C0.650816 3.85562 1.05268 2.84144 1.77925 2.09239C2.50582 1.34334 3.49659 0.921797 4.53037 0.921875H5.17226C5.4965 0.921875 5.75936 1.18961 5.75936 1.51987C5.75936 1.85014 5.4965 2.11787 5.17226 2.11787H4.5382C3.81445 2.11561 3.12028 2.4102 2.61221 2.93521C2.10413 3.46022 1.82493 4.17144 1.83756 4.90852V5.76964C1.83328 6.09678 1.57168 6.35971 1.25047 6.35971Z" fill="black"/>
<path d="M15.5362 9.89179V12.1323C15.5111 14.2877 13.8086 16.0324 11.6927 16.0711H11.0586C10.8341 16.0976 10.6146 15.9906 10.4942 15.7958C10.3737 15.601 10.3737 15.3531 10.4942 15.1584C10.6146 14.9636 10.8341 14.8565 11.0586 14.8831H11.6927C13.1854 14.8787 14.3933 13.6448 14.3933 12.1243V9.89179H15.5362ZM5.75909 15.4811C5.75487 15.8095 5.49447 16.0748 5.17199 16.0791H4.5301C2.38684 16.0529 0.662949 14.2756 0.663103 12.0924V9.89179H1.83729V12.1323C1.83727 13.6497 3.04038 14.8823 4.5301 14.891H5.17199C5.32697 14.8889 5.47633 14.9501 5.58666 15.061C5.697 15.1719 5.75909 15.3232 5.75909 15.4811ZM17 9.29379C17 9.62405 16.7371 9.89179 16.4129 9.89179H-0.244936C-0.56918 9.89179 -0.832031 9.62405 -0.832031 9.29379C-0.832031 8.96352 -0.56918 8.69579 -0.244936 8.69579H16.3894C16.5492 8.68928 16.7046 8.74939 16.8198 8.86225C16.9351 8.97511 17 9.13096 17 9.29379Z" fill="black"/>
<path opacity="0.4" d="M12.1635 7.25189V6.22333C12.1635 5.72639 11.9697 5.2498 11.6247 4.89841C11.2798 4.54702 10.8119 4.34961 10.324 4.34961H5.8464C4.83044 4.34961 4.00684 5.1885 4.00684 6.22333V7.25189C4.01088 7.37344 4.10668 7.47101 4.22602 7.47514H11.9444C12.0637 7.47101 12.1595 7.37344 12.1635 7.25189Z" fill="black"/>
<path d="M12.1635 9.89258V10.7856C12.1635 11.8204 11.3399 12.6593 10.324 12.6593H5.8464C4.83044 12.6593 4.00684 11.8204 4.00684 10.7856V9.89258H12.1635Z" fill="black"/>
</g>
<defs>
<clipPath id="clip0_577_28629">
<rect width="17" height="17" fill="white"/>
</clipPath>
</defs>
</svg>
