<svg width="18" height="18" viewBox="0 0 18 18" fill="none" xmlns="http://www.w3.org/2000/svg">
<path fill-rule="evenodd" clip-rule="evenodd" d="M12.8634 11.5138L16.8179 15.0184C17.0176 15.2062 17.1003 15.5575 16.8179 15.8271C16.5354 16.0967 16.1702 16.0149 15.9705 15.8271L11.7335 12.3225C10.5894 13.1941 9.2432 13.5011 7.65508 13.5011C3.97946 13.5011 1 10.7029 1 7.25056C1 3.79825 3.97946 1 7.65508 1C11.3307 1 14.3102 3.79825 14.3107 7.25056C14.3107 8.8644 13.9329 10.4048 12.8634 11.5138ZM2.58179 7.36218C2.58179 10.0422 4.8581 12.2147 7.6661 12.2147C10.4741 12.2147 12.7504 10.0422 12.7504 7.36218C12.7504 4.68221 10.4741 2.50967 7.6661 2.50967C4.8581 2.50967 2.58179 4.68221 2.58179 7.36218Z" fill="#01081E"/>
</svg>
