
<svg width="24" height="24" viewBox="0 0 24 24" fill="none" xmlns="http://www.w3.org/2000/svg">
<path d="M6.18584 24C5.72817 24 5.34863 23.6205 5.34863 23.1628V15.3489C5.34863 14.8912 5.72817 14.5117 6.18584 14.5117C6.64352 14.5117 7.02305 14.8912 7.02305 15.3489V23.1628C7.02305 23.6205 6.64352 24 6.18584 24Z" fill="#848484"/>
<path d="M6.18584 5.02326C5.72817 5.02326 5.34863 4.64372 5.34863 4.18605V0.837209C5.34863 0.379535 5.72817 0 6.18584 0C6.64352 0 7.02305 0.379535 7.02305 0.837209V4.18605C7.02305 4.64372 6.64352 5.02326 6.18584 5.02326Z" fill="#848484"/>
<path d="M18.4651 24C18.0075 24 17.6279 23.6205 17.6279 23.1628V19.814C17.6279 19.3563 18.0075 18.9767 18.4651 18.9767C18.9228 18.9767 19.3023 19.3563 19.3023 19.814V23.1628C19.3023 23.6205 18.9228 24 18.4651 24Z" fill="#848484"/>
<path d="M18.4651 9.48837C18.0075 9.48837 17.6279 9.10884 17.6279 8.65116V0.837209C17.6279 0.379535 18.0075 0 18.4651 0C18.9228 0 19.3023 0.379535 19.3023 0.837209V8.65116C19.3023 9.10884 18.9228 9.48837 18.4651 9.48837Z" fill="#848484"/>
<path fill-rule="evenodd" clip-rule="evenodd" d="M5.06977 16.186H7.30233C9.22233 16.186 10.3721 15.0363 10.3721 13.1163V6.41858C10.3721 4.49858 9.22233 3.34882 7.30233 3.34882H5.06977C3.14977 3.34882 2 4.49858 2 6.41858V13.1163C2 15.0363 3.14977 16.186 5.06977 16.186ZM3.67442 6.41858C3.67442 5.42509 4.07628 5.02323 5.06977 5.02323H7.30233C8.29581 5.02323 8.69767 5.42509 8.69767 6.41858V13.1163C8.69767 14.1097 8.29581 14.5116 7.30233 14.5116H5.06977C4.07628 14.5116 3.67442 14.1097 3.67442 13.1163V6.41858Z" fill="#848484"/>
<path fill-rule="evenodd" clip-rule="evenodd" d="M17.3491 20.6512H19.5816C21.5016 20.6512 22.6514 19.5014 22.6514 17.5814V10.8837C22.6514 8.96373 21.5016 7.81396 19.5816 7.81396H17.3491C15.4291 7.81396 14.2793 8.96373 14.2793 10.8837V17.5814C14.2793 19.5014 15.4291 20.6512 17.3491 20.6512ZM15.9537 10.8837C15.9537 9.89024 16.3556 9.48838 17.3491 9.48838H19.5816C20.5751 9.48838 20.977 9.89024 20.977 10.8837V17.5814C20.977 18.5749 20.5751 18.9768 19.5816 18.9768H17.3491C16.3556 18.9768 15.9537 18.5749 15.9537 17.5814V10.8837Z" fill="#848484"/>
</svg>
